<?xml version="1.0" standalone="no"?>
<!DOCTYPE svg PUBLIC "-//W3C//DTD SVG 20010904//EN"
 "http://www.w3.org/TR/2001/REC-SVG-20010904/DTD/svg10.dtd">
<svg version="1.0" xmlns="http://www.w3.org/2000/svg"
 width="4028.000000pt" height="1600.000000pt" viewBox="0 0 4028.000000 1600.000000"
 preserveAspectRatio="xMidYMid meet">
<metadata>
Created by potrace 1.16, written by Peter Selinger 2001-2019
</metadata>
<g transform="translate(0.000000,1600.000000) scale(0.100000,-0.100000)"
fill="#ffffff" stroke="none">
<path d="M4975 15989 c-579 -37 -1155 -164 -1695 -376 -175 -68 -577 -271
-738 -372 -447 -280 -798 -599 -1089 -989 -126 -167 -207 -298 -309 -497 -268
-520 -398 -1077 -398 -1700 1 -611 131 -1155 405 -1695 192 -378 394 -656 699
-961 340 -341 654 -568 1080 -780 189 -94 238 -113 378 -145 67 -15 119 -30
115 -34 -5 -4 -39 -15 -78 -25 -38 -10 -151 -45 -250 -77 -1645 -543 -2787
-1775 -3039 -3280 -42 -247 -50 -360 -50 -653 0 -300 12 -442 60 -705 154
-842 604 -1646 1247 -2229 602 -546 1302 -912 2187 -1140 563 -146 1157 -215
1850 -215 486 0 832 25 1250 90 1725 268 3054 1144 3706 2444 355 708 487
1477 388 2260 -143 1135 -748 2094 -1739 2757 -425 284 -920 513 -1444 669
-102 31 -193 58 -201 61 -8 3 32 22 90 42 352 126 706 308 1000 514 912 639
1469 1596 1575 2706 19 200 19 584 0 766 -79 741 -355 1419 -811 1990 -117
146 -385 418 -532 539 -756 625 -1717 969 -2891 1036 -209 11 -573 11 -766 -1z
m990 -642 c411 -50 710 -115 1048 -228 1202 -402 2012 -1227 2252 -2293 262
-1169 -106 -2384 -955 -3154 -367 -333 -795 -578 -1305 -747 -351 -117 -669
-181 -1115 -227 -202 -21 -886 -17 -1085 5 -966 110 -1794 444 -2395 964 -614
531 -964 1223 -1040 2053 -13 148 -13 482 0 630 103 1132 733 2016 1815 2547
525 257 1106 407 1805 467 25 2 225 2 445 1 289 -2 436 -7 530 -18z m-180
-7287 c853 -50 1580 -228 2216 -541 470 -231 828 -494 1171 -857 491 -520 794
-1160 895 -1892 24 -177 24 -611 -1 -805 -66 -516 -227 -960 -498 -1365 -259
-390 -569 -693 -993 -974 -199 -132 -273 -175 -491 -284 -678 -339 -1461 -537
-2344 -593 -204 -13 -796 -7 -990 11 -911 80 -1644 286 -2275 639 -817 458
-1406 1137 -1684 1945 -119 344 -172 667 -172 1041 0 541 124 1042 378 1525
446 850 1249 1499 2288 1849 284 96 580 168 896 220 274 45 391 57 799 84 115
8 653 6 805 -3z"/>
<path d="M33305 15510 c-748 -50 -1438 -185 -2102 -411 -877 -299 -1702 -760
-2400 -1340 -351 -293 -742 -689 -1028 -1044 -899 -1114 -1460 -2478 -1619
-3940 -37 -341 -41 -425 -41 -915 0 -490 4 -574 41 -915 170 -1562 792 -2998
1803 -4160 135 -155 461 -486 621 -629 1124 -1010 2519 -1656 4047 -1875 637
-91 1304 -107 1943 -45 1997 192 3892 1176 5141 2670 170 203 411 540 513 717
l28 47 -339 0 -338 0 -102 -133 c-222 -288 -530 -623 -807 -877 -1187 -1089
-2577 -1725 -4121 -1885 -509 -52 -1155 -45 -1675 21 -1436 179 -2768 781
-3825 1726 -154 138 -437 422 -562 563 -747 845 -1277 1862 -1548 2972 -242
987 -280 2055 -109 3078 219 1311 792 2521 1657 3500 120 136 385 402 547 549
979 889 2252 1492 3595 1705 430 68 658 85 1150 85 458 0 592 -8 986 -64 1483
-211 2877 -915 4008 -2025 299 -294 548 -573 731 -822 l75 -102 348 -1 c191 0
347 3 347 6 0 12 -215 322 -308 444 -236 309 -421 520 -716 815 -514 514
-1038 917 -1652 1270 -998 575 -2046 900 -3239 1006 -157 13 -884 20 -1050 9z"/>
<path d="M12110 15252 c0 -5 1417 -3336 3149 -7403 l3150 -7394 213 -2 213 -3
1167 2738 c642 1505 2061 4832 3154 7392 1092 2560 1988 4661 1991 4668 4 9
-65 12 -324 12 l-328 0 -2930 -6899 c-1612 -3794 -2931 -6897 -2933 -6896 -2
2 -1319 3105 -2926 6897 l-2923 6893 -336 3 c-185 1 -337 -2 -337 -6z"/>
</g>
</svg>
