<?xml version="1.0" standalone="no"?>
<!DOCTYPE svg PUBLIC "-//W3C//DTD SVG 20010904//EN"
 "http://www.w3.org/TR/2001/REC-SVG-20010904/DTD/svg10.dtd">
<svg version="1.0" xmlns="http://www.w3.org/2000/svg"
 width="7650.000000pt" height="1600.000000pt" viewBox="0 0 7650.000000 1600.000000"
 preserveAspectRatio="xMidYMid meet">
<metadata>
Created by potrace 1.16, written by Peter Selinger 2001-2019
</metadata>
<g transform="translate(0.000000,1600.000000) scale(0.100000,-0.100000)"
fill="#ffffff" stroke="none">
<path d="M8580 15993 c-363 -35 -599 -89 -868 -198 -359 -146 -644 -337 -927
-620 -233 -233 -378 -432 -519 -716 -130 -261 -221 -550 -267 -850 -30 -195
-33 -610 -6 -796 41 -281 142 -605 264 -847 45 -89 96 -178 863 -1506 345
-597 715 -1239 824 -1428 l197 -342 -255 -443 c-1725 -2994 -3657 -6329 -3707
-6401 -82 -117 -267 -302 -389 -389 -188 -133 -439 -240 -682 -289 -96 -20
-144 -23 -323 -23 -183 0 -224 3 -320 24 -814 174 -1376 858 -1378 1676 0 88
5 196 12 240 28 182 87 369 166 524 20 41 1060 1846 2311 4013 1251 2166 2274
3941 2274 3944 0 3 -38 82 -84 177 -165 338 -261 650 -306 997 -11 85 -24 177
-28 203 l-7 48 -2525 -4371 c-1389 -2405 -2555 -4431 -2593 -4503 -144 -281
-234 -568 -283 -902 -22 -150 -25 -530 -6 -685 83 -653 369 -1235 823 -1675
147 -142 240 -218 411 -332 653 -435 1461 -575 2217 -383 508 129 925 364
1287 725 165 165 247 263 358 430 40 61 808 1383 1706 2940 897 1557 1721
2983 1830 3170 251 432 713 1233 729 1264 12 21 2 42 -112 240 -159 275 -665
1151 -1407 2436 -321 556 -605 1052 -631 1102 -52 101 -107 260 -138 393 -62
269 -52 569 31 853 66 228 244 517 440 715 291 294 649 461 1079 503 134 13
310 1 467 -32 436 -89 831 -356 1074 -724 39 -61 913 -1567 1497 -2583 105
-183 1175 -2037 2378 -4120 1203 -2083 2206 -3828 2230 -3878 131 -277 186
-599 152 -902 -65 -593 -416 -1093 -954 -1359 -214 -106 -427 -160 -671 -170
-570 -23 -1109 232 -1442 683 -48 65 -693 1172 -1865 3202 -986 1707 -1796
3104 -1801 3105 -4 1 -147 -238 -317 -531 -279 -480 -308 -535 -297 -555 97
-182 3273 -5667 3333 -5757 115 -172 199 -274 340 -416 442 -443 1007 -717
1652 -800 172 -22 485 -22 658 0 665 86 1303 416 1732 896 403 451 640 978
709 1575 20 173 15 556 -10 708 -54 330 -136 582 -280 862 -39 77 -1390 2424
-3002 5215 -1612 2791 -2950 5113 -2974 5160 -251 502 -686 938 -1190 1195
-349 177 -669 268 -1070 305 -107 9 -329 11 -410 3z"/>
<path d="M9213 12506 c-192 -48 -349 -203 -398 -393 -31 -118 -14 -265 41
-376 38 -75 4611 -7994 4645 -8043 93 -136 265 -224 437 -224 253 0 464 168
528 420 21 83 15 212 -14 293 -27 76 -4643 8071 -4702 8145 -54 66 -149 133
-234 162 -77 27 -228 35 -303 16z"/>
<path d="M74900 10830 l0 -510 445 0 445 0 0 510 0 510 -445 0 -445 0 0 -510z"/>
<path d="M25903 10999 c-461 -44 -752 -238 -933 -622 -40 -85 -1993 -5016
-2008 -5069 -4 -17 26 -18 535 -18 l540 0 883 2243 c486 1233 896 2267 911
2298 33 66 75 111 133 142 34 18 57 22 136 22 86 0 100 -3 147 -29 29 -16 65
-47 82 -71 22 -30 292 -735 882 -2297 468 -1239 856 -2265 861 -2280 l10 -28
544 0 c299 0 544 2 544 4 0 17 -1911 5031 -1945 5103 -119 253 -313 436 -554
524 -210 76 -494 105 -768 78z"/>
<path d="M52020 10899 c-261 -20 -580 -85 -780 -159 -116 -42 -307 -135 -410
-199 -724 -450 -1084 -1325 -1057 -2566 6 -272 15 -393 43 -585 131 -905 534
-1522 1206 -1845 279 -134 588 -212 963 -244 157 -14 1247 -14 1412 0 1133 92
1843 680 2102 1739 80 329 111 622 111 1041 0 155 -4 341 -10 413 -65 794
-305 1388 -727 1797 -342 332 -807 530 -1408 600 -124 15 -1280 21 -1445 8z
m1360 -989 c751 -98 1114 -502 1222 -1360 21 -169 18 -780 -5 -950 -115 -855
-497 -1248 -1282 -1320 -144 -13 -1096 -13 -1250 1 -392 33 -671 147 -886 359
-205 202 -332 489 -390 884 -69 472 -42 1058 66 1436 175 610 572 909 1270
960 158 12 1152 4 1255 -10z"/>
<path d="M46960 10205 l0 -525 -300 0 -300 0 0 -420 0 -420 299 0 300 0 4
-1177 c4 -1249 4 -1246 53 -1488 97 -483 351 -755 789 -845 164 -34 277 -40
765 -40 l480 0 0 399 0 398 -372 6 c-409 6 -463 12 -574 67 -77 37 -147 112
-183 193 -70 156 -72 203 -69 1427 l3 1055 608 3 607 2 0 420 0 420 -607 2
-608 3 -3 523 -2 522 -445 0 -445 0 0 -525z"/>
<path d="M4805 7258 c-973 -1685 -1779 -3088 -1792 -3119 -32 -79 -43 -172
-32 -264 54 -432 573 -626 893 -334 31 29 70 70 85 93 16 23 736 1267 1601
2766 865 1499 1587 2750 1605 2781 l33 57 -310 538 c-170 297 -311 540 -312
542 -2 1 -799 -1376 -1771 -3060z"/>
<path d="M31110 9669 c-313 -35 -611 -141 -850 -300 -122 -81 -305 -263 -387
-384 -181 -269 -278 -539 -340 -951 -26 -172 -26 -726 0 -899 64 -430 179
-740 369 -997 228 -308 548 -511 959 -608 231 -54 211 -53 1392 -57 l1097 -4
0 -192 c0 -273 -21 -398 -90 -543 -85 -177 -215 -271 -455 -327 -89 -21 -113
-21 -1465 -27 l-1375 -5 -3 -423 -2 -423 1472 4 c1613 4 1549 1 1813 64 145
34 230 65 347 125 347 181 543 501 618 1010 36 242 42 549 37 1978 -5 1470 -4
1449 -62 1736 -147 726 -577 1136 -1285 1224 -102 12 -1678 12 -1790 -1z
m1365 -839 c310 -18 498 -85 640 -229 124 -125 195 -292 224 -526 7 -59 11
-384 11 -947 l0 -858 -984 0 c-1052 0 -1113 2 -1285 50 -450 125 -661 482
-678 1146 -24 904 273 1322 967 1363 181 11 929 12 1105 1z"/>
<path d="M36630 9669 c-207 -24 -422 -87 -580 -170 -344 -180 -553 -485 -633
-923 -22 -119 -22 -135 -22 -1091 0 -963 0 -971 22 -1094 119 -649 536 -1015
1245 -1091 62 -6 608 -10 1523 -10 l1425 0 0 425 0 425 -1322 0 c-728 0 -1375
4 -1438 9 -214 17 -334 63 -443 172 -127 127 -157 229 -157 541 l0 207 1193 4
c1060 3 1204 5 1297 20 157 25 244 46 355 84 405 140 634 412 711 848 27 152
25 489 -4 649 -52 284 -162 500 -338 664 -169 158 -380 255 -689 314 -107 21
-137 22 -1090 24 -539 1 -1014 -2 -1055 -7z m1788 -839 c285 -22 442 -128 518
-350 15 -44 19 -83 18 -200 0 -128 -3 -152 -23 -205 -47 -119 -110 -187 -225
-241 -149 -71 -88 -67 -1333 -71 l-1123 -4 0 281 c0 314 8 375 64 490 42 88
131 177 222 223 90 45 174 67 294 77 142 11 1446 11 1588 0z"/>
<path d="M41305 9664 c-154 -31 -276 -126 -329 -258 -63 -158 -59 -39 -63
-2173 l-4 -1943 446 0 445 0 0 1740 0 1740 29 32 29 33 689 3 c712 3 1053 -6
1208 -33 293 -51 490 -141 646 -295 125 -124 197 -260 242 -455 21 -88 21
-113 24 -1427 l4 -1338 445 0 445 0 -4 1378 c-3 1253 -5 1386 -20 1477 -42
241 -88 390 -177 570 -238 484 -681 787 -1325 910 -265 50 -223 48 -1480 51
-983 2 -1192 0 -1250 -12z"/>
<path d="M58019 9665 c-582 -80 -965 -378 -1162 -905 -68 -183 -117 -422 -137
-674 -6 -83 -10 -921 -10 -2347 l0 -2219 440 0 440 0 0 885 0 885 1063 0 c639
0 1098 4 1152 10 750 83 1258 486 1488 1180 90 270 134 548 144 900 33 1225
-432 2012 -1322 2235 -249 63 -288 65 -1188 64 -609 -1 -836 -4 -908 -14z
m1671 -844 c170 -29 289 -69 398 -133 80 -47 220 -189 270 -273 139 -237 203
-587 188 -1030 -26 -785 -273 -1135 -866 -1227 -66 -10 -307 -13 -1085 -13
l-1000 0 -3 825 c-2 519 1 879 8 970 19 255 73 440 170 579 135 191 352 290
685 311 185 12 1155 5 1235 -9z"/>
<path d="M63420 9669 c-252 -29 -492 -109 -665 -224 -79 -52 -201 -174 -254
-253 -158 -235 -233 -587 -202 -941 32 -355 133 -589 337 -779 180 -169 421
-271 774 -328 89 -14 223 -18 870 -24 837 -8 835 -7 965 -69 83 -38 138 -90
174 -162 43 -86 54 -154 49 -298 -4 -99 -10 -139 -27 -184 -64 -165 -196 -239
-456 -257 -71 -5 -696 -9 -1387 -10 l-1258 0 0 -425 0 -426 1423 4 c1405 3
1423 3 1532 25 173 33 280 68 410 132 286 141 460 343 559 650 57 175 70 276
70 520 0 268 -21 397 -96 574 -149 351 -465 556 -983 638 -120 19 -190 22
-900 28 -679 6 -779 9 -845 24 -247 58 -350 188 -350 446 0 156 37 275 110
354 82 89 194 131 385 146 66 5 659 10 1318 10 l1197 0 0 420 0 420 -1337 -1
c-736 -1 -1372 -5 -1413 -10z"/>
<path d="M69480 9260 l0 -419 1383 -4 c1549 -4 1450 1 1616 -78 151 -71 250
-200 285 -372 12 -55 16 -134 16 -287 l0 -210 -1147 0 c-1142 0 -1235 -3
-1433 -36 -444 -75 -759 -303 -894 -647 -130 -329 -128 -841 5 -1182 166 -427
536 -669 1109 -725 81 -8 487 -10 1360 -8 1223 4 1247 4 1335 25 125 29 199
58 276 109 127 84 195 205 236 418 17 84 18 190 18 1346 0 1250 0 1256 -22
1375 -56 307 -157 524 -327 703 -211 222 -520 360 -898 401 -64 7 -586 11
-1508 11 l-1410 0 0 -420z m3300 -2517 c0 -414 -2 -451 -19 -489 -21 -46 -56
-77 -109 -96 -30 -10 -243 -13 -1057 -13 -1139 0 -1111 -2 -1261 70 -129 62
-209 162 -240 302 -23 105 -16 295 15 374 61 157 168 240 368 283 57 12 243
14 1186 15 l1117 1 0 -447z"/>
<path d="M74900 7485 l0 -2195 440 0 440 0 0 2195 0 2195 -440 0 -440 0 0
-2195z"/>
<path d="M67280 5855 l0 -565 475 0 475 0 0 565 0 565 -475 0 -475 0 0 -565z"/>
</g>
</svg>
