<?xml version="1.0" standalone="no"?>
<!DOCTYPE svg PUBLIC "-//W3C//DTD SVG 20010904//EN"
 "http://www.w3.org/TR/2001/REC-SVG-20010904/DTD/svg10.dtd">
<svg version="1.0" xmlns="http://www.w3.org/2000/svg"
 width="6600.000000pt" height="1600.000000pt" viewBox="0 0 6600.000000 1600.000000"
 preserveAspectRatio="xMidYMid meet">
<metadata>
Created by potrace 1.16, written by Peter Selinger 2001-2019
</metadata>
<g transform="translate(0.000000,1600.000000) scale(0.100000,-0.100000)"
fill="#ffffff" stroke="none">
<path d="M2559 15948 c16 -29 535 -929 1153 -2000 l1123 -1947 2168 -3 2168
-3 1081 -1872 1081 -1873 2309 0 2310 0 -25 43 c-13 23 -471 816 -1017 1762
-546 946 -1006 1739 -1021 1762 -47 67 -134 130 -234 167 -22 8 -654 12 -2260
16 l-2230 5 -1096 1900 c-1188 2061 -1143 1987 -1262 2044 -111 53 7 51 -2215
51 l-2064 0 31 -52z"/>
<path d="M1075 13984 c-561 -971 -1031 -1791 -1043 -1822 -45 -108 -40 -246
14 -355 36 -73 2188 -3797 2194 -3797 6 0 2153 3716 2158 3735 2 9 -2185 3814
-2287 3977 l-16 27 -1020 -1765z"/>
<path d="M23039 11973 c-6 -16 -707 -1805 -1559 -3978 -852 -2172 -1552 -3958
-1555 -3967 -7 -17 29 -18 662 -18 l670 0 210 548 c116 301 275 717 354 924
l144 377 1895 1 1895 0 355 -925 354 -925 699 0 c555 0 698 3 694 13 -2 6
-708 1799 -1567 3982 -859 2184 -1565 3976 -1567 3983 -4 9 -181 12 -839 12
l-834 0 -11 -27z m1010 -1583 c211 -633 295 -864 818 -2230 245 -641 448
-1171 451 -1177 3 -10 -293 -13 -1462 -13 -806 0 -1466 2 -1466 4 0 3 822
2178 910 2406 95 248 342 949 465 1318 l57 173 35 -3 34 -3 158 -475z"/>
<path d="M58230 8005 l0 -3995 610 0 610 0 0 3995 0 3995 -610 0 -610 0 0
-3995z"/>
<path d="M31381 10270 c-724 -61 -1331 -387 -1707 -917 -64 -90 -67 -93 -105
-93 -21 0 -39 3 -40 8 0 4 -24 201 -52 437 l-52 430 -503 3 -502 2 0 -3065 0
-3065 605 0 605 0 0 1788 c0 1037 4 1846 10 1928 27 396 142 688 383 972 170
202 411 362 667 446 168 54 277 70 490 69 406 -1 680 -89 883 -281 143 -136
231 -314 284 -572 16 -79 17 -241 20 -2217 l3 -2133 605 0 605 0 -3 2278 c-3
2075 -4 2287 -20 2386 -46 300 -108 512 -206 703 -261 508 -700 790 -1366 878
-144 19 -460 27 -604 15z"/>
<path d="M48575 10274 c-514 -30 -888 -117 -1241 -290 -721 -354 -1155 -1029
-1304 -2029 -45 -302 -54 -442 -54 -880 -1 -452 9 -606 59 -929 205 -1327 899
-2061 2110 -2235 477 -68 1019 -50 1420 48 587 144 1043 450 1338 896 203 308
328 701 367 1150 5 66 10 157 10 203 l0 82 -584 0 c-523 0 -584 -2 -590 -16
-3 -9 -6 -53 -6 -98 0 -225 -65 -506 -161 -698 -166 -333 -438 -526 -839 -595
-120 -21 -506 -24 -625 -5 -326 53 -561 165 -756 361 -259 260 -405 626 -476
1191 -15 122 -18 223 -18 645 0 552 7 647 66 940 181 889 733 1328 1591 1266
360 -26 609 -116 797 -288 235 -214 350 -526 377 -1020 l7 -123 609 0 608 0 0
83 c0 46 -5 144 -11 218 -71 913 -441 1511 -1145 1855 -273 134 -606 220 -979
253 -122 11 -477 20 -570 15z"/>
<path d="M54260 10269 c-1097 -77 -1849 -516 -2068 -1209 -16 -52 -37 -138
-47 -190 -19 -108 -31 -407 -21 -493 l7 -57 585 0 584 0 0 125 c0 159 19 254
74 371 106 224 357 389 690 453 170 33 340 44 575 38 463 -11 716 -95 908
-301 97 -104 151 -220 195 -416 19 -86 21 -135 25 -502 l5 -408 -134 0 c-587
-1 -1384 -68 -1843 -156 -273 -52 -596 -148 -815 -241 -394 -168 -696 -403
-893 -696 -181 -269 -267 -594 -267 -1010 0 -379 60 -654 193 -882 314 -542
918 -825 1757 -825 495 0 878 81 1255 265 250 122 506 315 682 514 l88 99 3
-369 2 -369 590 0 590 0 0 2265 c0 1525 -3 2298 -11 2363 -32 301 -142 614
-287 818 -305 430 -822 700 -1507 788 -268 35 -637 45 -915 25z m1507 -3766
c-4 -276 -7 -331 -26 -415 -168 -765 -833 -1241 -1695 -1215 -255 7 -404 40
-586 130 -111 54 -238 177 -293 282 -66 129 -82 206 -82 400 0 147 3 181 23
249 44 152 115 270 227 374 171 160 411 276 750 361 283 71 813 127 1330 140
154 4 297 8 319 9 l38 2 -5 -317z"/>
<path d="M63150 10273 c-525 -22 -950 -120 -1325 -303 -248 -121 -415 -241
-601 -432 -467 -478 -709 -1151 -764 -2118 -32 -573 16 -1159 135 -1625 56
-222 119 -394 215 -590 386 -788 1048 -1209 2070 -1317 166 -17 718 -17 865 0
634 75 1115 259 1510 577 437 352 688 884 712 1508 l6 157 -590 0 c-530 0
-591 -2 -597 -16 -3 -9 -6 -43 -6 -77 0 -34 -7 -103 -15 -154 -62 -380 -286
-696 -615 -867 -247 -128 -472 -175 -827 -176 -936 -1 -1416 424 -1573 1393
-21 133 -50 411 -50 489 l0 48 2151 0 2152 0 -6 413 c-7 502 -25 728 -83 1032
-171 897 -609 1514 -1289 1818 -402 180 -919 264 -1475 240z m510 -1002 c274
-48 461 -136 631 -298 106 -101 188 -212 249 -337 114 -234 166 -471 186 -848
l7 -128 -1507 0 -1507 0 5 33 c3 17 8 59 11 92 17 167 69 410 121 564 38 112
135 310 196 398 212 306 573 496 1033 543 143 14 442 5 575 -19z"/>
<path d="M42440 10250 c-589 -55 -1068 -206 -1424 -448 -367 -248 -596 -589
-672 -997 -29 -153 -27 -479 4 -633 54 -267 162 -476 350 -674 161 -169 318
-280 567 -403 244 -119 422 -181 1045 -360 1164 -335 1176 -339 1344 -419 341
-164 480 -347 493 -646 9 -202 -38 -331 -167 -460 -189 -190 -463 -305 -844
-355 -155 -20 -489 -20 -666 1 -433 49 -695 156 -891 362 -145 151 -209 329
-209 585 l0 127 -599 0 -600 0 -7 -46 c-12 -84 3 -391 25 -499 109 -531 432
-929 966 -1190 486 -238 1026 -338 1740 -322 450 10 810 65 1148 174 373 120
650 277 862 488 226 226 375 507 440 829 78 386 46 815 -83 1114 -103 239
-346 498 -612 652 -139 81 -373 185 -590 262 -123 45 -224 74 -715 213 -517
145 -1188 357 -1330 420 -218 98 -369 215 -421 328 -39 86 -57 188 -50 285 20
276 198 465 543 578 361 118 951 124 1303 12 269 -86 460 -235 560 -436 47
-96 62 -159 69 -297 l6 -130 592 -3 592 -2 6 56 c13 100 -1 401 -23 494 -67
284 -186 496 -401 711 -332 332 -807 533 -1451 615 -146 18 -749 28 -900 14z"/>
<path d="M34054 10118 c3 -13 550 -1443 1216 -3178 l1211 -3155 -158 -457
-158 -458 -807 0 -808 0 0 -565 0 -566 1063 3 1062 3 67 26 c37 15 93 42 124
60 75 45 173 153 211 231 17 35 78 200 136 368 58 168 189 546 290 840 102
294 680 1958 1286 3698 606 1739 1101 3164 1101 3167 0 3 -278 4 -617 3 l-618
-3 -746 -2370 c-411 -1303 -756 -2397 -766 -2430 l-19 -60 -35 90 c-20 50
-418 1144 -885 2432 l-849 2343 -654 0 -653 0 6 -22z"/>
<path d="M1635 6953 c-329 -571 -823 -1426 -1097 -1901 -274 -474 -506 -886
-515 -915 -24 -70 -24 -204 0 -275 10 -30 479 -853 1044 -1830 564 -977 1026
-1778 1027 -1779 6 -7 2301 3985 2300 4001 -1 21 -2138 3729 -2152 3734 -4 1
-277 -465 -607 -1035z"/>
<path d="M10252 5878 l-1081 -1873 -2168 -5 -2168 -5 -1151 -1995 -1152 -1995
2051 -3 c1525 -2 2066 0 2107 9 83 17 185 74 237 133 28 32 450 753 1141 1951
l1097 1900 2230 5 c1604 4 2239 8 2260 16 100 37 187 100 234 167 15 23 475
816 1021 1762 546 946 1004 1739 1017 1763 l25 42 -2310 0 -2309 0 -1081
-1872z"/>
</g>
</svg>
