<?xml version="1.0" standalone="no"?>
<!DOCTYPE svg PUBLIC "-//W3C//DTD SVG 20010904//EN"
 "http://www.w3.org/TR/2001/REC-SVG-20010904/DTD/svg10.dtd">
<svg version="1.0" xmlns="http://www.w3.org/2000/svg"
 width="5760.000000pt" height="1600.000000pt" viewBox="0 0 5760.000000 1600.000000"
 preserveAspectRatio="xMidYMid meet">
<metadata>
Created by potrace 1.16, written by Peter Selinger 2001-2019
</metadata>
<g transform="translate(0.000000,1600.000000) scale(0.100000,-0.100000)"
fill="#ffffff" stroke="none">
<path d="M36746 15420 c-508 -64 -937 -412 -1096 -888 -51 -153 -65 -241 -65
-417 0 -176 14 -264 66 -422 145 -440 523 -774 992 -875 145 -31 389 -31 534
0 465 100 831 428 978 878 86 261 85 584 -1 843 -125 373 -428 682 -802 815
-167 59 -431 88 -606 66z"/>
<path d="M6925 13845 c-292 -54 -513 -189 -710 -435 -29 -36 -299 -418 -600
-850 -302 -432 -1440 -2058 -2530 -3615 -2867 -4095 -2685 -3830 -2746 -3988
-62 -162 -72 -217 -72 -392 0 -204 22 -299 118 -490 165 -332 405 -537 720
-617 103 -26 367 -36 487 -18 246 35 495 174 667 370 101 115 123 145 651 905
1174 1689 3432 4926 3513 5035 90 122 262 293 356 355 115 75 207 107 326 113
149 6 280 -36 420 -136 68 -49 194 -171 270 -262 34 -41 663 -937 1397 -1990
2208 -3169 2694 -3864 2760 -3947 65 -83 192 -200 281 -260 208 -139 412 -203
652 -203 195 0 341 35 512 124 316 164 539 464 598 805 44 247 -11 532 -148
766 -77 132 -5727 8239 -5816 8345 -154 184 -329 303 -537 366 -82 25 -105 27
-289 30 -144 2 -222 -1 -280 -11z"/>
<path d="M22325 11810 c-412 -29 -831 -108 -1275 -240 -541 -161 -971 -385
-1405 -729 -160 -127 -465 -433 -599 -601 -208 -260 -412 -588 -546 -880 -227
-489 -354 -956 -426 -1551 -21 -179 -30 -781 -15 -1001 75 -1072 395 -1923
990 -2633 155 -185 438 -451 656 -616 431 -328 1052 -633 1615 -794 411 -118
759 -168 1180 -168 863 -1 1643 248 2485 794 116 75 161 98 197 103 l48 7 2
-358 3 -358 938 -3 937 -2 0 4430 0 4430 -940 0 -940 0 0 -360 c0 -294 -2
-360 -13 -360 -43 0 -114 35 -197 97 -604 446 -1233 696 -1960 778 -167 19
-561 27 -735 15z m753 -1774 c282 -43 555 -126 787 -240 594 -293 1032 -795
1255 -1443 110 -318 158 -602 167 -988 6 -267 -3 -431 -38 -670 -136 -947
-612 -1666 -1348 -2039 -346 -175 -698 -261 -1116 -273 -797 -23 -1511 239
-2038 746 -347 334 -604 808 -707 1306 -50 243 -76 575 -67 870 27 865 362
1649 912 2134 402 354 839 537 1448 606 161 18 600 13 745 -9z"/>
<path d="M52120 11789 c-1910 -152 -3297 -1201 -3874 -2929 -241 -723 -331
-1589 -240 -2300 194 -1525 1121 -2825 2479 -3481 1040 -502 2295 -577 3535
-212 1456 428 2547 1392 2754 2433 13 69 28 155 31 191 l7 66 -53 6 c-68 8
-992 7 -1484 -2 l-370 -7 -50 -26 c-72 -38 -138 -99 -215 -202 -298 -397 -673
-673 -1108 -816 -282 -92 -495 -124 -842 -124 -661 1 -1220 147 -1646 432
-443 297 -758 719 -985 1321 -35 92 -39 114 -39 192 l0 89 3509 0 3509 0 6 58
c29 269 36 769 16 1042 -53 709 -226 1351 -521 1940 -366 728 -868 1284 -1544
1711 -126 80 -466 252 -610 309 -394 155 -800 252 -1245 296 -193 19 -841 27
-1020 13z m789 -1764 c1053 -148 1797 -762 2061 -1700 16 -60 30 -110 30 -112
0 -2 -1114 -3 -2476 -3 l-2476 0 6 38 c13 71 68 254 101 336 169 420 463 773
865 1041 316 210 727 359 1130 410 152 19 597 13 759 -10z"/>
<path d="M33605 11724 c-451 -35 -707 -106 -1080 -298 -230 -118 -386 -210
-885 -521 -398 -248 -443 -275 -454 -275 -3 0 -6 214 -6 475 l0 475 -940 0
-940 0 0 -4435 0 -4435 941 2 940 3 4 1975 c3 2178 5 2244 66 2659 102 698
391 1314 814 1736 389 388 885 636 1470 734 175 30 274 39 525 51 124 5 246
13 273 16 l47 7 0 907 0 907 -62 7 c-75 7 -641 16 -713 10z"/>
<path d="M35982 7223 l3 -4438 928 -3 927 -2 0 4440 0 4440 -930 0 -930 0 2
-4437z"/>
<path d="M39630 10780 l0 -860 2315 -2 2314 -3 -92 -121 c-51 -67 -429 -517
-842 -1000 -1144 -1341 -3518 -4126 -3617 -4244 -49 -57 -103 -134 -121 -169
l-32 -66 -3 -762 -3 -763 3653 2 3653 3 3 882 2 883 -2345 2 -2345 3 91 113
c50 63 1077 1264 2282 2670 1206 1406 2213 2583 2240 2617 26 33 57 85 69 115
21 54 21 66 26 808 l4 752 -3626 0 -3626 0 0 -860z"/>
<path d="M6975 3329 c-305 -32 -581 -160 -805 -375 -558 -536 -554 -1441 8
-1986 267 -259 597 -392 967 -392 374 1 699 137 965 404 203 203 331 438 392
720 31 139 30 394 -1 539 -29 138 -52 204 -117 338 -99 206 -259 389 -454 518
-211 141 -422 213 -688 235 -131 11 -154 11 -267 -1z"/>
</g>
</svg>
