<?xml version="1.0" standalone="no"?>
<!DOCTYPE svg PUBLIC "-//W3C//DTD SVG 20010904//EN"
 "http://www.w3.org/TR/2001/REC-SVG-20010904/DTD/svg10.dtd">
<svg version="1.0" xmlns="http://www.w3.org/2000/svg"
 width="2673.000000pt" height="1600.000000pt" viewBox="0 0 2673.000000 1600.000000"
 preserveAspectRatio="xMidYMid meet">
<metadata>
Created by potrace 1.16, written by Peter Selinger 2001-2019
</metadata>
<g transform="translate(0.000000,1600.000000) scale(0.100000,-0.100000)"
fill="#ffffff" stroke="none">
<path d="M22360 15893 c-312 -29 -451 -51 -655 -103 -497 -127 -890 -332
-1243 -648 -216 -194 -441 -518 -551 -795 -129 -325 -165 -775 -90 -1148 88
-446 362 -911 708 -1201 250 -209 603 -401 966 -525 55 -19 395 -126 755 -238
852 -265 935 -294 1168 -407 338 -164 527 -377 588 -663 22 -107 22 -312 -1
-420 -38 -180 -114 -324 -244 -458 -215 -223 -530 -359 -981 -423 -156 -22
-662 -30 -870 -14 -532 40 -1058 160 -1505 343 -60 25 -164 67 -230 95 -145
59 -195 72 -277 72 -90 0 -134 -27 -173 -105 l-30 -60 0 -325 c0 -347 4 -380
57 -483 84 -165 390 -334 864 -477 1002 -303 2014 -353 2834 -139 777 202
1305 548 1673 1097 190 282 305 603 347 962 15 127 15 423 1 540 -50 395 -207
758 -454 1049 -223 262 -573 490 -1020 666 -89 35 -427 147 -752 250 -751 237
-933 297 -1075 352 -164 64 -399 182 -509 255 -298 198 -434 459 -418 803 25
534 371 835 1077 939 189 28 478 39 716 27 557 -29 1004 -130 1460 -332 309
-136 424 -143 502 -29 43 64 47 98 47 415 0 283 -1 304 -22 371 -47 148 -173
265 -407 379 -154 75 -270 117 -536 191 -285 80 -724 159 -1025 184 -109 9
-610 12 -695 3z"/>
<path d="M4385 15883 c-396 -8 -789 -60 -1185 -158 -420 -104 -748 -216 -1048
-360 -231 -111 -319 -182 -363 -291 -24 -58 -24 -63 -24 -429 l0 -370 25 -49
c34 -67 66 -89 139 -94 78 -6 187 26 432 123 389 155 862 297 1199 359 517 95
1109 88 1537 -19 646 -162 936 -545 1023 -1350 11 -102 27 -1015 18 -1015 -3
0 -108 22 -234 50 -630 136 -1094 197 -1594 207 -394 8 -662 -13 -980 -77
-595 -119 -1077 -372 -1461 -766 -329 -339 -522 -736 -601 -1239 -29 -186 -32
-602 -5 -795 80 -573 318 -1038 705 -1373 473 -410 1062 -587 1855 -556 892
35 1677 403 2291 1074 60 66 112 121 115 123 4 1 33 -51 65 -115 136 -275 257
-477 380 -633 143 -181 221 -248 329 -281 135 -42 182 -22 578 242 337 225
392 270 431 357 22 49 26 149 8 198 -6 16 -50 108 -99 204 -90 181 -173 373
-222 518 -58 168 -99 448 -99 675 0 71 -4 117 -10 117 -7 0 -10 501 -10 1483
0 1410 -4 1676 -30 1907 -77 682 -304 1219 -673 1592 -258 261 -614 462 -1032
583 -398 115 -900 169 -1460 158z m390 -4443 c434 -20 765 -63 1204 -157 l173
-37 -5 -355 c-5 -365 -13 -454 -57 -670 -62 -307 -185 -537 -405 -757 -288
-289 -572 -444 -1014 -554 -256 -64 -444 -84 -706 -77 -276 8 -424 41 -609
135 -200 102 -360 270 -456 476 -77 164 -109 324 -117 573 -14 438 93 752 341
998 257 255 638 394 1162 424 204 12 247 12 489 1z"/>
<path d="M8520 15648 c-94 -48 -117 -145 -77 -324 22 -98 2079 -6887 2138
-7059 83 -237 168 -335 320 -369 95 -22 1028 -23 1130 -2 182 39 256 138 333
443 14 54 322 1342 686 2863 364 1520 662 2766 664 2767 1 1 309 -1276 685
-2840 375 -1563 691 -2873 702 -2912 61 -209 157 -307 329 -334 106 -17 999
-14 1083 4 144 30 223 95 292 240 18 38 508 1593 1090 3460 581 1865 1076
3451 1100 3525 51 162 79 315 70 385 -9 72 -45 129 -99 154 -44 22 -50 22
-573 19 -516 -3 -530 -4 -594 -26 -128 -43 -197 -133 -267 -347 -22 -66 -376
-1426 -788 -3022 -412 -1596 -751 -2899 -755 -2895 -3 4 -291 1215 -639 2692
-835 3549 -772 3287 -820 3386 -57 118 -131 176 -258 203 -83 17 -988 15
-1073 -3 -175 -37 -253 -122 -316 -341 -16 -55 -335 -1399 -709 -2987 -373
-1588 -681 -2888 -684 -2888 -3 0 -335 1304 -739 2898 -404 1593 -748 2935
-764 2982 -64 187 -132 276 -243 321 l-59 24 -560 3 -560 3 -45 -23z"/>
<path d="M24367 6040 c-989 -59 -1853 -314 -2487 -735 -187 -124 -249 -202
-250 -314 0 -47 4 -57 33 -86 18 -18 52 -39 76 -46 48 -14 49 -14 576 45 1330
151 2197 152 2647 5 294 -96 378 -223 378 -574 0 -508 -250 -1379 -760 -2650
-93 -232 -113 -291 -117 -345 -3 -50 0 -73 14 -99 53 -100 205 -91 350 20 88
68 295 271 413 406 378 431 695 976 944 1623 265 691 429 1553 388 2043 -13
164 -44 287 -86 342 -126 165 -593 297 -1251 355 -165 15 -689 20 -868 10z"/>
<path d="M308 5516 c-142 -39 -198 -182 -127 -324 32 -65 71 -104 339 -338
3087 -2694 6986 -4340 11095 -4683 586 -49 857 -62 1505 -68 1035 -10 1890 45
2885 188 2860 408 5533 1379 7581 2755 567 381 652 465 662 658 5 111 -19 177
-97 255 -66 67 -140 106 -234 121 -117 18 -175 3 -505 -132 -2688 -1099 -5549
-1750 -8412 -1913 -826 -47 -1837 -49 -2690 -5 -4082 210 -8121 1376 -11579
3343 -263 149 -324 170 -423 143z"/>
</g>
</svg>
