<?xml version="1.0" standalone="no"?>
<!DOCTYPE svg PUBLIC "-//W3C//DTD SVG 20010904//EN"
 "http://www.w3.org/TR/2001/REC-SVG-20010904/DTD/svg10.dtd">
<svg version="1.0" xmlns="http://www.w3.org/2000/svg"
 width="10353.000000pt" height="1600.000000pt" viewBox="0 0 10353.000000 1600.000000"
 preserveAspectRatio="xMidYMid meet">
<metadata>
Created by potrace 1.16, written by Peter Selinger 2001-2019
</metadata>
<g transform="translate(0.000000,1600.000000) scale(0.100000,-0.100000)"
fill="#ffffff" stroke="none">
<path d="M46540 15520 c-1151 -70 -2053 -384 -2729 -950 -720 -602 -1136
-1452 -1257 -2565 -21 -195 -30 -708 -15 -888 92 -1079 629 -1946 1706 -2750
438 -327 868 -587 1915 -1157 1070 -583 1474 -839 1860 -1177 513 -449 758
-905 777 -1444 15 -417 -89 -801 -300 -1114 -83 -123 -275 -314 -397 -394
-322 -214 -677 -311 -1095 -298 -625 18 -1181 355 -1582 957 -233 350 -409
794 -518 1310 -14 68 -27 125 -28 126 -3 3 -2760 -586 -2765 -591 -7 -6 38
-171 109 -400 236 -767 570 -1439 980 -1976 203 -266 505 -577 749 -772 676
-542 1473 -851 2425 -942 350 -34 854 -29 1245 11 1186 120 2134 522 2828
1198 671 654 1052 1517 1133 2565 15 208 7 731 -16 911 -101 822 -399 1507
-934 2150 -186 224 -522 550 -786 762 -520 419 -1047 744 -2230 1378 -878 470
-1245 691 -1570 941 -153 118 -401 366 -484 484 -202 287 -269 558 -231 936
79 779 523 1257 1258 1354 137 19 427 19 563 0 751 -99 1258 -599 1673 -1646
35 -90 75 -194 88 -231 17 -50 27 -67 38 -63 8 2 519 153 1135 334 1389 408
1369 403 1373 406 2 2 -15 72 -37 157 -347 1321 -1124 2332 -2218 2886 -521
264 -1100 422 -1768 482 -161 15 -714 21 -895 10z"/>
<path d="M63110 15519 c-802 -45 -1453 -203 -2040 -495 -349 -174 -607 -355
-874 -614 -282 -274 -530 -620 -693 -970 -245 -522 -377 -1109 -402 -1778 -22
-593 45 -1038 226 -1497 329 -835 997 -1534 2145 -2243 290 -179 579 -343
1238 -702 912 -497 1245 -698 1609 -970 853 -639 1164 -1285 1015 -2110 -148
-823 -817 -1360 -1692 -1360 -278 0 -522 54 -767 169 -685 323 -1166 1036
-1392 2060 -30 138 -40 170 -53 166 -8 -2 -620 -133 -1360 -290 -740 -157
-1356 -289 -1368 -292 -30 -7 -29 -15 43 -263 745 -2576 2437 -3913 4880
-3857 563 14 1017 73 1491 197 783 203 1473 589 1964 1096 597 617 939 1368
1051 2309 26 219 37 685 20 905 -95 1249 -657 2249 -1760 3129 -503 401 -1038
733 -2096 1301 -840 451 -1086 591 -1390 794 -259 172 -421 304 -591 477 -217
223 -334 419 -396 666 -20 78 -23 112 -23 298 1 171 5 233 23 334 63 355 185
606 396 816 110 109 200 173 334 240 167 82 340 131 551 156 139 15 475 7 601
-16 530 -96 931 -400 1271 -965 123 -206 327 -655 408 -903 18 -53 26 -67 39
-63 10 3 577 170 1262 372 685 201 1246 367 1247 368 6 5 -83 325 -129 466
-300 922 -819 1672 -1523 2202 -857 645 -1967 940 -3265 867z"/>
<path d="M77020 15519 c-1467 -83 -2560 -586 -3247 -1495 -384 -508 -633
-1180 -718 -1934 -39 -350 -43 -784 -9 -1069 80 -695 333 -1274 802 -1836 109
-130 426 -443 577 -569 289 -241 654 -499 1044 -736 266 -162 536 -314 1146
-647 938 -513 1285 -721 1630 -981 868 -652 1178 -1311 1010 -2148 -163 -809
-821 -1324 -1693 -1324 -282 0 -513 54 -777 179 -565 270 -1004 832 -1255
1607 -50 154 -119 421 -141 546 -11 61 -14 67 -33 63 -12 -3 -635 -136 -1386
-296 -750 -160 -1365 -291 -1366 -292 -1 -1 14 -58 32 -127 405 -1484 1125
-2588 2114 -3244 677 -449 1414 -681 2340 -737 331 -20 830 -1 1205 47 1327
167 2376 727 3041 1626 491 663 754 1531 754 2488 0 1387 -567 2504 -1755
3456 -541 434 -1048 746 -2335 1434 -903 483 -1291 727 -1627 1023 -270 238
-451 505 -519 762 -50 187 -44 511 12 764 142 635 567 1020 1221 1106 132 17
411 20 533 5 538 -67 939 -325 1279 -825 171 -250 341 -600 491 -1008 37 -102
46 -117 62 -111 26 8 453 135 1553 461 512 151 931 276 932 277 7 6 -94 362
-146 516 -331 980 -913 1764 -1696 2285 -836 555 -1869 802 -3075 734z"/>
<path d="M20470 7980 l0 -7340 2133 0 c2111 0 2399 4 2757 35 2464 215 3896
1458 4124 3580 47 438 42 972 -14 1403 -135 1033 -548 1704 -1477 2403 -81 62
-256 184 -388 271 -132 88 -241 161 -243 163 -1 1 44 32 102 69 125 80 350
246 459 338 404 346 691 706 902 1133 173 351 267 664 322 1070 22 164 25 725
5 910 -67 620 -218 1098 -483 1536 -459 759 -1235 1282 -2304 1552 -388 99
-730 151 -1295 199 -94 8 -813 12 -2367 15 l-2233 4 0 -7341z m4393 5021 c580
-92 976 -323 1232 -720 228 -352 322 -914 229 -1371 -38 -188 -131 -403 -248
-575 -78 -115 -282 -320 -404 -405 -234 -165 -527 -287 -839 -349 -227 -46
-320 -52 -950 -58 l-603 -6 0 1757 0 1757 723 -4 c686 -3 729 -5 860 -26z
m-348 -5791 c1301 -86 2066 -728 2176 -1823 15 -154 6 -547 -15 -680 -41 -253
-105 -462 -202 -656 -265 -535 -733 -874 -1388 -1006 -245 -49 -359 -55 -1111
-55 l-695 0 0 2115 0 2115 543 0 c298 0 610 -5 692 -10z"/>
<path d="M34210 15193 c-136 -545 -3620 -14525 -3620 -14528 0 -3 611 -5 1358
-5 l1357 0 401 1543 401 1542 1943 0 1943 0 352 -1538 c194 -846 355 -1540
357 -1543 3 -2 606 -3 1340 -2 l1335 3 -1708 7075 c-940 3891 -1736 7189
-1769 7328 l-62 252 -1798 0 -1798 0 -32 -127z m1815 -3055 c3 -13 313 -1346
689 -2963 l683 -2940 -1390 -3 c-765 -1 -1392 0 -1395 2 -4 5 1364 5902 1373
5917 11 17 35 9 40 -13z"/>
<path d="M54010 7990 l0 -7330 1405 0 1405 0 0 7330 0 7330 -1405 0 -1405 0 0
-7330z"/>
<path d="M84330 7990 l0 -7330 3950 0 3950 0 0 1240 0 1240 -2545 0 -2545 0 0
1925 0 1925 1865 0 1865 0 0 1240 0 1240 -1865 0 -1865 0 0 1685 0 1685 2450
0 2450 0 0 1240 0 1240 -3855 0 -3855 0 0 -7330z"/>
<path d="M93475 15308 c-3 -7 -4 -564 -3 -1238 l3 -1225 1638 -3 1637 -2 0
-6090 0 -6090 1405 0 1405 0 0 6090 0 6090 1635 0 1635 0 0 1240 0 1240 -4675
0 c-3731 0 -4677 -3 -4680 -12z"/>
<path d="M0 7910 l0 -7270 7275 0 7275 0 0 3030 0 3030 -1212 -2 -1213 -3 -3
-1817 -2 -1818 -3993 0 -3992 0 3990 3990 3990 3990 3 -960 2 -960 1215 0
1215 0 0 3030 0 3030 -3030 0 -3030 0 0 -1210 0 -1210 955 -2 955 -3 -3990
-3990 -3990 -3990 2 3990 3 3990 1818 3 1817 2 0 1210 0 1210 -3030 0 -3030 0
0 -7270z"/>
</g>
</svg>
