<?xml version="1.0" standalone="no"?>
<!DOCTYPE svg PUBLIC "-//W3C//DTD SVG 20010904//EN"
 "http://www.w3.org/TR/2001/REC-SVG-20010904/DTD/svg10.dtd">
<svg version="1.0" xmlns="http://www.w3.org/2000/svg"
 width="6800.000000pt" height="1600.000000pt" viewBox="0 0 6800.000000 1600.000000"
 preserveAspectRatio="xMidYMid meet">
<metadata>
Created by potrace 1.16, written by Peter Selinger 2001-2019
</metadata>
<g transform="translate(0.000000,1600.000000) scale(0.100000,-0.100000)"
fill="#ffffff" stroke="none">
<path d="M13240 13024 c-99 -21 -205 -61 -315 -118 -55 -29 -863 -560 -1795
-1181 -932 -621 -2210 -1471 -2840 -1890 -630 -419 -1190 -798 -1245 -842
-124 -100 -335 -315 -441 -448 -410 -516 -690 -1158 -765 -1750 -15 -118 -13
-5252 2 -5365 49 -366 227 -625 491 -714 184 -61 430 -28 678 92 63 31 786
507 2165 1426 1139 759 2423 1614 2855 1901 466 310 830 558 895 612 575 473
1042 1290 1174 2057 12 65 25 189 31 275 13 210 13 4917 0 5103 -16 218 -48
346 -128 503 -87 170 -241 295 -417 340 -74 19 -256 19 -345 -1z"/>
<path d="M24266 12489 c-1854 -101 -3149 -1199 -3561 -3020 -132 -586 -169
-1306 -100 -1984 112 -1098 485 -1988 1100 -2623 686 -710 1630 -1072 2796
-1072 494 0 933 66 1362 206 1102 360 1897 1174 2186 2240 38 138 91 399 91
445 0 19 -14 19 -787 17 l-787 -3 -32 -110 c-244 -846 -799 -1330 -1664 -1450
-163 -23 -431 -30 -575 -16 -1049 102 -1790 997 -1964 2371 -34 266 -44 473
-38 795 5 301 19 468 57 702 200 1234 907 2038 1904 2169 171 23 561 15 731
-15 565 -97 968 -347 1260 -781 89 -132 207 -383 269 -570 l54 -165 786 -3
c626 -2 786 0 786 10 0 7 -9 59 -19 115 -88 461 -262 897 -508 1270 -228 348
-584 694 -945 922 -647 407 -1489 600 -2402 550z"/>
<path d="M38535 12343 c-194 -4 -466 -24 -620 -44 -631 -83 -995 -291 -1197
-685 -147 -286 -208 -644 -208 -1231 l0 -203 -440 0 -440 0 0 -550 0 -550 440
0 440 0 0 -2570 0 -2570 800 0 800 0 2 2568 3 2567 628 3 627 2 -2 548 -3 547
-629 3 -629 2 6 258 c9 324 27 425 97 527 60 87 187 148 365 176 45 7 236 15
435 18 l355 6 0 590 0 590 -360 0 c-198 1 -409 0 -470 -2z"/>
<path d="M46815 10329 c-947 -70 -1691 -471 -2112 -1137 -113 -178 -211 -410
-269 -632 -20 -77 -64 -312 -64 -342 0 -5 337 -8 749 -8 l748 0 7 78 c30 349
225 641 531 792 186 92 368 130 620 130 371 0 637 -94 839 -296 191 -191 295
-457 326 -829 14 -183 13 -275 -4 -275 -35 0 -682 -85 -920 -121 -1708 -257
-2614 -653 -2984 -1307 -179 -315 -237 -743 -152 -1127 148 -667 705 -1180
1498 -1379 227 -57 385 -77 652 -83 725 -17 1285 143 1705 487 92 76 245 234
325 338 35 45 67 79 70 75 4 -5 19 -120 34 -258 26 -233 60 -468 72 -487 3 -4
336 -8 741 -8 668 0 735 1 729 16 -26 67 -101 501 -126 731 -57 516 -69 1455
-35 2733 14 537 -48 1019 -180 1399 -231 662 -683 1118 -1328 1340 -428 147
-957 208 -1472 170z m1425 -3854 c0 -329 -8 -442 -41 -610 -52 -258 -149 -454
-308 -619 -129 -134 -278 -223 -475 -285 -289 -92 -733 -108 -1011 -36 -410
107 -644 366 -662 735 -28 577 413 850 1662 1029 217 31 748 96 813 100 l22 1
0 -315z"/>
<path d="M31808 10309 c-69 -4 -199 -19 -288 -33 -1249 -196 -2187 -1041
-2489 -2242 -190 -759 -150 -1628 106 -2309 350 -928 1099 -1588 2080 -1834
873 -218 1805 -82 2538 372 751 464 1238 1235 1374 2174 35 242 44 400 38 708
-4 210 -11 332 -26 441 -79 580 -263 1066 -561 1484 -606 848 -1642 1311
-2772 1239z m552 -1277 c274 -64 479 -180 668 -377 270 -280 428 -654 499
-1180 24 -185 24 -677 -1 -860 -70 -517 -227 -889 -491 -1164 -246 -255 -547
-388 -925 -408 -396 -20 -773 121 -1040 387 -122 123 -203 238 -290 414 -108
218 -165 411 -212 711 -26 167 -36 622 -19 812 88 957 532 1552 1251 1679 115
20 450 12 560 -14z"/>
<path d="M54285 10310 c-640 -54 -1158 -355 -1499 -870 l-56 -84 0 412 0 412
-800 0 -800 0 0 -3120 0 -3120 800 0 800 0 0 1688 c0 1673 4 1926 35 2165 89
694 365 1079 856 1197 235 56 542 50 734 -15 137 -46 269 -135 354 -237 104
-126 190 -342 225 -568 33 -211 36 -374 36 -2302 l0 -1928 800 0 800 0 0 1708
c0 1702 4 1916 36 2162 91 701 382 1084 905 1190 133 27 326 36 458 21 413
-49 657 -263 766 -673 74 -279 75 -327 75 -2505 l0 -1903 800 0 800 0 0 2038
c0 2037 -3 2229 -36 2487 -114 890 -492 1451 -1147 1701 -409 156 -999 194
-1523 98 -337 -61 -648 -196 -912 -393 -154 -116 -367 -334 -502 -514 l-44
-59 -20 37 c-55 98 -183 280 -255 362 -297 339 -697 542 -1188 602 -121 15
-383 21 -498 11z"/>
<path d="M64244 10309 c-963 -61 -1803 -527 -2326 -1289 -375 -547 -568 -1206
-568 -1940 0 -738 189 -1404 556 -1956 343 -518 822 -903 1394 -1121 351 -133
704 -199 1125 -210 425 -11 782 34 1144 144 853 258 1527 879 1866 1720 19 48
35 88 35 90 0 2 -370 3 -822 3 l-823 -1 -60 -91 c-73 -112 -258 -302 -365
-375 -152 -103 -337 -181 -515 -217 -562 -112 -1108 42 -1472 416 -155 159
-303 411 -378 642 -40 121 -81 314 -91 424 l-7 72 2302 0 2301 0 0 188 c0 931
-254 1783 -714 2391 -592 785 -1508 1179 -2582 1110z m351 -1169 c157 -13 266
-34 396 -76 384 -124 671 -393 814 -762 59 -153 86 -287 109 -529 l5 -53
-1480 0 -1480 0 6 48 c14 101 59 282 95 382 81 227 190 401 354 566 271 271
608 411 1036 432 14 1 79 -3 145 -8z"/>
<path d="M40180 7060 l0 -3120 800 0 799 0 4 1773 c3 1615 5 1782 20 1887 51
339 145 570 301 737 154 165 357 264 636 309 186 31 699 29 958 -2 l52 -7 0
751 c0 706 -1 751 -17 756 -10 3 -92 10 -183 16 -317 19 -604 -20 -853 -116
-366 -141 -661 -422 -879 -839 l-58 -110 0 543 0 542 -790 0 -790 0 0 -3120z"/>
</g>
</svg>
