<?xml version="1.0" standalone="no"?>
<!DOCTYPE svg PUBLIC "-//W3C//DTD SVG 20010904//EN"
 "http://www.w3.org/TR/2001/REC-SVG-20010904/DTD/svg10.dtd">
<svg version="1.0" xmlns="http://www.w3.org/2000/svg"
 width="1600.000000pt" height="1600.000000pt" viewBox="0 0 1600.000000 1600.000000"
 preserveAspectRatio="xMidYMid meet">
<metadata>
Created by potrace 1.16, written by Peter Selinger 2001-2019
</metadata>
<g transform="translate(0.000000,1600.000000) scale(0.100000,-0.100000)"
fill="#ffffff" stroke="none">
<path d="M7490 15990 c-132 -6 -184 -12 -260 -33 -58 -16 -146 -30 -225 -37
-151 -12 -172 -15 -320 -40 -60 -11 -153 -24 -205 -31 -52 -6 -138 -22 -190
-36 -52 -13 -189 -48 -305 -78 -115 -30 -239 -66 -275 -80 -36 -14 -124 -41
-197 -60 -72 -18 -160 -46 -195 -60 -35 -15 -117 -46 -183 -70 -170 -60 -217
-79 -329 -133 -181 -86 -489 -244 -651 -332 -88 -48 -206 -111 -263 -140 -57
-29 -125 -69 -150 -89 -26 -20 -69 -48 -95 -61 -27 -14 -68 -41 -90 -61 -23
-19 -72 -52 -109 -72 -110 -61 -497 -372 -891 -714 -40 -35 -112 -98 -162
-141 -49 -43 -138 -136 -198 -207 -59 -71 -144 -168 -190 -215 -84 -89 -181
-203 -253 -300 -23 -30 -58 -71 -79 -90 -20 -19 -68 -80 -106 -135 -38 -55
-98 -138 -133 -185 -36 -47 -84 -119 -107 -160 -24 -41 -88 -149 -144 -240
-56 -91 -119 -196 -140 -235 -22 -38 -57 -99 -78 -135 -156 -256 -508 -1080
-621 -1455 -68 -223 -187 -719 -221 -920 -93 -547 -125 -916 -125 -1466 0
-812 101 -1502 340 -2309 163 -553 397 -1101 675 -1585 54 -93 115 -201 137
-240 22 -38 47 -79 58 -90 10 -11 44 -63 75 -115 32 -52 76 -119 100 -150 23
-30 59 -82 81 -115 126 -195 441 -588 655 -819 82 -89 368 -368 489 -478 58
-52 153 -142 211 -200 63 -62 148 -133 210 -174 238 -160 398 -271 454 -314
33 -26 110 -77 170 -115 61 -38 135 -85 165 -105 87 -59 536 -298 745 -397
296 -141 674 -296 774 -318 18 -4 86 -27 150 -51 415 -159 1158 -313 1766
-368 512 -47 926 -47 1480 -1 596 50 1187 179 1914 417 272 88 328 112 706
290 105 50 206 96 226 103 20 7 103 52 184 99 81 47 149 86 152 86 18 0 273
157 475 293 215 145 323 223 588 427 134 103 268 218 385 330 67 63 172 162
234 219 119 110 362 371 471 506 35 44 97 118 139 165 92 104 161 198 373 505
291 422 391 593 623 1070 128 262 322 730 373 900 17 55 51 166 75 246 94 304
212 834 257 1149 59 428 85 761 85 1125 0 305 -7 413 -51 865 -57 588 -246
1421 -427 1886 -159 408 -391 911 -538 1169 -48 83 -114 202 -149 265 -35 63
-87 147 -117 187 -30 39 -66 94 -82 123 -66 121 -584 769 -790 988 -208 222
-280 296 -331 345 -30 29 -85 82 -121 120 -37 37 -73 67 -79 67 -7 0 -47 33
-89 73 -73 70 -212 182 -276 221 -16 11 -52 39 -80 63 -27 25 -78 63 -112 86
-34 23 -122 85 -195 138 -73 53 -198 134 -278 181 -80 47 -181 112 -225 143
-147 106 -822 427 -1200 570 -242 92 -545 191 -625 205 -41 8 -107 26 -145 41
-189 75 -693 176 -1090 219 -105 11 -221 30 -260 42 -46 14 -117 24 -205 29
-158 9 -802 9 -1040 -1z m-2670 -6760 c69 -6 143 -18 165 -25 22 -7 56 -17 75
-21 141 -28 320 -125 426 -229 149 -147 200 -345 134 -518 -30 -80 -113 -167
-198 -209 -59 -29 -74 -32 -151 -31 -116 1 -188 28 -256 97 -49 50 -92 137
-110 223 -9 44 17 129 66 218 l39 71 -33 31 c-58 56 -119 73 -307 88 -71 6
-80 4 -165 -31 -129 -53 -188 -96 -251 -179 -138 -183 -206 -433 -190 -700 22
-383 152 -657 385 -813 112 -74 385 -115 516 -77 173 50 326 180 425 361 l54
101 86 6 c47 2 105 2 130 -2 45 -6 45 -6 48 -49 2 -28 -6 -65 -23 -110 -89
-233 -185 -365 -344 -472 -160 -107 -321 -172 -485 -195 -133 -19 -380 -19
-509 0 -144 22 -332 87 -452 157 -133 78 -173 107 -263 193 -157 150 -242 283
-311 490 -46 140 -61 234 -61 388 1 205 42 396 120 552 70 141 104 191 198
294 198 216 519 364 857 395 154 15 171 14 385 -4z m3590 5 c180 -29 327 -129
406 -277 l39 -73 3 -149 c5 -180 -5 -213 -87 -300 -68 -70 -127 -102 -218
-116 -137 -21 -262 14 -327 91 -51 60 -60 89 -66 199 l-5 105 -49 3 c-72 5
-176 -16 -243 -47 -76 -36 -204 -139 -248 -199 -134 -183 -180 -373 -179 -742
2 -335 43 -468 164 -530 44 -22 141 -40 221 -40 91 0 94 -5 94 -165 0 -132 -1
-137 -24 -156 -22 -18 -50 -19 -810 -19 -665 0 -790 2 -807 14 -17 13 -19 26
-17 157 1 78 6 146 11 151 6 6 61 16 124 23 63 8 133 21 156 30 59 24 117 94
144 174 22 64 23 81 26 561 4 548 -2 639 -46 729 -52 105 -130 146 -311 162
-57 5 -110 14 -118 20 -10 9 -13 47 -13 154 0 119 3 145 16 156 19 15 22 15
669 11 254 -1 446 -6 455 -12 12 -8 15 -43 16 -207 0 -109 4 -206 8 -215 12
-27 37 -8 92 69 71 101 227 249 327 312 116 71 191 100 317 121 133 23 163 23
280 5z m4269 -80 c38 -19 41 -30 41 -146 0 -144 -16 -170 -115 -183 -72 -10
-190 -43 -234 -66 -59 -30 -147 -115 -211 -206 -33 -46 -128 -197 -211 -336
-84 -139 -215 -354 -292 -478 -77 -124 -219 -355 -315 -515 -224 -372 -246
-403 -280 -410 -15 -3 -44 -10 -65 -16 -50 -13 -139 5 -171 34 -24 22 -329
508 -349 557 -6 14 -28 48 -48 75 -21 28 -69 102 -107 165 -115 191 -529 848
-579 919 -67 95 -168 191 -235 224 -37 17 -88 31 -140 38 -137 17 -147 19
-163 35 -19 20 -22 283 -3 302 9 9 222 12 897 12 809 0 886 -1 903 -17 16 -14
18 -33 18 -143 0 -170 1 -169 -146 -180 -122 -9 -211 -40 -237 -82 -39 -62
-25 -160 36 -252 66 -100 275 -442 318 -521 23 -44 55 -94 70 -112 15 -17 41
-58 59 -91 36 -69 73 -107 93 -99 15 5 121 173 337 532 70 116 144 237 165
270 50 78 84 161 85 206 0 83 -90 138 -250 150 -58 4 -113 8 -122 8 -41 2 -48
26 -48 165 0 134 5 157 40 169 8 3 289 6 623 6 515 1 612 -1 636 -14z"/>
</g>
</svg>
