<?xml version="1.0" standalone="no"?>
<!DOCTYPE svg PUBLIC "-//W3C//DTD SVG 20010904//EN"
 "http://www.w3.org/TR/2001/REC-SVG-20010904/DTD/svg10.dtd">
<svg version="1.0" xmlns="http://www.w3.org/2000/svg"
 width="1475.000000pt" height="1600.000000pt" viewBox="0 0 1475.000000 1600.000000"
 preserveAspectRatio="xMidYMid meet">
<metadata>
Created by potrace 1.16, written by Peter Selinger 2001-2019
</metadata>
<g transform="translate(0.000000,1600.000000) scale(0.100000,-0.100000)"
fill="#ffffff" stroke="none">
<path d="M11280 15994 c-19 -2 -87 -9 -150 -15 -541 -51 -1103 -243 -1587
-543 -393 -243 -799 -625 -1069 -1006 -600 -847 -825 -1906 -619 -2923 187
-922 729 -1753 1503 -2306 954 -681 2189 -867 3316 -501 841 274 1554 846
2034 1632 l41 67 -52 29 c-29 16 -356 193 -727 392 -371 199 -694 373 -716
386 l-42 23 -37 -57 c-163 -245 -385 -464 -623 -612 -242 -150 -504 -241 -802
-280 -123 -17 -386 -14 -515 5 -880 129 -1560 809 -1690 1690 -22 147 -22 425
0 565 58 372 204 702 433 983 77 94 248 257 342 328 709 526 1667 530 2370 8
166 -122 363 -331 468 -496 26 -40 50 -72 55 -73 7 0 1451 774 1509 809 l27
17 -65 104 c-529 845 -1308 1422 -2249 1663 -295 76 -539 107 -875 112 -135 2
-261 1 -280 -1z"/>
<path d="M0 12281 l0 -3631 1543 0 c1574 0 1739 3 1996 40 1446 204 2638 1278
2996 2700 125 495 144 1032 54 1533 -133 743 -494 1419 -1045 1957 -583 569
-1277 899 -2119 1006 -115 15 -315 18 -1777 21 l-1648 4 0 -3630z m3305 1855
c277 -45 538 -146 756 -292 235 -157 441 -375 585 -620 388 -660 327 -1513
-153 -2114 -70 -87 -221 -236 -308 -305 -232 -182 -512 -311 -791 -365 -176
-34 -362 -41 -1024 -38 l-625 3 -3 1865 c-1 1026 0 1871 3 1878 8 22 1422 11
1560 -12z"/>
<path d="M0 6988 l0 -993 1868 -997 c1027 -548 1867 -1000 1867 -1004 0 -5
-839 -457 -1865 -1005 l-1865 -996 -3 -997 -2 -998 62 35 c35 19 1701 915
3703 1992 2002 1076 3643 1960 3647 1964 7 6 -7388 3991 -7405 3991 -4 0 -7
-447 -7 -992z"/>
<path d="M11335 7733 c-124 -5 -366 -33 -505 -59 -984 -180 -1861 -762 -2429
-1611 -348 -521 -559 -1130 -612 -1768 -15 -178 -6 -609 15 -765 83 -605 276
-1121 601 -1610 287 -430 631 -773 1065 -1059 1061 -700 2423 -805 3584 -275
262 119 550 296 781 480 146 116 447 418 571 574 157 197 345 483 328 500 -12
12 -1514 820 -1525 820 -5 0 -15 -13 -23 -29 -30 -57 -164 -228 -250 -318
-442 -465 -1090 -685 -1731 -588 -726 110 -1344 633 -1579 1336 -166 500 -132
1035 98 1504 275 561 786 958 1390 1080 222 45 486 51 713 15 527 -83 1013
-394 1321 -847 30 -46 60 -83 65 -83 17 0 1527 815 1527 824 0 14 -125 210
-208 326 -185 259 -457 547 -692 735 -620 496 -1334 768 -2130 815 -167 9
-218 10 -375 3z"/>
</g>
</svg>
