<?xml version="1.0" standalone="no"?>
<!DOCTYPE svg PUBLIC "-//W3C//DTD SVG 20010904//EN"
 "http://www.w3.org/TR/2001/REC-SVG-20010904/DTD/svg10.dtd">
<svg version="1.0" xmlns="http://www.w3.org/2000/svg"
 width="5981.000000pt" height="1600.000000pt" viewBox="0 0 5981.000000 1600.000000"
 preserveAspectRatio="xMidYMid meet">
<metadata>
Created by potrace 1.16, written by Peter Selinger 2001-2019
</metadata>
<g transform="translate(0.000000,1600.000000) scale(0.100000,-0.100000)"
fill="#ffffff" stroke="none">
<path d="M31755 11619 c-356 -51 -652 -320 -747 -679 l-23 -85 0 -2855 c0
-2760 1 -2857 19 -2924 87 -321 298 -545 616 -652 l85 -29 1075 0 1075 0 78
23 c307 89 554 335 640 639 22 77 22 86 25 946 l3 867 -795 0 -795 0 -3 -598
-3 -599 -30 -49 c-44 -71 -108 -107 -188 -108 -111 0 -193 67 -217 177 -8 38
-10 690 -8 2342 l3 2290 22 40 c89 165 308 166 396 2 22 -42 22 -44 25 -639
l3 -598 795 0 795 0 -3 873 -3 872 -28 88 c-109 351 -378 590 -733 652 -74 13
-230 15 -1053 14 -531 -1 -993 -5 -1026 -10z"/>
<path d="M34860 8010 l0 -3620 790 0 790 0 0 1465 0 1465 225 0 225 0 0 -1465
0 -1465 790 0 790 0 0 3620 0 3620 -790 0 -790 0 0 -1475 0 -1475 -225 0 -225
0 0 1475 0 1475 -790 0 -790 0 0 -3620z"/>
<path d="M39630 11627 c0 -11 -891 -7177 -895 -7204 l-6 -33 681 0 c618 0 680
1 680 16 0 22 99 1009 106 1062 l6 42 339 0 c187 0 339 -1 340 -2 0 -2 24
-253 52 -558 l52 -555 683 -3 c375 -1 682 1 682 4 0 13 -900 7169 -905 7202
l-6 32 -904 0 c-498 0 -905 -2 -905 -3z m1010 -3627 c54 -575 101 -1064 104
-1087 l6 -43 -213 0 -213 0 102 1108 c56 609 103 1109 105 1112 4 9 8 -30 109
-1090z"/>
<path d="M42600 8010 l0 -3620 790 0 790 0 0 3620 0 3620 -790 0 -790 0 0
-3620z"/>
<path d="M44440 8010 l0 -3620 680 0 680 0 2 1783 3 1782 330 -1780 331 -1780
792 -3 792 -2 0 1150 0 1150 -210 0 -210 0 0 230 0 230 210 0 210 0 0 755 0
755 -90 0 -90 0 0 390 0 390 90 0 90 0 0 1095 0 1095 -675 0 -675 0 -1 -1802
c0 -992 -3 -1796 -6 -1788 -4 8 -156 818 -338 1800 l-331 1785 -792 3 -792 2
0 -3620z"/>
<path d="M11840 7990 l0 -3610 1350 0 1350 0 0 560 0 560 -560 0 -560 0 0 905
0 905 560 0 560 0 0 675 0 675 -560 0 -560 0 0 900 0 900 560 0 560 0 0 570 0
570 -1350 0 -1350 0 0 -3610z m630 -1425 l0 -265 -260 0 -260 0 0 265 0 265
260 0 260 0 0 -265z"/>
<path d="M14850 7990 l0 -3610 790 0 790 0 1 1793 c1 1075 5 1778 10 1757 8
-33 659 -3532 659 -3544 0 -3 103 -6 229 -6 l229 0 7 38 c59 325 667 3538 670
3541 3 2 5 -802 5 -1787 l0 -1792 790 0 790 0 0 3610 0 3610 -904 0 -904 0 -5
-22 c-3 -13 -155 -971 -338 -2130 -184 -1160 -336 -2108 -339 -2108 -3 0 -156
946 -339 2103 -183 1156 -336 2114 -338 2130 l-5 27 -899 0 -899 0 0 -3610z"/>
<path d="M20120 7990 l0 -3610 1433 2 c1334 3 1436 4 1492 21 281 82 482 247
600 492 85 176 79 80 82 1250 4 1155 6 1121 -62 1278 -49 114 -91 180 -169
264 -154 166 -356 265 -591 289 l-70 7 95 13 c359 48 644 277 758 610 42 123
43 146 40 1224 l-3 1035 -28 85 c-95 283 -300 498 -567 594 -158 57 -122 56
-1626 56 l-1384 0 0 -3610z m1907 2449 c53 -26 99 -89 113 -156 7 -32 10 -290
8 -753 -3 -701 -3 -705 -25 -745 -55 -102 -108 -125 -288 -125 l-135 0 0 900
0 900 142 0 c123 0 147 -3 185 -21z m1 -3157 c54 -29 97 -89 111 -153 15 -70
15 -1379 0 -1449 -13 -62 -60 -126 -114 -154 -34 -18 -62 -22 -182 -24 l-143
-4 0 907 0 907 143 -4 c124 -3 147 -6 185 -26z"/>
<path d="M24030 7990 l0 -3610 1355 0 1355 0 0 560 0 560 -565 0 -565 0 0 905
0 905 565 0 565 0 0 675 0 675 -565 0 -565 0 0 900 0 900 563 2 562 3 3 568 2
567 -1355 0 -1355 0 0 -3610z"/>
<path d="M27050 7990 l0 -3610 1433 2 1432 3 73 23 c331 102 566 344 649 669
17 64 18 233 18 2908 l0 2840 -23 85 c-86 318 -338 572 -657 662 l-80 23
-1422 3 -1423 2 0 -3610z m1922 2435 c28 -20 53 -49 71 -84 l27 -55 0 -2294
c0 -1779 -3 -2304 -12 -2336 -18 -59 -91 -129 -150 -144 -26 -7 -99 -12 -162
-12 l-116 0 0 2481 0 2480 149 -3 c147 -3 150 -3 193 -33z"/>
<path d="M10670 9305 l0 -435 435 0 435 0 0 435 0 435 -435 0 -435 0 0 -435z"/>
<path d="M48800 8605 l0 -385 390 0 390 0 0 385 0 385 -390 0 -390 0 0 -385z"/>
<path d="M49552 7518 l3 -233 155 0 155 0 0 230 0 230 -158 3 -157 3 2 -233z"/>
<path d="M9910 7235 l0 -265 160 0 160 0 0 265 0 265 -160 0 -160 0 0 -265z"/>
<path d="M48800 7075 l0 -235 235 0 235 0 0 235 0 235 -235 0 -235 0 0 -235z"/>
<path d="M10407 6823 c-4 -3 -7 -123 -7 -265 l0 -258 265 0 265 0 -2 263 -3
262 -256 3 c-140 1 -258 -1 -262 -5z"/>
</g>
</svg>
