<?xml version="1.0" standalone="no"?>
<!DOCTYPE svg PUBLIC "-//W3C//DTD SVG 20010904//EN"
 "http://www.w3.org/TR/2001/REC-SVG-20010904/DTD/svg10.dtd">
<svg version="1.0" xmlns="http://www.w3.org/2000/svg"
 width="10695.000000pt" height="1600.000000pt" viewBox="0 0 10695.000000 1600.000000"
 preserveAspectRatio="xMidYMid meet">
<metadata>
Created by potrace 1.16, written by Peter Selinger 2001-2019
</metadata>
<g transform="translate(0.000000,1600.000000) scale(0.100000,-0.100000)"
fill="#ffffff" stroke="none">
<path d="M5220 15984 c-204 -44 -447 -226 -660 -494 -517 -650 -1064 -1984
-1510 -3682 -28 -106 -59 -209 -69 -228 -23 -45 -97 -96 -153 -104 -51 -8 -83
1 -337 98 -878 335 -1482 425 -1808 269 -85 -40 -198 -157 -245 -253 -113
-230 -127 -530 -43 -957 153 -787 702 -1997 1531 -3375 78 -130 148 -253 154
-274 13 -40 7 -101 -14 -143 -32 -59 -80 -88 -301 -182 -387 -164 -814 -388
-1025 -537 -245 -173 -409 -351 -471 -509 -34 -87 -38 -226 -10 -329 42 -151
130 -286 293 -446 565 -556 1945 -1132 3927 -1637 187 -48 285 -78 311 -95 44
-29 90 -113 90 -164 0 -20 -39 -133 -91 -265 -193 -487 -299 -838 -350 -1162
-20 -125 -17 -404 5 -490 61 -235 214 -377 483 -445 726 -186 2283 367 4317
1534 231 132 270 147 343 127 82 -22 115 -58 173 -187 315 -701 535 -1073 789
-1338 122 -126 231 -202 357 -247 77 -28 229 -30 324 -5 80 22 203 83 290 144
83 59 277 252 362 362 401 519 820 1439 1189 2610 91 288 243 814 314 1090 48
182 49 186 94 231 29 29 61 51 86 58 77 21 72 23 400 -102 651 -247 1191 -363
1515 -327 263 29 425 137 522 349 302 658 -227 2177 -1495 4294 -143 239 -161
275 -165 321 -5 66 21 132 69 170 19 15 124 65 234 112 889 378 1393 733 1517
1070 34 90 31 241 -6 349 -138 401 -657 790 -1601 1200 -186 81 -542 221 -700
276 -588 203 -920 306 -1460 454 -132 36 -349 93 -483 127 -270 68 -304 84
-341 160 -37 77 -30 113 65 349 110 276 233 641 283 844 155 623 102 975 -172
1154 -339 220 -935 180 -1823 -123 -742 -253 -1716 -717 -2701 -1284 -105 -61
-210 -120 -233 -132 -85 -43 -210 -18 -264 54 -13 17 -55 101 -92 186 -195
446 -437 879 -625 1116 -271 342 -513 468 -789 408z m4891 -1425 c129 -27 245
-112 269 -198 94 -341 -371 -1654 -1350 -3811 -378 -832 -469 -1023 -505
-1057 -67 -64 -162 -64 -232 0 -34 32 -40 51 -228 692 -433 1485 -667 2233
-964 3088 -23 65 -41 134 -41 155 0 47 29 109 66 144 29 26 384 210 624 322
819 384 1546 627 2020 676 100 10 265 5 341 -11z m-4822 -501 c305 -148 933
-1404 1816 -3633 314 -794 408 -1044 407 -1092 -2 -89 -75 -158 -167 -157 -46
1 -94 25 -640 321 -1349 732 -2198 1175 -2815 1469 -238 113 -290 149 -311
213 -20 60 -13 111 36 267 247 781 587 1569 879 2034 157 250 342 459 476 538
109 65 235 80 319 40z m6182 -1339 c369 -109 838 -271 1164 -404 858 -348
1391 -683 1540 -966 31 -60 39 -86 43 -146 4 -64 1 -79 -22 -127 -145 -297
-1401 -897 -3676 -1756 -872 -329 -1113 -415 -1166 -414 -63 0 -112 29 -143
84 -45 81 -48 75 311 705 734 1286 1063 1884 1426 2590 107 209 205 391 216
404 31 35 94 61 152 61 28 0 97 -14 155 -31z m-9291 -2383 c550 -74 1731 -496
3480 -1246 787 -337 1213 -529 1248 -563 81 -78 60 -210 -40 -257 -24 -11
-272 -83 -553 -161 -1525 -421 -2444 -692 -3180 -939 -249 -83 -283 -87 -364
-37 -61 36 -64 41 -231 357 -379 719 -681 1473 -790 1974 -41 189 -53 307 -48
464 6 150 29 237 82 307 82 107 174 130 396 101z m11426 -1001 c69 -21 95 -47
155 -150 69 -119 360 -696 434 -860 470 -1047 631 -1748 475 -2070 -27 -55
-110 -131 -158 -145 -54 -15 -213 -12 -322 5 -642 105 -2088 645 -4125 1543
-571 252 -549 240 -575 292 -41 79 -14 178 59 218 20 11 234 75 476 142 1639
454 2331 657 3265 962 118 38 220 71 225 73 21 7 43 5 91 -10z m-6473 -1809
c74 -31 120 -121 97 -191 -6 -19 -170 -312 -364 -652 -715 -1254 -1081 -1920
-1421 -2588 -87 -170 -170 -323 -184 -339 -35 -38 -96 -66 -149 -66 -52 0
-221 49 -597 175 -1050 349 -1823 734 -2141 1067 -130 135 -189 268 -166 375
20 95 85 166 272 295 510 353 1917 966 3845 1678 220 81 468 173 550 203 156
58 204 66 258 43z m2678 -628 c1342 -727 2053 -1098 2669 -1393 157 -75 298
-149 314 -163 38 -36 66 -98 66 -150 0 -29 -37 -153 -109 -370 -360 -1081
-766 -1896 -1121 -2252 -104 -105 -191 -164 -282 -191 -149 -46 -248 -4 -381
161 -274 338 -675 1135 -1197 2375 -333 790 -848 2102 -857 2180 -7 58 30 122
88 153 84 45 66 53 810 -350z m-1721 80 c24 -13 52 -35 63 -49 10 -14 93 -280
183 -590 390 -1335 580 -1950 827 -2684 222 -661 209 -615 196 -678 -19 -89
-64 -121 -374 -275 -862 -428 -1601 -705 -2146 -804 -99 -18 -162 -22 -314
-23 -172 0 -197 2 -260 23 -189 63 -249 166 -226 387 65 605 630 2056 1691
4335 78 168 149 314 158 324 23 26 91 56 127 56 17 0 51 -10 75 -22z"/>
<path d="M52180 13913 c-1063 -56 -2080 -394 -2961 -984 -316 -211 -580 -429
-869 -719 -300 -299 -479 -514 -699 -840 -540 -799 -851 -1666 -948 -2640 -24
-244 -24 -768 1 -1010 75 -750 252 -1365 582 -2020 765 -1520 2202 -2632 3894
-3014 451 -102 807 -140 1310 -140 371 0 486 7 808 50 1733 232 3235 1252
4127 2803 87 152 258 491 252 498 -7 6 -2089 553 -2107 553 -9 0 -28 -24 -44
-57 -86 -176 -260 -443 -414 -633 -107 -131 -336 -361 -462 -461 -412 -330
-875 -544 -1400 -649 -393 -78 -912 -92 -1305 -34 -775 113 -1449 440 -1990
966 -592 574 -950 1311 -1062 2183 -22 174 -25 698 -5 870 58 494 190 936 403
1344 532 1018 1496 1697 2649 1865 286 42 740 47 1010 12 426 -56 832 -185
1185 -378 585 -318 1066 -806 1419 -1435 33 -60 62 -100 69 -98 7 2 334 95
727 205 768 217 1304 368 1332 376 15 5 3 34 -81 202 -382 757 -898 1406
-1526 1919 -928 758 -2012 1184 -3220 1263 -135 9 -536 11 -675 3z"/>
<path d="M76765 13889 c-1464 -117 -2768 -722 -3766 -1747 -933 -957 -1487
-2186 -1589 -3523 -21 -280 -12 -751 21 -1044 97 -875 414 -1737 911 -2480
333 -498 777 -972 1263 -1350 1467 -1141 3439 -1512 5259 -989 572 165 1137
427 1631 757 1344 897 2240 2286 2474 3837 71 471 80 1000 25 1480 -118 1032
-538 2045 -1186 2863 -211 264 -529 596 -769 801 -602 511 -1265 882 -2009
1124 -394 128 -772 207 -1230 258 -169 19 -857 28 -1035 13z m637 -1979 c516
-29 956 -142 1403 -360 1083 -529 1827 -1586 1989 -2825 123 -941 -87 -1869
-595 -2626 -177 -265 -472 -590 -702 -773 -686 -547 -1507 -819 -2392 -793
-964 29 -1815 392 -2467 1053 -587 595 -930 1327 -1035 2204 -23 200 -23 628
1 835 108 934 506 1736 1164 2347 247 230 509 411 822 567 440 219 903 342
1399 370 198 12 218 12 413 1z"/>
<path d="M23910 8220 l0 -5570 1105 0 1105 0 0 2310 0 2310 2740 0 2740 0 0
960 0 960 -2740 0 -2740 0 0 1305 0 1305 3065 0 3065 0 0 995 0 995 -4170 0
-4170 0 0 -5570z"/>
<path d="M39080 13775 c-450 -59 -839 -218 -1195 -488 -104 -80 -300 -270
-382 -372 -149 -184 -276 -400 -356 -605 -33 -83 -2970 -8293 -3413 -9537
l-43 -123 1142 0 1143 0 414 1160 415 1160 2549 -3 2550 -2 397 -1153 c218
-634 398 -1155 401 -1157 3 -3 513 -4 1135 -3 l1131 3 -1674 4799 c-920 2639
-1683 4824 -1695 4855 -39 98 -148 308 -211 404 -365 558 -935 926 -1623 1048
-155 28 -525 35 -685 14z m425 -2500 c33 -9 84 -27 114 -42 73 -35 181 -139
218 -210 32 -60 1409 -4090 1401 -4098 -3 -3 -853 -4 -1890 -3 l-1885 3 699
2015 c384 1108 710 2040 725 2070 16 33 55 83 97 125 108 108 219 153 376 154
47 1 113 -6 145 -14z"/>
<path d="M59920 12795 l0 -995 1795 0 1795 0 0 -4575 0 -4575 1095 0 1095 0 0
4575 0 4575 1728 2 1727 3 3 993 2 992 -4620 0 -4620 0 0 -995z"/>
<path d="M86020 8220 l0 -5570 1100 0 1100 0 0 1895 0 1895 1093 0 1094 0
1183 -1895 1184 -1895 1249 0 1249 0 -14 23 c-193 294 -2527 4032 -2521 4037
4 4 42 20 83 35 313 116 681 329 969 559 151 120 417 383 527 521 385 483 621
991 733 1575 74 391 74 848 0 1264 -172 962 -754 1851 -1587 2424 -463 319
-1026 548 -1576 642 -342 58 -122 54 -3118 57 l-2748 3 0 -5570z m5429 3627
c499 -81 901 -313 1182 -682 345 -453 447 -1098 263 -1655 -206 -622 -722
-1050 -1424 -1181 l-125 -24 -1562 -3 -1563 -3 0 1786 0 1786 1563 -4 c1404
-3 1572 -5 1666 -20z"/>
<path d="M96860 13787 c0 -1 891 -1723 1980 -3825 l1980 -3822 0 -1745 0
-1745 1100 0 1100 0 0 1771 0 1770 1951 3782 c1073 2080 1956 3790 1961 3800
8 16 -50 17 -1159 17 l-1168 0 -1345 -2602 c-740 -1430 -1349 -2607 -1355
-2614 -7 -9 -377 696 -1361 2599 l-1350 2612 -1167 3 c-642 1 -1167 1 -1167
-1z"/>
</g>
</svg>
