<?xml version="1.0" standalone="no"?>
<!DOCTYPE svg PUBLIC "-//W3C//DTD SVG 20010904//EN"
 "http://www.w3.org/TR/2001/REC-SVG-20010904/DTD/svg10.dtd">
<svg version="1.0" xmlns="http://www.w3.org/2000/svg"
 width="4000.000000pt" height="1600.000000pt" viewBox="0 0 4000.000000 1600.000000"
 preserveAspectRatio="xMidYMid meet">
<metadata>
Created by potrace 1.16, written by Peter Selinger 2001-2019
</metadata>
<g transform="translate(0.000000,1600.000000) scale(0.100000,-0.100000)"
fill="#ffffff" stroke="none">
<path d="M23410 15989 c-762 -46 -1403 -236 -1895 -562 -209 -139 -439 -347
-590 -532 -330 -405 -561 -953 -664 -1575 -66 -397 -73 -532 -80 -1550 -8
-1016 -3 -960 -83 -1039 -46 -47 -119 -77 -233 -97 -107 -20 -428 -33 -773
-34 l-284 0 -28 -28 c-68 -68 -75 -164 -75 -987 0 -725 5 -824 43 -937 32 -97
5 -92 540 -99 371 -5 485 -9 554 -23 176 -33 263 -86 309 -189 l24 -52 6
-3625 c4 -2524 10 -3695 18 -3855 21 -425 52 -585 122 -620 24 -13 234 -15
1526 -15 1186 0 1503 3 1523 13 58 29 99 168 119 402 32 356 34 596 40 4125
l6 3575 23 50 c60 131 175 180 478 205 70 5 443 10 838 11 524 0 720 3 746 12
105 36 120 171 120 1072 0 563 -8 772 -31 859 -6 22 -25 54 -43 72 l-31 31
-740 6 c-433 3 -786 11 -850 17 -260 27 -354 56 -431 134 -90 92 -86 42 -81
1066 4 932 4 942 52 1175 22 109 76 268 121 357 183 364 520 524 1028 488 225
-16 368 -48 595 -134 69 -26 134 -46 145 -44 49 7 50 26 51 1078 0 780 -3 982
-13 1012 -11 32 -21 40 -68 58 -164 61 -546 127 -919 160 -337 29 -814 37
-1115 19z"/>
<path d="M36815 15776 c-91 -40 -125 -153 -157 -516 -16 -194 -25 -13851 -8
-14292 16 -438 37 -605 88 -707 50 -100 -115 -91 1592 -91 1466 0 1496 0 1527
20 91 55 117 208 134 810 15 553 7 14092 -9 14300 -18 221 -38 335 -70 400
-49 99 111 90 -1582 90 -1212 -1 -1491 -3 -1515 -14z"/>
<path d="M5390 15727 c-123 -42 -208 -108 -280 -219 -51 -78 -77 -169 -96
-333 -78 -703 -322 -1420 -688 -2023 -810 -1337 -2155 -2211 -3706 -2408 -107
-13 -213 -29 -235 -35 -120 -32 -265 -147 -324 -259 -65 -122 -61 48 -59
-2522 l3 -2333 24 -58 c37 -94 100 -177 176 -234 96 -73 172 -98 367 -123 752
-94 1401 -314 2013 -680 464 -278 899 -644 1239 -1040 657 -766 1065 -1691
1186 -2689 12 -91 28 -191 36 -221 49 -174 186 -314 359 -367 57 -17 158 -18
2390 -18 l2330 0 70 22 c167 53 300 191 349 363 8 30 23 118 31 195 182 1600
1131 3025 2545 3822 581 328 1190 525 1896 613 189 24 250 42 346 106 111 74
194 197 218 323 7 36 10 831 10 2355 0 2531 4 2365 -61 2486 -41 77 -137 171
-219 215 -77 40 -151 59 -300 75 -776 85 -1572 377 -2230 820 -983 661 -1706
1646 -2035 2773 -82 281 -127 503 -169 833 -33 258 -65 334 -188 450 -60 57
-136 100 -213 120 -41 11 -467 14 -2385 14 l-2335 -1 -65 -22z m2895 -3082
c1498 -154 2797 -983 3573 -2280 526 -880 747 -1950 617 -2990 -87 -696 -340
-1379 -732 -1979 -629 -963 -1607 -1669 -2723 -1965 -423 -113 -811 -157
-1295 -148 -292 5 -450 19 -680 58 -1297 220 -2428 960 -3149 2061 -412 630
-656 1318 -742 2093 -25 222 -25 736 -1 954 147 1307 771 2432 1797 3236 138
108 381 271 534 360 616 353 1326 568 2039 615 180 12 579 4 762 -15z"/>
<path d="M30450 10843 c-667 -46 -1108 -124 -1599 -284 -906 -296 -1643 -829
-2109 -1526 -337 -504 -530 -1068 -535 -1563 -2 -149 7 -181 59 -200 16 -6
585 -10 1495 -10 l1470 0 24 26 c28 30 44 100 74 321 101 738 461 1156 1086
1258 213 35 494 29 705 -17 478 -102 764 -409 869 -934 35 -178 43 -310 39
-719 -4 -452 -6 -464 -86 -544 -37 -37 -62 -52 -117 -69 -110 -35 -175 -41
-575 -52 -600 -16 -994 -30 -1155 -41 -2009 -133 -3324 -781 -3894 -1918 -166
-331 -264 -678 -313 -1111 -19 -168 -16 -679 5 -845 88 -697 332 -1244 752
-1684 627 -657 1639 -996 2750 -921 700 48 1235 251 1715 653 216 180 363 345
591 663 62 87 128 175 147 195 92 102 205 87 265 -35 33 -67 54 -154 156 -641
110 -530 127 -588 182 -641 l30 -29 1635 0 1636 0 29 33 c54 60 50 78 -118
662 -197 686 -292 1108 -350 1555 -15 117 -17 368 -23 2560 -7 2637 -4 2497
-61 2860 -184 1168 -769 2009 -1735 2493 -571 286 -1243 448 -2089 502 -142 9
-838 11 -955 3z m1283 -5953 c181 -26 257 -111 287 -317 8 -55 10 -208 7 -499
-5 -452 -10 -509 -67 -749 -164 -687 -611 -1181 -1200 -1326 -84 -21 -119 -24
-300 -24 -273 0 -391 25 -595 125 -261 128 -452 360 -549 668 -89 282 -106
654 -45 957 128 632 593 1014 1354 1109 66 9 291 25 500 36 209 11 403 21 430
23 28 2 64 4 80 5 17 1 61 -3 98 -8z"/>
</g>
</svg>
