<?xml version="1.0" standalone="no"?>
<!DOCTYPE svg PUBLIC "-//W3C//DTD SVG 20010904//EN"
 "http://www.w3.org/TR/2001/REC-SVG-20010904/DTD/svg10.dtd">
<svg version="1.0" xmlns="http://www.w3.org/2000/svg"
 width="6184.000000pt" height="1600.000000pt" viewBox="0 0 6184.000000 1600.000000"
 preserveAspectRatio="xMidYMid meet">
<metadata>
Created by potrace 1.16, written by Peter Selinger 2001-2019
</metadata>
<g transform="translate(0.000000,1600.000000) scale(0.100000,-0.100000)"
fill="#ffffff" stroke="none">
<path d="M6895 13336 c-81 -15 -89 -18 -173 -58 -127 -61 -243 -212 -272 -355
-18 -84 -8 -234 20 -308 52 -136 155 -246 285 -304 17 -7 37 -17 45 -21 21
-10 28 -408 8 -414 -7 -2 -56 -9 -108 -16 -164 -20 -358 -56 -470 -87 -30 -8
-68 -18 -85 -23 -190 -51 -552 -212 -675 -300 -16 -11 -31 -20 -34 -20 -11 0
-154 -97 -255 -174 -293 -220 -617 -575 -777 -851 -15 -27 -36 -63 -46 -80
-86 -147 -193 -386 -249 -557 -107 -327 -148 -586 -158 -988 l-6 -265 -50 0
-50 0 -6 390 c-3 221 -10 405 -16 425 -59 198 -169 333 -333 408 -240 109
-531 41 -697 -162 -46 -57 -90 -133 -105 -180 -39 -125 -38 -100 -38 -1781 0
-1710 0 -1690 45 -1820 30 -85 112 -196 189 -253 111 -82 226 -121 361 -121
291 0 521 192 585 489 6 27 10 391 10 913 l0 867 55 0 55 0 2 -1222 3 -1223
413 -3 c226 -1 412 -4 412 -7 0 -3 -33 -83 -74 -178 -40 -94 -80 -192 -89
-217 -18 -52 -45 -126 -57 -155 -13 -29 -105 -308 -129 -390 -40 -138 -109
-408 -130 -510 -7 -33 -17 -78 -21 -100 -13 -60 -42 -246 -59 -380 -28 -215
-33 -334 -29 -625 3 -168 8 -313 13 -322 7 -17 77 -18 1278 -18 l1270 0 -6
298 c-7 309 -31 653 -62 897 -79 620 -201 1195 -343 1630 -11 33 -18 63 -15
68 2 4 310 7 684 7 541 0 679 -3 679 -13 0 -7 -27 -75 -61 -152 -121 -279
-249 -647 -329 -950 -12 -44 -28 -105 -36 -135 -8 -30 -20 -77 -25 -105 -6
-27 -15 -68 -20 -90 -95 -423 -138 -946 -107 -1312 l12 -143 1273 0 1273 0 0
133 c0 314 -43 903 -90 1222 -5 33 -14 96 -21 140 -10 74 -27 177 -49 300 -51
293 -135 640 -231 961 -21 71 -39 133 -39 137 0 4 198 7 440 7 l440 0 2 1223
3 1222 43 3 42 3 0 -853 c0 -542 4 -876 11 -917 15 -95 44 -168 95 -244 59
-86 130 -148 219 -193 95 -47 165 -64 265 -64 163 1 288 51 405 162 81 76 126
147 161 248 l24 72 0 1688 c0 1867 5 1735 -65 1877 -42 85 -116 170 -194 222
-100 65 -171 90 -287 98 -271 19 -510 -143 -607 -410 -21 -59 -22 -78 -25
-459 l-3 -398 -26 -6 c-57 -15 -57 -12 -65 297 -9 412 -46 638 -164 987 -49
148 -60 173 -147 352 -136 279 -272 479 -494 727 -82 91 -281 274 -388 356
-152 116 -397 270 -525 329 -90 41 -151 68 -155 68 -3 0 -27 9 -53 21 -59 26
-78 34 -122 49 -19 7 -44 16 -55 20 -11 5 -31 11 -45 15 -14 3 -38 10 -55 15
-238 69 -492 112 -725 123 l-45 2 -3 208 c-2 191 -1 208 15 213 92 27 232 140
282 227 93 165 100 362 16 527 -75 147 -236 266 -387 284 -29 4 -64 9 -78 11
-14 1 -56 -3 -95 -9z m182 -341 c104 -52 150 -178 102 -280 -81 -173 -314
-181 -399 -14 -27 51 -27 146 -1 197 57 111 186 153 298 97z m293 -1455 c154
-22 221 -34 310 -57 52 -14 109 -28 125 -32 43 -11 204 -67 283 -98 65 -26
187 -87 322 -161 126 -69 342 -220 334 -233 -3 -5 -304 -9 -670 -9 l-664 0 0
-227 c0 -126 -4 -254 -10 -286 -35 -218 -247 -374 -456 -337 -142 24 -248 103
-307 227 l-32 68 -3 277 -3 278 -631 2 c-410 2 -632 7 -634 13 -4 13 207 160
321 222 325 179 447 225 880 329 154 37 643 51 835 24z m-1088 -1034 c12 -230
67 -370 199 -504 78 -79 106 -100 199 -149 85 -45 130 -58 245 -72 128 -16
324 19 397 70 14 11 29 19 33 19 19 0 130 88 180 142 130 144 184 300 198 573
l2 50 681 3 681 2 31 -34 c46 -51 152 -190 212 -280 112 -167 191 -320 281
-541 42 -103 97 -298 127 -450 61 -305 64 -409 60 -2200 l-3 -1570 -2767 -3
-2768 -2 0 1697 c0 1745 1 1784 39 2003 44 255 139 545 253 770 100 196 275
457 384 573 l36 37 646 -2 647 -3 7 -129z m-2917 -1062 c63 -29 99 -68 132
-142 l23 -53 0 -1104 0 -1105 -272 2 -273 3 0 1110 0 1110 22 45 c34 69 94
125 158 148 58 20 152 14 210 -14z m7528 14 c56 -17 140 -96 163 -155 18 -46
19 -91 19 -1153 l0 -1105 -270 0 -270 0 0 1115 0 1115 23 46 c60 120 200 178
335 137z m-6945 -1355 l3 -93 -56 0 -55 0 0 88 c0 49 3 92 7 96 4 4 28 6 53 4
l45 -3 3 -92z m6260 -1 l3 -93 -43 3 -43 3 -3 70 c-4 104 1 117 46 113 l37 -3
3 -93z m-6688 -1759 c0 -274 -4 -388 -13 -413 -41 -118 -138 -190 -254 -190
-80 0 -122 14 -172 56 -53 46 -84 95 -99 156 -13 51 -18 749 -5 761 3 4 127 7
275 7 l268 0 0 -377z m7555 -13 c0 -383 0 -385 -23 -432 -29 -58 -111 -134
-160 -148 -54 -15 -147 -12 -188 5 -58 24 -113 74 -142 129 l-27 51 -3 379
c-2 208 -1 385 2 392 5 12 53 14 273 12 l268 -3 0 -385z m-5080 -1130 c7 -19
28 -82 45 -140 18 -58 36 -116 40 -130 4 -14 13 -45 20 -70 7 -25 16 -56 20
-70 8 -24 60 -235 80 -327 35 -157 46 -205 60 -278 25 -127 43 -228 60 -340 6
-38 15 -97 20 -130 6 -33 11 -82 12 -110 l3 -50 -882 -3 c-703 -2 -883 0 -884
10 -9 103 136 644 273 1017 66 182 157 406 212 525 25 54 46 101 46 105 0 29
30 31 443 29 l419 -3 13 -35z m2913 13 c6 -16 25 -75 43 -133 17 -58 38 -125
46 -150 13 -39 40 -143 86 -320 8 -30 20 -82 27 -115 7 -33 16 -73 20 -90 36
-130 152 -817 142 -842 -3 -10 -190 -13 -888 -13 l-884 0 0 21 c0 41 71 352
121 526 79 279 187 589 275 791 8 17 21 48 29 67 8 19 22 52 31 73 9 20 35 76
57 125 l41 87 422 0 422 0 10 -27z m-2513 -1993 c10 -16 27 -270 29 -420 l1
-135 -957 -3 -958 -2 -1 42 c-4 127 3 336 13 426 l12 102 927 0 c629 0 930 -3
934 -10z m2918 -4 c9 -23 39 -525 33 -541 -5 -13 -130 -15 -963 -13 l-958 3
-3 110 c-3 103 13 398 24 438 5 16 58 17 934 17 790 0 929 -2 933 -14z"/>
<path d="M5385 9703 c-103 -23 -153 -40 -234 -80 -165 -83 -303 -242 -366
-422 -68 -195 -51 -417 48 -606 59 -112 192 -245 302 -302 141 -73 200 -87
360 -87 121 0 150 3 215 24 210 67 370 201 465 390 53 105 74 200 74 330 0
177 -44 313 -150 456 -41 57 -158 167 -198 187 -14 8 -42 23 -62 35 -87 49
-232 83 -354 81 -44 -1 -89 -3 -100 -6z m295 -351 c85 -40 141 -89 185 -162
48 -80 67 -147 66 -244 0 -168 -88 -309 -238 -383 -69 -34 -85 -38 -173 -41
-140 -6 -241 31 -330 121 -234 235 -142 616 175 730 39 14 72 17 150 14 87 -3
108 -8 165 -35z"/>
<path d="M8405 9695 c-87 -19 -120 -30 -203 -72 -229 -116 -386 -352 -409
-615 -14 -157 48 -369 144 -495 101 -133 200 -210 333 -260 115 -43 143 -48
280 -47 149 0 228 18 345 77 274 137 444 453 405 748 -45 345 -280 598 -618
668 -69 14 -201 12 -277 -4z m327 -342 c116 -54 204 -157 238 -278 18 -62 18
-200 1 -246 -50 -131 -120 -212 -229 -266 -75 -37 -78 -38 -192 -38 -114 0
-117 1 -192 38 -152 75 -248 230 -247 397 0 144 87 296 209 368 85 50 136 63
245 59 88 -2 108 -6 167 -34z"/>
<path d="M5445 7228 c-63 -22 -105 -83 -105 -153 0 -50 29 -99 79 -132 l34
-23 667 0 667 0 6 -142 c10 -220 61 -354 187 -491 49 -54 157 -135 220 -164
91 -44 165 -58 300 -57 113 0 146 4 205 24 150 49 265 131 359 255 96 125 146
299 146 507 l0 68 188 0 c209 0 233 5 276 63 63 86 28 209 -69 243 -33 11
-297 14 -1585 13 -1050 0 -1555 -4 -1575 -11z m2445 -400 c0 -246 -120 -405
-336 -447 -156 -30 -331 64 -405 217 -29 61 -32 76 -37 194 l-5 128 392 0 391
0 0 -92z"/>
<path d="M13985 13197 c-31 -19 -75 -70 -83 -97 -4 -14 -7 -1544 -7 -3400 0
-2791 2 -3382 13 -3415 54 -159 128 -242 267 -295 58 -22 74 -23 441 -27 422
-5 474 -1 516 45 56 60 53 -34 58 1482 l5 1405 899 3 899 2 35 26 c63 48 62
43 62 583 0 322 -4 499 -11 518 -13 35 -54 79 -94 101 -27 15 -112 17 -913 20
l-882 3 2 907 3 907 1650 5 c1208 4 1657 8 1675 16 28 13 62 48 79 81 8 15 11
170 11 519 l0 497 -24 41 c-13 23 -42 51 -64 64 l-40 22 -2238 -1 c-1714 0
-2244 -3 -2259 -12z"/>
<path d="M38617 13186 c-50 -46 -57 -139 -21 -273 83 -311 84 -331 84 -1610 0
-661 -4 -1113 -9 -1113 -5 0 -78 34 -162 75 -189 93 -300 130 -539 181 -110
24 -239 34 -423 35 -114 0 -211 -2 -215 -5 -4 -2 -43 -9 -87 -15 -412 -57
-830 -270 -1150 -586 -293 -289 -504 -682 -593 -1105 -41 -190 -47 -259 -46
-505 2 -359 37 -582 141 -895 109 -329 312 -659 545 -886 253 -246 457 -369
813 -489 70 -24 140 -39 315 -71 122 -22 486 -25 605 -6 175 30 401 92 512
143 133 60 227 110 300 160 23 16 44 29 48 29 3 0 31 -27 62 -61 85 -91 184
-152 323 -199 58 -20 92 -23 317 -27 325 -7 368 -3 422 44 23 19 48 51 56 70
13 31 15 461 15 3397 -1 3599 2 3407 -49 3520 -42 91 -145 172 -261 203 -32 9
-176 12 -511 13 l-466 0 -26 -24z m-619 -3880 c200 -37 453 -133 630 -239 l52
-31 0 -884 0 -883 -77 -35 c-43 -19 -87 -39 -98 -44 -33 -15 -197 -67 -247
-79 -193 -45 -270 -54 -458 -54 -144 0 -191 4 -265 22 -49 12 -98 26 -107 31
-10 6 -23 10 -30 10 -25 0 -208 99 -265 143 -262 203 -416 509 -442 878 -20
289 24 510 141 714 49 84 226 264 310 313 129 76 286 131 438 152 88 12 316 4
418 -14z"/>
<path d="M54445 13185 c-17 -16 -25 -35 -25 -60 0 -40 53 -121 835 -1265 126
-184 308 -452 405 -595 97 -143 196 -289 221 -325 25 -36 112 -164 194 -285
81 -121 173 -256 204 -300 50 -71 153 -223 428 -628 l87 -128 -45 -62 c-24
-34 -111 -162 -194 -284 -82 -122 -249 -367 -370 -544 -121 -178 -297 -436
-391 -574 -186 -273 -242 -355 -498 -730 -94 -137 -225 -329 -291 -426 -66
-97 -187 -275 -269 -395 -326 -477 -316 -461 -316 -508 0 -54 28 -92 78 -106
49 -13 1283 -14 1333 0 59 17 35 -16 508 680 99 146 240 353 314 460 438 642
666 977 776 1140 123 182 139 203 152 195 3 -3 103 -148 222 -322 118 -175
235 -347 260 -383 25 -36 111 -162 191 -280 80 -118 229 -336 330 -485 102
-148 272 -398 378 -554 106 -156 213 -313 238 -349 81 -118 -1 -107 782 -107
l680 0 34 39 c65 75 93 26 -532 941 -91 132 -246 359 -345 505 -99 146 -263
387 -365 535 -101 149 -248 365 -326 480 -78 116 -158 233 -178 260 -20 28
-103 149 -185 270 -81 121 -206 304 -277 406 -70 103 -128 192 -128 199 0 11
135 215 416 625 192 280 292 427 444 650 75 110 239 351 365 535 366 537 572
839 700 1028 66 98 186 274 266 392 199 293 200 294 153 349 l-26 31 -691 0
c-664 0 -693 -1 -723 -19 -21 -13 -86 -100 -185 -246 -250 -368 -592 -871
-1120 -1645 -335 -490 -372 -544 -379 -553 -9 -10 -53 50 -234 318 -78 116
-254 374 -391 575 -137 201 -319 469 -405 595 -226 331 -532 779 -586 858 -26
38 -62 80 -79 93 l-32 24 -692 0 -692 0 -24 -25z"/>
<path d="M7625 13068 c-3 -13 -4 -84 -3 -158 l3 -134 40 -10 c45 -10 75 -29
155 -97 135 -114 223 -149 374 -149 149 0 242 39 382 161 80 71 132 93 201 86
56 -6 81 -20 173 -98 142 -120 205 -144 370 -144 85 0 129 5 169 18 52 18 154
80 196 120 11 11 44 38 74 61 52 39 58 41 125 41 59 0 77 -4 106 -25 19 -13
37 -27 40 -30 9 -11 145 -116 171 -132 44 -28 150 -58 201 -58 l48 0 0 155 0
155 -27 5 c-50 11 -87 32 -146 83 -172 152 -325 199 -507 156 -91 -21 -158
-56 -241 -126 -121 -102 -133 -108 -208 -108 -76 0 -97 11 -217 113 -81 68
-151 105 -237 123 -169 36 -320 -4 -461 -123 -117 -99 -142 -113 -208 -113
-74 0 -109 15 -181 78 -111 99 -176 135 -282 158 -87 19 -104 18 -110 -8z"/>
<path d="M21365 10509 c-175 -22 -238 -33 -355 -61 -177 -42 -302 -87 -505
-182 -270 -126 -600 -400 -791 -656 -76 -101 -134 -186 -134 -193 0 -3 -17
-34 -38 -68 -91 -153 -176 -364 -221 -554 -32 -131 -38 -161 -53 -250 -17
-106 -17 -563 0 -660 35 -195 37 -201 72 -330 17 -63 41 -141 49 -160 5 -11
16 -36 24 -55 94 -224 161 -341 288 -513 280 -378 747 -702 1184 -822 220 -60
338 -83 495 -97 337 -28 701 24 1030 147 182 68 422 200 550 302 30 24 73 58
95 76 153 120 365 361 490 557 40 63 149 277 175 345 65 167 96 275 131 455
15 80 39 313 39 385 0 113 -29 395 -50 490 -38 170 -73 295 -101 363 -5 12
-13 32 -18 45 -209 524 -599 947 -1106 1200 -280 139 -555 213 -885 236 -166
12 -265 12 -365 0z m407 -1184 c281 -59 507 -200 673 -421 216 -286 288 -666
195 -1019 -66 -250 -238 -490 -455 -634 -137 -92 -235 -135 -370 -161 -33 -6
-79 -16 -102 -21 -54 -12 -242 -12 -296 0 -23 5 -69 15 -102 21 -355 72 -670
357 -795 719 -34 98 -48 163 -61 294 -17 171 2 317 62 492 45 130 139 286 237
396 146 162 374 289 602 334 93 19 322 18 412 0z"/>
<path d="M32485 10508 c-246 -31 -466 -93 -678 -192 -86 -41 -305 -166 -353
-202 -17 -13 -34 -24 -37 -24 -3 0 -22 34 -42 75 -43 89 -142 201 -207 232
-100 49 -93 48 -494 48 l-381 0 -35 -27 c-74 -57 -68 144 -68 -2207 0 -1751 2
-2117 14 -2144 22 -54 77 -94 138 -102 29 -3 258 -5 508 -3 493 3 483 2 537
60 56 60 53 -24 53 1508 l0 1410 28 24 c97 85 135 114 235 179 174 113 268
157 442 206 549 152 1038 -66 1135 -506 19 -84 20 -137 20 -1267 0 -840 3
-1198 11 -1245 30 -168 127 -287 279 -342 65 -24 67 -24 506 -24 489 0 475 -2
514 67 19 34 21 49 17 116 -3 42 -10 97 -16 122 -17 72 -31 174 -46 350 -11
130 -15 389 -15 1230 -1 1142 -1 1143 -52 1360 -11 46 -43 150 -58 185 -4 11
-16 38 -25 60 -204 483 -647 844 -1220 994 -231 61 -513 84 -710 59z"/>
<path d="M42860 10509 c-63 -4 -142 -13 -175 -19 -105 -19 -168 -33 -225 -47
-30 -8 -68 -18 -85 -23 -16 -4 -57 -17 -90 -30 -33 -12 -69 -24 -80 -27 -50
-14 -309 -147 -390 -200 -548 -363 -895 -907 -1002 -1572 -24 -149 -24 -579 1
-736 103 -660 408 -1161 931 -1530 90 -64 101 -71 276 -158 183 -92 403 -167
579 -198 30 -5 96 -17 145 -26 69 -12 156 -16 375 -16 243 0 307 3 430 22 80
12 161 26 180 31 210 53 314 88 480 162 211 94 464 281 597 440 145 174 165
214 140 286 -17 49 -248 375 -296 417 -77 68 -135 67 -277 -2 -83 -41 -274
-118 -359 -145 -52 -17 -178 -49 -225 -58 -233 -46 -274 -51 -465 -57 -174 -5
-272 2 -405 29 -79 16 -253 74 -313 105 -141 71 -288 196 -367 313 -51 75
-114 216 -125 278 l-7 42 1279 0 c1360 0 1346 0 1466 47 174 69 290 202 345
393 19 67 21 370 3 476 -35 202 -47 251 -103 419 -68 203 -225 478 -371 647
-222 259 -502 461 -807 582 -95 39 -129 51 -185 66 -90 25 -147 39 -205 49
-36 7 -85 17 -110 22 -50 10 -341 30 -405 28 -22 -1 -92 -5 -155 -10z m360
-1153 c302 -49 565 -244 657 -486 31 -81 36 -112 21 -121 -15 -10 -1738 -12
-1762 -3 -24 9 -19 57 13 129 80 176 236 320 446 411 68 30 199 69 260 77 73
10 287 6 365 -7z"/>
<path d="M51745 10500 c-277 -14 -504 -66 -735 -169 -203 -91 -324 -173 -470
-320 -98 -99 -203 -246 -254 -356 -120 -255 -147 -550 -77 -825 60 -239 222
-475 450 -659 165 -133 275 -198 511 -304 81 -36 370 -126 535 -167 28 -7 95
-25 150 -42 384 -113 475 -174 475 -323 0 -43 -6 -61 -32 -100 -64 -93 -194
-135 -420 -135 -258 0 -537 56 -828 165 -68 25 -76 29 -193 84 -118 56 -155
61 -206 30 -53 -32 -42 -17 -234 -319 -70 -110 -185 -291 -234 -369 -43 -67
-51 -108 -29 -165 28 -74 162 -168 409 -290 376 -184 557 -241 999 -315 107
-18 362 -24 513 -13 275 21 587 101 810 207 465 222 755 565 836 990 15 80 15
294 -1 380 -44 244 -151 445 -335 630 -166 167 -305 262 -580 396 -190 93
-482 197 -725 259 -76 20 -189 54 -255 77 -38 14 -84 28 -101 33 -61 15 -150
65 -196 112 -45 44 -48 50 -48 99 0 212 387 281 855 153 105 -29 263 -84 327
-113 102 -46 151 -61 202 -61 44 0 62 6 102 33 54 37 74 65 350 491 145 225
168 265 172 307 4 39 0 56 -21 92 -34 57 -64 79 -237 170 -215 112 -393 187
-585 246 -237 73 -580 107 -900 91z"/>
<path d="M48345 10483 c-347 -28 -653 -152 -945 -381 -63 -50 -65 -51 -74 -29
-77 181 -159 283 -275 340 l-66 32 -395 0 c-442 0 -418 4 -471 -74 l-24 -35 0
-2125 c0 -2005 1 -2128 17 -2158 10 -18 35 -45 55 -60 l36 -28 461 -3 c254 -2
484 0 513 3 64 8 110 38 140 90 l23 40 0 1262 c0 1048 2 1271 14 1315 52 197
179 382 338 490 80 54 216 113 326 140 73 19 113 22 252 21 186 -1 246 -11
434 -74 136 -45 197 -47 257 -6 41 28 538 749 569 825 61 153 -300 343 -765
401 -85 11 -353 20 -420 14z"/>
<path d="M24775 10436 c-35 -16 -49 -37 -65 -95 -9 -34 -7 -62 10 -154 12 -62
23 -121 26 -132 2 -11 11 -94 19 -185 12 -132 15 -386 15 -1272 0 -752 4
-1131 11 -1180 62 -412 217 -716 501 -983 140 -132 267 -218 453 -309 186 -90
194 -93 423 -156 99 -28 369 -60 497 -60 101 0 303 20 405 40 226 43 572 192
790 340 l60 41 20 -48 c58 -137 150 -251 238 -295 47 -23 47 -23 447 -23 361
0 403 2 432 17 38 21 65 59 81 114 9 31 12 549 12 2111 0 2230 2 2129 -49
2191 -44 51 -54 52 -568 52 -284 0 -492 -4 -514 -10 -42 -12 -82 -51 -103
-102 -14 -33 -16 -192 -16 -1415 l0 -1378 -97 -87 c-135 -119 -146 -127 -248
-195 -110 -73 -179 -111 -270 -147 -141 -56 -177 -65 -323 -80 -199 -21 -400
9 -552 82 -146 69 -247 166 -310 297 -73 150 -70 97 -70 1410 0 806 -3 1199
-11 1248 -29 192 -157 334 -330 367 -29 6 -238 10 -468 10 -326 -1 -423 -4
-446 -14z"/>
<path d="M17884 3967 c-2 -7 -3 -62 -2 -123 l3 -109 95 -5 95 -5 0 -805 0
-805 -75 -3 c-130 -4 -121 6 -118 -130 l3 -117 334 -3 c261 -2 336 1 343 10
13 21 10 212 -4 226 -8 8 -47 12 -110 12 l-98 0 0 735 c0 404 4 735 8 735 5 0
17 -17 29 -37 31 -59 74 -135 93 -168 10 -16 29 -50 42 -75 55 -100 82 -148
118 -210 21 -36 52 -92 70 -125 18 -33 61 -109 95 -170 70 -124 378 -673 420
-750 15 -27 45 -80 67 -118 l39 -67 172 2 172 3 3 933 2 932 78 0 c42 0 83 4
90 8 9 6 12 37 10 118 l-3 109 -338 3 -338 2 3 -117 3 -118 115 -5 115 -5 3
-702 c2 -664 -1 -753 -25 -753 -5 0 -13 10 -19 23 -14 30 -91 171 -126 230
-15 26 -28 50 -28 52 0 2 -13 26 -28 52 -16 26 -46 80 -67 118 -21 39 -115
210 -210 380 -95 171 -189 342 -210 380 -21 39 -51 92 -67 118 -15 26 -28 50
-28 52 0 2 -21 41 -48 87 -26 46 -59 105 -72 131 -48 93 -25 87 -331 87 -213
0 -271 -3 -275 -13z"/>
<path d="M13897 3963 c-13 -12 -8 -208 5 -221 8 -8 45 -12 100 -12 l88 0 0
-810 0 -810 -88 0 c-55 0 -92 -4 -100 -12 -8 -8 -12 -48 -12 -113 0 -65 4
-105 12 -113 9 -9 98 -12 339 -12 l327 0 6 23 c8 32 7 200 -2 214 -5 8 -43 13
-107 15 l-100 3 -3 344 c-1 190 2 349 6 353 5 5 162 9 349 8 187 0 348 2 357
6 13 5 16 23 16 115 0 60 -1 110 -2 111 -2 1 -165 5 -363 8 l-360 5 0 330 0
330 372 3 373 2 2 -172 3 -173 143 -3 142 -3 0 296 0 295 -748 0 c-412 0 -752
-3 -755 -7z"/>
<path d="M15637 3963 c-4 -3 -7 -55 -7 -114 0 -125 -5 -119 111 -119 l79 0 0
-518 c0 -649 9 -731 101 -927 30 -64 107 -180 151 -225 111 -118 254 -185 451
-211 84 -11 112 -10 205 3 141 21 172 30 256 72 214 106 350 298 424 596 13
54 17 161 21 635 l6 570 70 3 c123 4 115 -5 115 127 l0 115 -340 0 -340 0 0
-114 c0 -95 3 -115 16 -120 9 -3 58 -6 109 -6 75 0 94 -3 99 -16 10 -25 6
-928 -4 -1062 -15 -187 -58 -310 -147 -411 -100 -114 -344 -172 -533 -127
-187 45 -312 190 -360 418 -19 88 -20 127 -18 647 l3 554 85 -2 c126 -3 120
-9 120 125 l0 114 -333 0 c-184 0 -337 -3 -340 -7z"/>
<path d="M20192 3853 l3 -118 95 -5 95 -5 0 -805 0 -805 -95 -5 -95 -5 0 -120
0 -120 435 0 c379 0 446 2 520 18 201 42 378 137 524 282 141 139 233 314 282
535 21 92 21 343 0 442 -28 135 -80 262 -152 376 -107 166 -316 331 -504 397
-127 45 -157 47 -643 52 l-468 5 3 -119z m1007 -162 c96 -41 163 -82 224 -140
114 -107 190 -238 234 -399 35 -131 37 -324 4 -452 -66 -261 -234 -459 -468
-553 l-78 -32 -227 -3 -228 -4 0 812 0 813 233 -5 232 -5 74 -32z"/>
<path d="M22865 3957 c-3 -7 -4 -129 -3 -272 l3 -260 140 0 140 0 5 155 5 155
238 3 237 2 0 -814 0 -815 -92 -3 -93 -3 -3 -122 -3 -123 335 0 c295 0 335 2
340 16 12 32 7 211 -7 222 -7 6 -56 13 -108 14 l-94 3 0 810 0 810 275 0 275
0 3 -157 3 -158 139 0 140 0 0 275 0 275 -935 0 c-746 0 -937 -3 -940 -13z"/>
<path d="M25057 3963 c-4 -3 -7 -55 -7 -114 0 -88 3 -108 16 -113 9 -3 54 -6
100 -6 l84 0 0 -810 0 -810 -95 0 c-112 0 -107 7 -103 -145 l3 -100 335 0 335
0 0 120 0 120 -100 5 -100 5 0 370 0 370 608 3 607 2 -2 -372 -3 -373 -80 -3
c-136 -4 -126 6 -123 -130 l3 -117 335 0 335 0 0 120 0 120 -95 5 -95 5 0 805
0 805 95 5 95 5 3 118 3 117 -341 0 -340 0 0 -114 c0 -95 3 -115 16 -120 9 -3
56 -6 105 -6 l89 0 0 -314 c0 -200 -4 -316 -10 -318 -5 -1 -279 -1 -607 2
l-598 5 0 310 0 310 100 5 100 5 3 118 3 117 -334 0 c-184 0 -337 -3 -340 -7z"/>
<path d="M27666 3954 c-11 -29 -7 -199 6 -212 8 -8 45 -12 100 -12 l88 0 0
-810 0 -810 -88 0 c-55 0 -92 -4 -100 -12 -14 -14 -17 -205 -4 -226 7 -10 164
-12 753 -10 l744 3 3 298 2 297 -140 0 -140 0 0 -159 c0 -88 -3 -166 -6 -175
-5 -14 -48 -16 -375 -16 l-369 0 2 353 3 352 305 3 c228 2 306 5 312 15 13 20
10 201 -4 215 -9 9 -93 12 -315 12 l-303 0 0 335 0 335 369 0 c327 0 370 -2
375 -16 3 -9 6 -87 6 -175 l0 -159 140 0 140 0 0 295 0 295 -749 0 c-674 0
-749 -2 -755 -16z"/>
<path d="M30182 3853 l3 -118 95 -5 95 -5 0 -805 0 -805 -95 -5 -95 -5 -3
-123 -3 -122 338 2 338 3 3 109 c2 71 -1 113 -9 122 -8 10 -37 14 -105 14
l-94 0 0 355 c0 277 3 355 13 355 6 0 161 0 343 0 182 0 338 2 348 6 24 9 24
219 0 228 -9 3 -171 6 -360 6 l-344 0 0 335 0 335 375 0 375 0 2 -172 3 -173
138 -3 137 -3 0 296 0 295 -750 0 -751 0 3 -117z"/>
<path d="M31922 3853 l3 -118 90 -5 90 -5 5 -580 c5 -492 8 -591 22 -651 28
-117 85 -246 152 -344 150 -221 427 -336 719 -301 146 18 227 46 332 115 213
138 340 372 374 688 6 54 11 311 11 587 l0 490 88 3 87 3 3 118 3 117 -338 -2
-338 -3 0 -115 0 -115 110 -5 110 -5 0 -570 c0 -444 -3 -583 -14 -630 -40
-180 -120 -303 -234 -361 -199 -102 -490 -79 -627 50 -36 33 -100 111 -100
120 0 3 -11 30 -25 61 -56 122 -63 215 -64 827 l-1 507 103 3 102 3 3 118 3
117 -336 0 -336 0 3 -117z"/>
<path d="M34020 3695 l0 -276 143 3 142 3 3 158 3 157 237 -2 237 -3 3 -790
c1 -434 0 -800 -3 -812 -5 -22 -11 -23 -88 -23 -45 0 -88 -4 -95 -8 -9 -6 -12
-38 -10 -123 l3 -114 335 0 335 0 3 114 c2 85 -1 117 -10 123 -7 4 -55 8 -105
8 l-93 0 0 815 0 815 275 0 274 0 3 -157 3 -158 134 -3 c76 -1 137 1 140 7 3
5 5 129 3 275 l-3 266 -934 0 -935 0 0 -275z"/>
<path d="M36172 3853 l3 -118 87 -3 c81 -3 88 -4 93 -25 2 -12 6 -278 8 -592
4 -472 7 -579 19 -625 70 -250 180 -421 336 -522 37 -24 78 -49 92 -55 51 -25
158 -52 249 -64 164 -21 360 16 495 95 86 51 186 142 237 217 45 67 108 198
124 259 3 14 11 41 16 60 29 108 39 294 39 767 l0 482 88 3 87 3 3 118 3 117
-338 -2 -338 -3 -3 -112 c-3 -131 -14 -121 133 -126 l90 -2 0 -575 c-1 -561
-1 -577 -23 -658 -42 -159 -122 -276 -225 -328 -158 -80 -408 -84 -547 -8 -89
49 -167 140 -210 247 -52 130 -53 143 -57 754 l-4 572 103 3 103 3 3 118 3
117 -336 0 -336 0 3 -117z"/>
<path d="M38410 3857 c0 -96 3 -116 16 -121 9 -3 54 -6 100 -6 l84 0 -2 -807
-3 -808 -75 -3 c-130 -4 -121 6 -118 -130 l3 -117 329 -3 c184 -1 334 2 339 7
11 11 11 221 0 232 -4 4 -51 9 -103 11 l-95 3 -3 364 -2 363 197 -4 c182 -3
201 -6 241 -26 114 -60 174 -165 231 -407 12 -49 26 -106 31 -125 5 -19 28
-111 50 -205 23 -93 45 -180 50 -193 10 -22 10 -22 207 -20 l198 3 0 130 0
130 -90 5 -90 5 -33 130 c-19 72 -37 146 -42 165 -14 60 -48 184 -55 205 -33
95 -98 190 -162 235 -24 17 -41 35 -38 39 2 5 28 20 57 35 128 63 234 184 277
315 42 127 20 315 -50 438 -63 109 -215 215 -361 250 -51 13 -160 17 -575 20
l-513 4 0 -114z m1055 -157 c116 -57 179 -161 179 -300 0 -165 -84 -275 -240
-315 -48 -12 -109 -15 -290 -13 l-229 3 -3 328 -2 329 267 -4 c259 -4 270 -5
318 -28z"/>
<path d="M40490 3855 c0 -133 -9 -123 120 -127 l75 -3 0 -805 0 -805 -75 -3
c-130 -4 -121 6 -118 -130 l3 -117 740 -3 c687 -2 741 -1 753 15 9 12 12 86
12 284 0 147 -3 274 -6 283 -5 14 -28 16 -145 16 l-139 0 0 -175 0 -175 -375
0 -375 0 2 353 3 352 313 3 313 2 -3 118 -3 117 -312 3 -313 2 0 335 0 335
375 0 375 0 0 -175 0 -176 143 3 142 3 3 270 c1 149 0 280 -3 293 l-5 22 -750
0 -750 0 0 -115z"/>
</g>
</svg>
