<?xml version="1.0" standalone="no"?>
<!DOCTYPE svg PUBLIC "-//W3C//DTD SVG 20010904//EN"
 "http://www.w3.org/TR/2001/REC-SVG-20010904/DTD/svg10.dtd">
<svg version="1.0" xmlns="http://www.w3.org/2000/svg"
 width="11041.000000pt" height="1600.000000pt" viewBox="0 0 11041.000000 1600.000000"
 preserveAspectRatio="xMidYMid meet">
<metadata>
Created by potrace 1.16, written by Peter Selinger 2001-2019
</metadata>
<g transform="translate(0.000000,1600.000000) scale(0.100000,-0.100000)"
fill="#ffffff" stroke="none">
<path d="M53876 15990 c-298 -12 -458 -26 -731 -65 -1106 -158 -2104 -506
-3015 -1053 -997 -597 -1897 -1449 -2534 -2396 -638 -948 -1066 -2031 -1265
-3197 -61 -355 -84 -723 -84 -1364 -1 -558 19 -806 103 -1300 227 -1335 844
-2669 1723 -3728 323 -388 717 -778 1112 -1099 1129 -916 2560 -1536 3950
-1712 404 -51 574 -60 1100 -61 499 0 596 5 947 45 1189 138 2376 573 3423
1255 878 572 1663 1354 2260 2255 276 416 461 756 690 1270 341 767 552 1608
620 2480 37 473 41 864 13 1283 l-11 177 -3583 0 -3583 0 -668 -488 c-367
-268 -834 -609 -1036 -757 l-368 -270 1548 -6 c851 -3 2579 -7 3840 -8 1260 0
2294 -4 2296 -8 6 -11 -38 -305 -69 -458 -78 -395 -203 -817 -359 -1209 -469
-1184 -1354 -2259 -2445 -2972 -790 -516 -1688 -854 -2620 -989 -282 -40 -486
-56 -800 -62 -1434 -28 -2815 415 -3950 1266 -1426 1070 -2370 2705 -2564
4446 -45 400 -54 905 -22 1260 123 1371 620 2575 1497 3630 163 197 542 578
744 750 941 799 2022 1291 3255 1479 272 42 356 47 810 53 568 7 793 -6 1152
-67 1004 -172 1910 -547 2722 -1128 464 -332 820 -666 1238 -1159 l121 -142
26 17 c222 142 1140 826 1190 886 12 15 10 23 -20 66 -99 142 -418 499 -674
755 -1275 1276 -2946 2081 -4730 2280 -410 45 -845 61 -1249 45z"/>
<path d="M53835 13079 c-251 -14 -643 -83 -935 -163 -726 -199 -1405 -550
-1922 -994 -227 -195 -561 -537 -763 -782 -100 -122 -302 -420 -405 -600 -274
-476 -476 -1028 -594 -1620 -51 -252 -60 -388 -60 -920 0 -541 9 -668 64 -940
243 -1202 843 -2210 1775 -2985 493 -410 1026 -700 1677 -914 578 -189 774
-216 1593 -215 563 0 651 6 914 60 960 197 1867 663 2532 1302 212 205 461
484 498 561 l16 33 -40 35 c-65 57 -312 241 -755 561 l-415 301 -200 -198
c-110 -108 -236 -228 -280 -267 -548 -477 -1150 -749 -1855 -840 -171 -22
-561 -30 -744 -15 -793 64 -1449 340 -2036 858 -346 304 -652 694 -844 1073
-185 364 -287 701 -343 1135 -22 176 -25 746 -5 920 64 527 277 1083 589 1533
528 761 1329 1295 2218 1477 272 56 700 80 986 56 752 -64 1450 -359 2030
-858 57 -49 183 -167 281 -261 97 -95 179 -172 182 -172 6 0 568 409 781 568
279 209 425 332 425 356 0 52 -610 656 -895 885 -283 228 -802 520 -1210 683
-683 272 -1474 394 -2260 347z"/>
<path d="M70190 10560 c-470 -36 -976 -235 -1326 -521 -549 -448 -854 -1162
-854 -1994 0 -240 23 -552 56 -750 54 -329 232 -733 455 -1030 74 -99 245
-274 354 -360 174 -139 425 -278 635 -350 325 -112 651 -159 1115 -159 502 1
864 49 1205 160 753 247 1156 803 1280 1768 11 86 20 161 20 166 0 11 -502 11
-930 1 l-255 -6 -7 -50 c-20 -126 -63 -325 -83 -384 -87 -256 -284 -477 -527
-591 -364 -170 -1073 -178 -1416 -15 -227 108 -440 326 -547 560 -123 271
-145 419 -145 965 0 554 23 706 150 976 163 348 455 578 835 659 266 56 732
34 1020 -50 245 -71 427 -237 564 -513 70 -139 100 -244 145 -504 l7 -38 579
0 c546 0 580 1 580 18 0 9 -7 77 -15 150 -65 584 -298 1088 -640 1385 -321
279 -796 457 -1320 497 -184 14 -802 21 -935 10z"/>
<path d="M102300 10564 c-311 -18 -497 -49 -710 -120 -584 -194 -951 -577
-1048 -1089 -24 -130 -24 -514 1 -640 25 -125 53 -217 93 -304 104 -227 327
-458 554 -575 216 -112 443 -162 1195 -266 434 -60 621 -91 765 -125 317 -77
460 -250 460 -555 0 -124 -18 -208 -65 -306 -80 -166 -228 -256 -523 -315
-152 -30 -481 -38 -640 -15 -500 74 -791 340 -863 794 l-13 82 -553 0 -553 0
0 -27 c0 -87 24 -269 46 -357 79 -311 248 -604 472 -817 297 -283 636 -429
1162 -501 148 -20 207 -23 565 -23 400 0 496 5 715 41 391 65 675 185 922 391
274 228 428 513 467 866 16 144 14 467 -5 599 -17 129 -69 294 -120 385 -160
286 -435 510 -774 628 -172 59 -390 97 -1060 185 -626 82 -716 99 -855 166
-140 67 -224 172 -260 326 -63 267 91 538 373 658 118 50 244 71 462 77 167 4
212 2 315 -15 372 -64 564 -194 700 -475 46 -97 64 -157 65 -219 l0 -38 571 0
571 0 -6 28 c-3 15 -13 70 -21 122 -94 562 -391 969 -879 1205 -217 105 -524
188 -791 215 -112 11 -616 21 -735 14z"/>
<path d="M2247 10549 c-261 -25 -592 -123 -876 -260 -511 -247 -865 -633
-1077 -1176 -197 -503 -253 -1204 -143 -1783 99 -517 307 -955 599 -1263 258
-272 513 -438 835 -545 276 -92 407 -112 765 -119 519 -10 763 30 1065 177
268 130 487 315 626 527 26 40 73 123 106 185 l58 113 3 -447 2 -448 480 0
480 0 0 1323 0 1323 -932 -3 c-513 -2 -1150 -6 -1415 -9 l-483 -6 0 -364 c0
-199 3 -365 8 -367 4 -3 397 -8 875 -12 628 -6 867 -11 867 -19 0 -23 -62
-244 -87 -311 -119 -320 -332 -550 -608 -656 -225 -87 -471 -124 -779 -116
-227 6 -331 21 -481 72 -332 111 -595 382 -723 746 -162 460 -160 1283 4 1741
128 354 388 617 734 743 270 97 796 111 1120 29 129 -33 312 -124 417 -209
164 -132 269 -297 325 -515 l31 -120 574 0 c421 0 573 3 573 11 0 44 -48 285
-76 383 -98 339 -251 607 -466 812 -132 125 -258 211 -443 303 -264 131 -528
212 -805 247 -139 18 -1001 28 -1153 13z"/>
<path d="M6910 7985 l0 -2475 1961 0 1960 0 -6 368 c-3 202 -8 403 -11 448
l-6 81 -786 6 c-433 4 -1056 7 -1384 7 l-597 0 5 468 c3 257 7 521 10 588 l6
121 316 6 c173 4 640 7 1036 7 397 0 819 3 939 7 l217 6 0 424 0 423 -1265 0
-1265 0 0 540 0 540 1380 0 1380 0 0 455 0 455 -1945 0 -1945 0 0 -2475z"/>
<path d="M12505 10448 c-3 -7 -4 -1120 -3 -2473 l3 -2460 536 -3 536 -2 6 172
c4 95 7 713 7 1374 0 660 3 1478 7 1818 l6 617 37 -93 c51 -127 225 -516 668
-1488 206 -454 534 -1174 728 -1600 l352 -775 194 -7 c106 -3 532 -8 946 -10
l752 -4 0 2473 0 2473 -538 0 -539 0 -6 -1037 c-4 -570 -7 -1453 -7 -1962 0
-509 -3 -943 -6 -964 -7 -37 -8 -35 -54 80 -60 153 -278 637 -805 1793 -234
514 -544 1195 -688 1512 l-262 578 -933 0 c-737 0 -934 -3 -937 -12z"/>
<path d="M19070 7985 l0 -2475 1945 0 1945 0 0 455 0 455 -1375 0 -1375 0 0
600 0 600 1265 0 1265 0 -5 223 c-3 122 -8 308 -11 413 l-6 192 -30 6 c-17 3
-290 6 -608 6 -317 0 -868 3 -1223 7 l-647 6 0 539 0 538 1360 0 1360 0 0 455
0 455 -1930 0 -1930 0 0 -2475z"/>
<path d="M24640 7985 l0 -2475 580 0 580 0 2 953 3 952 475 -1 c675 -2 788
-14 960 -96 125 -60 219 -157 289 -298 67 -136 77 -194 90 -535 28 -699 34
-765 88 -958 5 -18 27 -19 526 -15 604 5 600 4 605 76 2 23 -4 67 -13 97 -18
62 -39 305 -54 620 -35 730 -37 747 -77 854 -53 140 -144 283 -235 367 -96 88
-189 141 -384 220 -71 29 -128 56 -126 61 2 4 22 13 45 20 127 38 401 208 515
322 263 261 385 570 384 971 -2 438 -197 822 -535 1052 -85 57 -281 153 -386
188 -112 38 -234 57 -447 70 -164 10 -1743 29 -2512 30 l-373 0 0 -2475z
m2380 1575 c217 -11 280 -23 381 -76 205 -108 290 -270 293 -559 1 -164 -19
-277 -65 -372 -40 -83 -163 -199 -262 -248 -64 -31 -86 -36 -202 -46 -78 -7
-378 -12 -745 -13 l-615 -1 -3 669 -2 668 512 -6 c282 -4 601 -11 708 -16z"/>
<path d="M36720 7985 l0 -2475 1718 2 1717 3 3 452 2 453 -1152 2 -1153 3 -3
2018 -2 2017 -565 0 -565 0 0 -2475z"/>
<path d="M76010 10450 c-91 -4 -174 -11 -185 -17 -12 -7 -38 -66 -76 -174 -31
-90 -170 -486 -309 -879 -816 -2316 -1352 -3852 -1346 -3857 2 -3 261 -7 574
-10 l569 -6 36 104 c21 57 97 277 171 489 l134 385 1108 0 1109 0 172 -485
171 -485 404 -3 c422 -2 712 8 730 26 7 7 -1 41 -27 114 -58 162 -253 715
-550 1563 -151 429 -439 1248 -640 1820 -202 572 -394 1118 -427 1213 -43 122
-67 176 -81 184 -11 5 -79 14 -151 19 -151 9 -1141 9 -1386 -1z m725 -965 c20
-55 187 -527 371 -1050 184 -522 342 -967 350 -989 8 -21 12 -41 9 -45 -12
-11 -1533 -7 -1545 5 -11 11 15 91 315 944 161 458 412 1164 435 1224 6 18 14
26 20 20 5 -5 25 -54 45 -109z"/>
<path d="M79600 10005 l0 -455 825 0 825 0 0 -2020 0 -2020 568 2 567 3 3
2018 2 2017 810 0 810 0 0 455 0 455 -2205 0 -2205 0 0 -455z"/>
<path d="M85626 8982 c-286 -812 -634 -1801 -773 -2197 -246 -696 -443 -1262
-443 -1271 0 -2 259 -3 576 -2 l576 3 168 483 c93 266 171 486 175 490 6 7
2183 25 2200 18 6 -2 87 -222 180 -488 l169 -485 135 -7 c174 -8 904 -8 965 0
44 6 47 9 41 31 -11 46 -217 634 -1658 4735 l-52 146 -100 6 c-55 3 -447 8
-870 11 l-770 5 -519 -1478z m1513 282 c127 -351 495 -1397 586 -1666 l64
-187 -47 -8 c-73 -12 -1441 -9 -1477 3 -16 6 -29 17 -29 25 1 8 112 325 247
704 393 1108 523 1453 539 1437 5 -5 57 -143 117 -308z"/>
<path d="M91000 7985 l0 -2475 1733 2 1732 3 3 453 2 452 -1165 0 -1165 0 -2
2018 -3 2017 -567 3 -568 2 0 -2475z"/>
<path d="M94723 10397 c19 -34 442 -816 941 -1738 l906 -1676 0 -737 0 -736
568 2 567 3 5 755 5 755 451 835 c742 1373 1384 2571 1384 2583 0 9 -1161 8
-1219 -1 l-45 -7 -274 -570 c-329 -685 -563 -1187 -742 -1587 -73 -164 -136
-298 -140 -298 -8 0 -95 181 -173 360 -93 212 -314 695 -648 1412 l-320 686
-82 6 c-45 3 -338 8 -650 11 l-569 5 35 -63z"/>
<path d="M105890 10005 l0 -455 810 0 810 0 0 -2020 0 -2020 568 2 567 3 3
2018 2 2017 810 0 810 0 0 455 0 455 -2190 0 -2190 0 0 -455z"/>
<path d="M31893 10441 c-24 -4 -44 -9 -46 -12 -4 -4 -343 -968 -1127 -3204
-577 -1647 -594 -1695 -587 -1702 4 -3 262 -6 574 -7 l568 -1 54 155 c30 85
107 304 171 485 l116 330 1106 3 c1012 2 1106 1 1112 -14 3 -9 76 -215 162
-458 86 -242 162 -456 170 -475 l14 -34 565 5 c311 3 568 8 572 11 3 3 -178
529 -402 1169 -810 2311 -1314 3740 -1320 3747 -9 8 -1650 11 -1702 2z m957
-1176 c136 -377 521 -1468 597 -1693 31 -90 52 -166 48 -170 -9 -10 -1203 -16
-1392 -7 -119 6 -153 10 -153 21 0 24 729 2093 756 2145 8 17 19 27 24 23 4
-5 58 -148 120 -319z"/>
</g>
</svg>
