<?xml version="1.0" standalone="no"?>
<!DOCTYPE svg PUBLIC "-//W3C//DTD SVG 20010904//EN"
 "http://www.w3.org/TR/2001/REC-SVG-20010904/DTD/svg10.dtd">
<svg version="1.0" xmlns="http://www.w3.org/2000/svg"
 width="9840.000000pt" height="1600.000000pt" viewBox="0 0 9840.000000 1600.000000"
 preserveAspectRatio="xMidYMid meet">
<metadata>
Created by potrace 1.16, written by Peter Selinger 2001-2019
</metadata>
<g transform="translate(0.000000,1600.000000) scale(0.100000,-0.100000)"
fill="#ffffff" stroke="none">
<path d="M5750 15989 c-1477 -85 -2822 -658 -3886 -1656 -623 -585 -1152
-1390 -1468 -2234 -340 -910 -465 -1941 -360 -2974 156 -1549 875 -2970 2019
-3994 921 -824 2022 -1330 3258 -1495 336 -45 439 -51 912 -51 482 1 626 9
985 61 960 137 1835 488 2565 1029 276 204 638 544 847 795 891 1071 1346
2480 1315 4070 -6 318 -34 644 -73 868 l-6 32 -2874 0 -2874 0 0 -860 0 -860
2015 0 2015 0 0 -23 c0 -41 -31 -259 -56 -397 -193 -1055 -734 -1880 -1579
-2409 -219 -137 -571 -294 -840 -376 -401 -122 -778 -184 -1253 -206 -772 -37
-1496 102 -2138 410 -1240 596 -2090 1760 -2328 3186 -119 712 -90 1520 78
2187 80 315 179 587 314 864 101 205 152 293 277 484 648 984 1698 1624 2927
1785 232 30 407 38 737 32 340 -5 471 -16 741 -63 813 -139 1501 -506 2165
-1155 l130 -128 595 626 c327 344 595 631 595 638 0 37 -374 419 -570 584
-662 554 -1438 914 -2383 1106 -549 111 -1216 157 -1802 124z"/>
<path d="M62565 15989 c-1334 -49 -2531 -468 -3510 -1228 -796 -617 -1420
-1389 -1805 -2231 -297 -648 -462 -1293 -537 -2100 -25 -267 -25 -978 0 -1250
129 -1402 590 -2526 1446 -3519 725 -842 1628 -1451 2646 -1784 644 -210 1295
-309 2050 -309 438 0 699 20 1085 83 842 136 1601 423 2263 855 287 188 519
376 865 703 163 154 516 524 519 544 1 7 -287 287 -640 624 l-641 612 -234
-239 c-495 -508 -832 -765 -1297 -994 -438 -215 -899 -350 -1415 -413 -208
-26 -829 -25 -1045 1 -671 80 -1216 260 -1731 571 -757 458 -1361 1151 -1704
1955 -427 1002 -488 2357 -155 3455 120 395 326 813 566 1151 387 542 954
1026 1551 1324 512 255 1038 395 1657 441 205 15 733 6 906 -15 777 -96 1407
-351 1931 -782 169 -138 309 -268 519 -480 l201 -202 626 591 c345 326 627
596 627 601 1 12 -361 378 -515 520 -435 403 -843 686 -1349 936 -364 180
-659 289 -1050 390 -434 112 -813 169 -1280 190 -237 11 -249 11 -550 -1z"/>
<path d="M41850 9790 l0 -5940 900 0 900 0 0 5940 0 5940 -900 0 -900 0 0
-5940z"/>
<path d="M68510 9780 l0 -5940 900 0 900 0 0 5940 0 5940 -900 0 -900 0 0
-5940z"/>
<path d="M96610 13440 l0 -2280 -28 0 c-24 0 -37 13 -99 108 -254 383 -594
679 -1066 927 -353 186 -710 300 -1132 362 -175 26 -779 26 -980 0 -800 -104
-1444 -385 -2030 -887 -826 -708 -1333 -1699 -1469 -2875 -49 -422 -51 -964
-5 -1400 102 -979 457 -1836 1040 -2510 114 -132 380 -390 502 -489 560 -448
1164 -705 1874 -796 344 -44 750 -46 1064 -5 878 116 1671 535 2154 1140 31
39 87 116 126 173 57 83 75 102 95 102 l24 0 0 -585 0 -585 860 0 860 0 0
5940 0 5940 -895 0 -895 0 0 -2280z m-2170 -2454 c565 -77 1063 -343 1467
-785 477 -520 711 -1112 755 -1908 35 -620 -82 -1247 -320 -1720 -305 -604
-813 -1082 -1381 -1298 -438 -166 -992 -196 -1471 -79 -752 185 -1405 783
-1725 1579 -186 461 -264 1016 -225 1585 33 468 126 832 310 1205 139 283 292
496 507 711 213 212 423 364 678 489 270 133 535 207 843 235 127 11 430 4
562 -14z"/>
<path d="M16895 12609 c-1024 -78 -1915 -446 -2644 -1092 -388 -344 -733 -806
-972 -1302 -234 -485 -367 -981 -431 -1605 -20 -197 -17 -823 6 -1035 110
-1044 479 -1896 1130 -2614 541 -596 1290 -1040 2096 -1241 431 -108 783 -146
1285 -137 398 7 679 38 1010 113 1005 226 1892 806 2486 1624 489 673 773
1458 851 2350 16 187 16 704 0 890 -62 706 -246 1322 -561 1885 -420 747
-1028 1325 -1803 1710 -486 242 -1000 386 -1588 445 -142 15 -716 21 -865 9z
m732 -1584 c838 -110 1539 -601 1946 -1365 255 -480 370 -962 371 -1555 0
-361 -34 -615 -124 -936 -289 -1020 -1015 -1747 -1950 -1952 -202 -45 -355
-60 -600 -60 -462 0 -832 86 -1207 283 -231 121 -411 256 -624 469 -164 165
-295 333 -413 531 -360 604 -507 1419 -395 2195 95 662 377 1229 830 1670 431
420 959 668 1549 728 108 11 509 6 617 -8z"/>
<path d="M26535 12609 c-1688 -129 -3045 -1069 -3693 -2560 -183 -421 -298
-885 -354 -1429 -17 -170 -17 -821 0 -1000 52 -531 161 -979 347 -1425 590
-1416 1873 -2380 3430 -2579 427 -54 989 -47 1425 19 928 140 1761 558 2405
1210 614 620 1025 1424 1189 2325 59 320 80 568 80 940 0 415 -31 733 -109
1095 -86 400 -200 719 -391 1095 -421 830 -1079 1472 -1928 1881 -456 219
-943 354 -1496 415 -173 18 -728 27 -905 13z m732 -1584 c861 -113 1584 -635
1976 -1427 209 -423 307 -799 338 -1288 50 -809 -196 -1631 -659 -2207 -204
-253 -474 -482 -757 -641 -606 -341 -1423 -404 -2135 -166 -143 48 -402 177
-538 268 -219 146 -468 376 -623 576 -266 342 -457 757 -554 1205 -105 483
-108 1025 -9 1496 171 815 661 1495 1359 1887 285 160 640 270 985 305 108 11
509 6 617 -8z"/>
<path d="M75445 12593 c-651 -34 -1293 -203 -1820 -478 -943 -491 -1687 -1334
-2039 -2307 -182 -505 -270 -1003 -283 -1603 -25 -1192 297 -2197 968 -3030
522 -647 1197 -1124 1948 -1374 801 -268 1780 -310 2651 -116 685 153 1303
469 1839 939 138 121 387 379 505 523 460 563 760 1206 900 1928 161 835 113
1764 -130 2535 -340 1077 -1139 2013 -2154 2524 -524 264 -1091 413 -1735 456
-137 9 -505 11 -650 3z m638 -1588 c486 -57 914 -236 1292 -542 122 -99 358
-338 447 -453 374 -486 559 -1017 598 -1722 17 -300 -6 -651 -61 -923 -93
-465 -275 -867 -559 -1235 -41 -52 -139 -160 -219 -240 -406 -404 -860 -635
-1422 -721 -191 -30 -587 -32 -779 -6 -521 73 -948 264 -1335 598 -455 393
-773 948 -899 1571 -107 530 -95 1154 33 1657 102 398 302 798 549 1091 112
134 328 341 457 437 336 252 700 406 1115 472 163 26 176 27 435 29 143 1 265
-3 348 -13z"/>
<path d="M35740 12564 c-19 -2 -91 -9 -160 -15 -658 -58 -1311 -295 -1820
-659 -190 -136 -297 -227 -470 -400 -454 -453 -777 -993 -999 -1673 -275 -841
-326 -1910 -136 -2841 222 -1091 761 -1954 1575 -2523 536 -375 1135 -589
1870 -670 225 -24 767 -24 939 0 475 68 868 208 1273 453 335 202 637 473 856
766 55 75 70 88 94 88 l28 0 0 -422 c0 -579 -16 -828 -71 -1118 -131 -691
-469 -1232 -976 -1564 -375 -245 -883 -376 -1463 -376 -786 0 -1381 300 -1912
964 -95 118 -250 351 -333 499 -33 59 -64 107 -69 107 -13 0 -1529 -670 -1541
-681 -23 -23 259 -534 455 -824 645 -950 1460 -1455 2610 -1619 474 -67 1029
-73 1534 -15 1258 143 2171 673 2750 1597 286 456 492 1018 610 1667 46 254
73 469 108 870 8 94 12 1231 15 4138 l3 4007 -860 0 -860 0 0 -530 c0 -510 -1
-530 -19 -530 -11 0 -32 22 -56 58 -115 174 -313 391 -493 540 -474 391 -1135
642 -1847 702 -109 9 -549 12 -635 4z m1007 -1633 c669 -102 1212 -439 1567
-970 150 -224 277 -512 355 -802 116 -434 149 -992 86 -1471 -166 -1270 -946
-2116 -2085 -2262 -574 -74 -1154 28 -1605 282 -183 103 -308 196 -464 347
-327 316 -557 726 -680 1210 -126 496 -139 1155 -35 1665 171 830 652 1478
1337 1800 253 119 500 186 802 220 141 15 572 4 722 -19z"/>
<path d="M48540 12559 c-988 -79 -1803 -407 -2470 -995 -887 -782 -1382 -1825
-1471 -3098 -15 -225 -7 -810 15 -1006 100 -885 363 -1581 835 -2205 242 -320
596 -659 939 -897 555 -387 1214 -634 1922 -722 351 -44 810 -53 1123 -22 968
96 1788 460 2511 1115 177 161 365 369 537 596 80 105 220 319 217 332 -2 7
-302 208 -668 448 -664 435 -665 436 -680 413 -109 -166 -449 -527 -633 -673
-515 -406 -1038 -595 -1647 -596 -338 0 -584 40 -877 142 -453 159 -879 473
-1218 899 -80 100 -247 350 -242 363 2 6 1364 589 3028 1295 1663 707 3025
1286 3027 1288 5 4 -26 153 -60 289 -66 268 -162 514 -333 860 -238 482 -487
839 -814 1165 -566 564 -1271 894 -2126 995 -165 20 -736 29 -915 14z m525
-1530 c378 -32 718 -158 1048 -389 112 -78 358 -321 442 -438 90 -124 176
-265 168 -273 -5 -4 -96 -44 -203 -89 -107 -45 -881 -374 -1720 -730 -839
-356 -1734 -736 -1989 -845 -255 -108 -466 -194 -469 -190 -9 9 17 499 33 619
37 274 93 508 171 723 60 161 188 417 276 548 251 375 595 680 953 846 379
174 858 256 1290 218z"/>
<path d="M81113 9443 c3 -3109 1 -2950 52 -3296 204 -1369 993 -2248 2245
-2502 280 -57 721 -93 985 -80 695 34 1305 245 1860 643 271 194 536 475 696
736 42 69 57 86 76 86 l23 0 0 -595 0 -595 860 0 860 0 0 4245 0 4245 -905 0
-905 0 -3 -2562 -2 -2563 -22 -130 c-90 -544 -313 -997 -677 -1373 -418 -431
-912 -642 -1506 -642 -556 0 -1001 170 -1318 505 -259 274 -411 635 -488 1160
-17 112 -18 301 -21 2863 l-3 2742 -906 0 -905 0 4 -2887z"/>
</g>
</svg>
