<?xml version="1.0" standalone="no"?>
<!DOCTYPE svg PUBLIC "-//W3C//DTD SVG 20010904//EN"
 "http://www.w3.org/TR/2001/REC-SVG-20010904/DTD/svg10.dtd">
<svg version="1.0" xmlns="http://www.w3.org/2000/svg"
 width="6137.000000pt" height="1600.000000pt" viewBox="0 0 6137.000000 1600.000000"
 preserveAspectRatio="xMidYMid meet">
<metadata>
Created by potrace 1.16, written by Peter Selinger 2001-2019
</metadata>
<g transform="translate(0.000000,1600.000000) scale(0.100000,-0.100000)"
fill="#ffffff" stroke="none">
<path d="M32540 9835 l0 -5715 505 0 505 0 0 5715 0 5715 -505 0 -505 0 0
-5715z"/>
<path d="M54490 9835 l0 -5715 505 0 505 0 0 1824 0 1824 187 176 c102 97 189
175 193 174 4 -2 821 -902 1816 -2000 l1809 -1998 679 0 679 0 -19 22 c-10 12
-961 1063 -2112 2336 -1151 1272 -2095 2319 -2097 2325 -2 7 166 167 372 357
430 395 736 677 2323 2140 629 580 1153 1063 1165 1072 19 16 -15 17 -640 17
l-660 0 -730 -671 c-676 -621 -1563 -1436 -2555 -2347 l-405 -371 -5 3272 -5
3273 -502 3 -503 2 0 -5715z"/>
<path d="M18825 12660 c-164 -15 -352 -40 -490 -66 -1156 -221 -2177 -898
-2832 -1879 -650 -973 -882 -2152 -648 -3301 359 -1762 1752 -3138 3522 -3478
312 -60 436 -71 858 -70 346 0 409 2 558 22 550 73 1006 212 1487 453 743 373
1361 937 1802 1642 75 121 308 564 308 587 0 6 -205 10 -562 10 l-563 -1 -82
-127 c-260 -402 -636 -775 -1041 -1031 -442 -281 -896 -447 -1437 -527 -171
-25 -658 -30 -854 -10 -997 106 -1885 627 -2470 1450 -211 297 -396 685 -495
1036 -35 124 -88 376 -101 478 l-7 52 3896 0 3897 0 -6 113 c-3 61 -10 225
-15 362 -20 498 -80 848 -217 1268 -221 680 -586 1264 -1109 1777 -705 690
-1586 1108 -2584 1226 -158 18 -663 27 -815 14z m680 -1031 c1327 -130 2462
-1048 2875 -2323 37 -115 100 -358 100 -385 0 -8 -1001 -11 -3325 -11 -3160 0
-3325 1 -3325 18 0 65 92 375 167 567 482 1222 1623 2055 2938 2145 143 9 414
4 570 -11z"/>
<path d="M4440 12643 c-901 -67 -1755 -429 -2444 -1033 -794 -698 -1313 -1669
-1460 -2735 -31 -223 -39 -356 -39 -620 0 -523 71 -966 233 -1446 472 -1406
1614 -2479 3007 -2828 601 -150 1234 -162 1848 -35 843 174 1668 645 2226
1270 59 65 121 135 138 154 l32 35 -5 -320 c-7 -430 -28 -616 -106 -920 -200
-783 -682 -1474 -1352 -1937 -460 -319 -985 -513 -1568 -579 -136 -16 -515
-16 -650 0 -437 50 -838 171 -1199 362 -325 172 -573 360 -849 643 l-151 156
-610 0 -610 0 45 -76 c359 -607 921 -1162 1539 -1519 364 -210 757 -368 1159
-465 384 -93 675 -125 1086 -117 298 6 431 18 680 63 1153 209 2177 877 2839
1854 396 584 626 1199 728 1950 16 116 17 416 20 4018 l3 3892 -500 0 -500 0
-2 -657 -3 -656 -74 89 c-99 118 -362 379 -486 483 -682 567 -1485 897 -2360
971 -110 9 -508 11 -615 3z m620 -1014 c991 -103 1885 -686 2422 -1579 208
-346 345 -702 427 -1115 46 -231 64 -418 64 -680 0 -262 -18 -449 -64 -680
-113 -564 -341 -1057 -697 -1505 -98 -122 -380 -404 -502 -502 -486 -385
-1029 -613 -1630 -682 -155 -18 -486 -21 -641 -6 -1004 100 -1912 686 -2446
1580 -256 428 -410 890 -475 1425 -16 130 -16 610 0 740 80 655 301 1223 666
1710 592 788 1454 1258 2401 1309 99 5 362 -3 475 -15z"/>
<path d="M38950 12640 c-618 -46 -1220 -229 -1765 -538 -124 -70 -379 -241
-497 -335 -298 -233 -580 -519 -800 -812 -428 -571 -712 -1228 -832 -1925 -51
-295 -60 -422 -60 -780 0 -358 9 -483 60 -780 157 -920 614 -1787 1286 -2435
1135 -1095 2735 -1462 4210 -965 1057 356 1952 1151 2462 2184 471 954 588
2052 330 3091 -284 1145 -1012 2132 -2011 2726 -504 299 -1067 487 -1663 554
-168 19 -553 27 -720 15z m465 -1000 c952 -61 1795 -527 2382 -1317 374 -503
605 -1115 663 -1761 16 -172 8 -605 -15 -762 -106 -758 -426 -1426 -935 -1954
-521 -540 -1197 -876 -1930 -960 -177 -21 -513 -21 -690 0 -580 66 -1114 286
-1592 654 -155 119 -445 408 -562 560 -396 513 -619 1045 -713 1701 -14 99
-18 191 -18 454 0 346 8 437 56 679 133 670 441 1259 909 1740 575 591 1317
929 2125 969 134 7 167 7 320 -3z"/>
<path d="M48660 12644 c-882 -79 -1625 -375 -2310 -923 -156 -124 -460 -420
-582 -566 -362 -434 -635 -915 -813 -1435 -259 -757 -311 -1584 -150 -2376
336 -1651 1575 -2971 3158 -3364 375 -93 665 -125 1057 -117 288 6 461 25 725
77 1380 276 2545 1228 3094 2528 50 117 161 426 161 446 0 3 -240 6 -534 6
l-534 0 -23 -57 c-12 -32 -51 -116 -87 -188 -279 -563 -696 -1017 -1233 -1342
-371 -224 -767 -366 -1214 -435 -169 -26 -525 -35 -702 -19 -1080 102 -2040
760 -2559 1756 -363 696 -482 1532 -328 2305 313 1568 1630 2700 3144 2702
1194 1 2293 -667 2856 -1736 36 -69 87 -178 114 -243 l49 -118 534 -3 535 -2
-34 107 c-137 439 -357 878 -620 1240 -139 190 -266 336 -453 523 -678 676
-1547 1097 -2511 1215 -129 16 -629 29 -740 19z"/>
<path d="M14495 12463 c-709 -42 -1321 -247 -1893 -632 -184 -123 -514 -402
-581 -490 l-26 -35 -7 50 c-3 27 -7 247 -7 490 -1 243 -4 469 -7 503 l-7 61
-498 0 -499 0 0 -4145 0 -4145 500 0 499 0 4 2437 c3 2656 0 2480 57 2764 129
633 501 1216 1025 1604 442 328 901 491 1488 531 l97 6 0 504 0 504 -47 -2
c-27 -1 -70 -3 -98 -5z"/>
<path d="M24013 12403 c10 -16 3230 -8289 3234 -8308 5 -22 -602 -1596 -668
-1732 -146 -303 -435 -591 -742 -737 -180 -86 -354 -135 -556 -155 -57 -6
-244 -11 -417 -11 l-314 0 0 -505 0 -505 313 0 c341 0 519 10 699 41 821 138
1534 667 1902 1412 69 138 812 2045 4066 10435 l28 72 -541 -2 -541 -3 -1336
-3441 c-735 -1893 -1340 -3451 -1346 -3464 -8 -19 -214 504 -1355 3441 l-1345
3464 -543 3 c-298 1 -540 -1 -538 -5z"/>
</g>
</svg>
