<?xml version="1.0" standalone="no"?>
<!DOCTYPE svg PUBLIC "-//W3C//DTD SVG 20010904//EN"
 "http://www.w3.org/TR/2001/REC-SVG-20010904/DTD/svg10.dtd">
<svg version="1.0" xmlns="http://www.w3.org/2000/svg"
 width="3430.000000pt" height="1600.000000pt" viewBox="0 0 3430.000000 1600.000000"
 preserveAspectRatio="xMidYMid meet">
<metadata>
Created by potrace 1.16, written by Peter Selinger 2001-2019
</metadata>
<g transform="translate(0.000000,1600.000000) scale(0.100000,-0.100000)"
fill="#ffffff" stroke="none">
<path d="M7650 15994 c-468 -33 -670 -54 -950 -100 -999 -164 -1941 -510
-2812 -1031 -189 -113 -218 -142 -218 -217 0 -64 28 -112 80 -139 62 -32 102
-20 277 85 945 567 1954 915 3030 1048 563 69 1177 74 1758 14 975 -100 1965
-405 2825 -871 905 -490 1674 -1124 2325 -1918 223 -271 492 -655 655 -935 40
-69 82 -136 94 -149 91 -103 256 -36 256 103 0 47 -8 65 -101 220 -723 1213
-1793 2243 -3034 2919 -999 544 -2035 852 -3205 952 -174 15 -848 28 -980 19z"/>
<path d="M7590 14658 c-745 -44 -1508 -224 -2205 -520 -1009 -429 -1922 -1126
-2608 -1990 -575 -726 -985 -1539 -1223 -2428 -24 -91 -44 -180 -44 -198 0
-74 52 -134 128 -148 44 -8 116 20 141 54 10 15 41 113 69 217 634 2373 2602
4189 5007 4619 337 60 621 89 992 102 172 5 206 9 232 25 99 60 93 209 -9 262
-30 15 -58 17 -195 15 -88 -1 -216 -6 -285 -10z"/>
<path d="M10415 14170 c-98 -40 -115 -198 -28 -257 16 -11 84 -43 153 -73 266
-114 636 -310 890 -474 599 -384 1156 -892 1594 -1452 280 -360 481 -682 696
-1119 306 -622 490 -1223 589 -1920 84 -588 78 -1283 -16 -1850 -42 -253 -38
-291 40 -349 61 -45 177 -13 211 58 9 19 30 119 46 223 176 1124 65 2275 -321
3331 -583 1594 -1748 2902 -3264 3667 -403 203 -518 245 -590 215z"/>
<path d="M7655 13144 c-1098 -77 -2103 -482 -2969 -1197 -240 -198 -671 -654
-801 -847 -41 -61 -46 -115 -16 -170 20 -38 88 -80 129 -80 44 0 105 38 142
87 156 210 477 550 694 736 708 607 1536 987 2456 1126 172 26 478 51 628 51
103 0 122 3 156 23 92 52 102 171 21 247 -26 25 -29 25 -208 26 -100 1 -204
-1 -232 -2z"/>
<path d="M9359 12917 c-66 -44 -86 -124 -49 -197 24 -48 43 -58 191 -105 483
-155 987 -418 1410 -735 921 -690 1574 -1699 1824 -2814 14 -66 35 -133 47
-148 54 -77 168 -78 237 -4 42 45 40 105 -13 320 -264 1067 -855 2012 -1701
2721 -490 411 -1050 724 -1670 934 -171 58 -223 63 -276 28z"/>
<path d="M1130 12068 c-41 -28 -113 -149 -264 -448 -480 -947 -748 -1903 -843
-3005 -21 -248 -24 -943 -5 -1165 34 -396 56 -568 108 -865 332 -1876 1350
-3597 2841 -4802 343 -278 700 -521 1088 -744 116 -66 136 -74 182 -74 115 0
184 112 131 215 -19 36 -37 52 -93 84 -958 531 -1796 1266 -2460 2156 -594
797 -1036 1730 -1281 2705 -218 866 -282 1779 -188 2690 105 1018 421 2013
931 2933 83 150 85 155 81 209 -4 46 -10 60 -41 91 -31 31 -43 36 -94 40 -49
3 -64 0 -93 -20z"/>
<path d="M8105 10854 c-16 -2 -73 -9 -125 -15 -472 -53 -932 -245 -1277 -532
-454 -379 -739 -921 -840 -1592 -26 -175 -26 -742 0 -935 68 -498 224 -905
475 -1240 349 -465 856 -750 1512 -851 260 -41 847 -37 1240 7 253 29 649 112
861 182 l114 37 0 1235 0 1235 -562 3 -563 2 0 -869 c0 -820 -1 -870 -17 -875
-119 -33 -645 -42 -808 -12 -539 97 -895 445 -1040 1014 -118 469 -83 1075 85
1463 211 486 553 710 1161 760 390 32 812 -49 1213 -231 72 -33 134 -56 138
-52 4 4 50 126 102 272 52 146 122 341 155 434 34 93 61 175 61 181 0 17 -244
136 -375 183 -252 91 -614 165 -940 192 -111 9 -501 12 -570 4z"/>
<path d="M3353 10141 c-51 -24 -60 -38 -117 -173 -85 -202 -152 -404 -229
-688 -49 -177 -105 -491 -133 -737 -25 -217 -30 -725 -10 -963 82 -973 418
-1867 998 -2651 92 -125 134 -165 184 -175 72 -13 153 35 170 102 17 67 0 107
-103 245 -758 1015 -1085 2264 -922 3529 53 415 180 887 337 1250 57 130 49
194 -29 253 -38 28 -96 31 -146 8z"/>
<path d="M19155 10094 c-712 -96 -1244 -471 -1546 -1087 -139 -285 -207 -573
-225 -957 -7 -169 8 -427 37 -603 111 -681 462 -1179 1023 -1453 353 -172 746
-234 1301 -205 390 21 738 79 1068 178 l87 26 0 1034 0 1033 -465 0 -465 0 0
-724 0 -724 -22 -6 c-113 -31 -578 -31 -718 -1 -219 47 -357 122 -510 275
-146 146 -232 296 -294 513 -92 320 -92 784 0 1104 113 393 343 637 699 742
236 69 587 77 855 19 130 -28 374 -108 494 -163 55 -24 101 -44 102 -42 5 5
264 729 264 738 0 14 -208 115 -317 153 -205 71 -487 130 -742 156 -142 14
-505 11 -626 -6z"/>
<path d="M32235 9084 c-77 -7 -203 -23 -280 -35 -149 -22 -444 -86 -458 -99
-7 -6 97 -707 106 -716 1 -2 29 6 62 17 254 84 790 130 1000 85 255 -54 385
-217 385 -479 0 -77 -2 -88 -16 -83 -9 3 -70 14 -137 23 -190 28 -580 25 -748
-5 -352 -63 -537 -147 -709 -321 -132 -134 -186 -233 -227 -415 -22 -100 -22
-353 1 -470 72 -367 302 -607 688 -715 330 -93 882 -102 1418 -25 168 24 535
88 573 100 17 5 18 54 14 1067 -3 1045 -4 1064 -25 1177 -47 243 -124 407
-256 548 -124 130 -241 204 -428 271 -233 82 -601 110 -963 75z m738 -1884
l77 -12 0 -338 c0 -302 -2 -339 -16 -344 -9 -3 -106 -11 -216 -17 -414 -21
-622 33 -698 181 -45 88 -50 237 -11 324 72 164 250 229 611 222 96 -2 210 -9
253 -16z"/>
<path d="M28905 9083 c-22 -1 -103 -8 -180 -13 -289 -23 -637 -79 -867 -141
l-78 -21 0 -2079 0 -2079 448 2 447 3 3 588 c1 343 6 587 11 587 5 0 31 -9 58
-21 146 -62 397 -109 588 -109 610 0 1062 319 1265 895 135 383 153 896 46
1289 -139 504 -457 844 -943 1006 -240 80 -534 114 -798 93z m371 -783 c273
-70 447 -291 509 -644 18 -104 20 -367 4 -481 -37 -266 -146 -462 -306 -548
-164 -88 -446 -91 -676 -6 -44 16 -91 36 -104 44 l-23 15 0 809 0 809 64 7
c253 27 411 26 532 -5z"/>
<path d="M22745 9074 c-166 -16 -254 -28 -345 -45 -149 -29 -435 -101 -567
-144 l-113 -36 0 -1495 0 -1494 445 0 445 0 0 1204 c0 687 4 1207 9 1210 32
20 242 41 401 40 165 -1 187 -3 383 -43 115 -24 211 -41 213 -38 5 5 143 671
147 711 2 23 -39 39 -173 67 -208 44 -360 60 -585 64 -121 1 -238 1 -260 -1z"/>
<path d="M24220 8057 c0 -605 4 -1004 11 -1073 22 -229 76 -437 152 -589 80
-160 162 -261 287 -354 186 -139 393 -211 690 -242 143 -15 561 -6 748 16 258
29 725 114 809 146 l23 9 0 1525 0 1525 -445 0 -445 0 0 -1219 0 -1219 -32 -5
c-200 -35 -470 -34 -576 2 -180 62 -259 177 -309 451 -15 84 -17 202 -20 1043
l-4 947 -445 0 -444 0 0 -963z"/>
<path d="M1412 8133 c-59 -29 -77 -66 -80 -170 -8 -205 27 -666 74 -973 167
-1092 598 -2115 1263 -2998 852 -1131 2034 -1960 3380 -2371 115 -36 138 -40
171 -31 73 20 120 79 120 151 0 37 -33 100 -62 118 -11 7 -95 37 -187 66 -350
112 -584 206 -906 365 -751 370 -1409 874 -1971 1512 -729 827 -1238 1852
-1454 2928 -75 373 -105 632 -121 1040 -12 303 -15 315 -79 357 -39 27 -100
30 -148 6z"/>
<path d="M12945 8140 c-28 -11 -72 -60 -84 -93 -6 -16 -11 -83 -11 -151 0
-154 -15 -348 -41 -541 -144 -1061 -623 -2027 -1380 -2784 -206 -206 -453
-413 -690 -577 -79 -54 -99 -133 -55 -209 52 -88 144 -97 249 -24 1363 947
2197 2501 2220 4136 2 140 0 153 -19 180 -47 63 -126 90 -189 63z"/>
<path d="M15780 8132 c-19 -9 -44 -31 -56 -49 -19 -29 -22 -50 -28 -265 -12
-418 -45 -751 -111 -1139 -217 -1266 -762 -2474 -1571 -3483 -367 -458 -835
-920 -1289 -1272 -1041 -809 -2261 -1334 -3561 -1533 -289 -44 -650 -76 -1002
-87 -194 -6 -216 -9 -245 -28 -94 -63 -85 -206 16 -257 41 -21 49 -22 272 -15
1169 34 2252 296 3280 795 828 402 1522 897 2180 1556 613 612 1103 1291 1486
2055 504 1008 781 2055 839 3180 15 304 13 438 -8 480 -36 73 -126 101 -202
62z"/>
<path d="M13919 5567 c-19 -12 -44 -43 -56 -67 -231 -473 -297 -601 -380 -740
-748 -1251 -1850 -2182 -3203 -2707 -666 -258 -1349 -392 -2138 -419 -174 -6
-196 -8 -225 -28 -92 -61 -87 -197 9 -254 39 -23 42 -23 259 -17 987 27 1904
255 2780 690 1307 650 2356 1696 3007 3000 113 225 178 377 178 416 0 116
-135 190 -231 126z"/>
<path d="M4830 4207 c-50 -26 -80 -75 -80 -130 0 -70 23 -99 158 -199 564
-421 1163 -706 1842 -878 796 -201 1700 -201 2505 1 325 81 703 214 758 267
54 52 60 143 12 200 -58 70 -122 67 -329 -12 -518 -199 -1112 -306 -1694 -306
-1046 0 -2050 331 -2889 954 -183 135 -206 144 -283 103z"/>
</g>
</svg>
