<?xml version="1.0" standalone="no"?>
<!DOCTYPE svg PUBLIC "-//W3C//DTD SVG 20010904//EN"
 "http://www.w3.org/TR/2001/REC-SVG-20010904/DTD/svg10.dtd">
<svg version="1.0" xmlns="http://www.w3.org/2000/svg"
 width="1940.000000pt" height="1600.000000pt" viewBox="0 0 1940.000000 1600.000000"
 preserveAspectRatio="xMidYMid meet">
<metadata>
Created by potrace 1.16, written by Peter Selinger 2001-2019
</metadata>
<g transform="translate(0.000000,1600.000000) scale(0.100000,-0.100000)"
fill="#ffffff" stroke="none">
<path d="M0 15120 l0 -880 4410 0 4410 0 0 880 0 880 -4410 0 -4410 0 0 -880z"/>
<path d="M5300 11600 l0 -880 6175 0 6175 0 0 880 0 880 -6175 0 -6175 0 0
-880z"/>
<path d="M5300 8060 l0 -880 7045 0 7045 0 0 880 0 880 -7045 0 -7045 0 0
-880z"/>
<path d="M5300 4540 l0 -880 6175 0 6175 0 0 880 0 880 -6175 0 -6175 0 0
-880z"/>
<path d="M5300 1010 l0 -880 4405 0 4405 0 0 880 0 880 -4405 0 -4405 0 0
-880z"/>
</g>
</svg>
