<?xml version="1.0" standalone="no"?>
<!DOCTYPE svg PUBLIC "-//W3C//DTD SVG 20010904//EN"
 "http://www.w3.org/TR/2001/REC-SVG-20010904/DTD/svg10.dtd">
<svg version="1.0" xmlns="http://www.w3.org/2000/svg"
 width="8356.000000pt" height="1600.000000pt" viewBox="0 0 8356.000000 1600.000000"
 preserveAspectRatio="xMidYMid meet">
<metadata>
Created by potrace 1.16, written by Peter Selinger 2001-2019
</metadata>
<g transform="translate(0.000000,1600.000000) scale(0.100000,-0.100000)"
fill="#ffffff" stroke="none">
<path d="M6607 15986 c-76 -28 -110 -83 -122 -196 -11 -101 -13 -103 -170
-149 -170 -50 -179 -104 -30 -179 22 -11 104 -43 183 -72 165 -61 206 -84 210
-122 3 -23 -8 -35 -75 -84 -283 -208 -322 -244 -362 -330 -32 -67 -37 -147
-16 -273 10 -60 15 -120 12 -133 -4 -13 -27 -47 -52 -77 -122 -143 -125 -260
-10 -376 65 -65 166 -126 405 -245 520 -259 856 -495 1206 -844 200 -200 312
-337 461 -561 238 -358 404 -758 487 -1175 50 -247 60 -365 60 -670 0 -308
-12 -453 -60 -687 -185 -909 -940 -1676 -1984 -2017 -1008 -329 -2056 -187
-2778 377 -465 363 -804 918 -920 1507 -42 212 -47 269 -47 555 1 239 4 299
23 412 95 578 337 1073 716 1462 215 220 457 393 729 521 56 26 203 86 327
135 124 48 238 94 255 103 l30 17 -44 3 c-61 5 -302 -32 -451 -68 -394 -95
-791 -273 -1133 -506 -59 -41 -114 -74 -122 -74 -33 0 -11 42 60 118 335 356
1144 704 2060 886 186 37 364 67 520 87 105 13 135 23 135 43 0 39 -228 84
-539 107 -206 15 -736 6 -949 -15 -210 -22 -418 -52 -607 -88 -193 -36 -187
-36 -192 -22 -5 15 164 98 317 157 207 79 380 127 741 202 117 24 217 49 223
55 16 16 -17 38 -73 47 -74 13 -575 9 -691 -5 -824 -101 -1498 -405 -2118
-953 -354 -314 -561 -555 -752 -875 -293 -491 -464 -1020 -547 -1684 -23 -184
-26 -825 -5 -1015 45 -402 167 -886 323 -1272 65 -161 216 -474 299 -618 334
-583 792 -1102 1320 -1499 481 -362 1167 -655 1861 -795 777 -158 1644 -136
2449 60 1277 311 2385 988 3194 1953 1030 1229 1477 2802 1245 4381 -124 841
-454 1669 -934 2340 -183 256 -339 437 -571 666 -331 323 -602 521 -1062 772
-485 265 -1022 468 -1608 608 -399 95 -739 138 -827 105z"/>
<path d="M72155 14914 c-49 -19 -198 -71 -329 -115 -813 -273 -1684 -462
-2546 -552 l-215 -23 -3 -437 c-2 -345 0 -438 10 -441 7 -2 85 -18 173 -34
360 -69 565 -157 694 -297 90 -100 145 -221 179 -400 16 -84 17 -417 20 -4885
2 -3290 0 -4839 -7 -4935 -40 -523 -250 -717 -953 -880 l-118 -27 0 -449 0
-449 2140 0 2140 0 0 444 c0 277 -4 447 -10 451 -5 3 -74 21 -152 41 -646 157
-860 350 -907 819 -8 77 -11 1845 -11 6157 0 3326 -3 6048 -7 6047 -5 0 -48
-16 -98 -35z"/>
<path d="M82330 14904 c-177 -69 -623 -217 -840 -279 -518 -148 -1051 -260
-1595 -335 -202 -27 -587 -70 -635 -70 -20 0 -20 -5 -20 -439 l0 -439 148 -27
c228 -43 382 -88 512 -152 101 -49 125 -66 195 -137 116 -116 166 -222 200
-420 13 -76 15 -248 15 -1176 l0 -1088 -87 38 c-412 177 -896 251 -1448 220
-1088 -60 -2139 -483 -3103 -1248 -1053 -835 -1703 -1915 -1896 -3152 -37
-235 -49 -414 -49 -725 -1 -324 13 -519 54 -795 191 -1270 864 -2372 1888
-3089 572 -400 1216 -651 1856 -722 136 -15 456 -15 585 0 902 106 1723 550
2308 1249 53 64 106 130 118 146 l21 29 6 -144 c4 -79 7 -386 7 -681 0 -296 3
-538 6 -538 3 0 79 26 167 59 624 227 1267 396 1923 505 115 19 360 58 544 86
184 28 338 55 343 59 4 4 6 202 5 441 l-3 434 -125 18 c-262 37 -410 78 -570
156 -77 38 -110 61 -176 127 -129 127 -189 271 -213 510 -8 77 -11 1765 -11
5867 0 3167 -3 5758 -7 5757 -5 0 -60 -21 -123 -45z m-3725 -5475 c368 -31
760 -172 1050 -377 362 -256 608 -638 697 -1082 13 -63 26 -117 30 -120 4 -3
38 -1002 75 -2220 l68 -2214 -25 -37 c-63 -94 -164 -213 -270 -319 -197 -196
-391 -335 -635 -455 -451 -223 -850 -268 -1316 -150 -159 41 -296 92 -465 175
-552 272 -1022 751 -1337 1362 -388 754 -537 1713 -431 2773 123 1240 598
2069 1403 2453 254 121 578 200 886 215 130 7 154 6 270 -4z"/>
<path d="M21312 13778 l3 -452 130 -26 c401 -84 635 -178 773 -313 100 -98
154 -203 195 -377 l22 -95 3 -4840 c2 -3428 0 -4868 -8 -4936 -55 -488 -276
-672 -985 -819 l-130 -26 -3 -457 -2 -457 2195 0 2195 0 -2 457 -3 457 -130
26 c-571 119 -810 271 -913 582 -66 200 -62 -165 -62 5114 0 3320 3 4814 11
4880 53 476 273 659 964 803 l130 27 3 452 2 452 -2195 0 -2195 0 2 -452z"/>
<path d="M32824 10605 c-986 -93 -1870 -453 -2866 -1166 l-113 -80 -3 555 c-1
381 -5 556 -13 556 -5 0 -101 -36 -212 -81 -254 -102 -671 -241 -936 -313
-324 -89 -558 -137 -1292 -268 l-689 -122 0 -437 0 -437 28 -6 c407 -78 534
-115 689 -202 82 -46 188 -146 232 -219 46 -76 88 -196 109 -314 16 -89 17
-274 17 -2696 0 -2804 2 -2684 -52 -2860 -97 -313 -324 -464 -905 -600 l-118
-28 0 -453 0 -454 2125 0 2125 0 -2 457 -3 456 -160 33 c-195 40 -276 63 -382
107 -292 123 -436 339 -473 706 -7 68 -10 1057 -10 2915 l0 2811 115 53 c559
258 1092 401 1730 463 171 17 670 17 800 1 476 -61 782 -195 1040 -456 257
-259 408 -590 489 -1076 52 -310 51 -260 51 -2580 l0 -2165 -22 -101 c-89
-401 -299 -566 -858 -679 l-160 -33 -3 -456 -2 -456 2125 0 2125 0 0 454 0
454 -157 37 c-398 95 -641 214 -755 371 -45 62 -91 154 -112 224 -47 154 -46
114 -46 2380 0 2118 -4 2415 -35 2730 -92 930 -395 1670 -895 2184 -429 441
-954 691 -1640 782 -169 22 -691 28 -886 9z"/>
<path d="M56695 10614 c-698 -57 -1241 -202 -1796 -480 -448 -224 -798 -481
-1159 -850 -686 -702 -1127 -1625 -1289 -2694 -105 -699 -87 -1494 50 -2158
263 -1277 970 -2306 2024 -2944 881 -534 2043 -754 3150 -597 1349 190 2495
899 3200 1979 442 676 704 1440 801 2330 21 197 30 781 15 993 -101 1383 -683
2571 -1656 3380 -621 516 -1373 851 -2216 987 -253 40 -406 52 -744 55 -181 1
-352 1 -380 -1z m439 -1043 c396 -82 716 -254 1020 -550 346 -338 609 -766
824 -1342 335 -896 491 -2193 386 -3208 -165 -1600 -843 -2514 -1943 -2621
-487 -47 -955 95 -1353 412 -683 544 -1159 1587 -1343 2943 -133 985 -96 1922
105 2635 290 1025 876 1626 1700 1746 140 20 474 12 604 -15z"/>
<path d="M67745 10610 c-752 -85 -1517 -620 -2004 -1400 -89 -143 -225 -415
-290 -578 l-48 -124 -7 174 c-3 95 -9 536 -12 981 -4 515 -10 807 -17 807 -5
0 -93 -33 -196 -74 -542 -215 -1094 -377 -1641 -480 -202 -38 -1266 -226
-1279 -226 -8 0 -11 -126 -11 -440 l0 -439 38 -7 c681 -118 906 -267 1005
-662 l21 -87 4 -2630 c2 -1916 0 -2655 -8 -2723 -54 -438 -273 -627 -902 -777
l-158 -37 0 -449 0 -449 2145 0 2145 0 -2 451 -3 451 -163 33 c-181 38 -326
80 -428 125 -279 126 -429 348 -464 692 -5 57 -17 708 -25 1448 -16 1381 -15
1466 21 1710 185 1268 1148 2545 2107 2794 154 40 265 48 513 36 299 -14 468
-40 697 -107 16 -5 17 42 15 928 l-3 934 -49 26 c-64 35 -191 65 -351 84 -158
18 -541 27 -650 15z"/>
<path d="M36880 10022 l0 -458 83 -34 c471 -191 666 -392 841 -870 25 -69 638
-1810 1362 -3870 724 -2060 1322 -3760 1330 -3777 l13 -33 985 0 c542 0 987 4
990 9 3 4 494 1405 1092 3112 1213 3465 1103 3153 1109 3148 2 -3 490 -1406
1084 -3119 594 -1713 1083 -3123 1086 -3133 7 -16 62 -17 1007 -15 l1000 3
485 1400 c266 770 853 2466 1304 3770 451 1303 840 2419 863 2480 194 496 438
742 876 886 l115 38 3 460 2 461 -1705 0 -1705 0 0 -468 0 -467 138 -17 c430
-53 678 -194 750 -428 28 -90 23 -318 -10 -440 -24 -91 -1720 -5566 -1736
-5603 -5 -11 -414 1221 -1207 3638 l-1200 3655 -752 0 -751 0 -40 -117 c-22
-65 -574 -1704 -1226 -3643 -653 -1939 -1191 -3528 -1195 -3532 -6 -7 -1646
5424 -1699 5632 -21 79 -25 120 -26 245 -1 185 14 232 105 330 120 128 376
221 749 273 l55 7 3 468 2 467 -2090 0 -2090 0 0 -458z"/>
<path d="M4630 3413 c-47 -1 -256 -7 -465 -13 -830 -23 -1757 -64 -2410 -105
-1030 -65 -1478 -140 -1634 -271 -80 -67 -80 -143 -2 -330 60 -144 81 -219 81
-292 0 -96 -16 -129 -106 -217 -48 -46 -85 -92 -89 -108 -35 -138 149 -364
445 -548 124 -77 228 -122 390 -169 231 -67 342 -128 325 -180 -11 -34 -69
-65 -264 -140 -101 -38 -205 -82 -233 -97 -57 -31 -108 -85 -108 -114 0 -49
54 -110 133 -150 73 -38 224 -68 465 -94 130 -14 275 -35 322 -45 72 -17 317
-31 1600 -95 833 -41 1565 -79 1626 -85 60 -5 246 -10 412 -10 166 0 345 -4
399 -10 54 -5 159 -14 233 -20 74 -6 313 -33 530 -60 217 -27 442 -54 500 -60
211 -21 693 -40 1010 -40 179 -1 384 -5 455 -10 72 -5 256 -14 410 -19 154 -6
361 -18 460 -26 99 -8 248 -19 330 -25 83 -5 224 -19 315 -29 305 -36 517 -45
1125 -45 621 -1 742 5 868 44 130 40 207 120 223 229 5 36 16 56 51 92 28 29
49 63 59 95 22 71 28 197 15 282 -42 271 -304 827 -624 1327 -50 77 -133 214
-185 305 -134 232 -184 304 -273 392 -97 95 -195 147 -414 217 -306 100 -508
131 -1210 191 -192 16 -447 38 -565 49 -1403 129 -3284 212 -4200 184z"/>
</g>
</svg>
