<?xml version="1.0" standalone="no"?>
<!DOCTYPE svg PUBLIC "-//W3C//DTD SVG 20010904//EN"
 "http://www.w3.org/TR/2001/REC-SVG-20010904/DTD/svg10.dtd">
<svg version="1.0" xmlns="http://www.w3.org/2000/svg"
 width="9366.000000pt" height="1600.000000pt" viewBox="0 0 9366.000000 1600.000000"
 preserveAspectRatio="xMidYMid meet">
<metadata>
Created by potrace 1.16, written by Peter Selinger 2001-2019
</metadata>
<g transform="translate(0.000000,1600.000000) scale(0.100000,-0.100000)"
fill="#ffffff" stroke="none">
<path d="M7505 15929 c-1790 -106 -3467 -797 -4815 -1983 -384 -338 -786 -774
-1102 -1194 -1546 -2055 -1995 -4735 -1206 -7182 566 -1756 1752 -3282 3322
-4277 1150 -729 2446 -1142 3831 -1223 239 -14 16013 -14 16270 0 1684 91
3276 706 4591 1771 306 249 710 635 953 914 726 831 1249 1741 1587 2760 373
1126 487 2306 338 3485 -153 1209 -588 2371 -1269 3390 -1114 1668 -2802 2852
-4740 3325 -394 96 -725 150 -1230 202 -160 16 -666 17 -8280 19 -4460 1
-8173 -3 -8250 -7z m565 -2534 c400 -59 801 -229 1090 -462 105 -84 213 -200
313 -335 189 -254 274 -403 506 -884 224 -464 321 -638 465 -832 135 -181 360
-416 1222 -1277 768 -768 1057 -1087 1417 -1570 385 -517 788 -1225 1130
-1990 47 -104 117 -261 156 -347 43 -96 96 -240 136 -370 136 -437 159 -474
487 -790 307 -296 377 -389 365 -489 -6 -46 -4 -50 36 -90 23 -23 103 -87 177
-142 165 -123 227 -184 236 -234 16 -85 -35 -109 -256 -120 -201 -10 -355 32
-461 126 l-45 39 -32 -39 c-48 -56 -93 -66 -202 -43 -134 27 -141 27 -157 -23
l-15 -43 -62 0 c-79 0 -161 21 -255 66 -190 89 -366 262 -558 547 l-87 129
-85 42 c-111 56 -258 120 -556 244 -288 119 -442 188 -551 246 l-81 43 -7 -96
c-3 -53 -6 -156 -6 -229 0 -244 -34 -425 -103 -557 -19 -36 -63 -92 -111 -139
l-79 -78 5 -62 c11 -135 87 -233 215 -276 62 -21 92 -24 368 -31 165 -4 326
-13 358 -19 122 -24 195 -72 233 -155 34 -72 33 -75 -32 -75 -81 0 -137 -18
-183 -56 -112 -96 -213 -103 -416 -29 -262 96 -349 112 -450 84 -57 -16 -236
-115 -410 -228 -82 -54 -170 -109 -195 -123 -116 -66 -252 -109 -430 -134 -98
-14 -106 -13 -117 3 -23 31 -14 58 42 128 18 22 61 89 96 149 80 139 151 216
235 257 35 18 64 34 64 37 0 3 -48 2 -107 -1 -161 -8 -251 -40 -553 -197 -98
-51 -110 -55 -176 -55 -66 0 -78 4 -162 48 -162 84 -235 84 -404 -1 -68 -34
-100 -46 -108 -38 -18 18 -11 63 18 99 84 105 201 157 360 157 47 0 81 4 78 9
-9 14 -152 72 -231 93 -38 11 -115 22 -170 25 -190 10 -339 -34 -625 -185
-212 -112 -233 -122 -306 -137 -114 -24 -213 10 -291 99 l-39 44 -40 -17 c-38
-17 -105 -83 -170 -165 l-31 -40 -18 34 c-17 34 -17 50 0 175 l6 40 -60 27
c-67 29 -94 62 -96 116 -1 33 -4 37 -35 44 -77 18 -160 -9 -272 -88 l-63 -44
-17 21 c-10 12 -18 28 -18 36 0 23 29 73 86 148 116 154 108 149 287 164 95 8
113 13 153 40 79 52 136 66 259 65 111 -1 194 -15 460 -79 149 -36 419 -47
511 -20 138 40 256 132 310 241 22 46 28 71 28 123 0 74 -13 106 -94 234 -82
131 -135 308 -159 529 -6 54 -11 220 -11 370 l0 273 -31 65 c-39 82 -171 215
-399 401 -186 151 -315 270 -371 344 -21 28 -75 95 -119 150 -158 195 -439
639 -524 829 -164 367 -269 746 -396 1421 -152 810 -211 1067 -315 1380 -99
298 -205 525 -348 748 -36 57 -54 77 -66 73 -9 -3 -63 -22 -121 -43 l-105 -38
-175 1 c-192 0 -253 12 -403 74 -70 29 -200 105 -260 153 l-29 22 -34 -40
c-80 -94 -120 -216 -140 -429 l-6 -68 -30 28 c-44 43 -125 174 -159 259 -110
277 -111 615 -2 929 93 267 248 470 538 701 50 40 96 79 103 87 7 8 17 41 23
73 35 189 145 400 283 544 212 221 494 349 862 391 111 12 378 5 514 -15z
m16280 -601 c831 -104 1563 -583 1994 -1305 195 -325 313 -669 362 -1055 20
-154 22 -472 5 -624 -57 -507 -261 -1000 -577 -1400 -80 -101 -1363 -1392
-1512 -1521 -294 -255 -560 -405 -975 -551 -36 -12 -41 -20 -76 -103 -98 -235
-242 -476 -398 -670 -106 -131 -1480 -1500 -1598 -1592 -406 -317 -851 -503
-1361 -569 -155 -20 -481 -23 -634 -5 -493 57 -966 247 -1363 548 -124 94
-389 356 -479 473 -296 386 -478 807 -549 1273 -27 171 -36 473 -20 644 51
542 250 1036 591 1463 99 124 408 439 1060 1079 512 503 604 582 842 723 149
88 332 172 493 228 l121 41 29 77 c92 240 270 530 466 757 123 143 1414 1423
1519 1507 449 356 951 553 1520 598 133 11 391 3 540 -16z"/>
<path d="M10962 4819 c-12 -52 -38 -168 -57 -259 -67 -305 -140 -481 -249
-597 -33 -35 -79 -76 -103 -90 -54 -31 -153 -63 -199 -63 l-34 0 0 -59 c0 -71
12 -106 48 -145 63 -68 178 -85 295 -45 152 53 221 18 314 -161 l29 -55 119 1
c140 0 213 17 330 73 144 68 249 194 262 314 5 43 5 44 -48 78 -132 84 -258
219 -359 384 -59 95 -155 297 -233 490 -36 88 -72 175 -80 194 l-15 34 -20
-94z"/>
<path d="M23873 11640 c-270 -23 -537 -121 -765 -280 -74 -51 -227 -198 -756
-725 -365 -363 -690 -691 -722 -730 -160 -194 -265 -418 -321 -685 -29 -137
-32 -417 -7 -555 100 -536 437 -957 918 -1146 l95 -38 8 -43 c14 -77 1 -354
-21 -438 -42 -156 -103 -288 -185 -400 -51 -69 -167 -199 -187 -210 -21 -11
-203 60 -374 146 -256 128 -468 286 -682 507 -370 380 -609 836 -714 1357 -12
57 -23 106 -25 108 -9 9 -196 -171 -787 -759 -698 -695 -730 -732 -837 -939
-170 -329 -218 -687 -140 -1048 113 -521 507 -959 1013 -1127 403 -134 820
-104 1201 85 206 104 236 130 976 870 413 412 709 715 742 760 407 554 404
1302 -9 1850 -165 219 -420 412 -665 504 -45 17 -47 19 -53 69 -11 93 -6 282
9 370 29 167 98 344 187 480 59 91 159 206 180 206 28 1 237 -87 374 -158 249
-129 457 -283 659 -485 380 -382 622 -828 735 -1354 15 -74 31 -136 34 -139
12 -13 168 137 796 766 506 506 670 676 717 744 285 408 361 906 211 1377
-217 679 -886 1121 -1605 1060z"/>
<path d="M85838 12771 c-355 -78 -610 -346 -673 -708 -79 -452 160 -876 570
-1012 127 -42 219 -54 360 -48 248 11 451 100 606 263 153 163 227 344 236
582 8 205 -19 334 -109 505 -63 120 -209 265 -333 329 -145 75 -242 99 -420
104 -121 3 -167 0 -237 -15z"/>
<path d="M72110 7940 l0 -4650 700 0 700 0 0 1878 c0 1208 4 1920 11 1997 55
642 372 1127 903 1381 325 155 700 207 1067 148 485 -77 789 -352 913 -824 64
-244 60 -91 63 -2442 l3 -2138 700 0 701 0 -4 2238 c-3 2433 0 2285 -58 2571
-219 1086 -1027 1792 -2194 1916 -183 19 -546 22 -710 6 -488 -50 -936 -205
-1294 -447 -51 -35 -95 -64 -97 -64 -2 0 -4 693 -4 1540 l0 1540 -700 0 -700
0 0 -4650z"/>
<path d="M67705 11889 c-1433 -60 -2574 -795 -3192 -2055 -267 -544 -423
-1164 -474 -1878 -15 -224 -6 -837 15 -1041 122 -1126 496 -2004 1135 -2659
586 -600 1300 -938 2221 -1053 183 -23 800 -26 975 -5 769 92 1354 320 1895
738 141 109 407 372 519 514 207 261 380 558 501 861 48 119 204 569 199 573
-2 2 -143 56 -314 121 -170 64 -474 180 -674 256 -201 76 -365 138 -366 136
-1 -1 -37 -114 -79 -252 -43 -137 -93 -290 -113 -340 -335 -845 -1084 -1299
-2098 -1272 -398 11 -698 80 -1010 231 -449 219 -789 569 -1031 1061 -226 461
-334 948 -351 1585 -28 1061 257 1934 811 2485 356 355 817 569 1356 631 196
22 596 15 785 -14 576 -89 967 -327 1249 -759 112 -171 194 -356 306 -690
l102 -301 61 28 c59 26 391 182 972 455 149 69 274 130 278 134 9 9 -118 372
-195 556 -115 278 -311 606 -490 820 -475 571 -1146 938 -1963 1074 -173 29
-370 50 -525 56 -278 11 -339 11 -505 4z"/>
<path d="M37320 7535 l0 -4245 3000 0 3000 0 0 675 0 675 -2300 0 -2300 0 0
3570 0 3570 -700 0 -700 0 0 -4245z"/>
<path d="M46620 10063 c-1115 -33 -1977 -517 -2428 -1363 -63 -117 -96 -195
-183 -425 -52 -139 -65 -182 -55 -190 62 -50 1108 -816 1110 -814 2 2 49 126
106 274 123 325 178 444 263 573 175 265 388 430 680 527 278 93 632 117 942
65 437 -74 711 -314 811 -711 22 -89 27 -132 31 -305 l5 -202 -28 -6 c-16 -3
-360 -64 -764 -136 -816 -144 -916 -163 -1140 -220 -543 -139 -986 -334 -1312
-577 -134 -100 -336 -303 -420 -423 -213 -301 -318 -643 -318 -1033 0 -481
156 -892 462 -1212 174 -183 335 -300 563 -410 398 -193 816 -274 1358 -262
355 7 630 48 927 138 298 90 634 248 818 386 18 14 35 23 37 21 2 -2 7 -101
11 -221 l7 -217 599 0 598 0 -3 2353 c-2 2115 -4 2363 -19 2457 -69 443 -208
784 -443 1085 -71 90 -250 268 -340 336 -332 254 -775 423 -1267 484 -161 20
-443 33 -608 28z m1280 -4221 c0 -302 -2 -347 -19 -414 -87 -339 -414 -638
-855 -783 -225 -74 -459 -107 -746 -108 -335 0 -555 47 -727 155 -147 93 -222
229 -223 405 0 151 39 250 144 361 204 215 613 380 1241 502 131 26 1152 215
1178 219 4 1 7 -151 7 -337z"/>
<path d="M53260 10029 c-543 -34 -1035 -196 -1447 -476 l-123 -83 0 104 c0 56
-3 158 -7 224 l-6 122 -664 0 -663 0 0 -3315 0 -3315 696 0 c600 0 697 2 710
15 12 12 14 40 9 167 -12 331 -17 3580 -5 3708 39 432 189 771 464 1046 284
283 630 438 1066 475 222 20 502 -12 685 -78 354 -128 579 -394 676 -799 56
-235 53 -107 56 -2411 l4 -2123 700 0 700 0 -4 2223 c-4 2436 0 2287 -63 2602
-187 940 -806 1588 -1744 1825 -300 76 -704 111 -1040 89z"/>
<path d="M59744 10029 c-1254 -72 -2196 -778 -2594 -1945 -115 -338 -183 -680
-211 -1072 -15 -214 -6 -739 16 -927 59 -499 170 -896 360 -1280 150 -304 308
-528 530 -751 572 -574 1350 -849 2302 -813 536 21 1051 178 1452 443 l114 75
-7 -87 c-45 -576 -287 -1018 -702 -1284 -188 -120 -471 -214 -749 -249 -139
-18 -499 -15 -664 5 -309 37 -553 116 -736 239 -82 55 -212 190 -258 268 -49
84 -91 195 -112 294 -9 44 -17 81 -19 82 -3 3 -1348 -406 -1354 -412 -2 -2 10
-59 27 -127 121 -484 391 -876 801 -1164 401 -282 902 -450 1515 -509 203 -20
648 -23 840 -6 708 63 1270 255 1710 584 574 428 924 1040 1060 1850 57 341
55 223 55 3585 l0 3092 -644 0 -643 0 -6 -67 c-4 -38 -10 -133 -13 -211 -4
-79 -10 -157 -13 -174 l-6 -29 -66 50 c-426 322 -955 506 -1557 541 -185 11
-224 11 -428 -1z m486 -1330 c560 -51 989 -340 1239 -834 122 -242 199 -524
231 -844 13 -132 13 -602 0 -746 -52 -570 -236 -1010 -549 -1308 -338 -321
-794 -451 -1356 -386 -197 23 -369 74 -550 164 -490 243 -791 727 -892 1435
-26 181 -26 752 0 925 95 633 331 1066 728 1331 307 205 730 302 1149 263z"/>
<path d="M81173 10029 c-341 -20 -669 -87 -960 -194 -128 -48 -375 -169 -485
-238 -407 -257 -740 -641 -932 -1074 -68 -153 -178 -455 -169 -464 34 -34
1109 -817 1114 -811 4 4 53 129 109 277 117 307 157 397 225 510 248 412 609
621 1150 666 393 33 751 -42 979 -205 226 -161 355 -431 373 -778 l6 -126
-164 5 c-186 6 -607 -10 -833 -32 -1308 -128 -2217 -608 -2693 -1424 -240
-411 -350 -926 -283 -1331 12 -74 30 -170 41 -212 175 -703 767 -1202 1617
-1363 272 -52 675 -69 962 -41 557 53 1045 215 1438 476 l102 69 0 -193 c0
-107 3 -208 6 -225 l7 -31 598 0 599 0 0 1039 0 1040 -82 54 c-317 210 -744
326 -1195 327 l-123 0 0 -120 c0 -202 -40 -338 -146 -497 -216 -324 -632 -543
-1154 -608 -164 -20 -484 -20 -630 0 -510 72 -734 341 -609 734 45 143 123
264 245 382 174 167 399 287 715 383 503 152 1347 201 1973 115 555 -76 1020
-255 1378 -531 506 -391 833 -999 954 -1773 9 -61 19 -205 23 -325 l6 -215
695 0 695 0 3 3313 2 3312 -700 0 -700 0 0 -1640 0 -1640 -97 77 c-112 87
-287 206 -417 282 -204 120 -528 266 -748 337 l-88 28 0 222 c0 253 -12 427
-40 599 -145 872 -690 1475 -1562 1726 -223 65 -475 104 -766 119 -198 11
-250 11 -439 -1z"/>
<path d="M90810 10029 c-538 -32 -1034 -196 -1447 -476 l-123 -83 0 98 c0 53
-3 154 -7 225 l-6 127 -664 0 -663 0 0 -3315 0 -3315 700 0 699 0 4 1963 c4
2164 -1 2006 67 2264 136 520 516 924 1032 1097 405 135 898 122 1226 -34 343
-163 527 -443 609 -930 16 -98 18 -253 20 -2232 l4 -2128 700 0 700 0 -4 2233
c-4 2446 0 2284 -62 2592 -97 478 -298 874 -604 1189 -435 447 -1019 686
-1771 726 -195 11 -218 11 -410 -1z"/>
</g>
</svg>
