<?xml version="1.0" standalone="no"?>
<!DOCTYPE svg PUBLIC "-//W3C//DTD SVG 20010904//EN"
 "http://www.w3.org/TR/2001/REC-SVG-20010904/DTD/svg10.dtd">
<svg version="1.0" xmlns="http://www.w3.org/2000/svg"
 width="8140.000000pt" height="1600.000000pt" viewBox="0 0 8140.000000 1600.000000"
 preserveAspectRatio="xMidYMid meet">
<metadata>
Created by potrace 1.16, written by Peter Selinger 2001-2019
</metadata>
<g transform="translate(0.000000,1600.000000) scale(0.100000,-0.100000)"
fill="#ffffff" stroke="none">
<path d="M4000 15037 c-41 -14 -80 -68 -80 -111 0 -35 30 -90 57 -104 19 -10
52 -15 92 -13 12 1 38 16 57 35 29 29 34 41 34 79 0 53 -27 93 -76 113 -39 16
-39 16 -84 1z"/>
<path d="M5575 15036 c-44 -20 -67 -50 -72 -98 -13 -118 134 -178 211 -87 52
61 26 153 -50 185 -40 17 -51 17 -89 0z"/>
<path d="M7154 15036 c-105 -46 -96 -195 13 -225 73 -20 153 39 153 113 0 44
-34 95 -75 112 -42 17 -51 17 -91 0z"/>
<path d="M8734 15036 c-75 -33 -99 -125 -48 -185 88 -105 254 -5 201 122 -25
59 -95 88 -153 63z"/>
<path d="M10323 15043 c-32 -6 -79 -57 -86 -92 -21 -101 86 -176 180 -127 30
15 63 68 63 101 0 28 -30 83 -54 98 -26 17 -72 26 -103 20z"/>
<path d="M11896 15040 c-64 -20 -98 -88 -76 -154 40 -123 232 -92 232 39 0 79
-80 138 -156 115z"/>
<path d="M3153 13760 c-35 -21 -63 -66 -63 -100 0 -36 28 -85 59 -103 16 -9
48 -17 71 -17 34 0 48 6 76 34 29 29 34 41 34 80 0 56 -22 94 -67 112 -44 19
-72 17 -110 -6z"/>
<path d="M4739 13757 c-130 -87 -19 -274 121 -202 40 21 60 53 60 98 0 50 -25
93 -66 112 -44 21 -75 19 -115 -8z"/>
<path d="M6313 13765 c-39 -17 -63 -61 -63 -116 0 -33 6 -47 34 -75 28 -28 42
-34 75 -34 56 0 95 22 115 64 21 45 20 74 -4 113 -35 57 -94 76 -157 48z"/>
<path d="M7872 13760 c-41 -25 -66 -81 -57 -126 3 -20 20 -45 41 -63 93 -82
230 9 191 126 -24 71 -112 103 -175 63z"/>
<path d="M9454 13771 c-11 -5 -33 -23 -47 -41 -64 -75 -7 -190 93 -190 69 0
120 53 120 125 0 51 -51 105 -105 110 -22 3 -49 1 -61 -4z"/>
<path d="M11015 13766 c-116 -50 -77 -226 50 -226 55 0 111 44 120 94 9 45
-17 101 -57 126 -38 23 -70 25 -113 6z"/>
<path d="M12573 13760 c-35 -21 -63 -66 -63 -100 0 -107 141 -160 213 -80 50
56 31 152 -37 184 -45 21 -74 20 -113 -4z"/>
<path d="M38238 13346 c-62 -17 -133 -61 -253 -157 -280 -225 -546 -365 -874
-461 -209 -62 -283 -105 -326 -191 -39 -79 -31 -131 32 -188 42 -40 76 -54
258 -109 331 -99 388 -168 452 -540 17 -99 18 -300 21 -3635 2 -2501 0 -3581
-8 -3705 -29 -467 -91 -634 -267 -723 -73 -37 -115 -46 -273 -58 -199 -15
-261 -43 -296 -135 -28 -74 -4 -160 59 -208 76 -58 46 -57 1338 -54 1115 3
1186 4 1224 21 55 25 82 52 101 104 20 52 14 139 -13 185 -36 62 -57 70 -220
80 -258 15 -359 46 -454 139 -56 54 -100 141 -117 229 -24 121 -32 596 -32
1885 l0 1337 107 156 c302 445 601 796 848 995 252 203 535 353 806 427 337
91 729 87 1039 -12 424 -135 700 -457 790 -925 55 -285 53 -231 57 -1853 4
-1521 1 -1702 -32 -1923 -8 -51 -23 -121 -34 -157 l-20 -66 -118 -89 c-130
-99 -195 -128 -308 -139 -111 -11 -169 -31 -203 -71 -85 -96 -22 -266 114
-306 41 -12 237 -14 1204 -14 l1155 0 60 30 c80 40 109 91 102 182 -3 35 -13
76 -23 94 -36 61 -57 69 -225 84 -170 16 -246 33 -331 75 -116 58 -169 119
-212 240 -62 178 -59 82 -66 1955 -7 1730 -8 1757 -46 2065 -87 700 -293 1078
-754 1389 -259 174 -537 285 -845 338 -126 21 -515 24 -650 5 -540 -78 -969
-300 -1533 -796 -240 -210 -551 -540 -782 -829 l-95 -119 -5 2659 c-5 2498 -6
2660 -22 2690 -21 37 -62 68 -115 87 -60 21 -162 27 -215 12z"/>
<path d="M49956 13349 c-63 -15 -145 -64 -251 -150 -300 -242 -559 -376 -964
-495 -167 -50 -259 -129 -269 -234 -10 -105 62 -158 307 -230 335 -97 398
-175 458 -565 16 -102 18 -376 21 -3575 2 -2349 0 -3533 -7 -3675 -23 -438
-76 -643 -193 -738 -87 -70 -164 -94 -348 -108 -165 -12 -200 -21 -247 -62
-107 -94 -76 -252 62 -314 38 -17 108 -18 1224 -21 1036 -2 1191 -1 1243 13
113 29 153 77 152 185 0 87 -25 138 -81 166 -33 17 -69 22 -181 28 -169 9
-257 26 -339 66 -105 52 -185 161 -212 290 -24 113 -30 500 -31 1851 l0 1386
102 149 c274 403 560 748 773 931 475 410 978 593 1520 553 467 -34 785 -197
997 -508 131 -193 194 -394 235 -752 17 -142 18 -281 18 -1695 0 -1590 -1
-1658 -41 -1865 -31 -165 -32 -166 -168 -268 -133 -99 -192 -125 -316 -137
-127 -13 -193 -48 -219 -118 -37 -97 28 -220 136 -258 31 -12 248 -14 1203
-14 l1165 0 57 28 c78 38 103 80 102 167 -1 140 -52 183 -232 194 -141 8 -210
21 -302 57 -139 54 -220 137 -260 267 -55 179 -53 89 -61 1932 -4 938 -10
1721 -13 1740 -3 19 -10 94 -16 165 -31 370 -108 704 -219 950 -80 176 -271
405 -455 545 -439 334 -987 481 -1549 415 -453 -53 -822 -209 -1242 -525 -382
-287 -755 -654 -1104 -1087 l-106 -132 -5 2652 c-4 1985 -8 2659 -17 2678 -20
46 -72 88 -126 103 -72 20 -155 27 -201 15z"/>
<path d="M19635 13106 c-130 -32 -185 -101 -185 -229 0 -114 42 -191 125 -227
26 -12 81 -20 160 -25 66 -4 144 -14 175 -21 244 -63 411 -255 489 -564 59
-236 56 -9 56 -3920 0 -3431 -1 -3601 -18 -3730 -51 -369 -145 -549 -337 -643
-88 -44 -171 -61 -370 -77 -171 -14 -210 -29 -249 -99 -29 -53 -41 -177 -22
-234 26 -79 98 -128 212 -147 89 -14 6618 -14 6784 1 379 33 676 159 898 384
128 130 354 449 511 723 157 275 309 606 386 843 30 93 29 151 -5 202 -23 36
-86 61 -135 54 -102 -13 -202 -89 -383 -288 -120 -131 -288 -287 -448 -415
-105 -84 -391 -277 -514 -346 -803 -454 -1803 -669 -3230 -694 -740 -13 -1207
43 -1467 178 -141 73 -202 152 -262 338 -51 157 -80 325 -107 610 -12 127 -31
4534 -26 6005 3 933 5 1051 21 1145 38 227 95 385 172 470 80 88 204 162 329
195 33 9 132 22 220 28 183 14 227 31 277 102 33 47 52 139 43 199 -12 76 -48
121 -122 158 l-68 33 -1430 2 c-1112 1 -1441 -1 -1480 -11z"/>
<path d="M3884 12537 c-124 -60 -177 -214 -114 -337 38 -75 144 -140 225 -140
57 0 131 33 177 79 116 116 94 299 -46 386 -69 42 -168 47 -242 12z"/>
<path d="M5460 12539 c-115 -52 -173 -175 -140 -294 15 -53 77 -128 129 -154
164 -84 362 35 363 217 1 144 -104 252 -246 252 -40 0 -77 -8 -106 -21z"/>
<path d="M7041 12546 c-53 -19 -111 -74 -137 -130 -55 -118 -10 -257 105 -319
66 -36 125 -43 192 -23 110 32 179 124 179 238 -1 103 -54 188 -145 229 -46
21 -142 24 -194 5z"/>
<path d="M8595 12539 c-56 -28 -94 -67 -121 -124 -56 -118 -10 -256 105 -318
173 -94 371 23 371 218 -1 100 -55 186 -145 226 -55 25 -157 25 -210 -2z"/>
<path d="M10150 12539 c-154 -70 -198 -259 -88 -384 72 -81 162 -110 260 -81
175 50 237 253 123 402 -59 77 -198 107 -295 63z"/>
<path d="M2375 12426 c-116 -52 -76 -226 51 -226 86 0 143 84 111 163 -26 62
-101 91 -162 63z"/>
<path d="M11833 12420 c-35 -21 -63 -66 -63 -100 0 -36 28 -85 59 -103 16 -9
48 -17 71 -17 34 0 48 6 76 34 29 29 34 41 34 80 0 56 -22 94 -67 112 -44 19
-72 17 -110 -6z"/>
<path d="M13390 12418 c-19 -13 -40 -35 -47 -48 -40 -78 18 -170 107 -170 69
0 120 53 120 125 0 50 -51 104 -105 111 -31 5 -48 1 -75 -18z"/>
<path d="M28839 12260 c-153 -24 -285 -95 -404 -215 -119 -119 -181 -237 -212
-398 -18 -96 -13 -239 12 -331 36 -132 131 -279 233 -361 68 -55 214 -129 297
-151 93 -25 266 -30 366 -10 270 54 515 295 575 563 24 110 16 281 -20 389
-59 182 -232 369 -419 454 -121 54 -303 80 -428 60z"/>
<path d="M4698 11479 c-209 -31 -384 -206 -419 -418 -55 -332 245 -628 580
-571 332 56 516 413 369 716 -94 193 -312 306 -530 273z"/>
<path d="M6274 11480 c-114 -17 -209 -65 -288 -146 -287 -290 -123 -778 283
-845 330 -55 628 244 573 574 -23 140 -118 282 -233 349 -96 57 -230 84 -335
68z"/>
<path d="M7844 11480 c-206 -30 -366 -175 -419 -377 -72 -277 118 -563 409
-614 348 -60 652 264 571 610 -59 249 -309 419 -561 381z"/>
<path d="M9375 11480 c-266 -54 -446 -303 -408 -566 58 -402 552 -572 856
-294 169 154 212 388 110 592 -100 200 -335 313 -558 268z"/>
<path d="M3112 11205 c-97 -42 -152 -126 -152 -232 0 -116 68 -207 178 -239
209 -61 392 160 293 354 -26 50 -89 105 -140 120 -52 16 -139 14 -179 -3z"/>
<path d="M10961 11206 c-48 -17 -108 -71 -133 -119 -30 -56 -31 -165 -4 -220
74 -149 267 -190 393 -83 56 49 83 110 83 189 0 107 -56 191 -155 233 -41 17
-137 17 -184 0z"/>
<path d="M45825 11173 c-40 -20 -100 -78 -135 -129 -16 -23 -67 -115 -113
-205 -127 -248 -223 -402 -397 -634 -295 -394 -567 -673 -773 -793 -140 -82
-197 -147 -197 -227 0 -84 82 -148 212 -165 40 -5 186 -10 325 -10 l252 0 4
-2067 c3 -1869 5 -2083 20 -2223 72 -652 195 -968 492 -1265 268 -267 597
-412 1030 -456 145 -14 429 -7 569 15 353 56 682 189 1016 411 162 108 260
185 451 356 216 192 301 295 340 405 24 68 24 66 -8 151 l-27 71 -81 37 -80
36 -71 -36 c-78 -40 -213 -138 -331 -241 -228 -199 -492 -357 -727 -436 -415
-139 -882 -82 -1158 141 -202 163 -315 394 -368 751 -42 280 -43 320 -47 2368
l-4 1982 1003 0 c614 0 1030 4 1073 10 95 14 169 51 203 103 24 36 27 50 27
121 -1 143 -48 194 -200 216 -43 6 -461 10 -1087 10 l-1017 0 -3 798 -3 797
-24 48 c-35 73 -99 96 -166 60z"/>
<path d="M1664 11138 c-87 -22 -115 -135 -49 -200 46 -47 134 -42 174 8 74 94
-9 222 -125 192z"/>
<path d="M12563 11140 c-83 -18 -118 -109 -70 -181 66 -98 217 -52 217 67 0
76 -70 130 -147 114z"/>
<path d="M14114 11139 c-53 -15 -79 -53 -79 -114 0 -43 5 -59 24 -79 74 -78
197 -39 208 66 4 49 -10 83 -47 109 -33 23 -68 29 -106 18z"/>
<path d="M3861 10124 c-124 -33 -247 -127 -309 -235 -128 -226 -61 -522 152
-663 284 -188 675 -50 770 273 23 77 21 213 -4 292 -77 249 -356 401 -609 333z"/>
<path d="M5433 10125 c-157 -42 -289 -160 -343 -303 -51 -135 -46 -271 15
-397 64 -132 157 -212 301 -261 70 -23 90 -26 174 -21 110 5 179 28 270 88 69
47 148 147 180 228 28 71 38 216 20 292 -30 130 -134 267 -250 328 -111 59
-252 77 -367 46z"/>
<path d="M7002 10124 c-250 -67 -415 -313 -374 -556 59 -349 431 -533 743
-367 71 38 167 136 203 207 74 147 74 317 0 465 -34 67 -144 177 -211 211
-106 53 -252 70 -361 40z"/>
<path d="M8627 10128 c-142 -14 -306 -126 -376 -257 -163 -306 26 -679 371
-732 350 -55 651 275 563 616 -66 251 -289 400 -558 373z"/>
<path d="M10113 10126 c-158 -39 -291 -159 -353 -321 -33 -83 -33 -242 -1
-329 128 -354 586 -453 839 -182 97 104 142 214 142 346 0 321 -311 562 -627
486z"/>
<path d="M2315 9971 c-51 -23 -118 -98 -133 -149 -37 -122 10 -237 119 -297
133 -72 295 -13 354 128 21 50 19 143 -4 192 -23 50 -84 109 -133 130 -51 21
-153 19 -203 -4z"/>
<path d="M11741 9959 c-169 -33 -255 -237 -158 -380 125 -186 409 -133 457 85
38 172 -121 329 -299 295z"/>
<path d="M834 9850 c-11 -4 -33 -22 -47 -40 -64 -75 -7 -190 93 -190 69 0 120
53 120 123 0 77 -93 137 -166 107z"/>
<path d="M13290 9838 c-109 -74 -62 -218 71 -218 33 0 47 6 75 34 29 29 34 41
34 80 0 38 -6 52 -33 82 -43 48 -97 56 -147 22z"/>
<path d="M14873 9845 c-36 -16 -73 -68 -73 -103 0 -68 58 -122 130 -122 34 0
48 6 76 34 28 28 34 42 34 75 0 56 -22 95 -64 115 -41 19 -61 20 -103 1z"/>
<path d="M36125 9684 c-197 -30 -351 -76 -545 -161 -169 -75 -415 -210 -578
-318 l-40 -26 -97 56 c-357 206 -738 343 -1115 402 -160 25 -572 25 -750 0
-477 -67 -886 -241 -1250 -534 -107 -86 -295 -274 -379 -378 -343 -426 -510
-950 -488 -1530 7 -186 26 -323 68 -489 91 -363 289 -723 569 -1038 33 -37 60
-70 60 -75 0 -4 -22 -24 -48 -43 -80 -60 -274 -233 -349 -313 -379 -401 -533
-803 -468 -1227 38 -256 139 -448 339 -645 68 -68 151 -138 214 -180 56 -38
102 -71 102 -75 0 -3 -55 -53 -122 -111 -172 -146 -484 -458 -555 -555 -244
-333 -333 -801 -227 -1203 129 -493 584 -819 1334 -955 623 -113 1540 -107
2261 14 654 111 1210 306 1703 600 621 369 968 808 1052 1328 17 109 19 363 4
490 -34 270 -116 498 -255 707 -71 107 -234 278 -343 360 -94 70 -259 159
-367 198 -344 122 -843 125 -1420 7 -128 -26 -767 -171 -1280 -290 -115 -27
-269 -60 -342 -74 -251 -49 -661 -58 -883 -21 -118 20 -271 71 -347 116 -93
55 -213 181 -256 269 -63 128 -80 212 -80 390 -1 140 2 163 26 243 71 233 234
451 486 653 104 84 105 84 130 67 357 -234 728 -370 1140 -418 163 -19 489
-19 653 0 594 69 1099 328 1495 767 346 382 541 809 599 1314 20 175 15 525
-11 689 -63 409 -227 788 -484 1120 l-69 90 66 39 c216 125 373 138 547 45 75
-40 138 -87 251 -185 219 -193 347 -252 529 -241 249 14 378 140 404 396 23
221 -43 386 -212 532 -149 129 -303 186 -522 194 -66 2 -133 1 -150 -1z
m-2621 -425 c283 -37 563 -195 759 -427 188 -224 335 -523 416 -851 107 -429
131 -982 61 -1384 -105 -604 -442 -1067 -902 -1240 -153 -58 -238 -71 -458
-72 -237 0 -338 17 -517 86 -440 172 -772 600 -897 1161 -100 446 -102 1068
-5 1514 46 214 151 470 260 631 307 459 737 654 1283 582z m1498 -6240 c152
-16 279 -51 398 -110 88 -44 117 -65 185 -133 128 -130 191 -277 216 -503 21
-200 -9 -372 -96 -548 -66 -135 -125 -213 -246 -330 -107 -103 -186 -164 -326
-251 -373 -233 -811 -396 -1268 -474 -650 -110 -1391 -81 -1849 71 -448 150
-709 416 -792 809 -23 107 -26 390 -5 495 35 179 108 351 220 517 75 112 228
288 309 355 l50 43 146 -30 c374 -76 613 -90 1084 -66 249 13 399 27 745 71
407 51 843 91 1039 94 48 0 134 -4 190 -10z"/>
<path d="M59012 9649 c-821 -72 -1475 -374 -2017 -930 -512 -525 -802 -1148
-892 -1914 -22 -188 -24 -678 -5 -865 91 -865 434 -1564 1040 -2123 431 -397
944 -652 1542 -766 241 -45 370 -56 705 -56 360 0 491 12 780 70 297 59 508
131 780 265 310 153 552 326 800 575 593 592 886 1313 912 2245 32 1183 -394
2142 -1262 2835 -440 351 -986 574 -1595 650 -149 19 -637 28 -788 14z m510
-493 c520 -81 938 -343 1276 -800 446 -604 671 -1479 649 -2526 -11 -538 -91
-918 -271 -1295 -282 -589 -740 -959 -1313 -1060 -369 -65 -779 -27 -1102 102
-440 175 -780 507 -1035 1013 -275 542 -412 1109 -447 1847 -32 675 69 1252
298 1708 300 599 800 960 1421 1025 117 12 405 4 524 -14z"/>
<path d="M72420 9653 c-598 -43 -1103 -262 -1445 -625 -257 -274 -388 -600
-402 -1003 -15 -457 100 -807 370 -1118 165 -189 524 -431 942 -633 233 -113
387 -177 835 -348 460 -176 584 -228 744 -308 449 -225 716 -482 808 -778 20
-65 23 -96 23 -225 -1 -169 -19 -260 -79 -391 -117 -251 -377 -476 -698 -603
-188 -73 -395 -110 -663 -118 -664 -18 -1196 187 -1640 632 -202 201 -362 426
-525 735 -93 178 -125 225 -186 279 -43 37 -52 41 -102 41 -70 0 -130 -28
-157 -72 -32 -53 -25 -197 25 -468 108 -592 244 -947 435 -1133 77 -75 224
-174 362 -242 396 -196 998 -298 1663 -282 498 12 866 96 1234 285 303 155
608 411 789 663 79 111 194 337 235 464 110 336 120 758 25 1085 -77 268 -211
490 -418 695 -308 306 -757 543 -1957 1030 -800 326 -1014 465 -1128 733 -45
107 -64 211 -64 352 -1 247 72 431 230 581 366 346 1088 397 1689 120 376
-174 761 -519 1084 -969 74 -104 143 -176 208 -219 26 -18 82 -9 135 20 40 22
78 84 78 127 0 13 -23 109 -51 214 -175 659 -223 780 -362 921 -163 165 -407
291 -777 403 -273 83 -510 131 -755 152 -110 9 -397 11 -505 3z"/>
<path d="M78320 9653 c-294 -27 -483 -61 -687 -123 -791 -239 -1452 -822
-1838 -1622 -196 -408 -308 -843 -346 -1348 -15 -195 -6 -658 16 -830 72 -580
238 -1040 536 -1485 188 -282 405 -509 683 -717 479 -358 1041 -538 1678 -538
699 0 1286 198 1788 603 130 105 358 338 467 478 206 265 390 577 416 709 29
138 -22 227 -141 246 -83 13 -134 -27 -274 -216 -265 -357 -569 -617 -923
-790 -214 -105 -388 -158 -635 -196 -159 -25 -473 -25 -629 -1 -333 52 -623
172 -876 362 -176 133 -387 361 -527 570 -74 112 -193 353 -247 503 -100 278
-182 649 -226 1024 -7 54 -6 57 16 63 70 16 910 217 1194 285 718 172 1576
377 2075 496 337 80 600 149 735 192 207 66 210 68 260 118 91 91 122 187 111
352 -36 551 -357 1041 -938 1430 -456 305 -927 445 -1478 440 -96 -1 -191 -3
-210 -5z m317 -479 c402 -59 709 -259 969 -631 128 -182 205 -357 225 -510 10
-76 10 -96 -5 -145 -31 -108 -149 -206 -337 -282 -46 -19 -714 -224 -1484
-455 -770 -232 -1413 -426 -1429 -431 l-28 -10 6 58 c85 721 280 1349 519
1672 257 348 578 591 909 691 191 57 447 74 655 43z"/>
<path d="M29164 9585 c-49 -24 -134 -79 -189 -121 -296 -227 -591 -380 -885
-458 -107 -29 -214 -84 -281 -144 -69 -61 -86 -100 -81 -179 2 -27 46 -79 83
-99 16 -8 111 -36 212 -63 205 -54 227 -63 313 -133 100 -81 119 -119 154
-310 39 -215 42 -382 38 -2143 -4 -1682 -4 -1691 -26 -1802 -39 -203 -91 -323
-179 -410 -96 -94 -259 -153 -427 -153 -75 0 -100 -4 -141 -24 -58 -27 -78
-47 -100 -99 -30 -73 -7 -162 57 -210 77 -59 42 -58 1359 -55 1134 3 1206 4
1244 21 99 45 135 128 105 239 -12 41 -50 92 -84 110 -11 6 -84 15 -161 19
-160 9 -253 31 -358 86 -128 67 -178 149 -206 338 -34 221 -35 273 -40 2880
-6 2524 -7 2601 -25 2638 -36 73 -125 117 -237 117 -48 0 -71 -7 -145 -45z"/>
<path d="M64390 9621 c-50 -16 -117 -55 -240 -141 -326 -229 -583 -366 -873
-466 -165 -56 -259 -106 -324 -170 -66 -66 -80 -110 -54 -170 33 -73 85 -99
324 -160 169 -43 238 -76 307 -145 57 -57 77 -96 108 -214 56 -214 55 -177 62
-1665 6 -1150 10 -1401 23 -1537 63 -628 180 -964 455 -1304 241 -296 560
-498 941 -593 195 -49 299 -61 556 -61 186 0 265 4 350 18 542 90 1016 329
1540 778 260 222 594 577 780 828 l70 95 6 -725 c7 -729 14 -902 42 -955 48
-93 177 -124 319 -75 65 22 120 53 403 228 260 160 500 279 687 339 148 48
239 89 308 140 76 55 104 102 98 159 -10 89 -75 139 -201 155 -209 26 -431
157 -504 297 -57 108 -89 302 -103 613 -5 113 -10 1188 -10 2390 0 2098 -1
2187 -19 2225 -35 78 -124 125 -237 125 -72 0 -164 -49 -338 -179 -301 -226
-555 -357 -850 -440 -189 -53 -335 -151 -372 -248 -16 -41 -16 -45 6 -95 26
-61 32 -67 124 -114 81 -42 199 -74 272 -74 73 0 151 -36 220 -102 67 -63 85
-96 113 -208 52 -212 54 -246 58 -1522 l4 -1188 -106 -162 c-335 -508 -609
-792 -1050 -1085 -342 -228 -580 -335 -851 -384 -156 -29 -457 -31 -609 -5
-426 72 -722 283 -905 647 -120 238 -188 524 -210 890 -6 99 -10 939 -10 2129
0 1403 -3 1976 -11 2005 -14 50 -72 107 -126 123 -44 13 -134 15 -173 3z"/>
<path d="M9328 8924 c-380 -91 -511 -566 -234 -839 103 -101 212 -145 356
-145 281 1 500 217 500 494 0 148 -49 264 -156 366 -124 119 -297 165 -466
124z"/>
<path d="M10888 8924 c-287 -69 -454 -371 -359 -648 121 -349 574 -452 835
-189 154 156 190 396 88 587 -37 71 -145 177 -212 209 -116 56 -236 70 -352
41z"/>
<path d="M3117 8666 c-198 -71 -224 -345 -42 -452 165 -96 377 25 377 215 0
102 -52 182 -147 227 -57 27 -129 31 -188 10z"/>
<path d="M4687 8666 c-157 -56 -216 -248 -117 -384 66 -91 194 -126 298 -82
56 24 116 83 138 136 18 43 18 145 0 188 -50 119 -197 185 -319 142z"/>
<path d="M6256 8665 c-141 -50 -207 -215 -138 -346 122 -233 472 -151 472 111
0 172 -171 293 -334 235z"/>
<path d="M7805 8656 c-55 -25 -110 -81 -131 -132 -17 -41 -18 -123 -2 -175 6
-22 27 -57 46 -79 117 -137 330 -112 414 49 108 207 -114 436 -327 337z"/>
<path d="M12473 8664 c-23 -9 -59 -32 -80 -53 -56 -54 -77 -104 -78 -181 0
-215 250 -329 411 -187 64 56 88 107 88 187 0 177 -171 294 -341 234z"/>
<path d="M80 8557 c-42 -15 -80 -68 -80 -112 0 -76 85 -138 156 -115 80 27
111 126 59 189 -23 27 -38 35 -85 46 -8 2 -31 -2 -50 -8z"/>
<path d="M1603 8563 c-35 -7 -81 -56 -88 -95 -4 -22 -1 -48 8 -71 49 -117 229
-79 229 48 0 74 -73 132 -149 118z"/>
<path d="M14096 8559 c-109 -31 -122 -175 -21 -220 53 -23 95 -17 135 21 89
83 3 233 -114 199z"/>
<path d="M15628 8562 c-15 -2 -41 -17 -58 -33 -75 -76 -26 -200 81 -203 72 -2
122 47 122 119 0 77 -63 128 -145 117z"/>
<path d="M10060 7617 c-157 -54 -274 -174 -322 -330 -16 -55 -20 -88 -16 -171
3 -98 6 -108 46 -188 170 -345 627 -387 860 -79 202 268 69 671 -256 771 -91
28 -225 27 -312 -3z"/>
<path d="M11620 7617 c-267 -91 -409 -374 -319 -635 74 -216 290 -358 514
-339 216 19 387 159 449 366 18 62 21 184 5 251 -39 171 -198 330 -369 369
-79 18 -208 13 -280 -12z"/>
<path d="M8564 7366 c-46 -21 -103 -74 -127 -120 -30 -57 -30 -165 0 -222 32
-61 93 -111 159 -130 172 -50 341 97 317 277 -9 62 -61 139 -117 174 -42 25
-61 30 -125 33 -49 1 -87 -3 -107 -12z"/>
<path d="M13222 7354 c-85 -42 -132 -121 -132 -219 0 -98 45 -172 131 -220
197 -107 422 80 357 297 -15 51 -82 126 -133 149 -62 29 -158 25 -223 -7z"/>
<path d="M779 7247 c-98 -66 -50 -217 68 -217 38 0 50 5 78 33 19 19 37 46 41
61 16 64 -52 146 -121 146 -18 0 -47 -10 -66 -23z"/>
<path d="M2352 7250 c-46 -28 -68 -82 -53 -131 6 -21 25 -49 42 -63 92 -78
232 26 186 137 -18 42 -68 77 -112 77 -16 0 -45 -9 -63 -20z"/>
<path d="M3922 7250 c-46 -28 -68 -82 -53 -131 6 -21 25 -49 42 -63 92 -78
232 26 186 137 -18 42 -68 77 -112 77 -16 0 -45 -9 -63 -20z"/>
<path d="M5492 7250 c-18 -11 -40 -37 -48 -57 -22 -51 -11 -95 33 -133 33 -29
41 -32 85 -28 57 6 93 35 107 86 14 48 -6 101 -48 129 -42 28 -86 29 -129 3z"/>
<path d="M7039 7247 c-98 -66 -52 -217 66 -217 85 0 144 86 112 163 -30 71
-114 97 -178 54z"/>
<path d="M14829 7247 c-42 -28 -62 -81 -48 -129 14 -51 50 -80 107 -86 44 -4
52 -1 85 28 65 57 58 145 -15 190 -43 26 -87 25 -129 -3z"/>
<path d="M10902 6369 c-75 -13 -188 -68 -246 -120 -183 -162 -220 -440 -88
-645 127 -197 388 -282 605 -197 270 106 396 419 272 680 -96 203 -323 321
-543 282z"/>
<path d="M9375 6111 c-100 -25 -179 -115 -192 -219 -16 -143 102 -272 249
-272 101 0 175 44 223 131 101 186 -73 410 -280 360z"/>
<path d="M12493 6110 c-82 -19 -161 -93 -183 -171 -35 -119 32 -257 146 -305
48 -20 151 -17 199 5 207 94 187 402 -29 466 -53 16 -83 17 -133 5z"/>
<path d="M1544 5936 c-28 -28 -34 -42 -34 -75 0 -23 7 -55 15 -70 15 -31 69
-61 107 -61 53 0 118 66 118 120 0 36 -31 90 -61 105 -15 8 -47 15 -70 15 -33
0 -47 -6 -75 -34z"/>
<path d="M3114 5936 c-28 -28 -34 -42 -34 -75 0 -23 7 -55 15 -70 15 -31 69
-61 107 -61 53 0 118 66 118 120 0 36 -31 90 -61 105 -15 8 -47 15 -70 15 -33
0 -47 -6 -75 -34z"/>
<path d="M4684 5936 c-33 -33 -39 -52 -34 -106 8 -95 148 -131 210 -53 65 83
8 193 -100 193 -34 0 -48 -6 -76 -34z"/>
<path d="M6265 5948 c-112 -88 -14 -260 118 -205 47 20 72 60 72 115 0 38 -5
48 -37 78 -31 28 -46 34 -82 34 -29 0 -52 -7 -71 -22z"/>
<path d="M7801 5944 c-106 -89 -7 -254 122 -201 47 20 72 60 72 115 0 38 -5
48 -37 78 -49 44 -110 48 -157 8z"/>
<path d="M14029 5942 c-25 -23 -33 -38 -36 -78 -5 -46 -2 -54 27 -87 70 -80
193 -44 207 60 14 109 -117 178 -198 105z"/>
<path d="M10116 4805 c-99 -35 -161 -126 -161 -235 1 -77 22 -127 77 -181 64
-62 161 -84 252 -57 65 20 140 100 161 171 56 195 -135 371 -329 302z"/>
<path d="M11688 4810 c-120 -36 -198 -170 -170 -290 35 -149 178 -232 326
-188 25 8 61 32 93 63 107 104 106 253 -3 359 -58 56 -164 81 -246 56z"/>
<path d="M2364 4666 c-66 -29 -92 -102 -59 -166 22 -42 53 -60 105 -60 77 0
127 56 117 132 -6 46 -29 75 -74 94 -39 17 -49 17 -89 0z"/>
<path d="M3934 4666 c-47 -21 -74 -61 -74 -113 0 -38 5 -50 34 -79 29 -29 41
-34 83 -34 80 0 130 55 120 132 -6 46 -29 75 -74 94 -39 17 -49 17 -89 0z"/>
<path d="M5504 4666 c-47 -21 -74 -61 -74 -113 0 -38 5 -50 34 -79 29 -29 41
-34 80 -34 53 0 90 20 112 61 31 61 2 138 -61 165 -42 17 -51 17 -91 0z"/>
<path d="M7044 4666 c-47 -21 -74 -61 -74 -113 0 -38 5 -50 34 -79 29 -29 41
-34 80 -34 53 0 90 20 112 61 31 61 2 138 -61 165 -42 17 -51 17 -91 0z"/>
<path d="M8593 4664 c-50 -25 -67 -61 -64 -132 1 -13 16 -39 35 -58 28 -28 42
-34 75 -34 57 0 95 22 116 66 29 62 3 133 -61 160 -42 18 -61 17 -101 -2z"/>
<path d="M13273 4665 c-62 -27 -89 -104 -59 -164 22 -41 59 -61 112 -61 39 0
51 5 80 34 29 29 34 41 34 79 0 53 -27 93 -76 113 -41 17 -50 17 -91 -1z"/>
<path d="M3128 3304 c-77 -41 -74 -156 5 -204 39 -24 68 -25 113 -4 42 20 64
59 64 115 0 33 -6 47 -34 75 -28 28 -41 34 -77 34 -24 -1 -56 -7 -71 -16z"/>
<path d="M4698 3304 c-51 -27 -72 -100 -45 -154 16 -32 73 -70 104 -70 69 0
123 57 123 130 0 34 -6 48 -34 76 -28 28 -41 34 -77 34 -24 -1 -56 -7 -71 -16z"/>
<path d="M6238 3304 c-51 -27 -72 -100 -45 -154 16 -32 73 -70 104 -70 69 0
123 57 123 130 0 34 -6 48 -34 76 -28 28 -41 34 -77 34 -24 -1 -56 -7 -71 -16z"/>
<path d="M7774 3286 c-28 -28 -34 -42 -34 -76 0 -52 25 -95 66 -115 44 -21 75
-19 115 8 108 72 60 217 -72 217 -33 0 -47 -6 -75 -34z"/>
<path d="M9334 3286 c-30 -30 -34 -40 -34 -84 0 -41 5 -55 28 -80 56 -60 149
-50 192 20 24 40 25 69 4 114 -20 42 -59 64 -115 64 -33 0 -47 -6 -75 -34z"/>
<path d="M10894 3286 c-30 -30 -34 -40 -34 -84 0 -43 5 -55 30 -81 59 -58 147
-48 190 21 24 40 25 69 4 114 -20 42 -59 64 -115 64 -33 0 -47 -6 -75 -34z"/>
<path d="M12452 3286 c-32 -30 -37 -40 -37 -78 0 -55 25 -95 72 -115 69 -28
144 7 163 77 21 77 -36 150 -116 150 -36 0 -51 -6 -82 -34z"/>
<path d="M3849 1947 c-42 -28 -62 -81 -48 -129 14 -52 50 -80 108 -86 47 -4
53 -2 85 30 19 19 38 47 42 62 16 64 -52 146 -121 146 -18 0 -47 -10 -66 -23z"/>
<path d="M5429 1947 c-39 -26 -64 -84 -55 -123 4 -15 23 -43 42 -62 32 -32 38
-34 85 -30 58 6 94 34 108 86 14 48 -6 101 -48 129 -43 29 -89 29 -132 0z"/>
<path d="M7015 1952 c-41 -26 -55 -44 -62 -85 -15 -96 88 -168 177 -122 40 21
60 53 60 98 0 100 -94 158 -175 109z"/>
<path d="M8604 1960 c-62 -25 -91 -108 -59 -170 41 -79 169 -79 210 0 52 101
-47 212 -151 170z"/>
<path d="M10172 1954 c-108 -55 -65 -224 57 -224 107 0 159 126 83 202 -36 37
-93 46 -140 22z"/>
<path d="M11743 1951 c-41 -26 -53 -49 -53 -105 0 -66 38 -107 106 -113 46 -5
54 -2 87 27 59 52 60 126 2 180 -34 32 -101 37 -142 11z"/>
</g>
</svg>
