<?xml version="1.0" standalone="no"?>
<!DOCTYPE svg PUBLIC "-//W3C//DTD SVG 20010904//EN"
 "http://www.w3.org/TR/2001/REC-SVG-20010904/DTD/svg10.dtd">
<svg version="1.0" xmlns="http://www.w3.org/2000/svg"
 width="8259.000000pt" height="1600.000000pt" viewBox="0 0 8259.000000 1600.000000"
 preserveAspectRatio="xMidYMid meet">
<metadata>
Created by potrace 1.16, written by Peter Selinger 2001-2019
</metadata>
<g transform="translate(0.000000,1600.000000) scale(0.100000,-0.100000)"
fill="#ffffff" stroke="none">
<path d="M7845 15924 c-27 -2 -124 -9 -215 -15 -1020 -66 -2073 -351 -3015
-814 -1825 -898 -3252 -2439 -4005 -4325 -481 -1207 -669 -2541 -539 -3842 48
-489 136 -955 264 -1411 455 -1609 1381 -3027 2682 -4105 614 -509 1371 -961
2118 -1264 156 -64 256 -101 259 -97 3 5 917 8527 916 8549 0 9 -113 139 -251
290 -145 160 -259 293 -270 317 -19 41 -20 65 -17 615 l3 573 23 38 c13 20 45
50 70 65 l47 27 2300 0 c1265 0 2312 -3 2328 -8 15 -4 45 -24 67 -43 71 -64
71 -66 68 -690 -3 -506 -4 -552 -21 -582 -10 -18 -130 -156 -267 -308 -138
-151 -250 -282 -250 -292 0 -32 911 -8547 915 -8551 7 -6 281 104 487 195
1401 621 2609 1632 3470 2904 756 1116 1228 2415 1362 3750 55 540 55 1145 0
1680 -177 1736 -908 3371 -2084 4665 -153 168 -461 474 -620 616 -811 722
-1786 1291 -2803 1635 -645 218 -1268 348 -1972 410 -168 14 -921 28 -1050 18z
m687 -2523 c127 -28 249 -71 373 -132 204 -101 237 -131 958 -849 368 -366
675 -677 683 -692 30 -57 8 -135 -46 -163 -26 -13 -281 -15 -2289 -13 l-2259
3 -26 24 c-36 34 -50 83 -37 124 15 43 1323 1351 1431 1429 204 149 429 243
675 283 129 21 408 13 537 -14z"/>
<path d="M38310 7990 l0 -4600 715 0 715 0 0 1663 c0 1660 3 1811 36 2042 41
286 145 566 286 772 69 102 243 277 338 340 233 156 474 229 785 240 412 14
722 -95 966 -339 237 -237 375 -601 409 -1073 6 -85 10 -833 10 -1892 l0
-1753 715 0 715 0 0 1823 c0 1084 -4 1889 -10 1987 -53 882 -336 1557 -833
1985 -369 319 -811 489 -1362 526 -648 42 -1248 -171 -1701 -604 -94 -90 -218
-230 -278 -314 -20 -30 -37 -43 -53 -43 l-23 0 0 1920 0 1920 -715 0 -715 0 0
-4600z"/>
<path d="M49630 7990 l0 -4600 714 0 715 0 4 1748 c4 1910 2 1838 63 2110 178
793 724 1227 1509 1199 163 -6 262 -22 397 -67 208 -70 381 -188 511 -350 166
-208 263 -449 319 -792 22 -133 22 -138 25 -1990 l4 -1858 714 0 715 0 0 1843
c0 1833 -3 2003 -36 2267 -109 880 -496 1545 -1111 1907 -525 308 -1252 394
-1862 218 -446 -128 -850 -408 -1139 -787 -49 -65 -73 -88 -89 -88 l-23 0 0
1920 0 1920 -715 0 -715 0 0 -4600z"/>
<path d="M27650 11595 l0 -725 795 0 795 0 0 725 0 725 -795 0 -795 0 0 -725z"/>
<path d="M21470 7750 l0 -4360 2520 0 2520 0 0 665 0 665 -1770 0 -1770 0 0
3695 0 3695 -750 0 -750 0 0 -4360z"/>
<path d="M45610 10490 l0 -980 -385 0 -385 0 0 -600 0 -600 385 0 384 0 4
-1602 c4 -1732 2 -1664 57 -1963 130 -694 476 -1124 1058 -1315 244 -80 469
-110 812 -111 357 0 636 31 968 108 l112 27 0 582 0 581 -107 -23 c-252 -55
-375 -69 -618 -69 -189 0 -244 3 -310 18 -253 59 -405 205 -480 462 -61 209
-58 131 -62 1788 l-4 1517 761 0 760 0 0 600 0 600 -760 0 -760 0 0 980 0 980
-715 0 -715 0 0 -980z"/>
<path d="M59475 9714 c-707 -43 -1311 -256 -1830 -644 -739 -553 -1189 -1384
-1266 -2335 -15 -187 -7 -554 16 -725 89 -668 337 -1242 745 -1725 97 -114
307 -317 429 -414 617 -490 1419 -736 2252 -691 690 38 1281 242 1799 623 841
618 1321 1646 1287 2757 -13 414 -81 767 -214 1125 -420 1122 -1414 1875
-2653 2010 -138 14 -458 25 -565 19z m383 -1275 c826 -90 1408 -653 1567
-1516 39 -215 51 -544 26 -748 -73 -597 -347 -1091 -777 -1401 -108 -78 -335
-192 -464 -233 -790 -253 -1606 52 -2064 771 -134 211 -245 507 -291 778 -35
204 -35 547 0 770 139 885 710 1476 1525 1575 132 16 352 18 478 4z"/>
<path d="M72753 9710 c-958 -66 -1631 -552 -1823 -1315 -37 -147 -50 -259 -50
-442 0 -472 144 -849 444 -1161 285 -296 647 -501 1261 -712 388 -134 691
-269 875 -391 175 -116 306 -262 365 -407 56 -138 69 -358 30 -507 -58 -218
-223 -399 -445 -488 -248 -98 -634 -81 -873 39 -269 135 -429 361 -496 701
l-17 88 -663 3 -664 2 7 -62 c11 -97 53 -306 81 -399 269 -902 989 -1425 2038
-1478 1062 -54 1891 346 2242 1081 102 214 157 431 175 692 53 740 -256 1314
-925 1721 -217 132 -456 238 -825 365 -283 98 -313 109 -489 183 -289 121
-476 232 -601 357 -127 127 -180 257 -180 445 0 259 133 463 372 574 112 52
192 71 330 78 185 9 347 -27 484 -108 88 -51 223 -190 278 -284 46 -79 97
-219 111 -302 l7 -43 659 0 659 0 -4 23 c-3 12 -15 69 -26 127 -61 295 -200
606 -376 840 -285 379 -707 635 -1209 733 -231 46 -515 63 -752 47z"/>
<path d="M79016 9710 c-998 -69 -1814 -533 -2336 -1327 -254 -386 -429 -856
-500 -1339 -73 -504 -41 -1041 91 -1529 114 -422 328 -848 594 -1180 103 -129
332 -359 462 -462 615 -491 1393 -731 2247 -693 1032 47 1846 495 2391 1315
84 126 243 415 260 473 l6 22 -733 0 -733 -1 -53 -69 c-209 -269 -490 -463
-802 -553 -287 -83 -653 -88 -945 -12 -345 90 -632 259 -885 521 -109 113
-169 189 -239 301 -160 259 -242 512 -267 826 l-7 87 2365 0 2366 0 6 23 c16
55 25 363 16 552 -25 541 -141 997 -365 1445 -457 911 -1278 1472 -2320 1584
-184 20 -458 27 -619 16z m566 -1098 c591 -123 1046 -540 1236 -1132 30 -95
72 -289 72 -336 l0 -24 -1651 0 -1652 0 8 73 c3 39 22 131 40 202 174 677 692
1142 1375 1235 114 15 462 4 572 -18z"/>
<path d="M33185 9693 c-298 -26 -612 -100 -885 -210 -927 -372 -1597 -1205
-1809 -2251 -182 -893 -36 -1855 387 -2569 509 -859 1388 -1389 2371 -1431
726 -32 1331 156 1861 576 52 41 160 140 238 219 79 79 148 143 154 143 6 0 8
-191 5 -557 -3 -451 -7 -580 -21 -673 -81 -557 -255 -940 -553 -1220 -242
-227 -556 -362 -953 -410 -108 -13 -428 -13 -545 0 -701 78 -1156 427 -1365
1047 -22 65 -40 126 -40 136 0 16 -41 17 -719 17 l-719 0 10 -47 c86 -437 221
-785 426 -1098 108 -166 218 -299 363 -440 214 -209 410 -346 684 -480 506
-247 1012 -346 1700 -332 644 13 1151 123 1598 348 604 304 1028 803 1266
1494 112 324 173 621 223 1095 9 87 13 891 15 3288 l4 3172 -686 0 -685 0 0
-395 c0 -455 3 -444 -87 -332 -147 183 -361 378 -563 512 -332 221 -710 353
-1129 395 -95 9 -451 11 -546 3z m710 -1223 c432 -41 791 -211 1086 -516 299
-309 476 -703 541 -1204 15 -122 15 -480 -1 -590 -52 -355 -149 -620 -326
-885 -276 -413 -682 -679 -1180 -772 -126 -23 -417 -28 -561 -9 -677 89 -1173
486 -1431 1144 -101 258 -147 517 -147 827 0 379 65 672 219 990 182 377 452
656 800 830 307 153 655 217 1000 185z"/>
<path d="M27730 6450 l0 -3060 715 0 715 0 0 3060 0 3060 -715 0 -715 0 0
-3060z"/>
<path d="M63953 7553 c4 -2110 3 -2047 57 -2369 142 -842 544 -1441 1180
-1759 327 -164 643 -235 1042 -235 347 0 635 59 922 189 279 127 587 377 806
654 51 65 91 107 102 107 17 0 18 -21 18 -375 l0 -375 710 0 710 0 0 3060 0
3060 -715 0 -714 0 -4 -1767 c-4 -1869 -2 -1808 -53 -2072 -137 -717 -564
-1145 -1209 -1211 -387 -40 -719 60 -972 293 -25 23 -74 78 -108 122 -156 201
-247 423 -307 750 l-23 120 -3 1883 -2 1882 -721 0 -720 0 4 -1957z"/>
</g>
</svg>
