<?xml version="1.0" standalone="no"?>
<!DOCTYPE svg PUBLIC "-//W3C//DTD SVG 20010904//EN"
 "http://www.w3.org/TR/2001/REC-SVG-20010904/DTD/svg10.dtd">
<svg version="1.0" xmlns="http://www.w3.org/2000/svg"
 width="9440.000000pt" height="1600.000000pt" viewBox="0 0 9440.000000 1600.000000"
 preserveAspectRatio="xMidYMid meet">
<metadata>
Created by potrace 1.16, written by Peter Selinger 2001-2019
</metadata>
<g transform="translate(0.000000,1600.000000) scale(0.100000,-0.100000)"
fill="#ffffff" stroke="none">
<path d="M2270 15993 c-476 -36 -955 -225 -1342 -528 -107 -85 -342 -325 -425
-436 -255 -341 -413 -717 -480 -1149 -17 -110 -18 -384 -18 -5865 0 -5477 1
-5755 18 -5865 67 -433 218 -796 473 -1136 425 -568 1104 -937 1844 -1004 91
-8 1645 -10 5745 -8 l5620 4 127 21 c395 67 722 196 1038 408 300 202 551 461
745 770 71 112 182 338 230 469 50 137 109 375 132 531 17 125 18 344 18 5795
0 5451 -1 5670 -18 5795 -97 684 -463 1315 -987 1706 -161 120 -244 171 -405
249 -224 109 -454 181 -725 227 -100 17 -383 18 -5825 19 -3146 0 -5740 -1
-5765 -3z"/>
<path d="M21330 7805 l0 -5245 3390 0 3390 0 0 725 0 725 -2580 0 -2580 0 0
4520 0 4520 -810 0 -810 0 0 -5245z"/>
<path d="M29140 7805 l0 -5245 745 0 745 0 0 5245 0 5245 -745 0 -745 0 0
-5245z"/>
<path d="M59910 7805 l0 -5245 745 0 745 0 0 5245 0 5245 -745 0 -745 0 0
-5245z"/>
<path d="M76530 11089 l0 -1961 -47 63 c-128 176 -344 398 -513 529 -409 316
-874 498 -1450 566 -199 24 -627 24 -835 0 -650 -75 -1153 -267 -1633 -626
-148 -109 -420 -375 -534 -520 -569 -723 -857 -1665 -858 -2800 0 -1049 257
-1954 753 -2653 617 -867 1621 -1337 2787 -1304 506 15 906 107 1305 302 391
190 729 472 1000 834 l85 113 0 -536 0 -536 735 0 735 0 0 5245 0 5245 -765 0
-765 0 0 -1961z m-1919 -2100 c693 -55 1216 -365 1556 -921 189 -310 311 -693
375 -1178 20 -145 22 -211 22 -545 0 -341 -2 -397 -23 -550 -62 -464 -174
-827 -344 -1118 -245 -421 -567 -699 -989 -851 -365 -132 -825 -167 -1250 -95
-790 134 -1338 657 -1584 1512 -158 548 -186 1287 -73 1892 119 641 382 1126
784 1447 387 309 933 454 1526 407z"/>
<path d="M35060 10299 c-415 -25 -826 -101 -1170 -217 -1053 -355 -1656 -1087
-1750 -2122 -5 -63 -10 -134 -10 -158 l0 -42 758 2 757 3 7 80 c59 656 508
1063 1302 1180 255 37 677 37 934 0 361 -53 600 -160 778 -348 134 -140 205
-296 239 -524 18 -115 22 -733 5 -733 -14 0 -2326 -427 -2470 -456 -1397 -284
-2217 -805 -2495 -1584 -194 -544 -154 -1253 101 -1763 244 -490 661 -836
1254 -1042 598 -208 1458 -253 2096 -109 565 126 1005 370 1400 776 60 62 127
133 147 157 l37 45 0 -442 0 -442 720 0 720 0 0 2848 c0 2454 -2 2865 -15
2974 -127 1087 -935 1742 -2335 1892 -314 34 -700 44 -1010 25z m1857 -4526
c-4 -552 -6 -580 -67 -808 -196 -740 -831 -1235 -1720 -1341 -147 -17 -473
-19 -615 -4 -285 31 -529 112 -710 233 -78 52 -200 176 -250 252 -51 77 -99
189 -127 296 -20 75 -23 107 -22 289 0 242 13 302 94 467 143 290 449 475
1031 623 166 42 2324 497 2367 499 l23 1 -4 -507z"/>
<path d="M43280 10304 c-427 -38 -745 -125 -1060 -291 -359 -189 -686 -485
-925 -837 l-60 -88 -3 521 -2 521 -740 0 -740 0 0 -3785 0 -3785 765 0 764 0
4 2237 c4 2338 3 2279 48 2553 143 861 636 1412 1409 1571 101 21 143 24 335
24 239 0 300 -8 480 -66 429 -136 733 -492 866 -1013 11 -44 30 -139 42 -211
l21 -130 3 -2482 4 -2483 764 0 765 0 3 2273 c3 2099 4 2281 20 2387 83 546
245 921 521 1208 254 264 539 417 916 494 100 20 144 23 340 23 241 0 307 -9
468 -61 333 -109 598 -349 756 -684 75 -161 123 -324 159 -545 l21 -130 3
-2483 4 -2482 765 0 765 0 -4 2583 c-3 1872 -7 2607 -15 2672 -44 343 -87 547
-167 781 -139 413 -325 729 -594 1007 -428 443 -983 679 -1658 703 -493 19
-951 -76 -1368 -281 -464 -228 -847 -575 -1159 -1052 l-67 -102 -67 133 c-329
642 -863 1069 -1539 1232 -186 45 -352 64 -583 68 -118 2 -235 2 -260 0z"/>
<path d="M54990 10299 c-679 -41 -1294 -209 -1757 -480 -719 -421 -1113 -1080
-1169 -1951 l-6 -108 759 0 760 0 6 84 c13 159 61 335 130 471 191 381 596
626 1167 709 259 38 678 38 938 1 516 -75 833 -285 961 -639 60 -168 64 -198
68 -598 3 -244 1 -368 -6 -368 -14 0 -2321 -426 -2471 -456 -647 -131 -1215
-331 -1604 -567 -580 -350 -897 -803 -987 -1411 -27 -181 -29 -502 -4 -681
113 -830 585 -1407 1398 -1709 663 -247 1621 -284 2317 -91 529 147 972 428
1351 858 l69 77 0 -440 0 -440 720 0 720 0 0 2858 c0 1816 -4 2890 -10 2947
-89 805 -562 1391 -1365 1690 -532 198 -1260 288 -1985 244z m1860 -4483 c0
-505 -7 -606 -56 -806 -189 -768 -827 -1278 -1733 -1385 -149 -18 -474 -20
-616 -5 -530 58 -889 277 -1036 633 -60 143 -73 222 -74 432 0 168 3 200 24
280 94 359 336 574 831 735 96 32 247 75 335 96 188 44 2269 481 2303 483 l22
1 0 -464z"/>
<path d="M66620 10299 c-586 -47 -1137 -265 -1575 -626 -142 -117 -357 -337
-470 -482 l-90 -115 -3 527 -2 527 -735 0 -735 0 0 -3785 0 -3785 765 0 765 0
0 2143 c0 1332 4 2197 10 2287 42 604 240 1087 583 1423 352 344 847 538 1373
538 656 -1 1124 -259 1373 -758 82 -163 134 -343 172 -588 10 -62 14 -649 16
-2563 l3 -2482 755 0 755 0 0 2560 c0 2230 -2 2580 -15 2708 -144 1378 -930
2261 -2180 2446 -231 34 -526 44 -765 25z"/>
<path d="M82470 10300 c-1192 -81 -2149 -636 -2751 -1596 -333 -532 -531
-1150 -605 -1884 -34 -338 -21 -861 32 -1220 201 -1383 960 -2443 2097 -2929
890 -381 2049 -387 2966 -16 430 174 790 413 1122 744 182 183 292 318 434
531 180 272 293 499 410 823 l42 117 -766 -1 -766 -1 -73 -146 c-245 -498
-679 -839 -1247 -982 -215 -55 -370 -73 -620 -73 -303 -1 -525 36 -770 128
-694 260 -1159 926 -1300 1865 -8 58 -18 120 -21 138 l-5 32 2866 0 2865 0 0
273 c0 279 -12 551 -31 737 -103 1003 -461 1834 -1054 2449 -548 567 -1271
907 -2120 996 -178 19 -539 26 -705 15z m430 -1280 c980 -70 1645 -731 1869
-1859 12 -57 21 -107 21 -112 0 -5 -858 -9 -2055 -9 l-2056 0 7 38 c75 434
213 799 412 1098 367 549 902 832 1612 852 25 1 110 -3 190 -8z"/>
<path d="M86416 10119 c3 -6 592 -824 1308 -1818 716 -993 1312 -1821 1324
-1839 l23 -32 -1359 -1883 c-747 -1035 -1376 -1906 -1396 -1934 l-38 -53 874
0 874 0 946 1313 c521 721 953 1320 961 1331 12 17 96 -97 966 -1313 l953
-1331 889 0 889 0 -117 163 c-1167 1626 -2665 3721 -2669 3731 -4 10 1702
2399 2538 3554 l88 122 -876 -2 -877 -3 -873 -1220 c-480 -671 -877 -1221
-882 -1223 -5 -1 -407 549 -893 1222 l-884 1226 -888 0 c-649 0 -886 -3 -881
-11z"/>
</g>
</svg>
