<?xml version="1.0" standalone="no"?>
<!DOCTYPE svg PUBLIC "-//W3C//DTD SVG 20010904//EN"
 "http://www.w3.org/TR/2001/REC-SVG-20010904/DTD/svg10.dtd">
<svg version="1.0" xmlns="http://www.w3.org/2000/svg"
 width="9365.000000pt" height="1600.000000pt" viewBox="0 0 9365.000000 1600.000000"
 preserveAspectRatio="xMidYMid meet">
<metadata>
Created by potrace 1.16, written by Peter Selinger 2001-2019
</metadata>
<g transform="translate(0.000000,1600.000000) scale(0.100000,-0.100000)"
fill="#ffffff" stroke="none">
<path d="M4400 15950 c-817 -41 -1607 -299 -2285 -745 -280 -184 -482 -350
-726 -594 -360 -361 -620 -718 -849 -1166 -288 -564 -450 -1168 -490 -1820
-17 -274 -10 -6109 8 -6127 6 -6 12 -27 12 -44 0 -18 5 -36 10 -39 6 -3 10
-35 10 -70 0 -35 5 -67 10 -70 6 -3 10 -31 10 -61 0 -30 5 -64 12 -77 6 -12
15 -30 20 -39 4 -10 8 -58 8 -108 0 -53 4 -90 10 -90 6 0 10 -23 10 -50 0 -28
5 -60 12 -73 6 -12 15 -30 20 -39 4 -10 8 -38 8 -63 0 -25 4 -45 9 -45 4 0 11
-30 14 -66 2 -36 10 -71 16 -77 6 -6 11 -30 11 -53 0 -24 5 -46 10 -49 6 -3
10 -26 10 -50 0 -24 5 -47 10 -50 6 -3 10 -24 10 -46 0 -21 5 -39 10 -39 6 0
10 -20 10 -45 0 -34 5 -47 20 -55 16 -8 20 -21 20 -60 0 -26 5 -50 10 -52 6
-2 13 -33 17 -71 3 -37 10 -67 14 -67 5 0 9 -7 9 -15 0 -8 5 -15 10 -15 6 0
10 -18 10 -39 0 -22 4 -43 10 -46 5 -3 10 -17 10 -31 0 -13 5 -24 10 -24 6 0
10 -24 10 -52 0 -37 6 -61 20 -78 11 -14 20 -39 20 -56 0 -16 7 -39 15 -50 8
-10 15 -33 15 -50 0 -16 9 -40 20 -52 12 -13 20 -35 20 -57 0 -19 5 -35 10
-35 6 0 10 -13 10 -30 0 -20 8 -35 25 -46 19 -12 25 -25 25 -50 0 -19 5 -34
10 -34 6 0 10 -13 10 -28 0 -16 8 -34 20 -42 12 -9 20 -26 20 -43 0 -16 7 -35
15 -43 8 -9 15 -24 15 -35 0 -10 5 -19 10 -19 6 0 10 -13 10 -30 0 -16 5 -30
10 -30 6 0 10 -13 10 -28 0 -16 9 -37 20 -47 11 -10 23 -36 27 -57 3 -23 14
-45 24 -51 11 -7 19 -17 19 -24 0 -7 5 -13 10 -13 6 0 10 -13 10 -30 0 -16 4
-30 9 -30 5 0 11 -18 15 -40 4 -24 14 -45 26 -52 11 -7 20 -21 20 -30 0 -10 5
-18 10 -18 6 0 10 -7 10 -16 0 -8 6 -22 12 -29 32 -35 38 -45 38 -60 0 -8 5
-15 10 -15 6 0 10 -9 10 -20 0 -11 4 -20 9 -20 5 0 12 -16 15 -35 4 -19 11
-35 16 -35 6 0 10 -7 10 -15 0 -8 3 -15 8 -15 9 0 102 -86 102 -94 0 -10 20
-33 64 -74 58 -55 98 -97 126 -132 14 -17 41 -48 60 -70 19 -21 42 -47 50 -57
8 -10 37 -33 63 -52 27 -18 74 -58 105 -88 75 -71 80 -75 127 -103 22 -13 52
-36 67 -50 15 -14 44 -38 64 -55 19 -16 48 -40 62 -52 15 -13 32 -26 37 -31 6
-5 24 -17 40 -28 16 -10 37 -26 47 -34 36 -32 48 -40 85 -57 21 -10 40 -20 43
-24 8 -8 191 -73 440 -155 226 -75 497 -147 665 -178 277 -49 680 -106 756
-106 27 0 94 -9 151 -19 57 -11 189 -25 293 -31 105 -6 222 -15 260 -20 39 -5
263 -14 499 -20 236 -6 434 -14 440 -17 37 -23 2194 -39 3071 -23 797 14 1222
27 1324 39 47 6 201 15 341 21 403 16 715 39 845 60 66 11 230 31 365 46 135
14 304 39 375 54 72 16 222 45 333 65 112 20 270 52 350 70 133 30 157 38 257
95 498 282 945 667 1323 1139 99 123 307 430 386 568 746 1317 804 2899 156
4268 -156 330 -374 669 -628 975 -123 149 -425 450 -572 572 -773 638 -1662
992 -2655 1057 -91 6 -517 11 -987 11 l-827 0 -4 1073 c-4 1147 -3 1118 -57
1441 -141 837 -514 1626 -1067 2256 -411 469 -867 822 -1415 1095 -577 288
-1167 441 -1828 475 -210 11 -221 11 -440 0z"/>
<path d="M22387 15953 c-4 -3 -7 -3502 -7 -7775 l0 -7768 4945 0 4944 0 8 37
c13 61 9 616 -5 738 -72 625 -242 1108 -524 1485 -78 105 -248 282 -348 363
-307 247 -686 403 -1150 471 -219 32 -455 36 -2457 36 l-2003 0 0 6210 0 6210
-1698 0 c-934 0 -1702 -3 -1705 -7z"/>
<path d="M65957 15953 c-4 -3 -7 -3502 -7 -7775 l0 -7768 1630 0 1630 0 0 823
0 822 58 -110 c387 -741 982 -1288 1717 -1578 341 -135 735 -223 1145 -257
195 -16 634 -14 832 5 878 80 1586 362 2258 899 156 125 444 410 581 577 422
512 751 1139 972 1854 188 608 290 1184 349 1965 17 233 18 1202 0 1435 -89
1203 -311 2093 -729 2930 -246 492 -511 864 -867 1220 -703 702 -1562 1082
-2611 1156 -210 14 -647 7 -835 -15 -997 -117 -1838 -573 -2439 -1326 -97
-121 -260 -365 -337 -503 l-59 -107 -3 2880 -2 2880 -1638 0 c-901 0 -1642 -3
-1645 -7z m5862 -6318 c452 -65 831 -279 1149 -650 316 -368 538 -877 672
-1540 126 -622 154 -1434 75 -2160 -71 -649 -255 -1263 -502 -1680 -107 -181
-212 -316 -362 -465 -358 -355 -748 -520 -1271 -537 -591 -19 -1078 170 -1466
568 -482 497 -761 1243 -861 2299 -22 237 -25 1002 -5 1240 110 1289 511 2182
1181 2632 273 183 570 283 926 312 90 7 358 -4 464 -19z"/>
<path d="M78117 15953 c-4 -3 -7 -3502 -7 -7775 l0 -7768 1645 0 1645 0 0
7775 0 7775 -1638 0 c-901 0 -1642 -3 -1645 -7z"/>
<path d="M37195 12149 c-1455 -88 -2719 -637 -3624 -1575 -840 -870 -1361
-2034 -1526 -3409 -49 -414 -70 -1097 -46 -1523 69 -1217 367 -2236 908 -3107
867 -1395 2310 -2249 4073 -2409 338 -31 888 -36 1215 -11 835 64 1531 250
2202 589 787 397 1431 975 1915 1716 712 1089 1045 2423 997 3990 -38 1235
-305 2244 -843 3179 -342 593 -806 1119 -1341 1516 -840 625 -1857 974 -3042
1045 -199 12 -684 11 -888 -1z m785 -2525 c305 -42 593 -154 830 -322 114 -81
307 -265 399 -382 352 -444 567 -1022 666 -1795 65 -507 73 -1277 19 -1810
-98 -968 -371 -1674 -828 -2144 -348 -356 -783 -539 -1331 -558 -563 -20
-1083 159 -1437 495 -617 586 -928 1601 -928 3027 0 1125 196 1992 588 2600
311 484 781 795 1337 885 197 31 477 33 685 4z"/>
<path d="M59075 12154 c-961 -50 -1794 -250 -2520 -603 -244 -118 -372 -191
-575 -326 -508 -338 -915 -759 -1204 -1245 -298 -502 -459 -1031 -502 -1652
l-6 -98 1696 0 1696 0 4 23 c2 12 10 71 16 131 16 139 56 303 108 436 82 208
191 369 364 536 356 343 807 504 1411 504 383 0 632 -50 914 -185 241 -115
405 -249 531 -433 162 -237 232 -476 219 -752 -23 -476 -262 -740 -827 -912
-291 -89 -470 -120 -1690 -293 -1173 -167 -1281 -183 -1520 -231 -970 -194
-1716 -535 -2279 -1039 -551 -493 -858 -1175 -931 -2070 -13 -157 -13 -588 0
-740 60 -692 279 -1272 676 -1785 114 -148 376 -410 524 -524 642 -497 1420
-763 2321 -795 754 -26 1427 82 2020 324 126 52 411 193 535 266 137 80 355
230 488 337 227 180 512 483 696 741 l59 82 5 -33 c3 -18 12 -112 21 -208 36
-393 97 -774 176 -1111 l21 -89 1709 0 1709 0 0 183 0 183 -31 30 c-194 181
-336 737 -389 1519 -6 88 -13 180 -16 205 -3 25 -9 1323 -13 2885 -8 3046 -5
2875 -56 3215 -126 842 -455 1558 -982 2135 -584 640 -1518 1104 -2597 1290
-181 31 -420 61 -649 81 -163 14 -957 27 -1132 18z m2172 -6914 c-3 -570 -5
-625 -25 -750 -89 -553 -311 -1012 -656 -1356 -186 -184 -337 -292 -561 -400
-294 -141 -607 -214 -987 -230 -466 -19 -882 93 -1187 321 -279 209 -433 468
-482 814 -15 107 -6 379 16 481 113 517 471 824 1220 1044 175 52 281 75 775
171 537 104 768 154 953 206 378 107 625 216 838 368 l94 68 3 -61 c2 -33 1
-338 -1 -676z"/>
<path d="M87665 12149 c-1573 -95 -2944 -734 -3867 -1802 -448 -519 -817
-1169 -1048 -1843 -317 -926 -433 -2046 -334 -3229 118 -1431 551 -2563 1317
-3450 112 -130 365 -383 492 -491 851 -725 1963 -1131 3360 -1224 204 -14 809
-14 1030 0 1799 111 3184 769 4050 1925 440 587 726 1298 828 2058 l13 97
-1642 0 -1643 0 -11 -57 c-113 -565 -385 -993 -810 -1277 -112 -76 -297 -165
-442 -215 -514 -176 -1192 -170 -1729 14 -735 253 -1247 869 -1474 1774 -55
220 -115 613 -115 756 l0 45 3953 0 3954 0 6 173 c10 263 8 1089 -3 1318 -55
1113 -295 2029 -748 2851 -462 839 -1080 1467 -1886 1913 -697 387 -1496 610
-2386 665 -191 12 -661 11 -865 -1z m735 -2383 c499 -67 910 -273 1202 -602
188 -213 361 -539 461 -874 64 -212 118 -493 133 -692 l7 -88 -2262 0 c-1243
0 -2261 4 -2261 8 0 5 9 60 21 123 122 678 400 1229 804 1591 174 157 422 308
650 398 185 73 442 131 669 150 132 11 443 3 576 -14z"/>
<path d="M42820 11768 c16 -46 941 -2619 2054 -5718 l2024 -5635 1829 -3 1828
-2 1974 5707 c1086 3140 1976 5714 1979 5721 3 10 -337 12 -1693 10 l-1698 -3
-1179 -4015 c-649 -2208 -1183 -4018 -1187 -4022 -3 -4 -560 1803 -1237 4015
l-1231 4022 -1746 3 -1747 2 30 -82z"/>
</g>
</svg>
