<?xml version="1.0" standalone="no"?>
<!DOCTYPE svg PUBLIC "-//W3C//DTD SVG 20010904//EN"
 "http://www.w3.org/TR/2001/REC-SVG-20010904/DTD/svg10.dtd">
<svg version="1.0" xmlns="http://www.w3.org/2000/svg"
 width="4252.000000pt" height="1600.000000pt" viewBox="0 0 4252.000000 1600.000000"
 preserveAspectRatio="xMidYMid meet">
<metadata>
Created by potrace 1.16, written by Peter Selinger 2001-2019
</metadata>
<g transform="translate(0.000000,1600.000000) scale(0.100000,-0.100000)"
fill="#ffffff" stroke="none">
<path d="M5420 11975 c-461 -53 -923 -206 -1316 -436 -236 -138 -441 -296
-652 -503 -284 -279 -473 -538 -651 -896 -174 -349 -279 -703 -327 -1105 -23
-189 -23 -559 0 -750 130 -1084 760 -2021 1715 -2546 97 -54 118 -69 140 -107
64 -110 206 -316 287 -417 167 -208 433 -459 659 -621 727 -521 1655 -723
2543 -553 945 180 1772 774 2251 1616 632 1112 560 2511 -183 3548 -167 233
-438 518 -646 679 -128 99 -328 233 -436 292 -67 36 -74 43 -119 124 -73 129
-203 322 -301 445 -113 141 -378 406 -519 519 -470 374 -1004 605 -1615 697
-179 28 -643 35 -830 14z m718 -769 c344 -52 660 -163 947 -333 114 -67 275
-182 358 -254 l39 -34 -234 3 c-327 5 -544 -18 -838 -88 -876 -211 -1635 -783
-2090 -1575 -226 -393 -374 -857 -420 -1324 -11 -117 -12 -499 -1 -608 4 -40
5 -73 4 -73 -2 0 -20 19 -41 41 -271 300 -482 707 -577 1114 -52 220 -60 303
-60 590 0 215 4 292 18 380 65 386 186 706 384 1010 431 660 1125 1083 1908
1164 125 13 479 5 603 -13z"/>
<path d="M30420 10695 c-102 -23 -187 -70 -261 -144 -105 -105 -149 -216 -149
-376 0 -254 136 -440 375 -511 82 -25 248 -25 330 0 224 67 357 238 372 475
15 254 -127 471 -355 541 -89 28 -228 34 -312 15z"/>
<path d="M27330 9750 l0 -620 -520 0 -520 0 0 -335 0 -335 520 0 520 0 2
-1262 3 -1263 23 -70 c43 -127 90 -204 176 -290 92 -91 180 -141 311 -177 77
-21 99 -22 673 -26 l592 -3 0 330 0 330 -427 3 -428 3 -45 25 c-29 17 -53 41
-70 70 l-25 45 -3 1143 -2 1142 560 0 560 0 0 335 0 335 -560 0 -560 0 0 620
0 620 -390 0 -390 0 0 -620z"/>
<path d="M20525 9214 c-352 -47 -674 -194 -905 -411 -156 -147 -309 -386 -384
-600 l-25 -72 152 -50 c356 -117 558 -181 571 -181 8 0 17 15 21 37 23 127
121 297 235 413 115 116 233 175 420 212 85 16 387 16 465 -1 249 -52 407
-165 500 -356 55 -113 66 -177 72 -397 l5 -198 -640 0 c-373 0 -683 -4 -743
-10 -636 -65 -1062 -384 -1169 -875 -19 -86 -28 -265 -19 -386 41 -550 428
-935 1052 -1045 190 -33 530 -33 717 0 198 36 386 126 534 257 52 46 170 198
227 293 l34 55 57 1 57 0 6 -47 c11 -93 26 -152 52 -204 38 -76 127 -160 214
-203 137 -67 155 -69 557 -74 l362 -4 0 331 0 331 -192 0 c-214 0 -255 10
-295 66 -42 59 -43 76 -43 954 0 482 -5 886 -10 940 -37 355 -153 615 -370
830 -218 216 -507 346 -883 395 -146 19 -490 19 -632 -1z m1125 -2295 c0 -166
-44 -368 -106 -492 -135 -265 -395 -446 -719 -498 -106 -17 -341 -17 -434 0
-334 61 -528 257 -530 538 -2 231 113 392 342 478 135 51 175 53 835 54 l612
1 0 -81z"/>
<path d="M33310 9214 c-340 -46 -636 -175 -875 -383 -169 -147 -315 -365 -405
-604 -20 -53 -30 -91 -24 -96 9 -9 694 -231 712 -231 5 0 20 33 32 73 68 225
225 423 404 511 265 129 691 128 941 -2 84 -43 197 -152 242 -232 18 -30 44
-91 59 -135 26 -76 28 -92 32 -292 l4 -213 -644 0 c-360 0 -683 -5 -733 -10
-390 -43 -668 -159 -888 -369 -96 -92 -153 -169 -207 -282 -140 -294 -133
-737 19 -1037 70 -138 219 -303 360 -396 279 -186 630 -265 1073 -244 249 12
421 58 593 161 144 86 282 231 395 415 l32 52 59 0 59 0 0 -40 c0 -217 160
-403 401 -466 53 -14 129 -18 427 -21 l362 -5 -2 329 -3 328 -205 5 c-216 5
-225 7 -272 57 -55 58 -53 17 -59 1028 -6 996 -5 976 -54 1155 -31 110 -89
244 -146 336 -69 113 -244 291 -354 363 -205 134 -455 219 -737 250 -133 15
-470 12 -598 -5z m1120 -2323 c0 -405 -192 -719 -538 -878 -166 -77 -419 -115
-624 -95 -212 22 -350 77 -466 186 -112 106 -156 212 -155 376 1 159 56 283
161 365 89 70 248 132 377 148 17 2 303 5 638 6 l607 1 0 -109z"/>
<path d="M14460 9178 c-183 -19 -333 -69 -462 -154 -94 -63 -237 -200 -285
-275 l-38 -59 -62 0 -63 0 0 220 0 220 -385 0 -385 0 0 -1880 0 -1880 393 2
392 3 5 1235 5 1235 24 85 c85 308 276 501 566 571 123 30 316 30 430 0 241
-63 400 -218 468 -458 l22 -78 3 -1297 3 -1298 389 0 390 0 0 1123 c0 622 5
1173 10 1237 29 353 169 586 425 710 239 116 558 113 775 -8 95 -52 191 -155
239 -255 80 -165 75 -56 78 -1509 l4 -1298 390 0 390 0 -4 1373 c-3 1252 -5
1379 -21 1457 -64 315 -225 585 -448 748 -77 56 -228 136 -327 172 -136 50
-240 64 -466 64 -350 -1 -551 -55 -740 -199 -120 -92 -246 -235 -311 -356
l-27 -49 -61 0 -61 1 -55 90 c-139 229 -381 410 -633 474 -167 42 -371 54
-567 33z"/>
<path d="M38364 9179 c-200 -18 -408 -77 -529 -150 -149 -89 -312 -250 -400
-394 l-42 -70 -59 0 -59 0 -3 283 -2 282 -385 0 -385 0 0 -1880 0 -1880 395 0
394 0 3 1078 c3 988 5 1085 22 1172 88 466 333 745 755 860 255 69 568 40 781
-71 258 -134 389 -353 419 -706 7 -72 11 -546 11 -1225 l0 -1108 390 0 391 0
-4 1253 c-3 1241 -4 1253 -25 1366 -70 361 -240 665 -488 871 -103 84 -274
187 -397 236 -201 82 -476 111 -783 83z"/>
<path d="M25177 9124 c-250 -45 -437 -170 -532 -356 l-40 -78 -62 0 -63 0 0
220 0 220 -382 -2 -383 -3 0 -1875 0 -1875 392 -3 392 -2 4 1202 c3 1193 3
1204 24 1283 12 44 31 101 42 127 86 200 270 348 526 421 61 17 111 21 410 26
l340 6 3 353 2 352 -297 -1 c-209 -1 -321 -5 -376 -15z"/>
<path d="M30150 7250 l0 -1880 395 0 395 0 0 1880 0 1880 -395 0 -395 0 0
-1880z"/>
</g>
</svg>
