<?xml version="1.0" standalone="no"?>
<!DOCTYPE svg PUBLIC "-//W3C//DTD SVG 20010904//EN"
 "http://www.w3.org/TR/2001/REC-SVG-20010904/DTD/svg10.dtd">
<svg version="1.0" xmlns="http://www.w3.org/2000/svg"
 width="8534.000000pt" height="1600.000000pt" viewBox="0 0 8534.000000 1600.000000"
 preserveAspectRatio="xMidYMid meet">
<metadata>
Created by potrace 1.16, written by Peter Selinger 2001-2019
</metadata>
<g transform="translate(0.000000,1600.000000) scale(0.100000,-0.100000)"
fill="#ffffff" stroke="none">
<path d="M6292 15985 c-155 -34 -322 -151 -410 -287 -62 -97 -5750 -9950
-5803 -10054 -63 -121 -83 -216 -76 -348 4 -69 13 -123 30 -173 17 -49 444
-799 1377 -2415 744 -1289 1370 -2371 1392 -2406 89 -138 256 -253 414 -287
104 -22 5574 -22 5679 0 154 32 325 151 413 287 22 35 1375 2376 3007 5203
1632 2827 2970 5143 2973 5147 4 4 1350 -2320 2992 -5164 1642 -2844 3005
-5198 3029 -5231 82 -110 222 -200 369 -238 73 -19 142 -19 2852 -19 2736 0
2778 0 2854 20 147 37 278 121 363 231 23 30 658 1123 1412 2429 1095 1896
1377 2391 1398 2455 21 65 26 100 26 190 1 126 -16 203 -68 305 -18 36 -772
1345 -1675 2910 -904 1565 -2203 3815 -2887 5000 -684 1185 -1263 2180 -1287
2210 -85 110 -214 192 -362 230 -76 20 -118 20 -2854 20 -2711 0 -2779 0
-2852 -19 -147 -38 -282 -126 -366 -238 -38 -50 -953 -1629 -2773 -4785 l-166
-288 -1438 2493 c-791 1370 -1456 2517 -1476 2548 -87 130 -253 242 -404 274
-102 21 -5585 21 -5683 0z"/>
<path d="M69810 11874 l0 -2125 -152 154 c-262 263 -492 429 -833 597 -366
181 -683 272 -1140 327 -214 25 -847 26 -1050 0 -745 -93 -1323 -330 -1870
-765 -154 -123 -413 -382 -540 -542 -414 -518 -709 -1162 -854 -1860 -158
-768 -158 -1687 0 -2460 260 -1269 980 -2267 2010 -2785 425 -214 839 -333
1361 -392 189 -21 723 -24 898 -5 607 66 1043 215 1485 506 223 146 479 377
620 558 l60 77 3 -489 2 -490 1005 0 1005 0 0 5910 0 5910 -1005 0 -1005 0 0
-2126z m-1875 -2840 c229 -30 495 -109 689 -206 587 -294 1000 -870 1170
-1630 57 -255 79 -473 79 -783 0 -547 -100 -1001 -316 -1430 -118 -237 -250
-418 -433 -595 -319 -309 -698 -493 -1164 -567 -162 -25 -594 -25 -765 0
-1095 163 -1765 917 -1922 2162 -22 175 -25 671 -5 840 118 1006 561 1704
1288 2029 396 177 893 242 1379 180z"/>
<path d="M83250 8090 l0 -5910 1005 0 1005 0 0 5910 0 5910 -1005 0 -1005 0 0
-5910z"/>
<path d="M39670 8005 l0 -5825 1048 2 1047 3 5 4148 5 4148 1610 -4150 1610
-4151 949 2 949 3 1611 4143 1611 4144 3 -4146 2 -4146 1050 0 1050 0 0 5825
0 5825 -1399 0 -1399 0 -44 -112 c-24 -62 -806 -2083 -1738 -4490 -1463 -3779
-1696 -4375 -1706 -4355 -6 12 -788 2032 -1739 4490 l-1728 4467 -1399 0
-1398 0 0 -5825z"/>
<path d="M57465 10844 c-22 -2 -92 -9 -155 -15 -985 -91 -1869 -476 -2565
-1115 -654 -602 -1100 -1416 -1274 -2324 -96 -507 -113 -1104 -45 -1635 184
-1437 1019 -2642 2269 -3276 509 -257 999 -392 1675 -461 163 -16 744 -16 915
0 641 62 1145 202 1670 465 968 483 1687 1323 2039 2379 285 854 322 1897 100
2793 -202 815 -642 1566 -1222 2090 -181 163 -293 250 -487 379 -205 136 -303
192 -517 295 -450 217 -923 346 -1513 412 -95 10 -806 21 -890 13z m713 -1810
c367 -47 705 -171 995 -365 597 -397 969 -1098 1038 -1954 15 -188 7 -576 -16
-745 -83 -619 -308 -1117 -674 -1494 -190 -195 -354 -313 -606 -436 -238 -117
-455 -182 -735 -222 -146 -20 -593 -17 -745 5 -745 111 -1322 500 -1680 1132
-163 288 -268 604 -325 980 -27 178 -38 596 -21 795 61 701 317 1277 757 1700
54 53 126 116 159 141 365 279 810 443 1300 479 141 11 408 3 553 -16z"/>
<path d="M76550 10844 c-709 -62 -1252 -240 -1770 -580 -544 -356 -986 -868
-1295 -1499 -262 -534 -403 -1057 -472 -1745 -22 -222 -25 -907 -5 -1130 53
-581 160 -1057 343 -1520 69 -175 223 -480 326 -645 448 -718 1091 -1231 1891
-1509 658 -228 1518 -279 2235 -131 668 137 1239 474 1694 1000 l52 60 1 -482
0 -483 1005 0 1005 0 0 4245 0 4245 -1005 0 -1005 0 -2 -487 -3 -486 -77 94
c-94 116 -284 303 -398 391 -387 300 -864 508 -1380 602 -266 49 -384 58 -750
61 -190 1 -365 1 -390 -1z m1110 -1810 c744 -96 1315 -509 1645 -1189 147
-304 231 -591 282 -971 22 -164 25 -692 5 -859 -80 -667 -322 -1216 -706
-1601 -322 -322 -714 -516 -1196 -591 -143 -22 -584 -25 -725 -5 -449 65 -808
212 -1115 459 -470 377 -764 990 -846 1766 -20 192 -14 700 10 872 47 330 120
597 232 850 119 272 247 465 434 659 370 382 860 592 1475 630 106 6 386 -5
505 -20z"/>
</g>
</svg>
