<?xml version="1.0" standalone="no"?>
<!DOCTYPE svg PUBLIC "-//W3C//DTD SVG 20010904//EN"
 "http://www.w3.org/TR/2001/REC-SVG-20010904/DTD/svg10.dtd">
<svg version="1.0" xmlns="http://www.w3.org/2000/svg"
 width="5600.000000pt" height="1600.000000pt" viewBox="0 0 5600.000000 1600.000000"
 preserveAspectRatio="xMidYMid meet">
<metadata>
Created by potrace 1.16, written by Peter Selinger 2001-2019
</metadata>
<g transform="translate(0.000000,1600.000000) scale(0.100000,-0.100000)"
fill="#ffffff" stroke="none">
<path d="M36855 12699 c-775 -55 -1405 -279 -1895 -673 -139 -111 -466 -436
-566 -561 -464 -583 -723 -1297 -811 -2235 -24 -262 -24 -903 0 -1155 75 -767
258 -1365 577 -1892 246 -406 631 -813 1000 -1058 416 -277 906 -440 1532
-512 219 -25 887 -25 1103 0 703 82 1216 270 1675 615 146 109 492 454 614
612 473 612 725 1310 813 2250 24 259 24 872 0 1130 -90 954 -341 1653 -806
2240 -97 123 -449 475 -571 572 -502 398 -1124 614 -1918 668 -177 12 -572 11
-747 -1z m626 -1359 c901 -92 1536 -738 1749 -1779 102 -502 110 -1205 20
-1726 -174 -993 -713 -1648 -1510 -1834 -287 -68 -685 -68 -987 -2 -216 47
-475 162 -653 288 -120 86 -326 289 -418 413 -325 437 -488 976 -522 1726 -33
719 77 1359 315 1834 310 619 828 993 1485 1075 131 16 385 18 521 5z"/>
<path d="M30782 11838 l3 -683 753 -3 752 -2 0 685 0 685 -755 0 -755 0 2
-682z"/>
<path d="M8940 8640 l0 -3840 745 0 745 0 -2 3209 c-2 1765 -2 3208 0 3206 2
-2 326 -1445 721 -3207 l717 -3203 779 -3 780 -2 719 3192 c396 1756 722 3201
725 3210 3 9 5 -1427 3 -3193 l-3 -3209 745 0 746 0 0 3840 0 3840 -1149 0
c-633 0 -1152 -3 -1154 -8 -3 -4 -314 -1355 -692 -3002 -378 -1647 -690 -2998
-694 -3002 -3 -4 -319 1346 -702 3000 l-695 3007 -1167 3 -1167 2 0 -3840z"/>
<path d="M24280 8640 l0 -3840 740 0 740 0 0 3840 0 3840 -740 0 -740 0 0
-3840z"/>
<path d="M27418 11218 l-3 -793 -392 -3 -393 -2 0 -525 0 -525 395 0 394 0 4
-1867 3 -1868 22 -99 c48 -208 116 -340 237 -461 239 -238 652 -355 1245 -355
126 1 847 25 878 30 1 0 2 249 2 553 l0 552 -298 0 c-479 0 -547 25 -599 216
-16 59 -18 180 -20 1682 l-3 1617 460 0 460 0 0 525 0 525 -460 0 -460 0 0
795 0 795 -735 0 -735 0 -2 -792z"/>
<path d="M44865 10595 c-301 -37 -567 -131 -794 -283 -158 -104 -337 -295
-520 -550 l-81 -113 -2 408 -3 408 -715 0 -715 0 -3 -2832 -2 -2833 740 0 739
0 4 1663 c4 1758 3 1716 52 1963 87 431 314 737 646 868 262 103 624 111 890
21 214 -73 390 -249 464 -465 31 -89 42 -135 63 -255 13 -79 16 -322 19 -1942
l4 -1853 759 0 760 0 0 1968 c0 1253 -4 2018 -10 2107 -39 520 -182 901 -440
1169 -298 310 -738 503 -1269 556 -140 14 -451 11 -586 -5z"/>
<path d="M17690 8671 c0 -1144 4 -1874 11 -1987 51 -881 279 -1392 761 -1711
230 -152 530 -249 871 -284 185 -18 590 -7 747 21 344 61 621 195 915 442 134
113 202 189 294 326 l76 115 3 -397 2 -396 725 0 725 0 -2 2838 -3 2837 -752
3 -753 2 0 -1608 c0 -1000 -4 -1658 -10 -1738 -34 -426 -136 -710 -330 -917
-180 -193 -409 -293 -727 -317 -441 -34 -748 102 -902 400 -47 91 -64 144 -90
275 -39 195 -41 313 -41 2137 l0 1768 -760 0 -760 0 0 -1809z"/>
<path d="M30787 10473 c-4 -3 -7 -1281 -7 -2840 l0 -2833 755 0 755 0 0 2840
0 2840 -748 0 c-412 0 -752 -3 -755 -7z"/>
</g>
</svg>
