<?xml version="1.0" standalone="no"?>
<!DOCTYPE svg PUBLIC "-//W3C//DTD SVG 20010904//EN"
 "http://www.w3.org/TR/2001/REC-SVG-20010904/DTD/svg10.dtd">
<svg version="1.0" xmlns="http://www.w3.org/2000/svg"
 width="4200.000000pt" height="1600.000000pt" viewBox="0 0 4200.000000 1600.000000"
 preserveAspectRatio="xMidYMid meet">
<metadata>
Created by potrace 1.16, written by Peter Selinger 2001-2019
</metadata>
<g transform="translate(0.000000,1600.000000) scale(0.100000,-0.100000)"
fill="#ffffff" stroke="none">
<path d="M113 15963 c8 -44 28 -65 85 -87 24 -9 60 -30 81 -46 20 -16 58 -37
85 -46 34 -12 56 -28 76 -56 16 -22 46 -52 67 -67 21 -15 44 -40 52 -55 8 -15
31 -36 50 -48 36 -22 77 -59 206 -188 22 -22 47 -47 55 -55 74 -73 120 -125
133 -151 9 -18 32 -41 51 -52 19 -11 46 -39 61 -61 14 -23 29 -41 34 -41 5 0
23 -11 40 -25 22 -19 33 -40 41 -81 8 -38 22 -68 45 -92 18 -21 42 -56 53 -79
13 -24 40 -54 64 -70 37 -25 45 -37 60 -91 11 -43 29 -76 57 -108 22 -25 43
-60 47 -77 8 -41 30 -83 64 -127 15 -19 38 -65 49 -102 12 -37 38 -86 57 -110
40 -51 54 -93 54 -167 0 -47 3 -56 31 -80 82 -69 79 -64 79 -143 0 -99 14
-142 63 -195 l42 -46 5 -156 c6 -168 13 -191 71 -258 35 -41 37 -60 43 -358 3
-208 7 -249 25 -305 11 -36 21 -86 21 -112 0 -26 9 -71 20 -100 20 -53 20 -77
20 -3863 0 -3761 -1 -3811 -20 -3904 -11 -52 -20 -121 -20 -155 0 -34 -10 -97
-21 -141 -19 -70 -22 -119 -28 -405 -7 -358 0 -322 -76 -431 -30 -42 -30 -43
-35 -218 -3 -102 -10 -184 -17 -196 -6 -11 -25 -33 -42 -49 -39 -38 -51 -80
-51 -186 0 -102 -13 -153 -48 -198 -55 -69 -62 -86 -62 -144 0 -74 -12 -103
-61 -147 -38 -34 -41 -40 -50 -114 -12 -96 -21 -121 -63 -167 -18 -21 -41 -62
-51 -91 -9 -30 -30 -70 -46 -91 -28 -35 -44 -68 -69 -136 -7 -18 -30 -46 -51
-63 -28 -22 -40 -40 -44 -67 -3 -20 -8 -52 -11 -70 -4 -25 -17 -41 -53 -67
-27 -20 -55 -50 -62 -68 -7 -17 -30 -50 -49 -72 -20 -22 -49 -62 -64 -88 -15
-26 -40 -62 -55 -80 -16 -18 -38 -51 -50 -75 -12 -24 -37 -52 -55 -63 -19 -11
-46 -37 -60 -59 -14 -22 -39 -46 -55 -54 -16 -9 -39 -32 -51 -51 -12 -20 -37
-46 -56 -59 -19 -12 -47 -41 -63 -63 -16 -22 -44 -46 -62 -53 -19 -8 -52 -29
-73 -47 -21 -18 -55 -37 -75 -43 -76 -24 -93 -34 -116 -70 -19 -30 -38 -43
-87 -62 -54 -20 -63 -28 -63 -48 0 -19 9 -30 35 -42 33 -17 163 -18 2277 -18
l2242 0 27 23 c38 33 26 59 -44 92 -31 15 -73 42 -93 60 -22 20 -56 37 -87 45
-43 10 -59 21 -92 60 -23 27 -50 52 -61 55 -11 4 -33 25 -50 48 -16 22 -44 51
-63 63 -19 13 -44 39 -56 59 -12 19 -35 42 -51 51 -16 8 -41 32 -55 54 -14 22
-41 48 -60 59 -19 11 -43 35 -54 53 -11 18 -36 44 -57 58 -20 14 -48 46 -62
72 -14 26 -38 62 -52 80 -15 18 -34 59 -43 90 -14 49 -23 62 -62 89 -28 19
-53 47 -65 73 -10 22 -34 60 -53 83 -20 25 -37 59 -41 85 -7 41 -25 64 -91
114 -25 19 -29 29 -32 94 l-4 72 -48 34 c-52 38 -60 54 -60 132 0 60 -9 81
-55 133 -33 37 -47 80 -60 190 -5 38 -14 55 -55 96 l-50 51 0 89 c0 107 -13
157 -52 202 -44 50 -49 72 -58 234 -9 155 -9 157 -76 272 l-29 50 -6 230 c-6
252 -28 432 -61 505 -12 25 -25 86 -31 135 -6 57 -11 1721 -13 4527 -4 4432
-4 4438 16 4458 11 11 25 20 31 20 6 0 35 -25 64 -55 29 -30 57 -55 64 -55 6
0 23 -18 37 -40 15 -22 41 -49 59 -60 18 -11 44 -38 59 -60 14 -22 39 -46 54
-54 16 -8 40 -33 55 -55 15 -22 40 -47 56 -55 16 -9 39 -32 52 -53 12 -21 41
-59 63 -84 23 -26 70 -82 106 -125 36 -42 108 -123 161 -178 53 -56 104 -117
113 -136 10 -19 37 -53 59 -75 23 -22 50 -55 59 -73 9 -18 33 -41 52 -53 19
-11 44 -36 55 -55 11 -19 36 -43 55 -55 18 -11 46 -37 60 -59 14 -22 39 -46
55 -54 16 -9 39 -32 51 -51 12 -20 37 -46 56 -59 19 -12 47 -40 62 -62 16 -21
41 -45 56 -53 15 -8 36 -31 48 -50 12 -20 40 -57 62 -82 23 -26 70 -82 106
-124 36 -43 85 -100 110 -129 25 -28 56 -67 70 -86 14 -19 41 -51 60 -71 65
-68 131 -145 150 -177 11 -17 37 -43 58 -57 22 -14 44 -37 50 -50 6 -13 30
-38 52 -54 23 -16 54 -47 69 -68 15 -21 40 -44 55 -52 15 -8 36 -30 47 -48 12
-19 36 -44 55 -57 19 -12 47 -40 62 -62 16 -21 41 -46 56 -54 15 -8 38 -33 51
-55 14 -22 38 -54 56 -70 17 -17 40 -48 51 -70 12 -22 64 -85 117 -140 54 -55
108 -116 121 -135 13 -19 40 -51 59 -71 20 -20 61 -67 91 -104 30 -37 73 -85
95 -106 22 -22 43 -43 47 -47 124 -128 206 -210 218 -218 8 -5 28 -26 43 -46
15 -20 40 -44 55 -53 15 -9 37 -32 50 -51 12 -19 38 -44 57 -56 19 -13 44 -41
56 -63 12 -22 35 -51 51 -63 16 -13 38 -42 49 -65 12 -22 63 -84 115 -138 51
-54 102 -115 112 -136 19 -37 119 -151 190 -218 94 -88 471 -476 486 -500 10
-16 34 -46 53 -65 38 -39 109 -121 165 -190 20 -25 74 -83 118 -130 45 -47 92
-105 105 -130 13 -25 37 -55 53 -67 17 -12 40 -39 52 -60 11 -21 36 -48 55
-61 19 -12 45 -37 57 -55 12 -19 36 -43 55 -55 18 -12 43 -37 55 -56 13 -19
35 -42 50 -51 15 -9 40 -33 55 -53 15 -20 34 -41 43 -46 26 -17 175 -170 194
-201 11 -16 34 -46 53 -65 43 -44 117 -130 168 -195 22 -27 75 -86 118 -130
44 -44 90 -101 102 -126 13 -25 35 -54 50 -63 14 -9 39 -38 55 -65 16 -26 41
-53 54 -59 14 -6 39 -30 55 -52 16 -23 47 -54 68 -69 21 -15 44 -40 52 -55 8
-15 30 -36 48 -47 19 -12 44 -36 57 -55 12 -19 40 -47 62 -62 21 -16 45 -41
53 -56 8 -15 30 -36 48 -47 19 -12 49 -46 68 -75 20 -30 41 -57 49 -60 7 -3
30 -30 51 -60 21 -30 41 -54 46 -54 4 0 29 -28 55 -62 26 -35 66 -84 88 -110
23 -26 68 -79 101 -118 33 -40 78 -91 101 -113 22 -23 50 -58 62 -78 12 -19
33 -42 48 -50 15 -8 40 -31 55 -52 15 -21 45 -51 66 -66 21 -15 44 -39 52 -54
8 -14 31 -37 51 -51 21 -14 48 -41 60 -61 12 -19 35 -42 51 -51 16 -8 41 -33
56 -55 15 -22 39 -47 55 -55 15 -8 43 -38 62 -68 19 -29 43 -60 54 -67 11 -8
34 -39 52 -69 17 -30 75 -101 128 -156 54 -56 124 -134 157 -174 33 -39 79
-91 101 -113 23 -23 49 -57 58 -75 9 -17 34 -43 55 -56 21 -14 49 -41 61 -61
12 -19 35 -42 51 -51 16 -8 41 -33 56 -55 15 -22 39 -47 55 -55 15 -8 40 -32
54 -54 15 -22 42 -49 60 -61 18 -11 42 -35 54 -54 12 -19 37 -44 56 -55 19
-12 42 -36 50 -53 9 -16 35 -51 59 -76 23 -25 50 -62 60 -81 10 -19 59 -78
110 -130 51 -52 100 -111 110 -130 17 -33 40 -60 160 -183 28 -29 58 -64 67
-78 10 -15 33 -37 53 -49 19 -12 42 -35 51 -51 8 -16 32 -41 54 -55 22 -15 49
-42 61 -60 11 -18 35 -42 54 -54 19 -12 43 -36 55 -55 12 -19 37 -44 56 -55
19 -12 42 -36 51 -53 8 -18 36 -55 62 -83 25 -29 75 -87 111 -130 36 -42 108
-123 161 -178 53 -56 106 -120 118 -143 11 -24 35 -53 52 -65 17 -13 40 -40
50 -60 11 -21 37 -50 59 -64 22 -14 48 -42 59 -60 12 -19 36 -44 55 -55 19
-11 44 -36 55 -55 11 -19 36 -44 55 -55 19 -11 44 -36 55 -55 11 -19 36 -43
55 -55 18 -11 46 -37 60 -59 14 -22 39 -46 56 -55 16 -8 37 -30 46 -48 9 -17
37 -55 63 -83 25 -29 75 -87 111 -130 98 -118 247 -269 285 -290 28 -15 38
-16 60 -6 14 6 30 23 35 38 7 16 10 993 10 2744 l0 2718 -25 31 c-14 16 -35
33 -46 36 -10 4 -28 24 -39 45 -11 22 -39 59 -62 84 -24 24 -70 77 -103 117
-33 39 -106 120 -162 179 -56 59 -110 124 -120 145 -26 49 -59 85 -390 420
-156 156 -283 289 -283 294 0 5 -21 32 -47 60 -54 58 -110 121 -176 201 -25
30 -77 89 -117 130 -39 41 -83 95 -98 120 -14 25 -40 58 -58 73 -18 15 -43 44
-54 65 -12 20 -36 47 -55 60 -19 12 -45 37 -57 55 -12 19 -36 43 -55 55 -18
12 -43 37 -55 55 -12 19 -36 43 -55 55 -18 12 -43 37 -55 55 -12 19 -36 43
-55 55 -18 12 -43 37 -55 55 -12 19 -36 43 -55 55 -18 12 -45 41 -59 65 -15
23 -42 58 -60 77 -52 55 -126 140 -169 195 -22 28 -73 84 -113 125 -41 41 -87
98 -103 125 -16 28 -42 61 -59 73 -16 12 -39 40 -50 62 -11 22 -34 47 -50 55
-17 9 -44 34 -60 57 -17 23 -44 49 -60 59 -16 10 -41 36 -55 57 -14 22 -37 44
-50 50 -13 6 -38 30 -54 52 -16 23 -47 54 -68 69 -21 15 -44 39 -52 54 -8 14
-31 38 -52 52 -21 14 -48 43 -59 64 -10 22 -32 50 -48 63 -16 12 -44 44 -62
71 -18 26 -37 47 -41 47 -5 0 -27 26 -51 58 -23 31 -83 100 -133 152 -51 52
-102 114 -113 137 -12 23 -35 51 -52 63 -17 12 -39 38 -50 59 -10 21 -37 49
-59 64 -22 15 -47 40 -55 55 -8 16 -32 40 -54 55 -22 14 -49 41 -60 59 -12 19
-33 41 -48 49 -15 8 -40 31 -55 52 -15 21 -45 51 -66 66 -21 15 -44 39 -52 54
-8 14 -31 38 -52 52 -21 14 -48 43 -59 64 -10 22 -32 50 -48 63 -16 12 -44 45
-61 71 -18 27 -39 51 -47 54 -8 3 -29 26 -46 52 -18 25 -75 91 -128 146 -54
55 -107 119 -118 142 -12 23 -35 51 -52 63 -17 12 -39 39 -50 61 -11 21 -38
50 -60 64 -22 14 -46 38 -55 55 -9 17 -33 41 -55 55 -22 14 -46 38 -55 55 -9
17 -33 41 -54 54 -21 14 -49 41 -61 61 -12 19 -35 42 -51 51 -16 8 -41 32 -55
54 -14 22 -41 48 -59 59 -19 11 -41 35 -51 53 -9 18 -37 56 -63 85 -97 109
-140 159 -162 188 -12 17 -64 73 -114 125 -51 52 -102 114 -113 137 -12 23
-35 51 -52 63 -17 12 -39 39 -50 61 -11 21 -38 50 -60 64 -22 14 -46 38 -55
55 -9 17 -34 42 -56 57 -22 15 -47 39 -55 55 -8 15 -33 40 -55 55 -22 15 -47
39 -55 55 -8 15 -32 40 -54 54 -22 15 -49 42 -61 60 -11 18 -36 43 -55 54 -19
12 -42 36 -51 53 -8 18 -36 55 -62 83 -25 29 -75 87 -111 130 -36 42 -108 123
-161 178 -53 56 -106 120 -117 143 -12 22 -35 52 -50 65 -16 12 -41 42 -55 64
-14 23 -42 52 -62 64 -19 12 -42 35 -51 51 -8 16 -32 41 -54 55 -22 14 -48 42
-59 60 -12 19 -36 44 -55 55 -19 11 -44 36 -55 55 -11 19 -36 44 -55 55 -19
11 -44 36 -55 55 -11 19 -37 44 -56 55 -20 12 -43 35 -52 53 -8 17 -36 54 -62
82 -25 29 -73 84 -106 124 -33 40 -105 120 -161 179 -56 58 -111 125 -122 147
-12 23 -34 53 -50 66 -17 14 -42 44 -56 67 -15 23 -40 50 -56 60 -16 10 -43
36 -60 59 -16 23 -43 48 -60 57 -16 8 -37 29 -45 45 -9 17 -34 44 -57 60 -23
17 -49 43 -59 59 -10 16 -34 41 -54 54 -21 14 -46 39 -56 56 -10 17 -36 42
-58 57 -22 14 -43 35 -47 46 -3 11 -29 47 -58 79 -28 32 -78 91 -111 130 -33
39 -95 108 -137 153 -51 54 -80 93 -84 114 l-6 32 -2641 0 -2640 0 6 -37z"/>
<path d="M15000 15969 c0 -22 9 -39 33 -60 50 -46 89 -84 167 -165 33 -35 59
-60 155 -152 44 -42 88 -89 98 -104 9 -15 31 -35 47 -43 17 -9 41 -33 54 -54
14 -21 41 -49 61 -61 19 -12 42 -35 51 -51 8 -16 33 -41 55 -56 22 -15 49 -43
59 -62 10 -20 33 -49 50 -66 18 -16 44 -55 57 -85 14 -30 40 -71 58 -92 19
-20 44 -56 55 -78 12 -23 37 -51 56 -62 45 -26 54 -45 54 -110 0 -61 14 -87
64 -117 37 -23 56 -63 56 -118 0 -28 10 -45 50 -86 48 -49 50 -53 50 -109 0
-73 12 -98 61 -128 47 -30 50 -36 54 -128 4 -74 19 -112 76 -183 25 -32 38
-86 39 -162 0 -63 16 -102 61 -154 39 -45 49 -90 49 -219 0 -111 0 -112 35
-160 66 -93 68 -103 75 -304 l6 -186 34 -59 c53 -94 70 -216 70 -506 0 -255
12 -374 55 -574 15 -66 32 -172 37 -235 8 -79 13 -1836 17 -5602 6 -5250 7
-5488 24 -5505 17 -17 267 -18 5859 -21 5222 -2 5844 0 5865 13 38 25 30 60
-22 97 -48 34 -51 41 -58 127 -5 57 -2 53 -82 116 -21 16 -28 33 -35 85 -8 59
-13 68 -54 106 -25 22 -48 54 -52 70 -9 39 -32 82 -65 124 -15 19 -34 58 -42
87 -18 61 -31 86 -68 133 -15 19 -34 59 -44 88 -9 29 -34 73 -55 97 -24 28
-42 62 -50 94 -8 36 -21 58 -43 76 -77 62 -77 63 -77 131 0 69 -2 72 -74 127
-35 27 -36 30 -36 93 0 69 3 65 -77 132 -27 23 -34 37 -43 92 -8 58 -14 69
-49 100 -27 24 -47 54 -61 92 -12 32 -36 75 -54 97 -19 22 -40 65 -50 99 -9
33 -28 75 -41 93 -14 19 -37 59 -51 89 -52 107 -83 116 -148 46 -25 -26 -60
-51 -89 -61 -26 -10 -64 -33 -85 -52 -20 -19 -54 -43 -75 -54 -21 -11 -50 -37
-65 -58 -15 -21 -42 -48 -59 -60 -18 -11 -43 -37 -55 -56 -22 -34 -62 -55
-131 -70 -15 -3 -44 -21 -65 -39 -20 -18 -51 -40 -67 -49 -17 -8 -49 -37 -72
-64 -35 -43 -49 -51 -98 -62 -38 -9 -69 -24 -94 -45 -20 -18 -54 -43 -76 -55
-22 -13 -54 -42 -70 -65 -30 -40 -32 -41 -104 -47 -63 -5 -77 -9 -92 -30 -51
-68 -63 -80 -87 -85 -41 -10 -95 -39 -116 -63 -11 -12 -48 -30 -83 -41 -77
-24 -98 -35 -140 -71 -18 -16 -52 -33 -75 -39 -69 -18 -98 -31 -140 -66 -46
-39 -92 -54 -170 -54 -60 0 -56 3 -117 -79 -16 -22 -28 -25 -102 -30 -86 -6
-94 -9 -188 -75 -38 -26 -54 -30 -142 -37 -104 -7 -108 -8 -201 -81 -23 -18
-48 -23 -136 -29 -114 -7 -134 -14 -210 -71 l-43 -32 -162 -7 c-170 -8 -209
-15 -254 -47 -78 -55 -86 -56 -313 -63 -129 -4 -229 -12 -250 -19 -19 -7 -75
-29 -125 -49 l-90 -36 -385 -7 c-388 -6 -621 -19 -695 -38 -22 -5 -93 -10
-157 -10 -98 0 -127 -4 -170 -22 -49 -20 -72 -22 -333 -25 -215 -3 -286 0
-305 10 -14 7 -42 41 -62 75 l-38 62 0 3612 c0 3431 1 3612 17 3631 28 30 70
48 116 49 167 3 1018 -15 1082 -23 60 -7 89 -16 118 -37 88 -62 89 -62 272
-62 185 0 233 -8 283 -48 77 -61 79 -62 205 -62 132 0 145 -4 198 -64 l36 -40
119 -7 c65 -4 121 -7 123 -8 2 -1 22 -22 45 -47 40 -43 46 -46 116 -55 100
-12 128 -23 174 -64 42 -37 73 -50 150 -60 40 -5 56 -14 90 -50 29 -29 57 -47
87 -55 69 -17 95 -30 121 -57 12 -14 46 -35 74 -48 29 -13 62 -37 74 -53 26
-35 54 -48 121 -57 47 -6 55 -11 108 -75 16 -19 46 -41 67 -49 22 -7 57 -28
79 -46 23 -18 59 -40 80 -49 22 -9 60 -36 85 -61 25 -25 61 -60 80 -78 19 -19
45 -46 57 -60 26 -32 46 -34 73 -7 20 20 20 28 18 1563 -3 1458 -4 1544 -21
1570 -23 35 -37 34 -86 -7 -23 -19 -50 -38 -61 -41 -10 -3 -35 -28 -54 -55
-19 -26 -44 -51 -55 -55 -11 -3 -36 -28 -55 -55 -31 -43 -41 -50 -93 -61 -38
-9 -69 -24 -93 -45 -19 -17 -54 -41 -78 -53 -25 -13 -52 -38 -67 -62 -30 -47
-57 -59 -130 -59 -48 0 -56 -3 -77 -31 -53 -70 -62 -76 -125 -83 -55 -6 -65
-11 -94 -44 -45 -52 -65 -61 -133 -62 -53 0 -61 -3 -85 -31 -68 -80 -66 -79
-131 -79 -68 0 -115 -16 -145 -50 -35 -39 -76 -53 -178 -60 -79 -5 -103 -11
-125 -28 -90 -73 -94 -74 -232 -83 -144 -8 -185 -19 -245 -59 -64 -43 -98 -50
-254 -50 -187 -1 -273 -12 -365 -49 -136 -54 -202 -60 -726 -61 -287 -1 -485
2 -500 8 -14 5 -33 18 -43 29 -16 19 -17 188 -17 3402 0 2065 3 3389 9 3399 5
9 28 35 51 57 l41 40 150 3 c120 3 159 0 202 -14 73 -24 273 -33 887 -42 544
-9 557 -10 642 -53 85 -43 143 -51 424 -58 l272 -6 38 -31 c81 -65 91 -67 314
-75 113 -3 206 -7 206 -8 1 0 19 -15 40 -32 66 -53 97 -62 252 -69 l142 -6 44
-43 c51 -50 86 -60 206 -61 107 0 152 -13 199 -55 49 -44 79 -55 154 -55 65 0
131 -23 156 -54 28 -33 76 -50 165 -56 90 -7 90 -7 125 -48 39 -44 74 -62 124
-62 47 -1 96 -21 149 -62 32 -25 66 -40 105 -48 113 -22 130 -29 157 -64 26
-35 58 -49 135 -61 33 -6 55 -18 87 -49 24 -24 60 -48 83 -54 21 -7 63 -30 91
-51 28 -21 72 -44 96 -51 30 -9 61 -29 93 -61 36 -36 57 -49 78 -49 61 0 103
-20 129 -61 19 -30 40 -47 82 -66 31 -13 71 -37 88 -53 18 -15 55 -35 83 -45
40 -13 58 -26 82 -61 16 -24 47 -53 67 -63 20 -10 47 -33 60 -50 12 -17 41
-40 63 -51 22 -12 57 -36 77 -54 101 -91 171 -72 187 49 5 46 12 60 45 91 44
42 56 67 65 138 6 41 14 56 46 86 23 21 47 57 59 88 11 28 35 72 54 96 19 25
41 67 50 94 11 33 31 62 60 88 40 36 44 44 51 104 7 59 11 68 55 113 43 44 49
55 55 108 7 60 7 61 83 126 27 23 34 39 42 88 8 51 16 65 49 96 31 29 44 52
60 106 13 43 31 78 47 94 15 13 40 53 56 89 16 36 42 79 59 96 19 20 36 54 48
99 16 58 27 76 61 105 37 32 42 41 50 100 9 67 14 74 84 123 27 19 41 58 51
150 l7 57 -6901 0 -6901 0 0 -31z"/>
<path d="M32680 15963 c0 -21 -7 -82 -14 -136 -14 -95 -15 -99 -60 -147 -43
-46 -46 -53 -46 -104 0 -73 -13 -104 -61 -146 -39 -35 -40 -36 -54 -142 -15
-119 -22 -137 -60 -162 -36 -23 -55 -74 -55 -142 0 -53 -2 -58 -45 -101 -25
-24 -45 -45 -45 -46 -25 -141 -31 -163 -60 -201 -45 -59 -67 -112 -75 -181 -6
-52 -12 -65 -45 -96 -51 -49 -60 -68 -60 -134 0 -66 -10 -88 -60 -135 -39 -37
-42 -45 -56 -179 -6 -59 -10 -69 -53 -114 -45 -48 -46 -51 -52 -130 -6 -79 -6
-81 -47 -116 -49 -43 -57 -63 -66 -160 -10 -95 -19 -117 -67 -161 -36 -34 -39
-41 -39 -92 0 -75 -15 -114 -56 -139 -41 -25 -54 -47 -54 -92 0 -66 -12 -95
-60 -144 -47 -48 -48 -49 -55 -133 -9 -107 -16 -125 -67 -177 -40 -41 -42 -45
-47 -123 -6 -80 -6 -80 -52 -122 -43 -40 -47 -48 -54 -106 -11 -96 -9 -252 4
-300 7 -23 24 -57 40 -75 36 -42 47 -63 71 -140 11 -35 29 -72 41 -83 27 -24
45 -60 67 -132 10 -31 35 -79 55 -105 37 -48 57 -101 57 -149 0 -44 18 -79 61
-117 39 -34 41 -40 44 -98 5 -83 11 -100 45 -118 51 -26 70 -61 70 -127 0 -52
3 -62 26 -81 81 -66 84 -72 84 -137 0 -51 4 -64 23 -80 91 -80 87 -74 87 -144
0 -65 1 -67 49 -120 42 -47 49 -60 56 -112 9 -73 26 -116 65 -160 17 -20 38
-64 51 -104 12 -41 35 -87 53 -109 35 -41 49 -70 66 -137 5 -23 24 -59 41 -80
44 -55 55 -81 70 -154 10 -51 20 -73 50 -105 44 -47 59 -82 59 -131 0 -45 14
-71 63 -114 37 -33 40 -39 42 -97 5 -85 10 -97 56 -127 46 -31 59 -58 59 -127
0 -39 5 -54 23 -69 90 -79 87 -74 87 -140 0 -51 4 -64 23 -80 91 -80 87 -74
87 -144 0 -65 1 -67 49 -120 42 -47 49 -60 56 -112 9 -73 23 -108 67 -166 19
-25 42 -72 51 -105 10 -35 32 -79 52 -104 20 -25 44 -73 56 -111 11 -37 38
-90 60 -119 38 -51 50 -81 64 -162 4 -25 20 -54 47 -83 42 -45 57 -89 58 -161
0 -34 6 -46 31 -67 17 -14 35 -26 40 -26 16 0 39 -66 37 -107 -2 -58 10 -81
53 -109 46 -29 59 -56 59 -125 0 -51 1 -53 68 -105 38 -30 42 -66 10 -88 -20
-14 -266 -16 -2418 -16 l-2397 0 -20 -22 c-12 -13 -26 -48 -32 -82 -9 -48 -19
-67 -56 -107 -43 -46 -45 -51 -45 -109 0 -72 -9 -93 -61 -140 -35 -31 -40 -42
-48 -98 -7 -55 -13 -68 -49 -105 -49 -50 -52 -70 -15 -94 26 -17 163 -18 2750
-20 2340 -3 2728 -5 2752 -17 53 -28 91 -78 113 -149 11 -38 35 -88 53 -112
47 -62 54 -76 61 -141 8 -72 17 -90 62 -130 34 -29 36 -36 43 -110 7 -70 11
-81 35 -99 76 -56 77 -58 83 -136 6 -73 6 -73 49 -102 51 -34 62 -59 62 -132
0 -47 3 -57 26 -72 75 -53 77 -55 83 -136 6 -73 8 -79 48 -119 37 -38 44 -52
57 -120 16 -85 26 -106 68 -158 16 -19 37 -65 48 -101 11 -37 36 -87 56 -114
20 -26 45 -76 56 -110 10 -36 36 -87 58 -116 29 -39 44 -72 56 -127 14 -62 24
-83 60 -123 41 -46 44 -54 44 -107 0 -83 7 -98 60 -136 l48 -34 4 -72 c4 -78
-1 -69 85 -136 23 -18 27 -30 32 -95 6 -73 6 -73 49 -102 51 -34 62 -58 62
-133 0 -51 3 -58 45 -103 39 -42 46 -57 59 -124 16 -84 26 -106 68 -157 16
-19 37 -65 48 -101 11 -37 36 -87 56 -114 20 -26 45 -76 56 -110 10 -36 36
-87 58 -116 29 -39 44 -72 56 -128 14 -61 24 -82 58 -119 37 -41 41 -49 48
-120 7 -77 7 -77 58 -122 48 -43 50 -47 50 -97 0 -71 12 -96 62 -130 43 -29
43 -29 49 -102 6 -79 1 -71 85 -137 24 -18 28 -30 33 -97 l7 -77 67 -68 67
-67 2512 -3 c2239 -2 2514 0 2535 13 39 26 30 60 -24 99 -27 19 -58 48 -71 66
-13 17 -47 42 -75 55 -49 23 -87 52 -212 159 -28 24 -64 50 -82 59 -17 9 -41
31 -53 47 -12 17 -39 42 -60 55 -21 13 -48 40 -60 60 -12 19 -35 42 -51 50
-16 9 -44 39 -63 69 -19 29 -43 60 -53 67 -10 8 -34 35 -53 61 -18 27 -43 54
-55 62 -11 8 -35 40 -52 73 -18 32 -44 69 -58 83 -15 14 -38 46 -51 72 -15 30
-39 57 -64 73 -22 14 -46 38 -55 55 -9 17 -34 42 -56 56 -25 15 -46 39 -56 62
-8 20 -31 54 -50 77 -21 24 -41 63 -51 99 -14 51 -23 64 -63 93 -30 21 -53 47
-62 71 -8 21 -31 57 -50 80 -20 23 -39 57 -42 74 -12 54 -34 88 -71 110 -22
13 -45 40 -61 72 -14 28 -38 65 -53 83 -16 17 -36 57 -45 88 -13 47 -23 61
-61 88 -36 25 -47 41 -59 81 -8 27 -15 55 -15 61 0 6 -18 31 -39 54 -24 26
-48 66 -60 102 -11 33 -34 77 -50 98 -17 21 -39 59 -50 84 -13 30 -34 56 -60
74 -46 32 -61 66 -61 134 0 37 -5 53 -21 67 -89 76 -89 76 -89 142 0 54 -3 64
-26 83 -81 66 -84 72 -84 137 0 51 -4 64 -22 80 -85 73 -85 74 -93 135 -6 53
-12 63 -55 105 -44 43 -48 50 -55 110 -7 60 -11 67 -56 111 l-49 47 0 67 c0
72 4 65 -87 145 -19 16 -23 29 -23 80 0 65 -3 71 -84 137 -23 19 -26 29 -26
81 0 66 -19 101 -71 127 -30 16 -55 78 -43 108 11 30 -16 96 -51 123 -35 26
-38 34 -65 149 -7 30 -23 62 -40 80 -33 34 -52 76 -70 153 -7 32 -28 74 -51
105 -22 29 -48 80 -59 117 -11 37 -35 84 -55 109 -21 26 -43 72 -55 113 -12
39 -33 83 -51 102 -38 43 -55 87 -64 161 -6 55 -11 64 -53 102 -44 41 -45 43
-51 119 -6 69 -10 79 -36 101 -79 64 -75 57 -75 123 0 65 -5 73 -92 145 -13
11 -18 30 -18 70 0 70 -12 96 -61 126 -40 25 -66 79 -53 112 11 30 -16 96 -51
123 -36 27 -43 44 -65 156 -8 40 -24 74 -51 110 -23 31 -48 81 -59 120 -13 40
-34 83 -55 108 -21 26 -42 68 -55 111 -12 38 -34 84 -49 102 -39 44 -47 63
-66 142 -12 53 -24 78 -55 111 -43 46 -47 58 -53 149 -3 52 -8 62 -33 80 -66
47 -74 60 -74 125 0 65 -3 71 -84 137 -22 18 -26 29 -26 77 0 71 -13 99 -61
125 -42 24 -46 33 -52 125 -4 55 -6 60 -55 105 -48 44 -52 52 -52 92 0 65 -15
106 -54 149 -19 21 -40 58 -47 82 -29 108 -43 141 -74 178 -19 23 -42 68 -54
109 -13 42 -35 85 -56 111 -21 25 -42 68 -55 110 -13 42 -34 85 -55 110 -36
43 -50 81 -61 165 -5 41 -13 57 -44 86 -51 49 -60 68 -60 134 0 60 -5 67 -84
132 -22 18 -26 29 -26 77 0 68 -13 97 -53 121 -47 28 -56 44 -57 103 0 52 -21
112 -39 112 -5 0 -23 12 -40 26 -28 23 -31 32 -31 80 0 67 -20 117 -55 140
-35 23 -42 39 -55 119 -12 75 -29 114 -71 162 -15 18 -33 52 -39 75 -17 69
-31 97 -66 139 -18 22 -41 67 -53 107 -11 39 -36 88 -57 114 -25 33 -42 70
-56 125 -15 59 -28 86 -53 113 -40 41 -50 65 -59 142 -6 49 -12 62 -44 89 -52
45 -61 66 -62 135 0 53 -4 65 -26 88 -15 14 -30 26 -35 26 -5 0 -17 10 -29 22
-15 16 -20 35 -20 74 0 67 -12 92 -64 129 -40 30 -41 32 -47 104 -5 63 -9 77
-30 92 -81 61 -79 58 -79 112 0 71 -15 119 -46 148 -34 32 -52 67 -65 131 -13
61 -31 99 -70 148 -15 19 -34 58 -42 87 -18 61 -31 86 -68 133 -14 19 -36 64
-48 100 -12 36 -39 89 -60 118 -24 31 -41 67 -45 92 -3 22 -9 58 -12 80 -4 29
-15 48 -42 71 -52 45 -61 66 -62 135 0 46 -5 65 -20 82 -12 12 -24 22 -29 22
-5 0 -20 12 -35 26 -23 23 -26 35 -26 90 0 69 -2 72 -74 127 -35 27 -36 30
-36 93 0 70 -3 75 -79 132 -29 22 -31 28 -31 83 0 69 -14 100 -64 147 -27 25
-36 43 -41 80 -12 88 -27 127 -65 177 -22 28 -46 76 -55 110 -10 34 -34 82
-55 110 -21 28 -45 73 -53 102 -19 62 -29 83 -72 139 -22 29 -35 59 -40 93
l-7 51 -324 0 -324 0 0 -37z"/>
</g>
</svg>
