<?xml version="1.0" standalone="no"?>
<!DOCTYPE svg PUBLIC "-//W3C//DTD SVG 20010904//EN"
 "http://www.w3.org/TR/2001/REC-SVG-20010904/DTD/svg10.dtd">
<svg version="1.0" xmlns="http://www.w3.org/2000/svg"
 width="5823.000000pt" height="1600.000000pt" viewBox="0 0 5823.000000 1600.000000"
 preserveAspectRatio="xMidYMid meet">
<metadata>
Created by potrace 1.16, written by Peter Selinger 2001-2019
</metadata>
<g transform="translate(0.000000,1600.000000) scale(0.100000,-0.100000)"
fill="#ffffff" stroke="none">
<path d="M48780 11749 c-910 -35 -1563 -135 -2090 -322 -420 -148 -773 -344
-1002 -557 -371 -344 -565 -822 -545 -1340 14 -354 117 -669 308 -946 179
-258 547 -531 934 -692 315 -132 668 -213 1285 -296 546 -74 842 -100 1814
-161 1182 -75 1322 -87 1567 -135 249 -50 424 -115 571 -213 97 -64 201 -169
246 -248 74 -131 109 -316 83 -451 -103 -529 -1015 -818 -2586 -818 -985 0
-1739 111 -2150 318 -325 163 -518 426 -575 785 l-13 77 -810 0 -809 0 6 -107
c23 -355 87 -623 211 -881 421 -876 1483 -1393 3135 -1527 565 -45 1072 -45
1755 0 1009 68 1729 236 2354 550 471 236 740 469 948 822 317 539 317 1244 1
1805 -173 309 -438 546 -842 754 -385 198 -760 295 -1476 378 -399 47 -602 66
-1445 136 -1841 154 -1834 153 -2104 221 -284 71 -476 166 -616 304 -126 124
-184 261 -170 400 14 140 52 222 149 324 139 145 355 250 671 326 378 91 1042
142 1710 132 687 -11 1179 -74 1618 -208 496 -152 808 -402 886 -711 l19 -73
817 -3 817 -2 -7 62 c-43 406 -179 756 -414 1063 -68 90 -245 268 -346 349
-665 535 -1717 826 -3200 886 -276 11 -400 11 -705 -1z"/>
<path d="M6956 11735 c-249 -47 -472 -168 -643 -348 -193 -203 -299 -446 -328
-748 l-6 -66 128 -6 c498 -25 918 -324 1178 -837 21 -41 476 -1085 1011 -2319
698 -1610 992 -2277 1039 -2360 269 -466 613 -730 1078 -823 93 -19 145 -23
302 -23 173 1 200 3 296 27 219 55 401 158 555 312 208 209 325 463 350 764 7
78 8 82 31 82 45 0 227 42 332 76 261 86 487 227 671 421 246 258 394 602 439
1025 8 65 11 857 11 2413 l0 2315 -740 0 -740 0 0 -3125 0 -3124 -37 -7 c-51
-10 -236 12 -346 41 -401 105 -731 398 -941 840 -24 50 -465 1064 -981 2255
-515 1191 -961 2213 -991 2272 -259 519 -624 823 -1113 929 -129 28 -439 35
-555 14z"/>
<path d="M14930 7980 l0 -3670 3810 0 3810 0 0 695 0 695 -3065 0 -3065 0 0
795 0 795 2735 0 2735 0 0 695 0 695 -2735 0 -2735 0 0 790 0 790 3065 0 3065
0 0 695 0 695 -3810 0 -3810 0 0 -3670z"/>
<path d="M24080 7980 l0 -3670 2643 3 c2424 3 2655 4 2797 20 413 46 747 116
1006 212 745 275 1151 783 1234 1545 17 155 15 444 -5 575 -48 323 -166 607
-358 860 -198 259 -483 479 -751 580 l-59 22 59 43 c84 62 236 212 304 300
184 241 291 504 346 855 24 152 24 497 0 650 -63 405 -205 696 -465 955 -408
407 -965 611 -1911 701 -92 9 -756 13 -2482 16 l-2358 4 0 -3671z m4848 2269
c559 -60 880 -299 943 -699 18 -115 7 -288 -25 -386 -41 -128 -130 -247 -243
-325 -66 -46 -199 -106 -295 -133 -199 -57 -158 -56 -2023 -56 l-1715 0 0 805
0 805 1630 0 c1079 0 1664 -4 1728 -11z m55 -2909 c366 -16 611 -63 804 -155
220 -104 345 -236 409 -431 27 -83 29 -99 29 -249 0 -140 -3 -169 -23 -235
-37 -119 -79 -187 -167 -275 -143 -143 -335 -221 -668 -272 -102 -15 -276 -17
-1954 -20 l-1843 -4 0 819 c0 450 3 822 7 825 10 11 3164 8 3406 -3z"/>
<path d="M33130 7980 l0 -3670 745 0 745 0 0 3670 0 3670 -745 0 -745 0 0
-3670z"/>
<path d="M36153 9533 c4 -2300 0 -2150 57 -2488 163 -958 690 -1757 1490
-2257 649 -405 1462 -606 2375 -585 360 9 643 41 945 109 888 198 1590 630
2078 1280 313 418 523 924 616 1488 51 309 49 220 53 2458 l4 2112 -741 0
-740 0 0 -2004 c0 -1306 -4 -2050 -10 -2133 -65 -786 -428 -1361 -1058 -1673
-365 -181 -756 -262 -1262 -262 -505 -1 -878 74 -1239 248 -648 312 -1013 879
-1081 1679 -6 76 -10 858 -10 2133 l0 2012 -740 0 -741 0 4 -2117z"/>
<path d="M5815 10539 c-211 -45 -435 -140 -615 -259 -130 -87 -316 -273 -403
-406 -159 -241 -256 -533 -286 -864 -7 -76 -11 -886 -11 -2407 l0 -2293 740 0
740 0 0 3125 0 3125 -37 -1 c-21 0 -78 -9 -128 -20z"/>
</g>
</svg>
