<?xml version="1.0" standalone="no"?>
<!DOCTYPE svg PUBLIC "-//W3C//DTD SVG 20010904//EN"
 "http://www.w3.org/TR/2001/REC-SVG-20010904/DTD/svg10.dtd">
<svg version="1.0" xmlns="http://www.w3.org/2000/svg"
 width="8343.000000pt" height="1600.000000pt" viewBox="0 0 8343.000000 1600.000000"
 preserveAspectRatio="xMidYMid meet">
<metadata>
Created by potrace 1.16, written by Peter Selinger 2001-2019
</metadata>
<g transform="translate(0.000000,1600.000000) scale(0.100000,-0.100000)"
fill="#ffffff" stroke="none">
<path d="M6651 15968 c-27 -77 -68 -94 -303 -132 -197 -32 -460 -95 -558 -134
-97 -38 -156 -56 -314 -92 -101 -23 -148 -40 -220 -79 -58 -31 -139 -63 -217
-86 -82 -24 -175 -61 -274 -110 -82 -41 -187 -88 -233 -105 -100 -36 -113 -43
-178 -91 -27 -21 -104 -61 -170 -89 -73 -31 -139 -66 -169 -91 -28 -23 -102
-67 -166 -99 -63 -32 -140 -79 -170 -105 -30 -26 -89 -65 -132 -86 -43 -22
-104 -63 -135 -92 -31 -29 -88 -70 -126 -92 -37 -22 -100 -68 -140 -103 -39
-35 -102 -85 -141 -112 -38 -26 -88 -67 -110 -90 -22 -23 -72 -64 -111 -90
-39 -27 -90 -72 -114 -100 -24 -28 -69 -69 -100 -90 -32 -22 -74 -62 -95 -90
-20 -28 -56 -63 -79 -79 -46 -32 -91 -79 -126 -129 -12 -19 -47 -53 -76 -76
-30 -23 -74 -70 -98 -103 -25 -34 -65 -78 -91 -99 -25 -22 -64 -66 -85 -99
-22 -33 -62 -82 -91 -110 -28 -27 -73 -82 -99 -121 -27 -39 -74 -100 -105
-135 -31 -35 -77 -99 -103 -143 -25 -43 -69 -102 -97 -130 -30 -31 -65 -83
-86 -127 -20 -41 -56 -99 -81 -129 -69 -86 -86 -113 -119 -192 -17 -40 -50
-97 -73 -127 -22 -29 -47 -62 -54 -71 -7 -10 -35 -71 -62 -135 -27 -64 -66
-140 -88 -168 -51 -67 -64 -93 -111 -226 -21 -60 -59 -145 -85 -188 -29 -49
-60 -121 -82 -193 -54 -177 -74 -228 -106 -283 -45 -77 -65 -135 -98 -284 -17
-74 -51 -189 -75 -254 -24 -65 -51 -145 -59 -176 -17 -66 -67 -354 -91 -521
-25 -175 -69 -276 -131 -304 l-24 -11 0 -1207 0 -1207 37 -24 c72 -47 91 -104
138 -419 41 -273 71 -410 124 -553 27 -73 61 -186 75 -252 36 -163 51 -205
107 -310 26 -50 61 -138 78 -196 41 -145 63 -199 110 -278 22 -37 64 -127 91
-201 33 -85 65 -153 89 -185 46 -60 68 -102 111 -213 20 -53 50 -105 82 -145
27 -34 74 -111 103 -172 33 -69 73 -132 105 -169 29 -33 68 -92 87 -133 19
-40 56 -97 82 -126 27 -28 73 -90 103 -137 30 -47 78 -111 107 -143 28 -32 70
-86 92 -120 23 -34 70 -91 104 -127 34 -36 74 -83 89 -105 14 -22 61 -77 103
-123 104 -111 269 -284 316 -330 20 -20 77 -76 125 -123 48 -47 108 -100 134
-118 26 -17 64 -52 85 -78 21 -25 63 -62 93 -81 30 -19 84 -62 121 -96 36 -34
103 -89 150 -123 46 -35 110 -85 142 -112 32 -27 86 -64 120 -82 34 -18 87
-56 117 -85 30 -28 91 -70 135 -92 44 -22 105 -61 135 -87 30 -25 102 -69 160
-98 58 -28 128 -70 156 -94 58 -46 93 -66 208 -113 44 -18 111 -55 150 -82 39
-26 123 -68 187 -93 63 -25 140 -61 170 -80 103 -65 148 -85 259 -115 117 -32
140 -41 230 -96 38 -23 99 -44 195 -68 226 -57 382 -101 500 -139 184 -59 266
-76 421 -87 251 -18 353 -51 388 -124 9 -19 16 -39 16 -45 0 -8 348 -11 1249
-11 l1249 0 6 25 c3 13 20 40 37 59 48 56 114 74 323 92 212 18 246 24 471 93
94 29 267 77 385 108 177 45 231 64 308 104 54 29 143 64 215 85 75 21 161 56
222 88 55 29 159 76 231 105 73 29 162 73 202 100 40 27 122 69 183 93 76 29
129 58 169 90 32 26 109 72 171 102 72 34 136 73 173 105 32 29 94 70 138 92
44 22 98 57 121 78 23 21 76 59 117 84 41 25 108 75 148 112 41 36 111 91 157
121 46 30 94 69 108 88 14 18 61 57 104 85 43 29 92 70 108 92 17 21 62 61
100 88 39 27 85 69 103 94 18 25 58 65 89 89 32 24 77 70 102 102 24 32 68 77
98 100 29 23 73 69 96 102 24 32 65 76 91 97 25 21 63 64 82 95 20 32 62 84
94 117 32 33 78 92 103 130 25 39 76 104 112 145 36 41 80 98 96 127 17 29 55
81 84 116 29 34 69 95 89 135 20 40 51 89 70 110 59 66 93 120 127 202 20 50
51 102 82 138 48 56 66 88 122 226 15 37 52 103 81 147 35 53 66 118 95 200
23 67 60 149 81 183 55 87 75 136 109 261 17 61 44 135 61 165 65 115 78 152
142 402 37 142 78 287 92 324 58 155 83 271 99 458 16 187 31 269 64 334 29
58 49 129 67 232 15 82 17 216 21 975 5 1078 -1 1179 -82 1385 -48 120 -52
143 -70 347 -17 193 -30 257 -95 448 -23 66 -68 224 -100 350 -51 198 -67 245
-115 337 -34 67 -66 147 -84 216 -36 132 -42 145 -102 247 -26 44 -66 134 -89
200 -31 87 -57 141 -95 195 -29 41 -69 118 -90 170 -49 126 -61 148 -107 198
-22 24 -62 92 -92 155 -33 69 -72 135 -104 172 -28 32 -67 92 -86 132 -20 40
-60 99 -89 131 -29 31 -71 91 -94 132 -23 41 -71 108 -107 147 -36 40 -88 106
-115 145 -27 40 -68 91 -91 113 -23 22 -62 70 -85 106 -24 37 -62 82 -85 100
-23 19 -64 64 -90 100 -26 36 -70 84 -98 105 -27 21 -67 64 -90 95 -22 31 -58
69 -79 85 -21 15 -77 66 -124 113 -149 148 -253 240 -317 282 -34 23 -74 56
-88 75 -14 18 -57 54 -95 79 -37 25 -106 79 -151 120 -46 41 -112 91 -148 112
-36 21 -88 59 -117 85 -29 26 -89 66 -132 88 -44 22 -108 64 -142 95 -41 36
-97 72 -168 106 -58 28 -126 67 -151 88 -54 45 -81 60 -207 111 -52 22 -118
57 -147 78 -60 46 -99 67 -174 93 -31 11 -105 45 -166 77 -116 61 -222 103
-366 146 -47 14 -111 42 -143 61 -83 50 -113 61 -277 101 -80 20 -188 54 -240
76 -57 24 -141 50 -210 64 -63 12 -149 32 -190 43 -79 21 -162 33 -345 51
-154 15 -211 46 -231 124 l-6 26 -1323 0 -1323 0 -11 -32z m1734 -967 c44 -12
96 -32 116 -45 20 -13 78 -45 130 -71 60 -30 115 -68 154 -104 33 -32 92 -80
130 -108 70 -52 380 -361 509 -508 38 -43 88 -108 112 -144 23 -36 63 -86 89
-111 25 -25 64 -79 86 -121 21 -41 62 -102 90 -135 28 -33 70 -101 95 -154 60
-128 72 -148 110 -195 38 -47 58 -92 103 -227 18 -53 50 -124 72 -158 52 -80
64 -112 100 -255 17 -66 48 -172 69 -235 73 -215 85 -298 49 -344 -39 -50
-151 -31 -274 46 -36 22 -113 58 -172 79 -59 21 -136 57 -172 78 -90 55 -117
65 -282 106 -91 23 -182 54 -249 85 -58 26 -139 55 -180 64 -101 22 -540 73
-780 91 -328 25 -497 18 -1010 -40 -375 -43 -417 -52 -549 -115 -74 -34 -145
-58 -237 -79 -167 -39 -199 -51 -314 -115 -52 -30 -140 -69 -195 -87 -74 -25
-125 -50 -195 -98 -52 -35 -119 -75 -150 -88 -82 -35 -110 -52 -162 -98 -26
-23 -88 -66 -139 -96 -51 -30 -123 -82 -162 -117 -38 -34 -95 -78 -126 -97
-31 -19 -75 -57 -99 -85 -24 -27 -70 -68 -102 -90 -33 -22 -73 -60 -90 -85
-17 -25 -62 -69 -99 -99 -38 -30 -82 -77 -99 -104 -17 -27 -53 -69 -82 -93
-28 -24 -67 -71 -87 -103 -20 -33 -63 -88 -95 -123 -31 -36 -81 -106 -110
-156 -29 -50 -77 -119 -106 -152 -32 -37 -64 -88 -83 -135 -35 -82 -48 -106
-95 -165 -43 -54 -75 -122 -113 -236 -18 -53 -48 -123 -67 -155 -64 -106 -76
-135 -119 -309 -27 -111 -57 -200 -83 -255 -68 -144 -77 -186 -116 -570 -62
-598 -62 -789 0 -1345 14 -126 30 -250 35 -275 17 -74 13 -170 -10 -234 -26
-74 -42 -98 -88 -133 -62 -47 -269 -259 -303 -310 -18 -26 -58 -73 -90 -104
-31 -31 -72 -84 -90 -118 -18 -33 -55 -86 -81 -116 -58 -67 -87 -115 -129
-215 -18 -41 -50 -99 -72 -128 -50 -67 -68 -107 -113 -257 -19 -66 -56 -170
-81 -232 -77 -192 -104 -346 -124 -723 -10 -193 -18 -240 -46 -271 -32 -35
-59 -23 -160 69 -99 90 -113 110 -159 227 -15 39 -54 110 -88 159 -33 50 -73
126 -89 170 -16 45 -43 106 -60 136 -85 153 -101 187 -139 306 -23 70 -65 176
-95 234 -38 75 -61 137 -80 215 -36 154 -72 272 -99 325 -42 83 -64 182 -125
553 -33 202 -69 409 -79 460 -74 364 -91 1109 -36 1584 9 70 28 196 44 278 16
83 35 186 41 230 26 184 102 607 115 646 8 23 31 76 50 119 19 42 46 126 60
186 44 193 56 227 109 334 30 58 75 172 101 253 31 96 61 168 86 208 53 81 82
141 109 222 12 37 36 89 54 115 18 26 46 67 63 92 17 25 49 88 72 141 25 57
60 118 86 148 25 29 68 98 97 153 29 57 75 128 106 162 30 34 70 92 89 130 19
38 56 89 82 115 26 25 67 75 91 111 24 36 66 90 93 120 28 30 72 84 99 120
110 146 587 629 753 763 55 44 123 101 150 127 28 26 77 64 110 86 33 21 88
65 123 96 35 32 89 71 121 88 32 16 87 54 121 84 35 30 110 80 169 111 58 32
133 79 166 106 32 27 98 65 145 85 47 20 126 65 176 99 60 41 120 72 172 89
44 15 125 54 179 86 72 44 136 72 238 105 77 24 190 70 250 100 89 45 143 64
285 99 108 27 210 59 267 85 50 23 127 48 170 56 154 29 421 75 558 96 77 11
192 31 257 44 247 51 603 75 1003 70 205 -3 252 -6 320 -24z m1835 -351 c20
-5 58 -24 84 -42 27 -18 61 -41 76 -51 16 -10 81 -33 146 -51 158 -45 246 -79
301 -116 64 -44 110 -66 217 -105 116 -41 127 -47 196 -101 31 -24 85 -56 120
-70 97 -39 132 -59 203 -113 36 -28 104 -69 150 -92 46 -22 112 -65 146 -95
34 -29 101 -75 148 -101 48 -27 114 -73 148 -104 33 -31 88 -73 122 -93 33
-20 80 -59 104 -87 24 -29 73 -71 110 -95 37 -23 82 -61 100 -83 18 -23 58
-60 88 -83 77 -58 446 -432 488 -493 18 -28 54 -68 79 -89 25 -21 65 -68 89
-105 23 -36 67 -87 97 -113 31 -26 69 -72 86 -102 17 -30 56 -83 87 -117 31
-34 81 -108 113 -163 31 -56 79 -125 106 -155 28 -31 65 -89 86 -135 21 -45
61 -112 90 -151 61 -82 73 -105 107 -194 13 -36 49 -99 80 -138 45 -60 64 -97
102 -207 26 -74 67 -166 90 -205 55 -90 85 -165 110 -272 28 -119 46 -164 86
-219 46 -62 60 -106 85 -251 13 -80 35 -159 66 -241 60 -158 62 -164 80 -288
8 -58 25 -154 39 -215 32 -147 42 -234 55 -460 6 -104 20 -271 31 -370 13
-105 23 -276 26 -410 4 -201 1 -273 -25 -570 -17 -187 -34 -392 -37 -455 -7
-132 -28 -290 -55 -405 -11 -44 -24 -118 -30 -165 -15 -117 -34 -186 -86 -317
-31 -80 -49 -147 -64 -236 -24 -150 -29 -164 -85 -247 -37 -54 -51 -88 -78
-195 -38 -146 -59 -199 -119 -298 -22 -37 -60 -121 -84 -186 -51 -144 -61
-163 -112 -225 -23 -28 -56 -88 -77 -140 -21 -54 -60 -124 -94 -171 -32 -44
-78 -118 -101 -165 -23 -47 -64 -109 -91 -138 -26 -28 -72 -96 -101 -149 -30
-56 -79 -125 -114 -163 -33 -36 -78 -91 -98 -124 -20 -32 -57 -77 -82 -99 -24
-22 -58 -63 -75 -91 -17 -28 -59 -80 -94 -116 -35 -36 -82 -89 -104 -119 -22
-30 -60 -71 -85 -92 -26 -20 -66 -61 -90 -91 -24 -30 -61 -67 -82 -82 -22 -16
-76 -65 -120 -110 -127 -126 -255 -240 -299 -266 -22 -12 -67 -50 -100 -84
-33 -34 -86 -76 -117 -94 -32 -18 -82 -54 -111 -80 -61 -55 -116 -94 -202
-142 -33 -18 -82 -53 -110 -78 -28 -25 -90 -64 -140 -87 -49 -24 -122 -67
-160 -96 -39 -30 -93 -64 -120 -76 -28 -12 -76 -33 -108 -47 -32 -14 -77 -41
-100 -59 -55 -45 -101 -68 -227 -112 -57 -19 -127 -48 -155 -64 -27 -16 -75
-42 -105 -59 -65 -38 -112 -53 -243 -82 -81 -18 -111 -30 -164 -67 -82 -56
-112 -66 -248 -88 -75 -11 -158 -34 -260 -71 -82 -30 -177 -59 -210 -64 -33
-6 -98 -17 -145 -25 -47 -7 -139 -25 -205 -39 -73 -16 -185 -30 -285 -36 -91
-6 -268 -20 -395 -31 -415 -36 -449 -39 -565 -39 -113 0 -431 21 -600 40 -47
5 -170 14 -275 20 -227 12 -294 21 -485 59 -80 16 -199 39 -264 51 -79 14
-159 37 -235 67 -88 34 -146 50 -240 64 -126 19 -131 21 -273 103 -26 15 -98
41 -160 57 -77 20 -162 53 -268 103 -85 41 -205 93 -266 116 -79 30 -128 55
-165 86 -30 24 -97 62 -149 85 -110 48 -147 69 -215 122 -27 21 -79 54 -115
72 -36 18 -83 52 -105 75 -22 23 -67 62 -100 86 -60 45 -295 287 -295 305 0 5
-33 44 -73 87 -41 42 -89 104 -107 136 -19 33 -56 85 -83 115 -33 35 -67 92
-100 160 -27 58 -66 129 -87 156 -53 72 -73 114 -115 250 -21 66 -55 155 -76
197 -49 98 -75 195 -89 327 -20 203 -8 577 26 760 15 81 23 107 78 237 14 34
41 120 61 193 38 144 56 186 120 276 24 33 61 99 83 146 25 54 60 109 93 146
30 33 70 86 89 117 34 56 81 96 114 96 33 0 92 -39 149 -99 45 -47 71 -88 114
-178 38 -81 70 -134 102 -168 26 -27 64 -83 85 -122 21 -40 64 -103 96 -140
32 -38 84 -105 114 -149 30 -45 74 -98 97 -118 23 -19 59 -58 80 -85 50 -68
260 -276 330 -328 31 -23 70 -58 85 -78 16 -19 69 -63 118 -97 49 -33 110 -80
136 -103 61 -54 121 -95 189 -129 29 -15 75 -48 101 -72 31 -29 80 -58 141
-85 52 -22 131 -66 177 -96 61 -41 119 -69 218 -104 74 -26 165 -65 202 -88
93 -56 123 -67 290 -107 81 -19 188 -52 237 -73 152 -65 181 -71 488 -106 528
-60 955 -57 1507 11 223 27 299 43 370 79 66 33 148 60 275 89 137 30 203 55
289 107 37 22 123 60 192 84 141 51 167 63 234 111 26 19 101 59 165 90 73 34
134 71 163 98 26 24 80 60 121 82 41 21 100 61 130 90 31 28 99 81 151 119 52
37 113 87 136 110 23 23 76 68 118 100 42 32 76 61 76 66 0 5 46 56 103 113
172 176 252 267 313 356 32 47 84 113 115 147 32 34 72 92 89 128 17 35 55 93
85 127 39 45 67 92 102 172 26 60 66 134 89 165 55 75 60 85 110 234 24 71 57
150 73 176 50 77 79 151 106 266 40 175 55 223 95 316 22 48 46 120 54 161 19
95 53 406 67 623 13 193 6 755 -11 905 -6 52 -18 160 -26 240 -21 196 -37 267
-86 379 -22 53 -52 143 -65 201 -45 189 -76 281 -120 355 -24 41 -64 134 -89
207 -35 102 -59 153 -103 218 -31 47 -75 127 -96 179 -28 66 -56 111 -93 153
-29 32 -68 90 -87 128 -19 38 -61 100 -93 137 -32 38 -86 109 -119 158 -34 50
-82 107 -107 128 -25 21 -63 64 -85 95 -21 31 -66 82 -99 113 -91 86 -92 91
-102 529 -12 500 -22 585 -96 815 -20 60 -48 173 -64 251 -35 174 -60 249
-111 334 -21 36 -57 116 -79 178 -47 133 -59 158 -115 237 -24 33 -64 103 -90
155 -31 62 -67 114 -105 155 -32 33 -67 80 -80 104 -12 24 -56 81 -98 128
-120 132 -344 358 -375 378 -42 27 -61 70 -47 106 7 15 24 32 39 38 35 13 177
13 221 1z m-1965 -2300 c231 -13 286 -21 540 -81 116 -27 301 -69 413 -94 185
-40 210 -48 279 -89 45 -27 133 -64 213 -91 100 -33 154 -58 200 -90 34 -24
117 -68 184 -97 114 -50 126 -58 220 -148 54 -52 105 -109 112 -127 29 -68 9
-224 -56 -427 -22 -69 -51 -171 -65 -227 -36 -141 -54 -184 -111 -266 -28 -39
-68 -112 -89 -163 -28 -68 -53 -108 -95 -154 -30 -34 -66 -79 -79 -101 -21
-35 -92 -115 -227 -257 -75 -77 -218 -204 -264 -233 -25 -15 -72 -53 -106 -84
-33 -31 -96 -76 -140 -98 -44 -23 -109 -65 -145 -94 -69 -55 -101 -73 -197
-112 -35 -14 -91 -47 -125 -72 -75 -57 -87 -63 -214 -110 -57 -20 -129 -53
-160 -72 -97 -59 -144 -79 -253 -113 -58 -18 -150 -56 -205 -85 -72 -39 -149
-68 -275 -105 -96 -29 -224 -75 -285 -102 -70 -32 -165 -65 -265 -90 -120 -31
-176 -51 -246 -89 -64 -34 -129 -59 -222 -84 -134 -35 -203 -60 -370 -134 -51
-23 -148 -57 -215 -76 -148 -41 -185 -56 -251 -101 -33 -22 -102 -50 -196 -80
-101 -32 -169 -60 -225 -93 -70 -42 -118 -63 -321 -136 -22 -9 -76 -38 -120
-65 -43 -28 -127 -69 -185 -91 -66 -26 -128 -58 -165 -86 -32 -25 -114 -71
-182 -104 -67 -32 -144 -76 -170 -97 -26 -21 -69 -52 -97 -67 -27 -16 -77 -47
-110 -71 -80 -56 -104 -61 -159 -35 -82 40 -123 135 -153 351 -15 111 -18 202
-18 510 0 427 3 455 75 770 27 118 67 301 89 407 38 188 57 243 116 338 14 22
39 85 56 140 47 156 59 183 109 251 26 35 62 101 80 146 48 121 68 158 109
203 21 22 59 81 85 131 26 50 75 122 108 160 33 38 84 105 113 149 29 44 69
93 89 108 20 16 59 60 86 100 30 41 72 86 103 108 29 21 74 64 99 97 26 33 73
78 105 100 32 22 75 61 96 86 21 26 68 65 105 88 36 23 98 71 136 105 40 35
109 83 157 108 47 24 111 65 141 90 34 28 103 67 178 100 67 30 149 75 183
100 48 36 90 55 201 91 85 27 170 62 214 89 82 48 96 52 447 130 138 31 297
67 355 80 242 57 579 76 965 55z m3022 -1546 c63 -21 94 -52 155 -152 27 -46
71 -107 97 -137 26 -29 66 -91 88 -138 23 -46 60 -105 82 -131 49 -56 65 -88
115 -216 23 -60 52 -114 78 -145 49 -61 70 -107 108 -244 16 -58 50 -146 74
-196 63 -128 80 -193 131 -498 25 -150 58 -322 74 -382 40 -152 56 -362 48
-653 -7 -252 -15 -326 -57 -487 -15 -60 -42 -200 -59 -310 -47 -299 -72 -397
-135 -532 -30 -65 -64 -154 -76 -198 -33 -117 -57 -174 -99 -230 -44 -58 -72
-112 -91 -170 -21 -65 -65 -147 -108 -198 -22 -27 -58 -88 -82 -135 -23 -48
-61 -107 -85 -132 -24 -25 -64 -79 -90 -120 -26 -41 -71 -99 -100 -130 -28
-30 -83 -93 -121 -140 -117 -143 -478 -479 -614 -570 -36 -24 -86 -62 -111
-86 -26 -23 -87 -63 -136 -87 -49 -25 -108 -61 -132 -82 -61 -50 -112 -79
-209 -115 -46 -18 -104 -47 -130 -66 -72 -51 -157 -90 -270 -124 -57 -17 -144
-51 -193 -76 -114 -57 -221 -85 -489 -130 -118 -19 -273 -50 -345 -68 -214
-56 -514 -76 -825 -57 -207 13 -267 22 -389 57 -46 13 -181 40 -300 60 -305
50 -408 77 -531 136 -58 28 -154 65 -215 83 -141 42 -174 56 -217 94 -35 30
-95 60 -230 116 -37 15 -93 50 -125 77 -32 27 -94 66 -138 87 -44 21 -107 61
-140 88 -33 27 -106 82 -163 122 -56 39 -112 86 -125 102 -12 17 -54 55 -93
85 -39 30 -96 83 -128 119 -31 35 -76 78 -101 96 -24 17 -62 57 -84 88 -21 31
-60 76 -86 101 -26 25 -79 90 -118 145 -39 55 -93 124 -119 154 -27 30 -68 90
-90 135 -22 45 -58 100 -79 123 -41 45 -63 85 -116 207 -18 43 -53 105 -77
137 -77 102 -73 138 31 268 56 69 81 92 142 125 40 23 99 64 131 92 32 29 105
75 167 107 61 31 130 73 154 93 46 38 98 67 193 104 32 13 92 45 132 71 94 62
133 81 219 109 81 27 148 59 219 106 28 18 105 52 171 74 66 23 170 65 230 95
138 68 183 85 323 124 66 18 157 53 220 85 80 41 140 62 240 86 98 24 158 46
227 81 53 27 149 65 217 84 210 62 280 86 371 132 48 24 129 55 180 69 178 50
223 66 297 109 45 26 133 62 220 90 87 28 187 69 250 103 58 31 160 74 226 97
79 27 144 57 185 85 67 46 120 71 236 114 40 15 108 53 153 86 45 32 116 73
158 91 79 32 114 53 169 100 17 15 77 53 133 84 56 31 129 82 163 112 34 30
92 72 129 94 37 22 83 59 103 83 19 24 54 56 78 72 55 38 286 268 320 320 15
22 52 62 82 87 36 31 66 71 90 116 20 37 57 92 83 122 63 72 74 90 121 203 22
52 59 123 82 157 51 75 73 137 104 290 13 65 31 133 39 152 27 66 87 83 183
51z"/>
<path d="M56425 10853 c-271 -21 -397 -45 -549 -103 -55 -22 -159 -56 -231
-76 -140 -39 -178 -56 -264 -114 -31 -20 -92 -52 -136 -70 -117 -47 -152 -67
-198 -109 -23 -21 -76 -57 -117 -81 -41 -23 -97 -63 -125 -89 -27 -26 -84 -73
-125 -105 -99 -78 -327 -310 -403 -411 -33 -44 -80 -101 -103 -126 -23 -26
-61 -82 -82 -125 -22 -44 -61 -103 -87 -133 -55 -64 -63 -79 -114 -210 -21
-56 -58 -130 -80 -165 -52 -79 -74 -142 -116 -327 -18 -80 -49 -186 -68 -235
-71 -183 -87 -325 -87 -754 0 -428 19 -589 89 -758 16 -40 44 -134 61 -210 41
-185 61 -242 120 -342 28 -47 62 -116 77 -155 40 -107 78 -178 123 -230 22
-26 56 -78 75 -115 19 -38 58 -96 87 -131 29 -34 76 -92 104 -129 78 -101 303
-329 395 -401 46 -35 110 -88 143 -118 34 -29 90 -68 126 -86 36 -18 96 -58
134 -89 50 -40 99 -67 175 -97 58 -23 136 -62 172 -86 89 -58 110 -66 311
-118 95 -24 225 -62 288 -84 149 -51 271 -69 541 -82 248 -12 607 0 773 26 54
8 151 33 215 55 64 21 170 53 236 69 239 60 266 70 388 144 32 19 103 54 159
78 62 26 125 61 162 91 33 27 95 68 138 90 43 23 110 71 150 106 40 36 103 84
140 108 36 24 85 67 108 96 23 29 70 76 105 105 36 29 72 67 80 84 9 17 49 65
89 107 40 42 98 118 129 168 31 50 75 113 97 140 45 54 74 105 114 202 14 35
41 85 60 112 54 74 81 135 115 255 18 61 54 160 81 220 49 111 67 184 95 377
30 210 38 368 32 693 -4 278 -9 343 -31 495 -35 231 -47 278 -96 384 -23 49
-57 142 -75 207 -44 151 -53 172 -114 262 -28 41 -66 115 -86 163 -24 59 -55
113 -93 161 -32 39 -80 109 -107 155 -27 46 -75 109 -107 141 -31 31 -75 84
-97 116 -22 32 -62 75 -89 95 -27 20 -68 61 -91 91 -24 32 -70 73 -109 99 -37
25 -87 66 -112 91 -25 26 -93 76 -152 111 -59 36 -131 85 -159 109 -32 27 -89
60 -151 86 -54 23 -127 60 -161 82 -71 46 -147 81 -197 92 -19 4 -135 40 -257
81 -239 79 -323 97 -548 114 -126 9 -669 12 -770 3z m557 -383 c198 -13 412
-45 495 -74 196 -70 307 -107 385 -130 59 -18 110 -42 155 -73 37 -26 108 -64
157 -85 101 -43 118 -53 195 -116 30 -24 92 -68 138 -98 46 -30 106 -78 134
-108 28 -30 75 -71 104 -91 28 -20 73 -65 99 -101 26 -35 68 -81 93 -101 25
-21 74 -81 108 -134 35 -53 78 -114 97 -135 54 -61 77 -98 108 -175 16 -39 50
-100 76 -135 58 -82 78 -127 119 -274 19 -64 52 -158 74 -207 52 -116 67 -175
87 -358 34 -314 30 -668 -12 -995 -17 -137 -23 -157 -80 -280 -23 -52 -57
-146 -74 -208 -33 -125 -63 -191 -121 -267 -21 -28 -54 -89 -74 -135 -22 -54
-54 -107 -87 -145 -28 -33 -81 -105 -118 -160 -37 -56 -84 -113 -104 -129 -21
-15 -60 -57 -88 -93 -28 -35 -82 -89 -119 -119 -38 -30 -93 -78 -123 -107 -29
-29 -97 -79 -150 -112 -54 -32 -118 -77 -145 -100 -26 -22 -69 -50 -97 -62
-142 -62 -184 -83 -241 -120 -70 -46 -75 -47 -618 -203 -230 -66 -736 -78
-1028 -24 -45 8 -154 37 -242 64 -88 27 -215 64 -283 81 -82 21 -140 43 -175
65 -77 49 -152 87 -241 124 -47 20 -102 53 -140 85 -33 28 -85 64 -115 80 -67
37 -188 142 -356 310 -180 181 -258 271 -311 362 -26 43 -66 99 -89 126 -26
28 -56 79 -75 125 -47 113 -74 169 -120 242 -45 71 -64 129 -110 332 -17 76
-44 177 -61 225 -38 114 -55 207 -69 383 -22 275 4 579 66 772 19 59 48 167
64 240 39 178 73 283 110 338 42 61 72 119 114 224 25 62 52 107 91 153 31 37
69 91 85 122 15 31 52 83 81 116 30 34 85 98 124 144 92 110 313 311 423 386
49 33 110 79 136 102 29 26 82 56 138 79 50 21 130 63 179 94 73 47 110 63
221 94 73 21 182 58 242 83 209 85 604 127 968 103z"/>
<path d="M63955 10854 c-197 -13 -323 -40 -455 -100 -52 -24 -135 -57 -185
-75 -118 -41 -150 -58 -221 -117 -32 -27 -91 -68 -131 -91 -47 -27 -83 -57
-104 -85 -17 -25 -60 -69 -94 -100 -41 -36 -76 -79 -100 -123 -20 -37 -56 -90
-80 -118 -55 -65 -90 -135 -116 -232 -11 -43 -41 -140 -65 -216 -53 -165 -68
-286 -54 -437 11 -118 12 -123 55 -265 18 -60 43 -148 55 -195 30 -116 69
-195 130 -264 28 -32 65 -83 82 -113 17 -30 54 -73 82 -96 28 -23 80 -72 116
-109 44 -45 93 -82 150 -114 47 -25 110 -65 140 -88 81 -61 98 -70 195 -106
106 -38 168 -69 227 -110 26 -18 107 -50 203 -81 88 -28 198 -70 245 -94 95
-47 167 -72 317 -110 120 -30 138 -37 220 -88 34 -21 113 -55 175 -76 127 -43
186 -70 240 -113 20 -16 89 -54 153 -84 87 -41 131 -69 179 -113 35 -33 79
-67 97 -77 51 -26 80 -51 115 -99 17 -25 59 -75 94 -112 57 -62 70 -84 132
-233 38 -91 76 -185 85 -210 20 -58 29 -295 15 -372 -6 -31 -48 -141 -94 -245
-75 -171 -88 -193 -139 -243 -31 -30 -70 -75 -86 -100 -38 -55 -64 -78 -127
-114 -26 -16 -72 -50 -102 -77 -62 -56 -94 -73 -229 -124 -55 -20 -125 -50
-155 -65 -138 -69 -321 -102 -580 -102 -277 0 -437 26 -625 101 -66 26 -179
67 -251 89 -108 35 -143 51 -203 94 -39 29 -97 64 -129 77 -72 31 -139 75
-222 147 -36 30 -94 73 -130 95 -36 22 -85 54 -108 72 -33 24 -54 32 -87 32
-52 0 -70 -15 -156 -128 -82 -109 -82 -112 32 -253 67 -83 77 -92 151 -133 32
-18 97 -63 145 -101 62 -50 116 -82 185 -111 54 -23 117 -55 141 -72 67 -49
122 -72 278 -115 80 -23 191 -59 247 -81 55 -22 146 -50 201 -61 135 -27 427
-44 640 -36 277 11 393 31 542 97 48 21 140 54 205 75 139 43 189 66 265 126
30 23 92 63 137 87 53 29 95 59 118 88 20 24 63 62 96 84 33 23 74 62 91 87
18 26 58 74 90 108 46 49 76 99 156 257 66 130 104 219 115 265 51 225 40 609
-23 812 -11 36 -39 96 -61 135 -23 38 -55 102 -72 143 -31 75 -43 91 -155 224
-84 98 -240 242 -309 283 -30 18 -83 57 -118 86 -41 34 -94 65 -155 90 -51 22
-123 59 -160 83 -90 59 -129 78 -248 115 -56 18 -128 49 -160 68 -102 61 -131
73 -281 113 -182 48 -212 59 -304 109 -45 24 -119 52 -193 72 -146 38 -185 53
-252 95 -76 48 -123 71 -219 106 -54 19 -110 49 -148 77 -34 26 -102 75 -151
108 -109 75 -125 91 -259 263 -123 157 -133 181 -171 403 -29 172 -31 249 -9
396 33 232 72 346 142 423 22 24 60 75 85 115 34 54 62 82 108 114 35 23 84
64 110 91 33 34 73 60 135 89 49 22 141 65 204 95 127 60 189 75 390 100 184
22 524 15 695 -15 146 -25 211 -44 290 -83 33 -17 120 -50 194 -75 149 -49
179 -63 234 -105 21 -17 72 -48 115 -70 76 -40 78 -40 167 -36 116 5 161 26
193 88 16 32 22 62 22 110 0 48 -6 78 -22 110 -21 41 -32 50 -134 100 -61 30
-126 67 -145 81 -55 42 -106 64 -236 103 -68 20 -167 54 -221 75 -217 86 -327
101 -777 105 -192 2 -377 2 -410 0z"/>
<path d="M24262 10834 c-18 -9 -41 -31 -50 -48 -16 -29 -17 -233 -20 -3068 -4
-3308 -7 -3101 50 -3173 47 -60 155 -82 233 -46 49 22 68 43 95 104 l21 47 -3
2492 c-2 1371 -2 2534 -2 2583 1 100 18 148 59 167 39 18 72 1 126 -64 29 -34
67 -75 86 -90 44 -35 64 -61 98 -127 15 -30 51 -80 80 -110 29 -31 73 -88 97
-126 25 -39 72 -102 106 -140 34 -39 78 -99 99 -135 21 -36 65 -94 99 -130 33
-36 73 -87 88 -115 16 -27 54 -77 86 -110 31 -33 74 -88 94 -122 20 -34 68
-99 107 -145 39 -46 86 -110 106 -143 20 -33 62 -87 93 -120 32 -33 73 -87 91
-120 19 -33 57 -82 86 -110 28 -27 68 -78 88 -113 20 -34 63 -93 96 -130 33
-37 81 -101 106 -142 26 -41 72 -102 103 -135 31 -33 73 -89 94 -125 21 -36
61 -90 90 -120 29 -30 70 -83 91 -118 20 -35 61 -89 90 -120 29 -31 76 -93
105 -137 30 -44 77 -106 106 -138 29 -31 69 -85 88 -120 19 -34 60 -86 91
-115 30 -29 69 -78 87 -108 17 -31 55 -82 83 -113 28 -31 80 -98 115 -150 35
-52 89 -123 121 -157 32 -34 67 -81 79 -104 12 -24 50 -72 84 -109 34 -36 76
-91 93 -121 18 -30 51 -73 74 -95 23 -22 70 -84 105 -137 35 -54 88 -125 119
-158 30 -33 75 -90 99 -127 24 -38 65 -88 91 -113 25 -25 64 -74 85 -110 21
-36 64 -90 95 -120 31 -30 70 -80 88 -110 17 -30 69 -93 116 -140 94 -94 140
-117 212 -105 80 14 131 69 149 164 6 33 10 1122 10 3042 l1 2990 -28 50 c-64
118 -138 171 -211 149 -69 -19 -141 -81 -177 -151 -15 -28 -16 -266 -15 -2533
0 -1787 -2 -2517 -10 -2553 -15 -68 -49 -103 -101 -103 -50 0 -92 37 -144 127
-22 37 -63 92 -92 121 -29 29 -65 76 -79 105 -15 28 -55 81 -89 117 -34 36
-78 92 -98 125 -20 33 -64 91 -98 129 -34 39 -82 102 -106 140 -25 39 -69 96
-98 126 -29 30 -72 87 -95 125 -23 39 -61 87 -86 108 -24 21 -60 68 -81 104
-20 36 -62 93 -93 127 -31 33 -81 97 -110 141 -29 44 -79 108 -110 141 -32 34
-72 88 -91 120 -18 33 -61 89 -95 125 -34 37 -72 86 -84 110 -13 24 -48 71
-80 104 -31 33 -77 92 -102 130 -24 39 -68 97 -98 130 -29 33 -81 103 -115
155 -35 52 -78 107 -96 121 -19 14 -52 57 -74 95 -22 37 -65 93 -96 124 -31
30 -70 80 -88 111 -17 31 -58 87 -91 125 -33 38 -85 107 -116 154 -32 47 -83
112 -114 145 -32 33 -67 80 -80 105 -13 25 -49 72 -80 105 -32 33 -74 87 -93
119 -20 33 -62 89 -95 125 -32 36 -82 102 -112 145 -29 44 -76 105 -105 136
-29 31 -71 89 -94 128 -23 39 -60 86 -82 104 -22 18 -62 69 -89 113 -27 44
-67 98 -90 120 -23 22 -66 76 -94 120 -29 44 -81 112 -115 150 -34 39 -78 97
-98 130 -19 33 -63 90 -96 126 -34 36 -74 84 -89 107 -43 65 -68 76 -177 80
-75 2 -103 -1 -129 -14z"/>
<path d="M32820 10799 c-120 -21 -193 -77 -220 -170 -7 -22 -10 -1074 -10
-3006 0 -2667 1 -2977 15 -3010 31 -73 77 -103 201 -128 71 -14 258 -15 1775
-13 l1696 3 49 30 c57 35 114 114 114 157 0 66 -63 142 -147 180 -41 18 -98
18 -1550 18 -1484 -1 -1510 -1 -1555 19 -54 23 -123 82 -144 123 -13 25 -15
183 -15 1182 0 706 4 1162 10 1177 13 33 77 92 131 120 l45 24 1294 2 c1450 2
1371 -2 1442 73 94 99 66 245 -58 307 l-58 28 -1307 2 -1306 2 -49 25 c-52 26
-118 91 -133 131 -5 14 -10 468 -10 1078 -2 912 0 1058 13 1089 23 54 86 118
142 144 l50 24 1518 0 c1635 0 1547 -3 1614 50 95 75 96 168 1 275 -67 77 104
70 -1793 71 -986 1 -1723 -2 -1755 -7z"/>
<path d="M47066 10799 c-101 -13 -147 -44 -186 -122 l-30 -62 0 -2988 -1
-2988 24 -47 c36 -73 108 -112 206 -112 109 0 192 106 194 249 1 31 0 503 -1
1049 -3 940 -2 995 15 1024 23 39 74 66 149 78 85 14 1708 13 1774 -1 68 -15
102 -46 143 -132 19 -40 55 -98 80 -129 25 -32 63 -102 87 -160 45 -107 63
-138 116 -201 17 -21 48 -79 69 -130 44 -106 66 -147 112 -201 35 -42 53 -76
104 -200 17 -43 54 -107 80 -142 27 -35 57 -82 68 -106 11 -24 33 -72 49 -108
16 -36 53 -99 83 -140 30 -42 69 -113 87 -160 18 -47 49 -105 67 -130 62 -80
81 -113 124 -218 50 -118 70 -139 196 -203 162 -82 293 -61 346 56 37 80 18
149 -68 247 -32 36 -62 85 -83 135 -47 113 -63 143 -109 198 -23 28 -63 100
-91 165 -33 75 -69 138 -105 182 -29 37 -63 93 -75 125 -33 89 -67 151 -120
224 -27 36 -66 105 -86 154 -21 48 -59 116 -84 150 -53 68 -73 104 -119 216
-18 43 -51 99 -78 130 -49 57 -102 160 -152 297 -60 162 -43 192 153 263 52
19 113 50 153 80 38 27 111 72 163 99 60 30 112 66 140 95 25 26 75 67 111 91
41 27 79 63 102 97 20 29 61 74 91 100 36 31 67 71 90 115 20 37 56 92 82 122
54 65 93 139 124 235 12 39 42 115 65 170 24 55 50 127 58 160 56 218 59 582
8 832 -10 48 -39 133 -63 188 -25 55 -53 127 -63 160 -27 93 -68 174 -130 254
-31 41 -69 100 -85 131 -18 36 -49 74 -85 104 -31 27 -74 73 -96 102 -21 29
-65 71 -97 93 -31 21 -77 60 -102 86 -31 32 -79 64 -155 102 -60 30 -131 70
-157 88 -79 57 -116 71 -353 133 -299 79 -370 91 -610 102 -253 12 -2036 11
-2129 -1z m2206 -439 c125 -11 472 -80 549 -109 25 -10 75 -38 110 -63 35 -25
106 -67 157 -93 68 -35 109 -64 150 -107 31 -33 83 -80 116 -105 41 -32 76
-74 120 -142 35 -53 86 -126 114 -164 37 -48 58 -88 73 -140 11 -39 44 -146
72 -237 l52 -165 0 -180 0 -180 -53 -180 c-30 -99 -63 -211 -75 -248 -13 -44
-39 -94 -71 -139 -28 -38 -74 -109 -102 -156 -36 -61 -68 -101 -107 -132 -31
-25 -74 -69 -97 -98 -29 -35 -68 -67 -119 -97 -42 -24 -101 -65 -131 -90 -74
-61 -135 -90 -276 -129 -66 -18 -162 -49 -215 -69 -57 -22 -129 -40 -180 -46
-51 -6 -439 -11 -984 -11 -992 -1 -971 -3 -1034 60 -65 66 -62 -15 -62 1499 0
1270 1 1373 17 1406 22 46 64 78 137 103 56 18 94 19 890 21 505 1 878 -2 949
-9z"/>
<path d="M72787 10799 c-122 -16 -183 -67 -207 -172 -18 -85 14 -157 87 -193
36 -18 80 -19 798 -24 l760 -5 50 -23 c28 -13 65 -37 84 -55 68 -64 62 181 61
-2871 0 -2114 2 -2780 11 -2806 17 -49 64 -115 100 -141 41 -29 104 -35 171
-15 67 19 102 46 129 98 20 39 20 48 22 2846 2 3103 -4 2845 68 2925 l37 42
773 5 c769 5 774 5 828 27 126 52 166 104 141 185 -15 51 -83 118 -158 155
l-57 28 -1815 1 c-998 1 -1846 -2 -1883 -7z"/>
<path d="M78450 10801 c-81 -17 -113 -61 -113 -152 1 -66 17 -100 73 -154 23
-22 59 -69 80 -105 21 -36 59 -85 85 -110 26 -25 65 -76 87 -114 22 -38 64
-95 93 -126 29 -31 77 -97 106 -145 30 -49 80 -117 111 -152 32 -35 69 -86 84
-114 14 -28 54 -82 89 -119 35 -37 75 -91 90 -120 14 -28 43 -71 64 -93 64
-71 107 -129 151 -202 23 -38 63 -92 90 -120 26 -27 66 -81 88 -120 22 -38 61
-90 87 -115 25 -25 66 -79 90 -120 24 -41 71 -106 104 -144 33 -38 79 -101
102 -140 23 -39 68 -98 99 -131 32 -33 70 -85 84 -114 15 -29 53 -81 85 -114
31 -34 72 -88 90 -121 19 -32 63 -93 98 -135 78 -93 111 -158 124 -242 5 -38
9 -632 8 -1452 l-1 -1387 25 -43 c55 -92 205 -145 280 -98 38 23 102 111 112
152 4 15 7 654 8 1421 l2 1394 31 59 c95 184 121 225 184 290 37 39 79 93 93
122 15 28 51 78 80 110 30 32 80 98 111 147 32 48 83 116 115 150 32 34 72 89
90 123 18 33 55 82 82 108 27 26 65 75 85 109 20 33 57 84 84 111 27 28 76 93
111 145 34 52 86 121 115 153 29 31 70 85 90 120 20 34 62 89 94 122 31 33 69
84 83 112 15 28 51 78 80 110 30 32 81 99 114 149 34 49 83 115 111 145 28 30
67 84 88 119 21 36 61 89 90 117 29 29 69 81 88 115 19 35 54 81 76 103 23 22
64 72 91 112 76 111 144 188 183 207 34 16 36 20 36 64 l0 48 -111 33 c-96 29
-123 33 -188 29 -101 -6 -182 -47 -255 -131 -28 -32 -81 -93 -118 -134 -36
-42 -84 -107 -105 -146 -21 -38 -56 -84 -78 -103 -22 -18 -61 -68 -87 -111
-26 -43 -69 -103 -96 -133 -27 -31 -75 -96 -107 -145 -31 -50 -79 -112 -105
-140 -26 -27 -67 -81 -90 -120 -23 -38 -66 -95 -95 -125 -28 -30 -67 -82 -86
-115 -18 -33 -56 -85 -84 -115 -28 -30 -73 -90 -100 -134 -28 -43 -78 -110
-111 -148 -34 -38 -77 -97 -94 -130 -18 -34 -54 -82 -80 -107 -27 -25 -69 -80
-94 -121 -25 -42 -72 -106 -104 -143 -33 -37 -82 -104 -110 -149 -28 -46 -67
-99 -88 -118 -20 -19 -52 -60 -72 -90 -57 -91 -80 -110 -127 -110 -46 0 -64
12 -162 106 -35 34 -81 93 -108 139 -26 44 -68 103 -95 130 -26 28 -66 83 -89
122 -23 40 -71 107 -107 149 -35 42 -81 104 -100 138 -20 33 -60 86 -88 116
-29 30 -68 84 -87 119 -18 36 -62 95 -96 132 -34 37 -70 83 -79 101 -28 55
-94 147 -143 202 -26 28 -63 81 -83 116 -20 36 -58 85 -83 110 -26 25 -65 78
-87 118 -23 41 -65 100 -94 131 -29 31 -76 95 -105 142 -28 46 -76 110 -106
142 -29 33 -68 86 -85 120 -17 34 -56 88 -88 122 -31 33 -73 85 -92 116 -88
138 -279 230 -418 200z"/>
<path d="M39309 10778 c-22 -15 -46 -47 -69 -93 l-35 -70 -3 -1950 c-3 -1976
-1 -2107 34 -2399 21 -171 44 -260 104 -386 27 -58 61 -143 76 -190 34 -107
54 -148 113 -224 25 -34 68 -101 95 -149 31 -55 69 -106 101 -136 29 -25 74
-75 100 -110 27 -35 69 -78 94 -95 25 -17 79 -63 121 -101 47 -45 108 -89 165
-119 50 -27 113 -65 140 -86 72 -53 94 -63 260 -114 83 -26 195 -64 251 -86
55 -22 141 -46 190 -55 221 -39 786 -39 1007 0 48 8 148 38 222 65 74 27 183
64 242 81 123 36 185 65 258 120 28 21 86 57 130 79 47 25 105 66 140 99 33
32 85 74 116 94 30 20 69 56 87 81 17 24 59 67 92 96 38 33 72 74 92 113 18
34 56 86 84 117 58 62 67 79 118 204 20 49 54 117 77 152 54 84 73 135 108
305 17 79 46 216 65 304 19 88 40 205 45 260 7 63 11 816 11 2058 l2 1957 -25
43 c-14 24 -48 64 -75 89 -95 89 -173 87 -273 -9 -99 -94 -89 128 -92 -2138
-3 -1980 -3 -2002 -24 -2165 -37 -281 -60 -368 -128 -480 -19 -30 -50 -98 -70
-150 -43 -113 -64 -149 -125 -215 -25 -27 -67 -82 -92 -122 -29 -45 -66 -86
-100 -111 -29 -21 -75 -64 -101 -95 -34 -40 -70 -68 -126 -98 -44 -23 -105
-62 -138 -86 -86 -66 -106 -74 -375 -156 -298 -92 -389 -107 -639 -107 -290 0
-342 9 -694 119 -223 70 -237 77 -315 136 -30 23 -84 57 -120 76 -51 26 -101
69 -236 204 -140 140 -177 183 -207 241 -20 40 -55 94 -78 120 -54 65 -70 99
-112 229 -19 61 -51 150 -71 199 -41 99 -60 172 -84 326 -15 94 -17 314 -19
2129 -2 2256 3 2082 -72 2161 -59 62 -177 81 -242 38z"/>
<path d="M69624 10786 c-46 -20 -90 -80 -113 -155 l-21 -66 2 -2960 3 -2960
30 -54 c41 -75 89 -104 174 -109 82 -5 128 12 166 61 59 78 55 -131 55 3072 0
1937 -3 2961 -10 2996 -13 69 -47 136 -83 163 -35 26 -156 34 -203 12z"/>
</g>
</svg>
