<?xml version="1.0" standalone="no"?>
<!DOCTYPE svg PUBLIC "-//W3C//DTD SVG 20010904//EN"
 "http://www.w3.org/TR/2001/REC-SVG-20010904/DTD/svg10.dtd">
<svg version="1.0" xmlns="http://www.w3.org/2000/svg"
 width="6545.000000pt" height="1600.000000pt" viewBox="0 0 6545.000000 1600.000000"
 preserveAspectRatio="xMidYMid meet">
<metadata>
Created by potrace 1.16, written by Peter Selinger 2001-2019
</metadata>
<g transform="translate(0.000000,1600.000000) scale(0.100000,-0.100000)"
fill="#ffffff" stroke="none">
<path d="M28935 14716 c-38 -23 -129 -127 -166 -191 -10 -16 -32 -84 -49 -150
-16 -66 -41 -140 -54 -165 -96 -182 -115 -225 -131 -296 -32 -143 -44 -181
-78 -230 -65 -94 -88 -165 -123 -368 -25 -151 -5 -194 134 -288 97 -65 137
-83 267 -113 123 -29 146 -40 233 -106 49 -38 84 -55 165 -80 140 -42 151 -47
241 -101 44 -27 112 -57 150 -69 133 -38 163 -50 203 -77 22 -15 61 -41 87
-59 26 -17 91 -45 144 -63 53 -17 115 -44 137 -60 92 -68 131 -90 194 -111 75
-24 136 -57 201 -108 25 -20 68 -46 95 -58 154 -67 191 -86 245 -128 58 -45
95 -64 191 -99 26 -9 78 -41 117 -70 46 -35 103 -66 159 -87 75 -29 96 -42
148 -95 51 -52 73 -66 146 -93 59 -22 106 -49 155 -88 38 -30 110 -74 159 -98
50 -23 106 -55 125 -72 19 -17 87 -63 150 -102 63 -40 133 -90 155 -110 23
-21 62 -50 87 -65 53 -31 78 -64 78 -103 0 -20 -14 -41 -53 -78 -30 -27 -66
-70 -81 -95 -16 -25 -54 -72 -86 -105 -31 -33 -74 -91 -95 -128 -20 -38 -64
-98 -96 -134 -33 -36 -76 -95 -96 -132 -20 -36 -58 -90 -85 -118 -30 -33 -64
-85 -89 -140 -22 -47 -63 -118 -91 -156 -33 -44 -65 -104 -89 -169 -21 -56
-63 -142 -94 -192 -48 -80 -59 -109 -94 -249 -26 -105 -56 -192 -86 -257 -81
-173 -105 -358 -105 -805 0 -290 12 -516 35 -648 9 -55 31 -115 69 -195 40
-85 62 -149 81 -236 31 -141 56 -216 89 -266 36 -55 81 -148 101 -210 26 -81
41 -105 94 -159 34 -34 54 -66 70 -112 13 -35 30 -84 39 -109 9 -27 38 -69 72
-105 31 -33 72 -88 90 -122 17 -34 52 -81 77 -104 25 -23 65 -74 90 -112 25
-38 75 -102 112 -141 37 -39 87 -100 111 -136 24 -36 57 -82 73 -102 19 -24
31 -52 35 -83 6 -59 -14 -81 -122 -134 -45 -22 -103 -60 -131 -84 -27 -24 -92
-65 -142 -91 -62 -32 -103 -61 -123 -86 -20 -25 -61 -54 -120 -84 -49 -26
-120 -71 -157 -101 -38 -30 -93 -64 -123 -75 -102 -38 -133 -54 -199 -108 -36
-29 -103 -71 -148 -93 -45 -22 -111 -62 -148 -89 -36 -27 -98 -61 -138 -76
-105 -39 -144 -61 -193 -106 -26 -24 -80 -56 -136 -80 -51 -22 -119 -61 -153
-88 -73 -57 -96 -69 -204 -105 -49 -16 -108 -45 -145 -71 -86 -61 -120 -79
-214 -109 -45 -15 -104 -41 -130 -59 -26 -18 -64 -44 -85 -58 -40 -28 -78 -44
-197 -80 -43 -13 -101 -40 -136 -64 -91 -62 -113 -72 -230 -99 -107 -26 -189
-60 -214 -90 -26 -32 -100 -66 -244 -115 -201 -67 -282 -123 -329 -229 -16
-37 -19 -58 -14 -122 8 -101 70 -289 142 -434 30 -60 66 -150 80 -200 14 -49
50 -137 79 -195 29 -58 77 -177 106 -265 75 -228 108 -286 184 -329 59 -34 98
-38 184 -20 111 23 158 41 247 95 48 29 120 60 180 79 103 31 130 45 234 117
49 33 82 46 171 67 135 32 166 44 250 101 39 26 107 58 170 80 108 37 176 71
200 100 19 23 91 58 175 85 89 29 141 55 183 91 41 37 89 60 177 89 90 29 141
55 184 93 19 16 89 56 155 87 67 32 146 79 176 104 32 27 86 58 135 77 75 30
97 43 217 125 26 18 71 40 100 49 80 26 122 50 180 102 31 28 94 66 154 94 59
28 123 66 153 93 28 25 85 61 126 80 42 19 109 62 149 94 46 37 101 70 147 88
53 21 90 45 139 89 38 35 98 77 141 98 40 20 103 61 138 89 35 29 98 71 140
93 58 30 85 52 114 92 32 42 57 61 145 108 133 71 164 75 262 40 92 -34 131
-58 215 -134 36 -33 92 -72 123 -87 31 -14 71 -33 89 -41 18 -8 53 -40 79 -70
37 -43 64 -62 131 -93 46 -22 107 -60 136 -85 29 -25 93 -65 142 -89 72 -34
100 -54 137 -98 40 -47 60 -60 137 -92 50 -21 121 -60 158 -88 37 -27 104 -67
148 -87 44 -21 102 -56 128 -80 55 -47 98 -71 177 -96 85 -28 121 -49 167 -99
27 -30 64 -56 100 -72 32 -14 80 -35 107 -47 26 -12 76 -43 110 -69 45 -35 86
-56 156 -79 115 -38 140 -50 211 -105 40 -32 85 -54 158 -79 106 -35 156 -61
226 -118 26 -21 78 -44 141 -65 96 -31 143 -55 218 -116 20 -15 80 -43 134
-61 118 -39 140 -50 215 -108 42 -34 83 -54 155 -77 53 -17 121 -44 149 -61
29 -16 77 -42 106 -58 28 -16 108 -44 176 -61 143 -36 149 -39 213 -92 26 -21
74 -51 105 -66 53 -25 69 -27 178 -27 107 0 124 2 156 22 39 25 47 39 91 163
17 47 45 105 63 130 52 72 65 106 90 224 28 136 34 150 78 208 53 69 63 93 91
218 25 112 57 189 129 313 56 96 77 239 44 303 -11 21 -38 43 -86 68 -38 20
-89 52 -112 72 -63 53 -121 78 -254 113 -97 25 -134 41 -195 80 -49 33 -106
59 -165 76 -109 33 -143 50 -219 109 -43 34 -81 53 -145 72 -107 33 -149 54
-216 109 -40 32 -79 51 -152 75 -118 39 -142 50 -214 106 -40 32 -85 54 -158
79 -106 35 -156 61 -226 118 -26 21 -78 44 -141 65 -98 31 -147 58 -231 126
-23 18 -81 50 -130 70 -48 20 -120 60 -159 89 -39 29 -90 61 -115 71 -126 54
-153 68 -192 100 -23 18 -85 61 -138 94 -53 33 -122 81 -154 107 -32 26 -79
56 -104 67 -80 33 -120 57 -188 109 -36 27 -98 66 -137 85 -39 20 -93 58 -121
84 -27 27 -77 64 -110 82 -82 46 -109 87 -101 155 11 95 42 158 102 210 30 26
69 69 86 96 17 27 55 66 84 87 58 44 82 73 111 140 11 25 46 77 78 115 31 39
77 108 100 155 25 48 61 102 85 125 49 47 68 82 100 184 16 49 39 95 70 135
60 78 64 86 106 208 20 57 58 139 84 183 60 98 74 145 105 356 16 111 34 193
55 250 47 127 82 345 82 514 0 77 -5 169 -11 205 -5 36 -15 110 -20 165 -6 57
-24 144 -41 200 -42 134 -58 205 -75 333 -22 152 -37 198 -100 291 -41 63 -63
110 -90 196 -29 94 -45 126 -90 186 -30 39 -62 92 -71 118 -34 95 -63 148
-112 209 -28 34 -72 102 -97 151 -29 57 -59 99 -84 119 -23 19 -54 61 -79 109
-22 43 -60 98 -83 123 -23 25 -60 70 -82 100 -22 30 -74 91 -115 135 -69 73
-111 139 -112 173 0 39 37 87 99 127 36 23 82 59 101 80 19 20 74 56 121 80
47 24 110 64 140 90 30 26 93 66 140 90 48 24 111 66 142 92 34 30 84 60 135
81 44 18 99 47 122 65 104 79 135 97 212 127 58 21 106 49 157 90 46 36 105
71 155 92 52 22 101 51 140 85 37 33 81 60 118 72 32 12 85 31 119 42 33 12
89 44 124 71 48 37 93 60 182 91 90 32 134 55 185 94 52 39 91 59 176 87 65
22 128 50 153 69 23 18 56 42 72 54 17 13 79 39 138 58 60 20 125 49 146 66
94 73 126 88 235 113 134 32 156 41 241 99 45 31 97 55 155 73 142 42 174 55
230 93 29 20 89 56 134 81 59 33 86 55 99 80 40 74 15 217 -65 371 -30 58 -67
148 -82 200 -14 52 -50 141 -79 199 -29 58 -76 177 -105 265 -29 88 -74 201
-100 250 -26 50 -58 122 -70 160 -30 90 -68 130 -134 140 -56 9 -226 -9 -300
-30 -50 -15 -65 -23 -155 -92 -26 -19 -90 -48 -165 -73 -68 -22 -156 -60 -196
-85 -41 -24 -96 -50 -124 -58 -211 -62 -224 -67 -292 -118 -77 -57 -100 -68
-213 -104 -55 -18 -101 -42 -156 -81 -58 -43 -103 -66 -186 -94 -81 -28 -127
-52 -179 -90 -52 -39 -99 -62 -180 -90 -60 -21 -130 -53 -156 -72 -97 -69
-120 -81 -217 -114 -71 -24 -120 -48 -168 -83 -78 -57 -106 -73 -182 -101 -30
-11 -80 -43 -112 -70 -63 -56 -101 -77 -212 -120 -42 -16 -101 -49 -132 -73
-31 -25 -94 -63 -141 -86 -47 -23 -118 -68 -159 -100 -44 -35 -102 -70 -144
-87 -51 -19 -89 -44 -138 -89 -48 -45 -85 -68 -131 -85 -102 -38 -150 -65
-198 -115 -25 -26 -76 -63 -114 -82 -38 -19 -92 -56 -120 -82 -28 -26 -90 -71
-137 -99 -47 -28 -113 -76 -147 -106 -84 -75 -251 -136 -319 -117 -40 12 -164
91 -223 143 -25 22 -72 54 -105 70 -33 17 -89 59 -125 93 -37 36 -93 77 -130
95 -36 18 -101 58 -146 90 -44 32 -118 76 -165 98 -46 22 -107 60 -136 84 -28
25 -91 69 -140 98 -48 29 -112 72 -140 96 -29 23 -74 50 -100 59 -96 35 -151
63 -189 97 -73 64 -109 87 -191 118 -45 17 -99 44 -120 61 -77 59 -112 78
-199 109 -102 36 -122 47 -166 96 -21 23 -73 55 -143 88 -60 29 -130 70 -154
90 -55 47 -93 65 -201 100 -47 15 -103 40 -125 56 -97 72 -134 92 -228 122
-75 23 -116 43 -162 78 -83 64 -107 75 -223 104 -112 28 -151 45 -200 87 -50
44 -103 67 -204 90 -107 25 -140 40 -223 103 -59 46 -83 55 -291 115 -40 12
-96 37 -125 57 -78 52 -96 60 -186 83 -109 28 -168 27 -218 -3z m5046 -5124
c91 -59 167 -134 208 -203 24 -41 68 -96 97 -123 30 -26 62 -62 71 -80 9 -17
44 -60 79 -96 63 -66 83 -101 111 -195 20 -65 48 -121 88 -170 58 -72 98 -173
135 -340 11 -53 32 -130 48 -173 37 -107 37 -236 -3 -367 -15 -49 -45 -159
-65 -243 -42 -167 -64 -221 -117 -284 -40 -48 -64 -93 -87 -165 -18 -53 -54
-110 -112 -175 -19 -21 -52 -73 -73 -117 -29 -57 -55 -92 -91 -123 -28 -24
-66 -65 -84 -93 -19 -27 -42 -58 -53 -67 -36 -33 -170 -88 -213 -88 -40 0 -47
5 -141 103 -54 56 -118 133 -141 171 -24 38 -69 97 -100 131 -34 36 -70 88
-87 127 -17 36 -53 94 -82 129 -59 73 -79 115 -110 229 -15 59 -36 103 -75
162 -30 45 -61 104 -69 132 -26 91 -38 262 -31 427 9 211 23 270 94 409 33 63
72 153 87 200 37 113 47 132 104 189 35 35 56 70 81 130 30 75 46 97 182 248
96 107 160 186 179 225 17 33 41 71 54 84 29 29 78 32 116 6z"/>
<path d="M5760 13714 c-69 -7 -199 -22 -290 -33 -91 -11 -259 -30 -375 -42
-260 -26 -316 -37 -457 -93 -62 -24 -189 -63 -282 -85 -182 -45 -196 -51 -292
-117 -40 -27 -96 -53 -147 -69 -78 -23 -117 -44 -232 -122 -26 -18 -78 -42
-114 -54 -92 -30 -130 -51 -191 -103 -30 -25 -92 -66 -139 -90 -47 -25 -104
-63 -126 -86 -22 -23 -71 -63 -110 -90 -38 -26 -85 -66 -103 -89 -18 -23 -57
-59 -86 -81 -30 -21 -74 -65 -98 -97 -29 -39 -62 -68 -99 -88 -31 -16 -75 -45
-99 -62 -52 -39 -74 -41 -94 -10 -31 46 -37 164 -34 614 2 435 2 443 -18 470
-12 15 -35 36 -52 46 -30 18 -72 19 -775 19 -408 0 -756 -4 -772 -8 -49 -11
-104 -43 -120 -68 -14 -20 -15 -648 -15 -5921 0 -5386 1 -5900 16 -5923 9 -13
41 -36 72 -50 l57 -27 835 0 c782 0 838 1 863 18 15 9 35 29 44 44 17 26 18
223 24 3918 5 3826 6 3959 35 4100 3 17 26 71 50 120 35 71 51 124 78 250 39
185 47 207 108 297 25 36 63 110 84 164 30 78 49 110 91 156 32 35 67 88 87
131 38 84 108 167 336 401 212 217 365 348 465 398 46 23 106 65 140 97 53 49
73 60 164 90 66 22 120 47 145 68 88 70 115 81 266 107 151 26 217 44 360 94
190 68 689 102 1043 72 290 -25 301 -27 393 -65 113 -47 150 -58 311 -89 161
-32 169 -35 263 -96 41 -27 116 -63 166 -80 57 -20 108 -46 140 -70 27 -22 89
-67 137 -100 48 -34 118 -88 154 -121 37 -33 92 -73 122 -89 62 -31 95 -62
136 -130 16 -24 49 -67 75 -95 26 -27 70 -84 97 -125 28 -41 72 -100 98 -130
27 -30 66 -92 87 -137 26 -53 53 -95 78 -115 55 -48 78 -94 116 -234 24 -87
52 -159 90 -232 46 -90 58 -122 70 -202 18 -116 58 -317 118 -595 9 -38 16
-113 16 -165 0 -52 7 -144 15 -205 13 -95 15 -590 15 -3735 -1 -3536 0 -3625
18 -3650 11 -14 34 -34 53 -45 33 -20 52 -20 859 -20 902 0 859 -3 904 58 l21
28 0 3942 c0 3984 -2 4210 -36 4452 -11 80 -35 178 -83 340 -15 50 -41 176
-58 280 -41 254 -49 281 -104 351 -56 72 -61 84 -84 210 -21 117 -45 177 -99
248 -46 60 -62 92 -86 166 -26 80 -48 120 -99 180 -25 30 -66 92 -90 139 -25
47 -63 104 -86 126 -23 22 -59 70 -81 106 -21 37 -61 87 -88 112 -28 24 -68
71 -89 103 -50 74 -395 422 -471 473 -31 22 -69 53 -86 71 -16 17 -55 45 -85
62 -30 17 -82 57 -115 89 -44 42 -84 69 -150 99 -49 23 -115 61 -145 84 -67
52 -94 67 -185 96 -79 26 -158 66 -227 114 -46 33 -89 47 -311 99 -61 15 -151
45 -205 71 -53 24 -122 49 -152 55 -80 14 -365 48 -510 60 -69 6 -185 22 -259
36 -124 23 -153 25 -410 24 -152 -1 -332 -8 -401 -15z"/>
<path d="M19270 13709 c-52 -10 -136 -18 -187 -18 -50 -1 -122 -7 -160 -15
-38 -8 -116 -18 -173 -21 -163 -10 -397 -35 -480 -51 -41 -9 -111 -30 -155
-48 -120 -50 -171 -65 -326 -96 -119 -24 -162 -39 -268 -89 -69 -32 -171 -74
-226 -92 -123 -39 -157 -56 -219 -107 -34 -28 -78 -50 -158 -77 -60 -21 -131
-53 -157 -71 -100 -71 -119 -82 -206 -115 -73 -27 -102 -44 -153 -92 -38 -35
-90 -71 -129 -88 -38 -18 -90 -54 -126 -87 -34 -32 -93 -75 -131 -96 -37 -21
-100 -68 -140 -105 -39 -37 -96 -84 -126 -106 -30 -21 -72 -57 -92 -80 -20
-23 -63 -59 -95 -79 -32 -21 -78 -63 -102 -93 -24 -30 -68 -70 -97 -89 -30
-19 -71 -58 -93 -87 -21 -30 -62 -73 -90 -96 -28 -23 -66 -69 -86 -101 -20
-33 -56 -76 -80 -98 -24 -21 -67 -73 -95 -116 -28 -43 -83 -111 -120 -152 -38
-41 -84 -96 -102 -122 -17 -26 -49 -67 -71 -92 -21 -25 -57 -81 -79 -125 -22
-44 -61 -104 -85 -133 -25 -29 -70 -99 -100 -155 -30 -56 -72 -120 -93 -142
-44 -47 -59 -75 -90 -170 -30 -92 -45 -121 -90 -175 -53 -65 -67 -95 -96 -220
-14 -61 -39 -135 -55 -165 -16 -30 -42 -80 -58 -110 -16 -30 -37 -90 -46 -133
-33 -159 -57 -239 -100 -329 -57 -119 -60 -132 -120 -561 -9 -63 -31 -178 -50
-257 -19 -79 -42 -206 -50 -282 -8 -76 -19 -176 -25 -223 -5 -47 -10 -269 -10
-495 0 -225 5 -448 10 -495 6 -47 17 -146 25 -221 8 -75 23 -174 34 -220 10
-46 22 -104 26 -129 4 -25 17 -99 30 -165 13 -66 28 -169 35 -230 15 -151 35
-230 90 -370 65 -166 77 -205 95 -320 19 -117 37 -162 93 -229 27 -32 48 -72
62 -120 12 -39 31 -99 42 -133 11 -35 43 -98 71 -140 32 -49 65 -115 86 -176
28 -83 42 -107 91 -161 32 -35 64 -83 73 -107 8 -24 25 -71 37 -105 16 -45 35
-74 72 -110 27 -27 63 -75 80 -108 16 -32 57 -88 92 -125 34 -36 79 -96 99
-134 21 -37 71 -102 110 -145 40 -42 87 -100 105 -128 17 -28 50 -65 72 -83
22 -18 60 -62 85 -99 28 -43 62 -79 95 -101 28 -19 68 -59 89 -88 21 -29 61
-71 91 -93 29 -21 73 -65 99 -96 31 -39 69 -70 116 -96 39 -22 97 -65 130 -96
197 -185 246 -224 329 -262 67 -31 94 -50 131 -94 27 -30 62 -62 79 -70 17 -7
56 -25 86 -40 31 -14 85 -50 120 -81 47 -41 86 -64 156 -91 59 -23 118 -55
164 -90 55 -41 92 -60 158 -80 106 -33 135 -47 189 -91 57 -46 109 -67 237
-98 119 -28 169 -47 254 -99 70 -42 131 -60 287 -87 162 -27 195 -36 305 -80
113 -45 256 -74 440 -89 74 -6 189 -18 255 -25 66 -8 194 -20 285 -26 91 -5
210 -19 265 -30 133 -25 589 -28 700 -3 39 8 147 19 240 24 94 5 177 11 185
14 8 3 112 14 230 25 462 44 429 38 642 120 75 29 151 49 255 66 196 34 239
47 364 110 58 30 148 66 200 81 107 30 152 51 226 104 33 24 91 50 155 70 125
40 150 52 208 100 51 42 84 60 181 100 38 15 99 50 136 78 37 27 112 71 165
96 69 33 105 56 124 82 15 19 58 53 96 76 37 22 99 68 138 103 38 34 102 79
142 100 43 22 104 67 149 109 41 39 93 82 115 95 21 13 57 46 79 74 22 28 64
69 92 92 29 22 70 63 92 92 22 28 52 60 67 70 71 48 101 87 114 148 22 108 -8
210 -79 267 -17 13 -53 54 -81 92 -48 64 -87 109 -306 346 -39 42 -84 101
-101 131 -17 30 -56 76 -87 103 -31 27 -72 72 -91 101 -18 30 -59 72 -89 95
-31 23 -56 45 -56 49 0 4 -18 26 -40 49 -33 34 -47 42 -77 42 -31 0 -44 -8
-82 -49 -25 -26 -71 -64 -101 -83 -30 -19 -77 -60 -103 -91 -31 -36 -70 -68
-110 -89 -34 -18 -89 -58 -122 -88 -33 -31 -94 -82 -135 -115 -41 -32 -93 -74
-114 -93 -22 -19 -72 -50 -113 -69 -47 -21 -100 -57 -142 -96 -46 -41 -91 -71
-136 -90 -71 -30 -108 -52 -185 -112 -27 -21 -82 -47 -140 -66 -101 -33 -132
-47 -224 -103 -32 -19 -129 -58 -215 -87 -86 -28 -188 -69 -228 -90 -102 -56
-169 -77 -291 -89 -120 -13 -231 -36 -372 -80 -200 -61 -459 -86 -905 -84
-446 2 -683 28 -890 99 -62 21 -146 40 -220 50 -226 29 -266 41 -405 117 -45
25 -101 44 -182 62 -130 28 -204 59 -263 109 -51 43 -80 58 -185 92 -96 31
-136 53 -198 106 -23 20 -75 54 -114 75 -40 20 -93 57 -118 80 -26 24 -82 66
-125 95 -44 28 -106 77 -140 108 -33 32 -80 73 -105 91 -78 59 -437 431 -523
542 -23 30 -63 78 -88 108 -26 30 -65 91 -87 135 -24 47 -63 103 -94 135 -47
49 -58 69 -91 166 -27 80 -50 125 -81 166 -57 71 -66 90 -111 228 -20 63 -61
165 -91 225 -49 100 -58 128 -94 305 -22 107 -56 247 -75 310 -51 170 -64 234
-71 350 -8 125 5 168 58 197 32 17 210 18 4666 20 4597 3 4633 3 4671 23 46
23 73 64 96 145 9 33 30 103 47 155 23 75 33 131 43 265 8 94 19 222 25 285
12 143 13 873 0 1110 -11 203 -47 437 -91 577 -45 145 -67 246 -79 363 -15
141 -22 165 -91 305 -49 101 -63 142 -88 261 -31 149 -44 180 -116 282 -27 38
-53 91 -66 135 -27 91 -51 139 -100 203 -21 28 -57 90 -79 138 -28 59 -59 107
-94 145 -29 31 -72 93 -96 139 -25 49 -69 112 -105 151 -33 37 -77 94 -97 127
-20 33 -55 75 -78 93 -23 18 -61 64 -85 101 -27 42 -62 80 -89 100 -26 17 -64
55 -86 85 -22 30 -65 73 -95 95 -30 22 -73 65 -94 94 -22 30 -67 73 -101 97
-33 23 -60 45 -60 48 0 19 -88 95 -141 122 -33 16 -86 54 -118 83 -32 29 -93
77 -137 106 -43 30 -102 73 -130 96 -28 24 -86 61 -130 83 -43 21 -99 57 -124
79 -54 47 -123 83 -205 107 -74 21 -125 47 -167 84 -49 42 -124 77 -232 107
-61 17 -124 44 -178 75 -98 58 -136 71 -283 99 -155 29 -209 44 -325 91 -120
48 -238 74 -376 84 -55 3 -148 12 -209 20 -60 8 -185 19 -277 25 -92 6 -213
20 -268 30 -142 28 -577 27 -720 -1z m815 -1729 c264 -20 292 -25 450 -85 55
-20 154 -48 220 -61 158 -31 178 -37 260 -84 113 -65 148 -79 257 -106 110
-27 143 -45 197 -107 24 -27 63 -52 125 -81 55 -26 115 -63 151 -95 33 -29 95
-71 137 -92 59 -30 87 -52 119 -91 23 -29 65 -70 93 -90 29 -20 68 -60 87 -88
18 -28 58 -67 88 -88 35 -24 71 -62 101 -108 27 -38 64 -82 83 -97 22 -17 51
-59 82 -117 25 -50 66 -115 89 -143 62 -77 73 -96 100 -173 29 -88 49 -126 97
-189 55 -72 75 -125 98 -250 23 -128 30 -149 76 -224 19 -31 41 -75 49 -99 24
-67 45 -232 56 -440 6 -106 17 -230 25 -275 26 -149 16 -190 -58 -226 l-44
-21 -3661 0 c-3356 0 -3664 1 -3701 16 -51 20 -91 66 -91 104 0 15 9 56 19 91
11 35 32 120 46 189 41 190 53 229 95 300 49 81 55 99 86 231 25 107 31 120
118 241 19 26 44 78 57 115 32 100 52 134 99 172 32 26 53 57 86 126 25 54 65
119 97 156 30 35 69 93 87 129 22 44 59 92 114 147 44 45 95 96 111 113 17 17
58 58 92 93 35 34 75 75 90 90 16 15 53 52 83 80 30 29 70 70 88 90 18 20 51
46 75 58 23 11 69 47 102 79 33 32 92 76 132 99 40 23 103 66 140 96 47 38 96
66 159 90 62 24 113 53 160 90 60 49 85 61 194 95 100 32 139 49 193 89 80 59
126 75 266 96 134 20 133 20 279 66 68 22 162 49 210 60 200 48 804 62 1237
29z"/>
<path d="M60540 13709 c-52 -10 -133 -18 -180 -18 -47 -1 -141 -10 -210 -20
-69 -11 -201 -27 -295 -36 -198 -18 -265 -34 -441 -103 -86 -34 -167 -58 -242
-71 -150 -27 -183 -37 -220 -63 -17 -13 -52 -38 -77 -56 -25 -19 -90 -49 -144
-67 -116 -39 -129 -45 -201 -100 -30 -23 -93 -61 -140 -83 -47 -23 -112 -65
-144 -93 -33 -28 -94 -68 -137 -89 -53 -27 -88 -53 -115 -85 -20 -25 -63 -64
-94 -86 -32 -22 -74 -64 -95 -93 -21 -29 -63 -70 -93 -92 -30 -21 -70 -62 -88
-89 -19 -28 -61 -74 -94 -103 -38 -34 -71 -74 -89 -110 -16 -31 -47 -77 -69
-102 -22 -25 -65 -87 -96 -138 -31 -51 -78 -122 -106 -158 -49 -64 -62 -95
-96 -239 -15 -64 -29 -96 -100 -235 -28 -54 -68 -289 -83 -490 -38 -505 -38
-576 5 -1010 33 -329 41 -366 107 -493 30 -57 67 -144 82 -193 32 -107 42
-125 105 -212 26 -37 61 -98 76 -135 19 -49 45 -88 90 -137 35 -38 73 -88 85
-111 11 -23 51 -74 88 -114 36 -39 101 -110 144 -158 54 -60 108 -106 175
-151 53 -35 111 -78 127 -96 17 -17 59 -49 95 -70 36 -21 88 -62 115 -90 38
-40 76 -65 160 -105 63 -30 133 -73 164 -99 30 -26 86 -62 125 -81 39 -19 95
-54 125 -80 66 -56 81 -64 204 -105 61 -20 114 -45 140 -66 71 -57 118 -81
219 -114 67 -22 116 -45 155 -74 80 -60 84 -61 226 -95 136 -33 189 -55 252
-106 60 -48 94 -63 209 -90 123 -29 137 -35 241 -97 44 -26 122 -61 172 -77
109 -36 141 -51 187 -91 43 -38 84 -55 166 -70 107 -18 190 -48 290 -105 55
-32 152 -73 230 -100 74 -25 160 -61 190 -79 83 -50 147 -81 225 -106 91 -29
132 -50 184 -94 23 -20 84 -60 134 -90 51 -30 112 -72 138 -94 25 -22 75 -57
112 -77 40 -22 83 -56 108 -87 24 -27 71 -68 106 -90 34 -22 73 -54 84 -71 12
-18 51 -61 85 -97 50 -52 71 -83 98 -148 19 -46 48 -105 65 -131 59 -92 86
-203 102 -419 11 -164 -1 -409 -26 -508 -8 -32 -35 -97 -59 -144 -24 -47 -54
-119 -66 -160 -33 -108 -60 -156 -140 -251 -105 -122 -181 -199 -303 -305
-116 -101 -133 -112 -217 -139 -76 -24 -126 -50 -186 -96 -71 -54 -99 -64
-313 -108 -104 -22 -233 -54 -287 -71 -217 -69 -619 -99 -957 -70 -268 23
-314 30 -426 65 -122 38 -223 62 -394 95 -112 21 -192 48 -236 79 -51 36 -132
72 -223 97 -110 32 -157 54 -218 104 -25 20 -84 61 -132 89 -48 29 -111 72
-139 96 -28 23 -77 57 -110 75 -36 19 -77 53 -106 87 -37 42 -68 65 -138 100
-80 40 -107 63 -240 193 -82 81 -186 174 -230 207 -44 33 -89 71 -100 83 -11
13 -50 42 -87 66 -42 27 -82 64 -108 99 -23 31 -64 72 -91 92 -27 19 -63 55
-80 80 -84 122 -161 110 -316 -48 -51 -52 -167 -170 -258 -262 -91 -93 -183
-192 -204 -220 -21 -29 -58 -70 -81 -92 -23 -22 -58 -64 -76 -92 -19 -29 -59
-71 -90 -94 -30 -22 -71 -62 -90 -89 -19 -27 -57 -65 -84 -84 -65 -47 -84 -77
-83 -135 1 -65 32 -120 122 -217 143 -154 198 -219 239 -285 28 -44 59 -77 95
-102 30 -21 71 -62 91 -92 21 -30 59 -68 87 -85 27 -18 71 -58 99 -90 28 -33
76 -73 108 -91 31 -17 86 -60 122 -94 36 -34 93 -82 126 -108 34 -25 85 -66
114 -91 29 -25 85 -61 126 -81 56 -28 82 -48 109 -85 41 -56 77 -80 155 -105
73 -24 126 -51 175 -90 50 -40 81 -56 170 -85 89 -29 140 -54 190 -95 51 -41
83 -57 170 -85 39 -12 124 -48 190 -80 141 -68 212 -91 366 -119 113 -20 207
-48 304 -91 107 -46 290 -76 630 -100 77 -6 171 -15 208 -20 300 -44 707 -62
897 -40 47 5 168 17 270 25 102 9 226 22 275 30 50 8 160 21 245 30 205 22
268 36 407 91 73 29 171 57 258 75 166 35 204 48 270 98 70 53 97 65 207 95
115 30 156 49 223 105 28 23 85 56 128 73 49 21 104 54 150 91 40 33 108 77
152 99 47 24 104 64 140 98 33 31 78 69 100 83 22 14 61 52 86 84 25 32 68 75
95 95 27 21 67 61 89 89 22 29 66 73 98 98 32 25 70 64 84 86 14 22 52 67 84
101 41 43 70 87 102 156 24 52 67 125 95 161 38 50 58 90 86 175 20 60 51 131
68 158 76 119 85 148 117 365 11 75 38 215 60 310 55 241 61 301 61 651 l0
308 -34 168 c-19 92 -46 217 -60 277 -86 367 -88 374 -136 459 -26 45 -59 115
-74 154 -35 97 -47 120 -100 182 -25 29 -64 89 -87 134 -24 47 -68 109 -103
147 -34 36 -73 84 -88 107 -15 22 -51 58 -81 80 -30 22 -70 63 -90 91 -21 28
-59 67 -87 87 -28 20 -69 61 -93 92 -25 33 -69 75 -107 99 -35 24 -82 60 -105
81 -22 22 -67 55 -100 75 -33 19 -94 65 -135 101 -57 51 -96 75 -164 103 -59
24 -109 54 -144 84 -29 26 -90 66 -135 89 -45 24 -114 67 -154 97 -53 40 -95
62 -170 87 -120 40 -145 53 -208 105 -35 29 -77 50 -145 72 -118 39 -153 57
-214 107 -55 46 -95 63 -219 91 -94 22 -143 44 -215 96 -46 33 -105 56 -231
91 -39 10 -85 34 -120 59 -81 60 -88 63 -213 91 -129 28 -213 64 -278 119 -56
48 -83 58 -214 90 -107 25 -154 44 -258 108 -32 19 -97 47 -145 62 -108 34
-136 48 -193 95 -57 47 -87 62 -180 90 -94 29 -120 41 -196 100 -45 34 -89 57
-158 80 -83 27 -105 40 -161 91 -36 32 -91 72 -124 88 -73 37 -148 106 -269
246 -108 125 -123 152 -152 290 -12 55 -37 139 -55 187 -41 107 -55 178 -55
282 1 99 19 203 55 316 14 47 37 134 51 194 29 132 58 197 119 273 26 31 57
78 70 103 23 45 95 120 115 120 5 0 43 31 82 69 48 44 101 83 153 109 44 22
102 59 130 82 77 65 115 79 317 121 104 22 237 55 297 74 177 55 252 66 521
72 184 4 295 1 445 -11 246 -21 240 -20 348 -62 58 -23 164 -51 310 -80 243
-49 269 -57 366 -114 36 -21 116 -55 176 -75 132 -44 135 -46 207 -101 31 -24
99 -62 150 -84 59 -26 121 -62 164 -96 38 -31 99 -71 135 -89 36 -19 90 -56
120 -83 30 -27 80 -66 112 -86 53 -34 187 -150 354 -307 101 -95 156 -106 246
-50 18 11 249 237 514 503 474 475 482 484 498 541 23 79 14 111 -50 177 -29
30 -71 82 -93 115 -22 33 -54 69 -72 80 -17 11 -53 50 -80 86 -35 48 -64 75
-107 99 -32 18 -87 61 -123 94 -36 34 -83 75 -105 91 -22 16 -73 60 -113 97
-40 37 -115 99 -166 137 -52 38 -97 74 -101 80 -3 7 -46 31 -95 56 -48 24
-109 62 -135 85 -54 46 -97 70 -175 95 -81 26 -109 42 -172 100 -49 46 -66 55
-140 74 -159 41 -183 50 -238 96 -61 50 -124 73 -275 100 -126 22 -187 41
-283 87 -104 49 -195 73 -342 88 -63 6 -187 20 -275 30 -88 10 -198 22 -245
25 -47 4 -131 15 -188 26 -145 27 -580 26 -722 -2z"/>
<path d="M43725 13450 c-49 -7 -101 -36 -127 -70 -18 -25 -19 -117 -18 -3670
0 -2352 4 -3666 10 -3705 6 -33 17 -184 25 -335 29 -527 35 -572 126 -845 23
-68 51 -183 65 -267 27 -159 37 -191 89 -272 43 -68 57 -103 95 -244 35 -130
46 -155 106 -235 23 -31 57 -94 74 -140 44 -112 55 -133 106 -187 24 -26 60
-83 82 -131 22 -46 57 -104 79 -129 21 -25 65 -79 98 -120 32 -41 80 -97 106
-125 26 -27 65 -81 86 -120 27 -49 55 -83 96 -116 32 -26 75 -69 95 -96 20
-27 58 -65 85 -85 27 -20 70 -63 96 -95 32 -40 66 -68 109 -91 34 -18 88 -57
120 -86 31 -29 91 -79 132 -111 41 -32 97 -78 123 -101 28 -26 80 -56 128 -75
45 -19 105 -54 139 -82 33 -26 95 -69 138 -94 42 -25 109 -69 147 -98 80 -60
94 -65 233 -99 59 -14 127 -39 160 -57 141 -80 187 -98 332 -127 114 -23 164
-39 228 -71 45 -23 110 -48 145 -56 66 -15 435 -57 652 -74 72 -6 190 -22 264
-36 122 -23 157 -25 397 -25 199 0 280 4 336 15 72 16 166 26 588 65 249 23
295 31 376 60 129 48 394 129 453 140 107 19 173 44 242 92 43 29 102 57 165
78 122 40 143 51 208 103 32 27 88 57 155 82 80 31 117 52 165 93 33 30 91 69
128 88 38 19 85 53 105 75 21 23 74 65 118 94 44 29 114 83 155 121 41 38 91
80 110 94 19 13 94 84 165 156 124 127 167 173 393 417 60 66 114 135 138 179
21 40 64 98 95 128 31 31 71 84 88 118 17 35 46 79 64 100 58 65 76 97 108
193 38 113 52 142 95 192 46 54 77 125 108 247 15 58 44 134 63 170 74 133 73
130 123 395 16 82 34 137 70 215 48 103 50 109 69 280 11 96 25 243 31 325 6
83 13 156 15 163 3 7 5 1742 5 3854 0 3675 0 3842 -18 3872 -9 17 -34 39 -55
49 -34 17 -84 18 -859 19 -510 0 -833 -4 -848 -10 -14 -5 -36 -22 -50 -37
l-25 -27 -6 -3796 c-4 -2884 -8 -3828 -17 -3924 -14 -137 -30 -207 -85 -364
-20 -55 -48 -163 -62 -240 -34 -180 -38 -193 -94 -294 -27 -47 -63 -123 -81
-169 -18 -46 -48 -105 -66 -130 -76 -106 -95 -137 -119 -202 -32 -83 -112
-176 -375 -439 -249 -249 -354 -341 -433 -378 -35 -17 -90 -53 -121 -80 -31
-27 -75 -56 -99 -64 -23 -9 -76 -28 -118 -42 -46 -17 -94 -42 -125 -68 -67
-56 -110 -73 -244 -97 -63 -11 -179 -41 -258 -66 -94 -29 -208 -56 -330 -76
l-187 -31 -305 6 c-383 7 -452 15 -655 76 -89 27 -229 63 -309 80 -174 37
-213 50 -286 94 -83 50 -129 72 -206 97 -87 28 -140 54 -182 90 -18 16 -72 55
-120 88 -48 32 -113 81 -145 109 -32 27 -81 62 -110 78 -62 33 -271 239 -309
304 -15 25 -51 71 -80 102 -31 33 -76 98 -103 150 -28 53 -73 119 -105 154
-48 51 -62 74 -85 145 -15 46 -49 125 -75 174 -49 92 -83 190 -121 351 -11 49
-38 142 -60 206 -50 154 -76 293 -89 475 -6 95 -10 1487 -10 3908 0 3740 0
3760 -20 3793 -11 18 -32 37 -48 43 -28 11 -1579 19 -1657 9z"/>
</g>
</svg>
