<?xml version="1.0" standalone="no"?>
<!DOCTYPE svg PUBLIC "-//W3C//DTD SVG 20010904//EN"
 "http://www.w3.org/TR/2001/REC-SVG-20010904/DTD/svg10.dtd">
<svg version="1.0" xmlns="http://www.w3.org/2000/svg"
 width="8747.000000pt" height="1600.000000pt" viewBox="0 0 8747.000000 1600.000000"
 preserveAspectRatio="xMidYMid meet">
<metadata>
Created by potrace 1.16, written by Peter Selinger 2001-2019
</metadata>
<g transform="translate(0.000000,1600.000000) scale(0.100000,-0.100000)"
fill="#ffffff" stroke="none">
<path d="M9010 14895 c0 -591 -2 -1075 -5 -1075 -3 0 -94 -9 -202 -20 -1935
-199 -3995 -996 -6108 -2363 -763 -494 -1619 -1138 -2280 -1716 -145 -127
-415 -373 -415 -378 0 -2 29 -76 64 -166 228 -579 561 -1244 937 -1869 783
-1303 1752 -2436 2829 -3308 1447 -1170 3124 -1885 4914 -2096 122 -14 231
-28 244 -30 l22 -4 0 -935 0 -935 7565 0 7565 0 0 7985 0 7985 -7565 0 -7565
0 0 -1075z m1160 -1055 c1281 -62 2515 -370 3745 -935 1372 -631 2692 -1571
3840 -2736 317 -321 735 -791 735 -825 0 -6 -53 -72 -117 -145 -475 -545
-1250 -1315 -1838 -1829 -1458 -1273 -2933 -2180 -4293 -2641 -733 -248 -1339
-361 -2017 -376 -374 -8 -774 19 -1105 75 l-105 18 -3 567 c-1 323 2 567 7
567 5 0 28 -7 52 -16 165 -58 534 -130 789 -154 166 -15 462 -12 646 5 1006
96 2079 601 3199 1506 362 292 657 562 1050 960 435 441 813 873 1130 1290
l85 111 -33 42 c-462 588 -1169 1267 -1827 1753 -453 334 -834 570 -1315 813
-1122 567 -2247 824 -3413 780 -142 -6 -283 -13 -314 -16 l-58 -7 0 -718 0
-718 -32 -5 c-18 -3 -87 -13 -153 -21 -822 -107 -1659 -367 -2435 -755 -734
-367 -1431 -855 -1972 -1381 l-118 -114 31 -100 c109 -353 326 -852 537 -1238
912 -1661 2255 -2733 3879 -3096 98 -21 197 -42 221 -46 l42 -7 0 -665 0 -666
-65 7 c-114 12 -414 65 -600 108 -1022 232 -1978 700 -2825 1386 -322 261
-772 693 -1027 987 -609 700 -1100 1442 -1526 2302 -180 363 -363 792 -468
1094 l-34 97 102 133 c371 489 963 1074 1538 1520 1186 919 2553 1530 3990
1783 293 51 490 77 848 111 l67 7 0 583 0 583 98 8 c325 24 730 30 1062 14z
m170 -2614 c588 -73 1115 -229 1638 -486 673 -330 1312 -822 1797 -1384 51
-58 57 -70 44 -80 -9 -6 -469 -393 -1023 -861 -555 -467 -1011 -851 -1015
-853 -3 -1 -89 136 -190 305 -235 392 -372 613 -484 783 -428 644 -792 955
-1337 1145 -191 66 -388 110 -727 161 l-33 5 0 623 0 624 68 7 c250 27 402 33
752 31 273 -3 412 -8 510 -20z m-1367 -1263 l37 -6 0 -2184 0 -2185 -27 7
c-63 15 -298 114 -438 185 -245 124 -491 287 -720 478 -125 105 -423 405 -529
534 -377 456 -680 971 -906 1538 -61 152 -130 352 -130 373 0 17 320 332 435
428 274 229 546 408 837 549 350 169 664 259 1012 290 92 9 360 4 429 -7z
m10660 -2511 c170 -124 446 -285 1172 -687 910 -503 1290 -734 1462 -889 l53
-48 -68 -55 c-387 -320 -1000 -723 -1607 -1057 -2393 -1318 -6092 -2459 -9065
-2795 -621 -70 -1031 -95 -1575 -95 -407 0 -710 13 -942 41 l-53 6 0 620 0
620 53 -6 c700 -83 1617 -61 2442 59 2089 301 4012 1169 6160 2778 526 394
1049 815 1694 1364 117 100 215 182 218 182 2 0 27 -17 56 -38z"/>
<path d="M28110 7720 l0 -5250 1490 0 1490 0 0 4075 0 4075 828 -1 c1157 -1
1835 -12 1987 -34 487 -67 836 -218 1115 -481 405 -382 619 -968 695 -1904 31
-386 35 -715 35 -3212 l0 -2518 1445 0 1445 0 0 3065 c0 1993 -4 3126 -10
3238 -80 1329 -446 2300 -1125 2982 -272 274 -537 464 -895 644 -683 342
-1485 514 -2620 561 -152 6 -1319 10 -3062 10 l-2818 0 0 -5250z"/>
<path d="M39102 12941 c2 -11 761 -2371 1688 -5245 l1685 -5226 2135 0 2135 0
1700 5231 c935 2876 1701 5236 1703 5244 3 13 -191 15 -1507 15 l-1510 0 -9
-32 c-65 -229 -2456 -8255 -2461 -8260 -3 -4 -532 1839 -1176 4095 -643 2256
-1175 4123 -1183 4150 l-14 47 -1594 0 c-1574 0 -1595 0 -1592 -19z"/>
<path d="M51400 7715 l0 -5245 1480 0 1480 0 0 5245 0 5245 -1480 0 -1480 0 0
-5245z"/>
<path d="M56170 7715 l0 -5246 2743 4 c2780 4 2809 4 3297 42 879 68 1541 237
2055 522 322 179 676 465 978 790 195 209 321 394 462 678 601 1212 784 3196
444 4800 -76 356 -207 789 -324 1065 -131 310 -304 620 -467 837 -636 846
-1455 1335 -2632 1568 -421 83 -882 133 -1531 166 -143 8 -1063 13 -2622 16
l-2403 5 0 -5247z m4765 2931 c459 -57 755 -134 1065 -275 748 -340 1204 -979
1360 -1906 43 -261 54 -414 54 -775 0 -361 -11 -516 -55 -775 -207 -1230 -932
-1942 -2183 -2145 -307 -50 -364 -53 -1238 -57 l-828 -5 0 2982 0 2981 848 -4
c703 -4 869 -7 977 -21z"/>
<path d="M67700 7715 l0 -5245 1480 0 1480 0 -2 5243 -3 5242 -1477 3 -1478 2
0 -5245z"/>
<path d="M75983 12913 c-54 -130 -4106 -10402 -4110 -10421 l-5 -22 1457 2
1458 3 327 925 327 925 2445 3 2446 2 179 -532 c99 -293 240 -712 312 -931
l133 -397 1581 2 c870 2 1582 6 1582 9 0 3 -936 2360 -2080 5238 l-2080 5231
-1978 0 -1978 0 -16 -37z m2835 -4329 c492 -1345 892 -2448 889 -2450 -2 -2
-821 -3 -1820 -2 l-1816 3 922 2447 c507 1346 924 2448 927 2448 3 0 407
-1101 898 -2446z"/>
<path d="M85566 3989 c-411 -45 -715 -292 -818 -664 -30 -110 -32 -383 -4
-489 89 -333 322 -561 665 -654 85 -23 115 -26 266 -26 184 -1 268 14 407 71
161 65 311 186 407 326 199 292 199 739 -1 1038 -188 282 -553 439 -922 398z
m274 -225 c191 -44 358 -178 443 -355 62 -126 81 -226 75 -378 -4 -90 -11
-134 -32 -196 -73 -217 -227 -371 -441 -442 -69 -22 -97 -26 -196 -25 -139 0
-212 17 -329 73 -167 82 -299 251 -346 444 -26 106 -24 288 4 388 72 254 240
423 485 487 90 24 247 26 337 4z"/>
<path d="M85300 3075 l0 -495 110 0 110 0 2 208 3 207 49 0 49 0 117 -205 117
-205 133 -3 132 -3 -20 33 c-11 18 -70 115 -130 215 l-111 182 50 10 c66 14
100 33 136 75 41 46 57 97 57 181 0 87 -16 136 -62 187 -81 90 -163 108 -494
108 l-248 0 0 -495z m492 315 c57 -16 81 -53 76 -118 -8 -93 -47 -111 -235
-112 l-113 0 0 120 0 120 118 0 c64 0 134 -5 154 -10z"/>
</g>
</svg>
