<?xml version="1.0" standalone="no"?>
<!DOCTYPE svg PUBLIC "-//W3C//DTD SVG 20010904//EN"
 "http://www.w3.org/TR/2001/REC-SVG-20010904/DTD/svg10.dtd">
<svg version="1.0" xmlns="http://www.w3.org/2000/svg"
 width="6400.000000pt" height="1600.000000pt" viewBox="0 0 6400.000000 1600.000000"
 preserveAspectRatio="xMidYMid meet">
<metadata>
Created by potrace 1.16, written by Peter Selinger 2001-2019
</metadata>
<g transform="translate(0.000000,1600.000000) scale(0.100000,-0.100000)"
fill="#ffffff" stroke="none">
<path d="M9995 14354 c-108 -9 -281 -27 -380 -41 -60 -8 -139 -19 -175 -24
-215 -29 -680 -140 -875 -209 -27 -9 -81 -28 -120 -40 -38 -13 -83 -28 -100
-35 -16 -7 -66 -27 -110 -43 -466 -176 -989 -469 -1418 -795 -531 -403 -1055
-969 -1384 -1492 -41 -66 -145 -234 -159 -260 -60 -105 -86 -155 -168 -320
-52 -104 -106 -219 -121 -255 -15 -36 -36 -84 -46 -107 -11 -24 -19 -46 -19
-49 0 -3 -6 -20 -14 -37 -38 -87 -111 -297 -156 -447 -12 -41 -26 -86 -30
-100 -4 -14 -12 -43 -18 -65 -6 -22 -18 -67 -26 -100 -31 -117 -97 -443 -110
-545 -3 -25 -10 -74 -16 -110 -47 -320 -63 -867 -35 -1201 22 -267 50 -485 84
-660 33 -165 51 -245 88 -384 19 -71 38 -146 42 -165 8 -35 114 -356 130 -395
16 -37 29 -70 44 -110 20 -55 80 -196 124 -295 166 -374 468 -864 752 -1220
84 -106 310 -358 418 -467 530 -534 1164 -968 1830 -1254 65 -27 127 -54 138
-59 141 -64 513 -185 755 -246 377 -96 910 -174 1182 -174 l87 0 96 -86 c262
-232 608 -479 890 -634 100 -56 357 -185 415 -209 30 -13 73 -31 95 -41 73
-33 149 -60 154 -54 3 3 0 13 -6 22 -139 206 -254 442 -303 622 -7 25 -17 59
-22 75 -15 49 -21 339 -10 484 11 133 25 183 37 125 26 -133 119 -339 228
-504 50 -74 109 -144 204 -238 73 -74 138 -132 144 -130 8 3 11 43 10 124 -3
159 15 273 66 434 28 90 123 284 155 321 15 17 70 44 158 78 74 29 153 60 175
70 22 10 69 31 105 47 105 45 482 238 544 278 31 20 59 36 62 36 10 0 308 192
424 273 406 284 798 642 1104 1007 99 117 247 314 301 399 6 9 36 54 66 101
30 47 71 112 90 145 18 33 42 74 51 90 18 30 162 323 178 360 30 72 39 96 58
145 11 30 29 80 40 110 41 110 107 351 131 480 7 36 17 85 22 110 31 152 52
409 56 700 7 408 -16 665 -94 1090 -26 145 -46 240 -70 335 -9 33 -17 71 -20
85 -18 94 -167 565 -213 675 -41 97 -81 207 -77 211 8 9 269 -144 348 -203 39
-30 74 -51 77 -48 10 9 -22 199 -63 375 -24 100 -99 338 -131 415 -7 17 -23
59 -37 95 -57 154 -256 554 -318 642 -11 14 -19 29 -19 32 0 8 -84 137 -184
281 -244 353 -437 580 -743 875 -154 150 -385 336 -484 392 -22 12 -39 26 -39
31 0 10 196 4 313 -9 69 -8 74 4 15 39 -24 13 -86 50 -138 82 -103 63 -362
198 -450 234 -30 13 -74 32 -97 42 -23 11 -44 19 -48 19 -3 0 -24 9 -48 19
-62 29 -292 108 -417 144 -144 42 -302 77 -515 116 -177 32 -585 38 -740 12
-136 -24 -174 -33 -264 -62 -178 -58 -347 -151 -455 -252 -28 -26 -52 -45 -54
-43 -11 12 65 114 133 178 35 33 227 138 253 138 6 0 23 5 38 10 18 7 24 14
17 21 -15 15 -223 -8 -333 -38 -465 -126 -872 -556 -1000 -1057 -25 -99 -29
-333 -6 -342 7 -3 53 15 102 39 552 277 1178 453 1672 470 50 2 92 0 92 -3 0
-4 -36 -35 -80 -70 -44 -35 -79 -65 -77 -67 2 -2 51 4 108 13 130 20 633 23
749 5 41 -7 118 -19 170 -27 206 -33 401 -94 557 -174 98 -51 222 -130 223
-142 0 -4 -15 -4 -32 0 -89 19 -508 -10 -683 -48 -22 -5 -80 -17 -128 -26 -49
-10 -91 -23 -94 -30 -2 -7 3 -21 12 -32 49 -56 170 -227 242 -341 219 -343
351 -679 403 -1021 36 -231 55 -630 31 -644 -4 -3 -19 6 -32 21 -13 14 -78 73
-144 132 -492 435 -803 616 -1198 696 -105 21 -152 25 -299 25 -172 0 -268 -7
-268 -19 0 -3 28 -19 63 -36 114 -55 264 -183 421 -358 70 -78 81 -105 29 -70
-62 42 -131 66 -288 103 -80 19 -106 17 -71 -4 118 -71 276 -224 350 -340 101
-156 152 -292 177 -471 16 -108 16 -342 1 -357 -8 -8 -21 -2 -46 20 -19 17
-62 49 -95 72 -88 59 -335 179 -346 168 -3 -3 5 -30 19 -59 30 -67 63 -192 76
-290 33 -248 50 -569 30 -569 -5 0 -22 19 -36 42 -104 164 -573 512 -901 668
-86 41 -133 60 -148 60 -7 0 -18 -33 -28 -82 -15 -77 -71 -262 -112 -368 -9
-25 -24 -63 -32 -85 -61 -162 -203 -482 -226 -513 -7 -9 -15 -4 -32 20 -28 42
-45 112 -45 185 0 50 -2 55 -15 43 -18 -19 -72 -184 -85 -263 -6 -34 -17 -93
-25 -132 -8 -38 -15 -86 -15 -105 -1 -19 -6 -64 -13 -100 l-12 -65 -56 70
c-76 94 -165 236 -237 381 -166 329 -253 657 -236 894 l5 75 -66 -70 c-36 -38
-89 -103 -117 -144 -58 -83 -158 -257 -158 -274 -1 -7 -7 -23 -15 -37 l-13
-25 -20 45 c-28 67 -52 231 -52 363 0 64 -3 117 -7 117 -7 0 -80 -104 -118
-168 -6 -9 -36 -56 -68 -104 -31 -48 -57 -89 -57 -91 0 -2 -23 -42 -51 -88
-68 -113 -259 -500 -259 -525 0 -3 -6 -20 -14 -37 -57 -130 -157 -456 -176
-577 -4 -25 -15 -81 -23 -125 -66 -331 -69 -790 -6 -1165 24 -146 69 -344 111
-490 17 -58 34 -118 38 -135 10 -36 86 -252 99 -280 5 -11 26 -63 46 -115 21
-52 48 -117 60 -145 12 -27 26 -59 30 -70 6 -14 11 9 16 75 18 227 54 407 110
554 11 27 19 52 19 57 0 4 16 42 35 83 19 42 35 80 35 85 0 5 7 12 16 15 13 5
15 1 11 -16 -39 -167 5 -641 95 -1013 16 -66 33 -138 38 -160 13 -57 117 -372
141 -422 10 -24 19 -47 19 -52 0 -8 19 -54 66 -159 13 -29 24 -55 24 -57 0 -5
81 -180 123 -265 12 -25 28 -53 36 -63 8 -9 11 -20 8 -24 -21 -20 -628 156
-804 233 -17 8 -34 14 -37 14 -26 0 -505 223 -601 280 -16 9 -55 31 -85 47
-555 303 -1151 812 -1570 1343 -161 203 -341 468 -460 675 -101 178 -240 467
-314 655 -38 96 -73 184 -77 195 -15 35 -91 268 -100 305 -4 19 -19 78 -34
130 -57 214 -111 488 -140 715 -48 383 -48 953 0 1330 33 254 108 624 160 790
6 22 22 74 35 115 27 91 68 218 79 245 5 11 36 92 71 180 74 190 209 471 310
645 40 69 79 138 88 154 24 45 197 302 275 406 225 302 517 617 787 850 41 36
77 67 80 70 69 69 470 360 621 449 201 121 326 190 485 267 105 52 194 94 198
94 3 0 25 9 49 20 83 38 408 160 472 177 11 3 65 19 120 35 145 43 398 102
560 131 304 54 465 70 940 91 33 1 -59 2 -205 2 -146 1 -283 -1 -305 -2z
m2305 -1249 c52 -7 129 -19 170 -25 108 -15 410 -81 550 -119 211 -57 382
-108 419 -125 18 -8 -50 -12 -290 -17 -173 -4 -343 -11 -379 -17 -36 -6 -83
-14 -105 -17 -120 -20 -358 -77 -485 -117 -57 -18 -94 -21 -305 -23 -132 -1
-255 -5 -272 -9 -19 -5 -33 -4 -33 2 0 9 151 86 245 124 28 11 59 24 70 29 30
14 216 59 242 59 12 0 25 5 29 12 5 7 2 9 -8 6 -8 -3 -46 -9 -84 -12 -160 -15
-344 -68 -510 -146 -58 -27 -108 -50 -111 -50 -2 0 -24 -13 -47 -29 -24 -17
-56 -33 -72 -36 -16 -3 -63 -15 -104 -25 -41 -10 -113 -28 -160 -40 -47 -12
-93 -24 -102 -26 -30 -9 -21 18 41 113 121 187 315 348 522 432 139 56 228 69
464 70 140 0 255 -5 315 -14z m-1627 -322 c-14 -32 -32 -69 -39 -83 -34 -68
-67 -172 -73 -230 l-6 -64 -76 -27 c-41 -15 -94 -36 -117 -48 -23 -11 -46 -21
-51 -21 -23 0 76 210 146 311 37 53 211 219 230 219 9 0 4 -19 -14 -57z m2969
-388 c387 -196 803 -572 1154 -1041 89 -120 264 -376 264 -388 0 -3 15 -29 33
-58 110 -174 349 -670 331 -687 -4 -3 -14 5 -23 19 -38 59 -216 263 -309 357
-117 117 -253 238 -347 308 -22 17 -46 36 -54 43 -27 26 -298 201 -401 259
-99 56 -233 123 -380 191 -94 43 -345 138 -477 180 -62 20 -113 40 -113 44 0
21 317 -6 499 -42 56 -11 142 -32 190 -46 131 -39 161 -47 166 -42 7 6 -11 95
-33 169 -74 246 -284 535 -514 706 -48 37 -88 68 -88 70 0 8 19 0 102 -42z
m84 -1338 c243 -131 442 -279 645 -479 183 -179 334 -369 482 -604 131 -209
187 -321 343 -689 18 -44 83 -232 100 -290 39 -137 58 -207 75 -280 31 -129
70 -325 79 -395 5 -36 15 -117 24 -180 46 -342 46 -844 0 -1190 -26 -195 -32
-232 -53 -339 -48 -236 -102 -426 -186 -651 -54 -144 -215 -480 -230 -480 -6
0 -23 35 -37 78 -55 160 -73 207 -82 212 -5 3 -20 -15 -34 -40 -48 -87 -191
-296 -247 -360 -305 -349 -559 -539 -1240 -930 -165 -95 -312 -181 -327 -191
-14 -11 -29 -19 -33 -19 -12 0 -284 -184 -370 -250 -203 -156 -386 -356 -481
-525 -73 -129 -136 -283 -155 -375 -9 -41 -24 -69 -32 -59 -11 11 -88 140
-114 189 -29 55 -67 150 -98 245 -51 155 -65 408 -32 590 18 97 25 121 69 255
79 242 276 578 532 905 39 50 73 92 76 95 3 3 39 46 79 95 41 50 91 108 110
131 20 22 65 74 101 114 36 41 148 167 250 280 175 194 213 237 290 320 108
118 429 488 512 590 337 418 576 785 718 1105 12 28 28 64 36 80 48 108 110
293 134 405 49 227 63 342 64 530 0 139 -14 307 -34 398 -6 23 -15 63 -21 90
-34 150 -96 335 -156 462 -48 102 -105 213 -129 251 -13 21 -24 41 -24 45 0
14 -200 309 -267 394 -113 144 -252 304 -377 435 -42 44 -76 81 -76 83 0 8 28
-4 116 -51z m-1161 -1144 c11 -15 43 -56 71 -92 58 -75 201 -292 255 -388 172
-304 284 -627 323 -928 56 -430 -56 -821 -370 -1294 -27 -40 -60 -90 -73 -110
-52 -78 -271 -362 -428 -554 -196 -240 -180 -221 -268 -327 -367 -441 -651
-838 -827 -1155 -41 -73 -168 -331 -168 -340 0 -3 -9 -24 -19 -48 -82 -183
-159 -466 -193 -707 -17 -123 -17 -477 0 -595 17 -115 50 -284 69 -355 32
-115 119 -365 142 -408 18 -33 14 -47 -8 -31 -27 20 -179 138 -205 159 -313
262 -537 477 -716 690 -30 35 -63 73 -73 85 -77 85 -302 410 -386 555 -56 99
-188 373 -226 470 -60 156 -115 331 -150 475 -9 39 -20 86 -25 105 -60 254
-90 666 -72 1007 16 304 41 488 113 823 17 80 34 156 36 170 3 14 25 96 49
182 24 87 44 164 44 172 0 7 7 19 15 26 13 11 15 8 15 -16 0 -16 7 -65 15
-109 8 -44 19 -114 25 -155 8 -64 40 -250 70 -410 73 -385 146 -596 288 -835
37 -62 81 -120 91 -120 3 0 8 14 12 30 40 173 238 535 413 754 162 203 443
455 642 576 97 58 180 107 229 135 861 480 1240 850 1353 1320 6 25 17 70 24
100 17 73 17 499 0 595 -7 39 -18 99 -24 135 -12 78 -76 361 -93 418 -10 30 6
28 30 -5z m1285 -190 c93 -111 132 -166 182 -263 69 -131 123 -286 139 -400
30 -207 32 -307 8 -495 -16 -135 -79 -392 -110 -447 -5 -10 -9 -23 -9 -29 0
-17 -107 -255 -150 -334 -21 -38 -56 -99 -79 -135 -23 -36 -44 -72 -48 -80 -4
-8 -12 -21 -19 -27 -7 -7 -22 -29 -35 -50 -72 -119 -354 -435 -489 -549 -92
-76 -132 -106 -137 -101 -3 4 8 23 24 44 33 43 153 230 153 239 0 3 8 18 19
32 51 74 208 388 271 542 12 30 30 73 40 95 24 54 124 361 149 460 88 345 122
674 102 991 -13 212 -56 480 -91 562 -19 45 16 22 80 -55z m-2914 -1155 c128
-173 173 -281 174 -419 0 -200 -101 -335 -485 -649 -299 -244 -490 -440 -582
-597 l-28 -48 -3 55 c-9 144 62 334 201 545 57 86 254 355 268 365 20 15 185
275 227 358 75 147 132 334 132 433 0 39 5 59 16 59 2 0 37 -46 80 -102z
m-2047 -386 c59 -183 78 -251 112 -417 24 -118 29 -164 29 -291 0 -137 -3
-161 -29 -251 -27 -96 -83 -219 -191 -422 -91 -173 -186 -402 -214 -516 -7
-28 -17 -59 -23 -70 -15 -25 -19 -13 -27 70 -2 33 -9 107 -15 165 -69 699 -22
1148 168 1595 30 69 134 275 139 275 4 0 27 -62 51 -138z"/>
<path d="M10861 11561 c-49 -13 -73 -41 -73 -87 0 -35 -7 -46 -71 -111 -76
-77 -74 -88 10 -52 159 69 465 154 677 189 131 21 150 26 125 34 -58 18 -614
40 -668 27z"/>
<path d="M9553 11138 c-28 -39 -236 -308 -284 -368 -17 -21 -19 -34 -13 -84 3
-33 15 -75 26 -94 25 -45 112 -162 172 -232 66 -77 87 -131 101 -262 6 -53 4
-60 -20 -82 -23 -21 -152 -104 -180 -115 -43 -17 -96 -67 -121 -115 -16 -30
-26 -58 -22 -61 3 -3 27 7 54 23 135 78 286 122 417 122 68 -1 257 -17 432
-39 180 -22 328 -62 490 -132 11 -4 46 -20 79 -34 32 -14 62 -25 67 -25 5 0 9
14 9 30 0 23 -7 35 -32 50 -44 27 -287 145 -318 155 -14 4 -29 11 -35 15 -5 4
-19 10 -30 13 -11 3 -56 18 -100 34 -85 32 -188 57 -399 98 -152 29 -168 40
-160 99 19 133 38 215 57 244 41 61 160 143 346 237 82 42 95 53 112 89 26 58
25 102 -3 110 -13 4 -90 9 -171 13 -163 7 -384 -9 -530 -37 -48 -9 -90 -13
-93 -8 -3 5 40 96 95 203 99 191 115 237 54 153z"/>
<path d="M19370 8990 c-417 -76 -731 -241 -1041 -550 -233 -231 -382 -465
-475 -749 -124 -372 -123 -752 1 -1127 118 -355 370 -696 695 -940 255 -191
492 -293 838 -358 125 -24 408 -22 543 4 205 39 279 60 425 121 328 136 653
407 877 730 55 79 138 233 167 309 11 30 24 64 29 75 65 148 111 409 111 625
0 214 -49 495 -110 625 -5 11 -19 45 -30 75 -122 320 -440 687 -782 901 -212
133 -422 212 -693 260 -144 25 -416 25 -555 -1z m501 -275 c598 -84 1056 -439
1259 -977 85 -227 105 -341 105 -608 0 -141 -5 -239 -14 -285 -67 -345 -209
-631 -419 -844 -116 -117 -160 -152 -283 -227 -446 -272 -989 -319 -1476 -128
-197 78 -359 180 -502 318 -193 187 -331 417 -406 676 -31 109 -38 139 -64
286 -6 33 -11 125 -11 204 0 79 5 171 11 204 26 148 33 177 65 289 51 177 148
365 270 527 110 146 318 312 509 408 282 142 644 201 956 157z"/>
<path d="M22687 8952 l-57 -58 0 -1777 c0 -1571 2 -1778 15 -1783 8 -4 15 -12
15 -18 0 -7 11 -19 25 -26 14 -7 25 -19 25 -27 0 -9 17 -13 60 -13 58 0 60 1
105 47 l45 48 0 1459 c0 1243 2 1458 14 1446 7 -8 53 -91 101 -185 48 -93 116
-224 150 -290 60 -114 112 -216 283 -545 41 -80 103 -199 137 -265 34 -66 106
-205 160 -310 54 -104 123 -239 155 -300 55 -105 83 -158 303 -585 211 -408
213 -411 267 -466 73 -74 97 -74 172 4 45 46 75 95 158 257 57 110 124 241
150 290 26 50 98 189 160 310 62 121 138 270 170 330 32 61 104 200 160 310
56 110 129 250 160 310 32 61 106 205 165 320 59 116 133 260 165 320 32 61
101 196 155 300 53 105 101 194 106 199 5 6 9 -227 9 -570 0 -318 3 -975 6
-1459 5 -731 9 -881 20 -888 8 -4 14 -14 14 -21 0 -7 11 -19 25 -26 14 -7 25
-19 25 -27 0 -9 17 -13 60 -13 60 0 62 1 105 47 l45 47 0 1772 0 1771 -62 61
c-80 81 -96 81 -174 3 -42 -42 -73 -87 -109 -158 -27 -54 -93 -181 -146 -283
-52 -102 -151 -293 -219 -425 -67 -132 -139 -271 -160 -310 -21 -38 -93 -178
-160 -310 -68 -132 -148 -289 -180 -350 -31 -60 -101 -195 -155 -300 -54 -104
-128 -248 -165 -320 -37 -71 -123 -238 -191 -370 -186 -362 -213 -413 -223
-417 -5 -2 -26 29 -45 67 -20 39 -83 160 -140 270 -57 110 -132 254 -166 320
-34 66 -102 197 -150 290 -48 94 -116 224 -150 290 -34 66 -102 197 -150 290
-134 260 -232 450 -290 560 -49 93 -112 215 -357 690 -54 105 -122 237 -151
295 -37 75 -69 122 -112 167 -81 84 -100 84 -178 5z"/>
<path d="M27909 8950 l-59 -59 0 -1774 c0 -1568 2 -1776 15 -1781 8 -3 15 -12
15 -19 0 -7 11 -20 25 -27 14 -7 25 -19 25 -27 0 -9 17 -13 62 -13 62 0 63 0
110 50 l48 50 0 1563 1 1562 32 -35 c26 -29 195 -232 317 -383 14 -17 61 -73
105 -126 44 -53 154 -186 245 -296 183 -222 192 -234 236 -284 16 -20 136
-164 264 -321 129 -157 320 -388 425 -515 105 -126 253 -306 330 -400 77 -93
142 -172 145 -175 3 -3 109 -131 236 -285 126 -154 257 -308 291 -342 82 -83
100 -84 182 -5 l61 59 0 1774 0 1774 -45 48 c-43 44 -49 47 -97 47 -49 0 -54
-3 -100 -50 l-48 -50 0 -508 c0 -850 -13 -2612 -19 -2611 -3 0 -58 64 -121
141 -63 78 -194 237 -290 353 -96 117 -255 308 -352 426 -97 118 -190 229
-205 248 -15 19 -75 91 -132 160 -58 69 -168 203 -244 296 -77 94 -143 172
-147 175 -3 3 -13 14 -21 26 -16 23 -75 95 -130 158 -19 23 -140 169 -269 326
-129 157 -248 301 -264 321 -17 19 -40 46 -51 60 -11 13 -94 114 -184 224 -90
110 -189 224 -220 252 -76 72 -96 71 -172 -7z"/>
<path d="M32500 8997 c0 -8 -11 -20 -25 -27 -14 -7 -25 -20 -25 -27 0 -7 -7
-16 -15 -19 -13 -5 -15 -214 -15 -1794 0 -1580 2 -1789 15 -1794 8 -3 15 -12
15 -19 0 -7 11 -20 25 -27 14 -7 25 -19 25 -27 0 -9 17 -13 60 -13 58 0 60 1
105 47 l45 48 0 1786 0 1786 -47 46 c-45 45 -50 47 -105 47 -42 0 -58 -4 -58
-13z"/>
<path d="M35050 9003 c-370 -61 -601 -156 -822 -340 -120 -100 -230 -229 -286
-338 -61 -117 -83 -204 -83 -327 0 -141 52 -247 193 -394 153 -159 350 -279
659 -402 147 -59 118 -49 634 -222 456 -154 619 -215 778 -295 268 -135 355
-232 365 -405 5 -90 -13 -171 -59 -262 -113 -223 -490 -416 -924 -473 -473
-61 -995 63 -1287 307 -103 86 -188 263 -188 390 0 64 0 64 -50 111 -45 43
-54 47 -99 47 -41 0 -54 -5 -85 -33 -20 -18 -36 -38 -36 -44 0 -6 -7 -13 -15
-17 -20 -7 -20 -74 1 -174 52 -254 315 -536 648 -697 174 -84 288 -118 556
-166 154 -28 458 -27 623 2 362 62 619 171 847 358 171 141 297 308 341 454
18 57 20 87 17 195 -3 121 -5 130 -37 192 -117 228 -380 423 -796 590 -71 28
-139 56 -150 61 -28 12 -232 81 -580 197 -496 165 -713 257 -882 374 -129 89
-176 178 -174 327 3 246 154 443 436 572 409 186 921 185 1334 -2 271 -123
430 -329 431 -558 0 -63 0 -64 53 -117 49 -51 55 -54 102 -54 47 0 54 3 98 48
l47 48 0 73 c0 138 -65 300 -175 438 -208 260 -517 441 -865 508 -47 9 -107
20 -133 26 -46 9 -385 11 -437 2z"/>
<path d="M39055 8999 c-171 -31 -231 -45 -322 -75 -291 -96 -517 -232 -741
-449 -252 -242 -414 -494 -512 -795 -114 -348 -113 -753 1 -1104 90 -275 231
-504 453 -734 293 -304 615 -481 1024 -563 128 -26 165 -29 328 -29 186 0 240
6 439 52 361 81 717 275 979 532 109 107 179 190 230 275 l38 61 -48 45 c-46
44 -49 45 -113 45 l-67 0 -50 -52 c-28 -29 -67 -76 -88 -105 -92 -130 -291
-279 -507 -382 -662 -315 -1377 -236 -1897 208 -166 142 -344 419 -418 651
-14 47 -30 94 -35 105 -7 18 -20 80 -48 241 -14 78 -14 330 0 408 28 161 41
223 48 241 5 11 21 58 35 105 84 261 262 525 467 690 286 230 659 360 1033
360 520 0 1085 -252 1322 -591 30 -42 72 -93 94 -113 36 -32 46 -36 95 -36 53
0 58 2 106 49 l51 48 -22 44 c-88 174 -309 398 -537 545 -337 219 -730 335
-1118 333 -93 -1 -192 -5 -220 -10z"/>
<path d="M42008 8959 l-48 -48 0 -1781 0 -1781 50 -49 c48 -47 54 -50 103 -50
50 0 55 3 100 48 l47 48 0 1785 0 1785 -48 47 c-46 45 -50 47 -102 46 -52 -1
-58 -4 -102 -50z"/>
<path d="M43701 8958 c-29 -28 -57 -62 -62 -75 -12 -32 -12 -3474 0 -3505 5
-13 32 -47 60 -75 l52 -53 1430 0 1429 0 12 25 c6 14 17 25 24 25 23 0 35 39
32 103 -3 53 -6 63 -25 72 -12 5 -26 19 -32 32 l-11 23 -1337 2 -1338 3 0 725
0 725 1338 3 1337 2 0 24 c0 19 6 25 28 28 l27 3 0 85 0 85 -27 3 c-22 3 -28
9 -28 28 l0 24 -1337 2 -1338 3 0 725 0 725 1338 3 1337 2 11 23 c6 13 20 27
32 32 40 18 34 175 -7 175 -7 0 -18 11 -24 25 l-12 25 -1428 0 -1428 0 -53
-52z"/>
<path d="M47838 8952 l-58 -59 0 -1775 c0 -1569 2 -1777 15 -1782 8 -3 15 -12
15 -19 0 -7 11 -20 25 -27 14 -7 25 -19 25 -27 0 -9 17 -13 60 -13 58 0 62 2
105 46 l45 45 0 1565 c0 1248 3 1565 13 1562 6 -3 77 -83 157 -180 80 -96 271
-328 425 -514 331 -401 312 -378 351 -423 16 -20 135 -164 264 -321 129 -157
248 -301 264 -321 17 -19 49 -57 71 -84 22 -26 152 -184 288 -349 137 -166
360 -436 495 -601 136 -165 274 -328 308 -362 82 -83 101 -84 183 -5 l60 58 3
1774 3 1775 -45 47 c-44 46 -46 47 -107 48 -46 0 -63 -4 -63 -13 0 -8 -11 -20
-25 -27 -14 -7 -25 -20 -25 -27 0 -7 -7 -16 -15 -19 -13 -5 -15 -103 -15 -798
0 -971 -11 -2336 -19 -2336 -3 1 -63 72 -134 158 -70 86 -140 171 -155 189
-15 18 -49 60 -77 94 -27 33 -68 82 -90 108 -22 26 -79 94 -126 152 -47 57
-170 207 -275 333 -104 125 -202 245 -219 266 -16 21 -135 164 -263 319 -128
155 -241 291 -250 303 -9 12 -33 40 -53 62 -19 23 -46 55 -60 72 -13 17 -127
156 -254 309 -126 153 -243 294 -260 315 -148 185 -368 445 -414 487 -76 72
-96 71 -173 -5z"/>
<path d="M53610 9004 c-194 -36 -265 -53 -378 -90 -275 -91 -497 -230 -725
-453 -318 -310 -483 -614 -563 -1036 -25 -128 -24 -463 0 -595 76 -407 247
-723 557 -1027 304 -299 611 -456 1049 -537 114 -21 418 -22 526 -1 244 47
316 67 492 136 285 113 588 326 772 545 70 83 150 199 150 218 0 5 -19 30 -42
53 -41 42 -44 43 -109 43 l-66 0 -51 -52 c-28 -29 -66 -73 -83 -98 -131 -182
-405 -365 -704 -470 -473 -166 -955 -143 -1369 66 -322 163 -522 368 -678 692
-60 126 -60 125 -92 222 -111 342 -98 784 33 1115 4 11 31 68 59 127 143 299
337 506 618 660 424 234 912 271 1399 107 315 -106 583 -284 719 -478 30 -43
76 -97 101 -120 46 -42 48 -43 106 -39 55 4 62 8 104 51 l46 46 -20 38 c-101
196 -379 464 -625 603 -226 127 -400 191 -666 247 -107 22 -154 26 -330 29
-113 1 -216 0 -230 -2z"/>
<path d="M56505 8977 c-16 -17 -42 -47 -57 -66 l-28 -35 0 -1751 0 -1751 58
-62 57 -62 1448 0 1447 0 0 25 c0 20 5 25 25 25 25 0 25 1 25 90 0 89 0 90
-25 90 -20 0 -25 5 -25 25 l0 25 -1352 2 -1353 3 0 725 0 725 1353 3 1352 2 0
25 c0 20 5 25 25 25 25 0 25 1 25 90 0 89 0 90 -25 90 -20 0 -25 5 -25 25 l0
25 -1352 2 -1353 3 0 725 0 725 1353 3 1352 2 0 25 c0 20 5 25 25 25 25 0 25
1 25 90 0 89 0 90 -25 90 -20 0 -25 5 -25 25 l0 25 -1447 0 -1448 -1 -30 -32z"/>
</g>
</svg>
