<?xml version="1.0" standalone="no"?>
<!DOCTYPE svg PUBLIC "-//W3C//DTD SVG 20010904//EN"
 "http://www.w3.org/TR/2001/REC-SVG-20010904/DTD/svg10.dtd">
<svg version="1.0" xmlns="http://www.w3.org/2000/svg"
 width="5900.000000pt" height="1600.000000pt" viewBox="0 0 5900.000000 1600.000000"
 preserveAspectRatio="xMidYMid meet">
<metadata>
Created by potrace 1.16, written by Peter Selinger 2001-2019
</metadata>
<g transform="translate(0.000000,1600.000000) scale(0.100000,-0.100000)"
fill="#ffffff" stroke="none">
<path d="M6920 15994 c-19 -2 -91 -9 -160 -15 -450 -38 -987 -191 -1403 -401
-935 -468 -1672 -1300 -2002 -2261 -33 -95 -41 -108 -64 -113 -1241 -275
-2239 -1066 -2787 -2209 -188 -392 -304 -785 -365 -1230 -29 -214 -37 -650
-15 -875 79 -833 388 -1579 918 -2219 57 -69 101 -130 100 -135 -68 -208 -138
-518 -166 -741 -108 -839 57 -1698 469 -2442 506 -912 1297 -1570 2280 -1899
641 -213 1387 -261 2031 -128 l72 14 133 -136 c903 -921 2156 -1343 3449
-1163 1062 148 2028 721 2669 1582 238 319 410 636 552 1017 l57 154 94 22
c973 223 1834 811 2397 1639 376 553 596 1136 688 1820 25 186 25 764 0 947
-113 834 -416 1526 -939 2144 -42 51 -75 93 -73 96 2 2 22 66 45 143 294 1008
169 2114 -345 3042 -444 799 -1116 1413 -1940 1771 -736 320 -1605 414 -2371
256 l-72 -14 -133 136 c-693 707 -1573 1115 -2573 1194 -118 9 -462 11 -546 4z
m570 -1059 c375 -42 766 -163 1090 -338 172 -93 490 -311 490 -335 0 -4 -12
-14 -28 -23 -1102 -632 -3272 -1892 -3311 -1922 -62 -48 -128 -139 -162 -224
l-24 -58 -3 -2304 c-2 -2183 -3 -2303 -20 -2296 -9 3 -109 59 -222 125 -113
65 -410 236 -660 380 -250 144 -461 269 -468 278 -18 23 -12 3932 6 4062 50
352 116 597 237 878 273 631 781 1165 1405 1478 329 165 718 276 1075 307 117
10 473 5 595 -8z m3910 -1260 c670 -93 1280 -399 1745 -876 155 -158 237 -260
350 -429 249 -374 406 -782 477 -1233 36 -229 31 -784 -8 -920 -6 -21 26 -37
-324 165 -118 68 -377 218 -575 333 -198 114 -610 352 -915 528 -305 176 -638
369 -740 427 -653 377 -764 440 -817 461 -81 32 -261 34 -343 3 -30 -12 -937
-530 -2014 -1153 -1078 -622 -1961 -1131 -1963 -1131 -2 0 -2 356 -1 792 l3
792 1625 939 c894 516 1702 976 1795 1022 328 162 672 260 1036 295 136 13
533 4 669 -15z m-8280 -3543 c0 -2126 -4 -1979 63 -2106 64 -124 100 -149 702
-496 303 -174 1137 -656 1855 -1070 718 -415 1353 -781 1412 -814 59 -34 108
-64 108 -67 0 -6 -1321 -772 -1353 -785 -11 -4 -97 41 -249 129 -128 74 -438
253 -688 397 -595 344 -1719 993 -2085 1205 -159 92 -333 195 -385 230 -764
506 -1245 1319 -1331 2249 -16 176 -6 512 20 686 147 964 737 1788 1596 2227
134 69 301 142 323 143 9 0 12 -392 12 -1928z m8606 148 c1793 -1035 1740
-1004 1884 -1108 404 -294 711 -662 931 -1117 206 -427 299 -833 299 -1310 0
-220 -16 -390 -56 -589 -178 -893 -760 -1661 -1574 -2075 -133 -68 -299 -141
-319 -141 -8 0 -11 580 -11 1928 0 2120 4 1975 -61 2105 -42 83 -133 169 -245
233 -49 28 -267 153 -484 279 -453 262 -441 254 -1265 730 -341 197 -672 388
-735 425 -63 36 -387 223 -720 415 -333 191 -611 354 -618 360 -11 10 106 81
565 346 318 183 623 360 678 391 55 32 107 56 116 54 9 -2 736 -419 1615 -926z
m-2861 -778 l860 -497 0 -1005 0 -1004 -862 -498 -863 -498 -747 432 c-412
237 -800 461 -863 498 l-115 66 0 1004 0 1003 80 47 c44 26 179 104 300 174
121 69 472 272 780 451 308 178 562 324 565 324 3 0 392 -224 865 -497z m2286
-1321 l674 -389 0 -2024 0 -2023 -23 -144 c-104 -655 -384 -1204 -851 -1672
-476 -476 -1030 -753 -1705 -855 -142 -21 -524 -30 -683 -15 -553 52 -1082
256 -1520 586 -59 44 -108 85 -110 90 -2 6 131 87 295 182 384 221 1265 730
2092 1208 360 208 710 410 778 449 68 39 147 90 176 112 60 47 123 137 158
222 l23 57 3 2303 c1 1266 6 2302 11 2302 4 0 311 -175 682 -389z m-1423
-2823 l-3 -792 -1615 -934 c-912 -527 -1693 -972 -1795 -1022 -455 -224 -905
-322 -1410 -307 -525 17 -1012 160 -1466 433 -222 133 -402 277 -599 480 -472
485 -768 1125 -831 1797 -20 215 3 752 33 782 4 4 60 -25 125 -63 234 -138
3149 -1820 3190 -1841 111 -56 280 -65 398 -20 33 12 103 47 155 77 409 236
1279 738 1380 797 278 160 718 415 940 543 129 74 287 165 350 202 63 37 264
153 445 257 182 105 411 238 510 296 99 58 183 105 188 106 4 1 6 -355 5 -791z"/>
<path d="M22101 12739 c-413 -26 -832 -119 -1216 -270 -164 -64 -462 -217
-614 -314 -487 -311 -880 -711 -1202 -1224 -162 -257 -345 -654 -447 -971
-298 -923 -331 -2027 -88 -2995 197 -784 567 -1456 1091 -1981 306 -306 587
-511 960 -699 430 -217 840 -335 1370 -397 172 -20 715 -17 895 5 521 65 943
192 1366 412 347 180 617 378 905 665 259 258 459 519 644 840 578 1001 768
2354 510 3625 -207 1018 -718 1892 -1450 2481 -744 597 -1705 888 -2724 823z
m563 -1364 c1017 -119 1772 -851 2061 -1997 79 -310 114 -590 122 -963 6 -293
-4 -501 -38 -744 -170 -1226 -822 -2088 -1785 -2360 -315 -89 -696 -110 -1034
-56 -538 87 -1012 359 -1374 790 -341 405 -574 976 -665 1626 -60 433 -52 979
20 1409 219 1296 1016 2162 2112 2294 154 19 425 19 581 1z"/>
<path d="M50701 12598 c-5 -13 -736 -1944 -1626 -4293 -890 -2348 -1620 -4278
-1623 -4288 -4 -16 37 -17 756 -17 714 0 760 1 767 18 3 9 165 445 360 967
194 523 357 958 360 968 7 16 103 17 1867 15 l1860 -3 371 -982 371 -983 774
0 c615 0 773 3 769 13 -2 6 -732 1934 -1622 4282 -890 2349 -1622 4282 -1627
4298 l-10 27 -869 0 -869 0 -9 -22z m1533 -3491 c372 -978 676 -1782 676
-1788 0 -11 -2700 -13 -2700 -1 -1 21 1335 3581 1341 3575 4 -5 312 -808 683
-1786z"/>
<path d="M56650 8280 l0 -4310 765 0 765 0 0 4310 0 4310 -765 0 -765 0 0
-4310z"/>
<path d="M30455 10410 c-597 -60 -1085 -288 -1462 -684 l-93 -97 0 336 0 335
-720 0 -720 0 0 -4230 0 -4230 720 0 720 0 0 1407 0 1406 133 -129 c191 -187
338 -294 555 -403 233 -117 476 -190 777 -233 140 -20 591 -17 740 5 540 80
998 293 1375 641 682 628 1051 1666 999 2814 -57 1267 -617 2295 -1509 2771
-259 137 -561 234 -870 276 -136 19 -517 27 -645 15z m160 -1260 c199 -22 364
-69 520 -147 479 -241 772 -720 872 -1423 14 -99 18 -192 18 -440 -1 -328 -8
-417 -55 -647 -111 -538 -382 -953 -765 -1173 -367 -209 -899 -250 -1320 -100
-469 167 -804 562 -946 1115 -55 213 -61 273 -66 730 -5 464 1 572 43 783 133
669 540 1127 1126 1267 178 42 389 55 573 35z"/>
<path d="M37041 10409 c-691 -57 -1313 -340 -1786 -814 -754 -753 -1080 -1946
-870 -3179 55 -320 191 -723 336 -995 232 -434 569 -809 956 -1064 375 -247
784 -395 1278 -463 183 -26 677 -26 850 -1 258 38 452 84 651 155 565 204
1015 556 1352 1061 93 140 281 506 266 521 -9 9 -1226 472 -1228 468 -1 -2 -9
-28 -20 -58 -29 -89 -109 -251 -166 -336 -68 -102 -253 -285 -355 -353 -471
-310 -1160 -345 -1671 -86 -421 214 -721 619 -859 1159 -18 72 -40 181 -49
241 -9 61 -19 122 -21 138 l-4 27 2211 0 2211 0 -6 393 c-5 384 -12 496 -43
707 -168 1165 -819 2019 -1782 2339 -377 126 -820 175 -1251 140z m580 -1228
c612 -105 996 -546 1043 -1198 l5 -73 -1445 0 c-1369 0 -1444 1 -1444 18 0 9
21 78 46 152 221 662 673 1048 1309 1120 115 13 353 3 486 -19z"/>
<path d="M44185 10414 c-327 -34 -569 -99 -821 -223 -237 -117 -423 -252 -616
-449 l-108 -109 0 333 0 334 -720 0 -720 0 0 -3150 0 -3150 720 0 720 0 3
1958 c3 1951 3 1957 24 2053 82 371 268 656 548 841 231 153 459 221 740 221
254 -1 446 -53 620 -168 263 -174 422 -492 464 -929 7 -73 11 -749 11 -2043
l0 -1933 720 0 720 0 0 2148 c0 1320 -4 2191 -10 2262 -42 495 -186 906 -432
1238 -305 412 -748 664 -1313 748 -96 14 -468 26 -550 18z"/>
</g>
</svg>
