<?xml version="1.0" standalone="no"?>
<!DOCTYPE svg PUBLIC "-//W3C//DTD SVG 20010904//EN"
 "http://www.w3.org/TR/2001/REC-SVG-20010904/DTD/svg10.dtd">
<svg version="1.0" xmlns="http://www.w3.org/2000/svg"
 width="6659.000000pt" height="1600.000000pt" viewBox="0 0 6659.000000 1600.000000"
 preserveAspectRatio="xMidYMid meet">
<metadata>
Created by potrace 1.16, written by Peter Selinger 2001-2019
</metadata>
<g transform="translate(0.000000,1600.000000) scale(0.100000,-0.100000)"
fill="#ffffff" stroke="none">
<path d="M6020 13853 l0 -2148 -2105 2105 -2105 2105 0 -2268 0 -2267 -905 0
-905 0 0 -3240 0 -3240 905 0 905 0 0 -2282 1 -2283 2104 2110 2104 2110 1
-2277 0 -2278 225 0 225 0 0 2282 0 2283 2108 -2108 c1159 -1159 2110 -2107
2115 -2107 4 0 7 1024 7 2275 l0 2275 905 0 905 0 0 3240 0 3240 -905 0 -905
0 0 2267 0 2268 -2115 -2115 -2115 -2115 0 2158 0 2157 -225 0 -225 0 0 -2147z
m4230 -743 l0 -1730 -1727 0 -1727 0 1725 1729 c948 951 1725 1729 1727 1730
1 0 2 -777 2 -1729z m-4540 -1727 c0 -2 -776 -3 -1725 -3 l-1725 0 0 1727 0
1728 1725 -1725 c949 -949 1725 -1726 1725 -1727z m-1948 -2406 l-1952 -1952
0 -838 0 -837 -685 0 -685 0 0 2790 0 2790 2637 0 2638 0 -1953 -1953z m8298
-837 l0 -2790 -680 0 -680 0 0 835 0 836 -1952 1954 -1951 1955 2631 0 2632 0
0 -2790z m-1810 -4010 l0 -2715 -1885 1885 -1885 1885 0 2715 0 2715 1885
-1885 1885 -1885 0 -2715z m-4230 3760 l0 -2710 -1880 -1883 -1879 -1882 -1
2715 0 2715 1877 1877 c1033 1033 1879 1878 1880 1878 2 0 3 -1220 3 -2710z"/>
<path d="M41357 13953 c-4 -3 -7 -1936 -7 -4295 l0 -4288 540 0 540 0 0 4295
0 4295 -533 0 c-294 0 -537 -3 -540 -7z"/>
<path d="M55190 12920 l0 -670 630 0 630 0 0 670 0 670 -630 0 -630 0 0 -670z"/>
<path d="M57900 12405 l0 -835 -585 0 -585 0 0 -455 0 -455 585 0 584 0 4
-1807 3 -1808 22 -139 c56 -343 150 -605 295 -821 247 -369 644 -597 1182
-680 195 -29 326 -35 843 -35 l522 0 0 475 0 475 -407 0 c-464 0 -720 -10
-1042 -41 -124 -11 -245 -18 -269 -14 -60 9 -116 60 -131 120 -9 37 -7 89 9
265 37 398 40 541 40 2288 l0 1722 769 0 769 0 -151 455 -152 455 -617 0 -618
0 0 835 0 835 -535 0 -535 0 0 -835z"/>
<path d="M27130 11739 c-1026 -75 -1831 -520 -2340 -1295 -328 -499 -499
-1074 -530 -1778 -32 -735 106 -1403 400 -1936 293 -533 717 -932 1273 -1200
356 -172 697 -266 1162 -322 149 -18 748 -18 910 0 611 68 1072 239 1452 539
104 82 350 333 453 463 181 227 351 520 453 780 45 116 89 247 102 308 l7 32
-567 -2 -568 -3 -48 -119 c-99 -245 -215 -422 -394 -602 -265 -266 -554 -393
-1010 -446 -161 -18 -551 -15 -705 6 -499 68 -880 246 -1186 553 -350 352
-541 797 -599 1391 l-6 62 2486 0 2485 0 0 348 c-1 581 -22 834 -95 1137 -185
770 -617 1352 -1282 1729 -320 181 -720 302 -1148 346 -142 15 -558 20 -705 9z
m632 -964 c419 -49 713 -176 943 -409 209 -210 345 -480 409 -814 24 -126 46
-332 46 -438 l0 -54 -1877 2 -1878 3 3 30 c9 84 59 295 98 415 106 323 291
612 520 812 282 246 649 403 1061 453 152 18 519 18 675 0z"/>
<path d="M37630 11740 c-791 -66 -1357 -375 -1748 -956 -22 -34 -71 -115 -107
-180 -36 -66 -78 -129 -93 -141 -31 -26 -88 -30 -118 -9 -18 14 -19 33 -22
565 l-2 551 -535 0 -535 0 0 -4235 0 -4235 535 0 535 0 0 1674 0 1673 21 27
c29 37 77 36 122 -4 19 -16 56 -71 83 -122 258 -488 677 -847 1184 -1018 614
-206 1402 -184 2022 56 154 59 426 198 548 279 432 287 774 688 1016 1190 164
339 260 697 311 1155 23 214 23 704 -1 920 -56 510 -182 935 -388 1305 -210
379 -486 702 -796 937 -387 291 -885 489 -1393 553 -150 19 -495 27 -639 15z
m410 -974 c374 -57 715 -204 985 -426 96 -79 259 -249 328 -341 249 -338 388
-748 428 -1262 14 -180 6 -541 -15 -702 -72 -551 -266 -976 -596 -1305 -324
-324 -710 -505 -1220 -572 -141 -18 -508 -15 -660 6 -406 55 -748 198 -1041
434 -119 96 -272 262 -354 386 -181 272 -282 577 -337 1021 -18 141 -17 785 0
930 79 643 280 1060 669 1385 292 243 600 380 1008 446 209 33 584 33 805 0z"/>
<path d="M45845 11744 c-110 -7 -338 -35 -450 -55 -1045 -182 -1846 -833
-2230 -1813 -266 -678 -317 -1616 -130 -2382 137 -558 396 -1028 779 -1410
229 -227 454 -388 751 -535 532 -262 1063 -370 1749 -356 582 12 993 98 1391
292 260 126 437 256 660 486 358 369 600 772 746 1248 16 51 29 100 29 107 0
12 -89 14 -566 12 l-566 -3 -34 -90 c-159 -411 -429 -733 -754 -899 -227 -116
-454 -172 -801 -197 -527 -38 -1053 73 -1419 300 -522 325 -838 858 -925 1561
-8 68 -15 132 -15 142 0 17 109 18 2480 18 l2480 0 0 465 c0 516 -9 652 -60
905 -53 263 -129 487 -250 735 -217 447 -540 796 -987 1067 -334 203 -725 330
-1173 383 -130 15 -578 27 -705 19z m700 -984 c535 -90 874 -326 1090 -759
111 -223 172 -481 191 -813 l7 -118 -1881 0 -1881 0 5 33 c50 273 108 464 200
656 263 551 734 892 1383 1002 241 41 641 40 886 -1z"/>
<path d="M20761 11730 c-547 -43 -998 -211 -1346 -502 -206 -171 -388 -398
-529 -660 -57 -105 -92 -138 -146 -138 -73 0 -70 -23 -70 587 l0 543 -540 0
-540 0 0 -4235 0 -4235 540 0 540 0 0 1680 c0 1667 0 1680 20 1700 11 11 33
20 49 20 53 0 90 -38 163 -170 120 -215 229 -360 394 -522 166 -163 320 -272
529 -373 347 -168 723 -245 1190 -245 439 0 825 81 1226 256 312 137 583 321
822 559 364 363 639 830 782 1329 71 250 112 484 136 780 15 193 6 714 -15
886 -78 617 -257 1094 -580 1549 -282 397 -616 682 -1041 891 -311 152 -602
240 -950 285 -147 19 -480 27 -634 15z m433 -979 c447 -80 773 -240 1074 -526
326 -310 533 -734 612 -1250 76 -499 36 -1049 -106 -1475 -107 -319 -266 -574
-500 -800 -171 -165 -303 -257 -514 -359 -301 -144 -596 -205 -995 -205 -233
0 -334 9 -533 49 -588 119 -1089 495 -1333 1001 -104 216 -181 511 -215 824
-21 187 -24 665 -6 845 61 601 227 1009 540 1328 320 325 704 511 1202 581
163 23 616 16 774 -13z"/>
<path d="M33340 11583 c-97 -10 -248 -37 -332 -59 -267 -71 -447 -171 -624
-348 -150 -149 -246 -307 -324 -533 -41 -117 -63 -143 -125 -143 -32 0 -51 6
-65 20 -19 19 -20 33 -20 535 l0 515 -540 0 -540 0 0 -3100 0 -3100 540 0 539
0 4 1928 c4 2073 1 1954 52 2187 38 171 117 364 201 492 151 227 410 394 742
477 212 54 273 59 790 63 l482 5 0 534 0 534 -372 -2 c-205 0 -389 -3 -408 -5z"/>
<path d="M48990 11450 l0 -121 1010 -1341 1010 -1340 -38 -47 c-21 -25 -575
-708 -1230 -1518 l-1192 -1472 0 -120 0 -121 604 0 603 0 973 1238 c535 680
976 1240 980 1245 3 4 418 -553 920 -1238 l915 -1245 582 0 583 0 0 118 -1
117 -1069 1429 c-589 786 -1070 1432 -1070 1435 0 3 522 647 1160 1431 l1160
1424 0 123 0 123 -607 0 -608 -1 -905 -1154 c-498 -635 -907 -1154 -910 -1154
-3 0 -383 519 -845 1154 l-840 1154 -592 1 -593 0 0 -120z"/>
<path d="M55310 8470 l0 -3100 535 0 535 0 0 3100 0 3100 -535 0 -535 0 0
-3100z"/>
<path d="M61434 8858 c496 -1492 960 -2887 1031 -3100 l129 -387 411 -3 c456
-3 443 -1 485 -71 42 -69 35 -97 -156 -615 -97 -262 -185 -499 -196 -525 -26
-59 -101 -129 -159 -146 -61 -19 -181 -15 -404 10 -172 20 -255 22 -892 26
l-703 5 0 -477 0 -477 758 5 c815 5 856 7 1129 62 441 90 795 296 1045 611
124 156 260 395 353 619 21 50 553 1633 1181 3520 l1144 3430 0 112 0 113
-514 0 -514 0 -45 -132 c-964 -2819 -1749 -5103 -1760 -5125 -33 -62 -87 -93
-163 -93 -82 0 -143 43 -174 125 -7 17 -399 1160 -872 2540 -473 1381 -873
2549 -890 2598 l-31 87 -547 0 -548 0 902 -2712z"/>
</g>
</svg>
