<?xml version="1.0" standalone="no"?>
<!DOCTYPE svg PUBLIC "-//W3C//DTD SVG 20010904//EN"
 "http://www.w3.org/TR/2001/REC-SVG-20010904/DTD/svg10.dtd">
<svg version="1.0" xmlns="http://www.w3.org/2000/svg"
 width="9600.000000pt" height="1600.000000pt" viewBox="0 0 9600.000000 1600.000000"
 preserveAspectRatio="xMidYMid meet">
<metadata>
Created by potrace 1.16, written by Peter Selinger 2001-2019
</metadata>
<g transform="translate(0.000000,1600.000000) scale(0.100000,-0.100000)"
fill="#ffffff" stroke="none">
<path d="M20005 14310 c-71 -10 -540 -127 -847 -211 -1137 -311 -2069 -692
-2878 -1177 -201 -120 -330 -207 -1180 -793 -1689 -1166 -3084 -2118 -4310
-2946 -1079 -728 -1112 -748 -1292 -808 -344 -114 -611 8 -796 363 -65 126
-104 232 -196 537 -253 840 -492 1393 -812 1878 -578 874 -1384 1361 -2469
1492 -164 20 -378 16 -495 -9 -274 -59 -495 -196 -629 -390 -153 -221 -196
-444 -156 -806 22 -201 16 -443 -14 -595 -44 -218 -78 -299 -367 -870 -413
-818 -526 -1074 -686 -1560 -153 -466 -186 -591 -195 -756 -19 -324 159 -505
552 -564 55 -8 123 -15 152 -15 44 0 58 -5 87 -30 18 -17 42 -47 51 -67 17
-35 17 -39 0 -92 -40 -129 -67 -161 -244 -296 -765 -581 -1311 -1205 -1654
-1891 -131 -263 -251 -582 -302 -809 -92 -408 -34 -801 168 -1138 194 -322
535 -595 867 -693 51 -15 96 -19 210 -19 131 1 153 3 226 28 44 15 121 52 170
83 373 237 524 311 1299 639 342 144 621 279 810 390 72 42 238 130 370 195
261 129 349 188 405 270 28 42 35 63 38 115 14 215 -209 541 -599 875 -195
167 -256 232 -341 360 -344 525 -758 1502 -833 1970 -21 133 -19 173 15 307
103 398 273 769 631 1379 438 745 576 1015 705 1378 60 169 84 210 154 265 97
77 227 105 358 77 135 -28 182 -80 182 -199 0 -37 -40 -284 -94 -588 -314
-1740 -348 -1941 -344 -2021 8 -134 62 -188 233 -232 113 -30 179 -66 213
-116 21 -31 23 -44 19 -103 -4 -59 -14 -86 -85 -230 -107 -214 -123 -269 -129
-432 -6 -156 8 -229 69 -354 31 -66 57 -101 117 -160 114 -114 228 -161 386
-161 100 0 180 19 301 71 146 62 223 62 294 3 48 -41 59 -89 69 -309 17 -344
69 -498 190 -562 130 -69 319 12 646 277 66 54 136 105 155 115 19 10 163 64
320 120 599 215 782 288 1058 421 205 98 314 159 482 269 367 240 664 539 860
865 80 132 111 172 155 198 89 50 415 134 690 177 370 57 640 71 1605 85 681
10 797 15 1085 46 371 39 623 117 837 256 237 155 359 349 359 573 1 133 -18
190 -83 252 -77 75 -174 88 -479 68 -121 -9 -225 -12 -231 -9 -6 4 -209 8
-452 10 -493 3 -537 -1 -624 -59 -130 -87 -174 -261 -138 -545 17 -129 17
-134 -2 -170 -28 -56 -120 -99 -237 -112 -230 -25 -1115 -40 -1187 -20 -38 11
-120 63 -178 113 l-32 27 16 47 c21 61 42 83 80 83 100 0 250 67 340 151 78
73 139 160 246 354 146 266 141 260 650 754 611 592 1054 988 1525 1366 288
230 709 540 826 608 101 58 172 56 228 -9 63 -71 56 -105 -41 -207 -40 -41
-100 -104 -133 -139 -36 -39 -122 -107 -218 -172 -318 -219 -361 -319 -252
-591 40 -99 49 -131 49 -186 2 -122 -38 -149 -444 -304 -509 -194 -650 -286
-650 -427 0 -102 101 -177 305 -224 66 -16 120 -19 305 -19 138 0 260 5 315
14 579 86 1103 300 1355 551 57 57 95 110 158 215 207 350 447 625 937 1075
264 242 526 501 688 680 373 411 599 622 1407 1310 530 451 740 638 783 698
85 117 117 230 97 342 -23 129 -104 258 -203 325 -94 64 -241 94 -372 75z"/>
<path d="M81291 11471 c-612 -94 -826 -131 -833 -141 -17 -31 -67 -255 -58
-260 6 -3 117 -14 249 -23 322 -24 412 -49 495 -137 61 -65 80 -132 73 -254
-2 -50 -14 -128 -26 -174 -12 -45 -386 -1119 -832 -2385 -446 -1266 -828
-2365 -850 -2442 -65 -228 -90 -364 -96 -521 -4 -112 -2 -157 11 -218 48 -212
182 -351 393 -407 60 -16 110 -21 218 -21 197 -2 327 28 510 117 385 185 762
652 1210 1496 47 89 85 162 83 163 -5 4 -313 86 -321 86 -4 0 -39 -48 -79
-107 -437 -653 -781 -984 -1024 -985 -96 -1 -140 32 -158 118 -9 41 16 156 71
327 36 113 2022 5764 2062 5870 l11 27 -143 -1 c-129 -1 -217 -13 -966 -128z"/>
<path d="M83993 11471 c-452 -69 -825 -129 -828 -132 -9 -10 -75 -263 -69
-268 3 -3 109 -13 237 -22 264 -20 330 -31 404 -64 77 -35 116 -68 148 -127
52 -94 45 -271 -16 -459 -11 -35 -373 -1065 -804 -2289 -430 -1224 -799 -2276
-819 -2339 -20 -62 -52 -176 -71 -253 -107 -437 -83 -688 85 -862 117 -122
247 -167 480 -168 151 -1 226 10 352 53 461 155 853 602 1359 1550 50 94 89
172 87 173 -4 4 -312 86 -321 86 -4 0 -51 -66 -105 -147 -188 -280 -370 -512
-526 -669 -233 -232 -443 -326 -573 -255 -56 29 -68 129 -32 267 34 134 96
311 1099 3159 535 1518 983 2790 996 2828 l23 67 -142 -1 c-129 -1 -217 -13
-964 -128z"/>
<path d="M34391 11349 c-254 -33 -408 -169 -461 -405 -6 -24 -17 -94 -26 -154
-30 -222 -92 -359 -219 -487 -71 -71 -96 -88 -196 -137 -81 -39 -155 -66 -254
-91 -264 -68 -363 -109 -451 -188 -60 -54 -97 -119 -127 -224 l-22 -78 -3
-2095 c-2 -1281 1 -2161 7 -2265 7 -118 16 -193 31 -245 61 -216 198 -349 407
-396 164 -36 465 4 639 85 111 52 181 145 221 293 15 56 17 162 23 968 6 882
6 907 27 980 63 224 181 373 368 465 49 24 128 54 175 66 83 21 110 22 1084
31 644 7 1353 7 2000 1 980 -10 1003 -10 1081 -32 277 -75 448 -243 526 -516
23 -80 23 -83 29 -1000 5 -835 7 -925 23 -979 53 -178 173 -287 364 -330 99
-22 413 -22 521 0 204 42 330 158 389 359 16 55 18 138 21 955 2 559 -1 942
-7 1021 -27 331 -129 435 -493 504 -73 14 -162 33 -198 42 -368 92 -649 439
-590 728 42 208 252 411 510 493 70 22 126 34 260 53 193 27 333 94 411 197
95 124 128 324 99 600 -19 172 -57 269 -133 339 -85 79 -164 107 -402 148 -82
14 -186 37 -230 51 -219 70 -369 199 -455 388 -39 86 -57 165 -70 306 -19 201
-53 298 -140 394 -56 61 -154 116 -251 143 -60 16 -204 18 -2244 19 -1199 1
-2209 -2 -2244 -7z m4071 -1299 c528 -50 830 -367 728 -764 -29 -116 -73 -190
-165 -282 -69 -68 -99 -90 -186 -133 -57 -28 -149 -64 -204 -79 l-100 -27
-1925 -3 c-1690 -2 -1937 -1 -2023 13 -194 30 -310 86 -433 209 -136 136 -194
270 -194 448 0 80 5 114 26 176 86 256 310 408 654 445 87 9 3722 6 3822 -3z"/>
<path d="M25809 11340 c-263 -20 -412 -127 -482 -345 -9 -27 -28 -115 -41
-195 -14 -80 -35 -174 -47 -210 -76 -231 -220 -383 -449 -474 -36 -14 -145
-46 -242 -70 -210 -52 -302 -93 -387 -172 -70 -65 -112 -140 -138 -252 -17
-73 -18 -192 -18 -2347 0 -2129 1 -2274 18 -2338 46 -182 138 -276 313 -322
106 -28 312 -40 463 -27 213 19 294 46 382 129 57 53 91 119 114 223 24 106
38 1337 24 2062 -12 556 -9 604 36 656 39 45 102 37 350 -46 116 -39 264 -82
330 -96 248 -51 232 -51 2250 -51 1747 0 1885 1 1954 17 195 46 314 148 371
316 12 37 27 125 35 208 17 166 18 172 52 276 28 88 101 206 159 259 135 121
261 170 534 209 345 50 472 145 525 395 21 95 24 380 6 489 -43 254 -160 353
-476 401 -243 38 -380 84 -500 170 -92 65 -160 146 -210 250 -52 107 -69 177
-89 350 -22 188 -44 254 -116 351 -78 104 -213 166 -398 184 -124 12 -4169 12
-4323 0z m4141 -1314 c181 -35 316 -93 422 -180 276 -228 289 -618 28 -859
-96 -89 -210 -149 -400 -211 -65 -21 -68 -21 -1795 -24 -951 -1 -1854 2 -2005
7 -242 8 -283 12 -340 31 -260 88 -451 260 -515 463 -93 293 69 597 384 720
103 40 194 58 341 67 69 4 951 7 1960 5 1668 -2 1843 -4 1920 -19z"/>
<path d="M42445 11339 c-147 -20 -247 -62 -328 -137 -63 -60 -90 -103 -125
-199 l-27 -78 -3 -2938 c-2 -3225 -6 -3008 57 -3143 58 -123 168 -202 336
-240 112 -26 413 -26 535 -1 177 37 293 118 352 244 62 131 58 -46 56 3148 -3
2767 -4 2923 -21 2979 -77 256 -249 358 -622 370 -77 3 -171 1 -210 -5z"/>
<path d="M46800 11340 c-124 -10 -220 -33 -297 -70 -151 -74 -220 -182 -277
-435 -85 -371 -180 -511 -418 -611 -79 -34 -173 -61 -375 -108 -296 -70 -456
-193 -508 -393 -13 -50 -15 -332 -14 -2228 0 -1193 4 -2251 8 -2350 6 -157 10
-187 31 -235 38 -89 106 -187 148 -215 80 -53 422 -93 639 -75 268 22 364 64
427 189 53 104 50 -32 56 2331 6 1989 8 2214 23 2300 36 207 83 307 202 425
118 118 238 171 415 182 184 12 339 -45 461 -168 84 -85 134 -184 189 -379 49
-169 137 -368 217 -488 46 -69 71 -95 151 -154 124 -92 175 -140 227 -213 56
-79 89 -147 117 -237 22 -73 22 -73 28 -1098 6 -942 8 -1030 24 -1085 53 -178
162 -284 341 -330 96 -25 251 -38 371 -32 331 18 494 127 561 379 15 57 17
168 22 1088 l6 1025 28 80 c57 162 149 281 312 403 120 91 171 157 266 347 75
151 80 166 95 270 9 61 26 136 39 168 118 295 403 464 695 413 198 -35 374
-170 463 -356 72 -149 112 -323 123 -534 4 -61 7 -1024 8 -2141 1 -1939 2
-2033 19 -2090 26 -85 74 -170 116 -207 48 -42 143 -85 232 -105 106 -23 454
-24 558 0 203 46 317 150 368 338 16 60 18 210 20 2369 4 2527 6 2403 -56
2536 -41 88 -117 162 -212 206 -88 42 -120 50 -303 78 -293 45 -470 131 -583
283 -81 110 -123 218 -183 477 -71 305 -223 425 -568 449 -66 5 -173 5 -238 1
-185 -13 -287 -53 -376 -148 -81 -87 -120 -188 -159 -412 -80 -468 -288 -643
-829 -700 -132 -14 -964 -33 -1079 -25 -434 30 -695 285 -751 732 -32 255
-116 406 -268 486 -38 20 -98 43 -133 51 -83 19 -259 26 -379 16z"/>
<path d="M55851 11339 c-237 -31 -382 -148 -444 -356 -9 -29 -26 -110 -37
-180 -59 -348 -172 -528 -407 -647 -91 -46 -208 -79 -386 -112 -179 -32 -269
-68 -346 -139 -65 -61 -103 -124 -128 -216 -17 -60 -18 -168 -18 -1734 l0
-1670 22 -71 c51 -161 162 -268 333 -318 30 -9 109 -26 174 -37 149 -25 311
-77 396 -126 87 -51 198 -162 245 -246 50 -90 88 -214 114 -365 37 -219 58
-281 131 -377 48 -64 123 -109 230 -137 l85 -23 2225 0 c2047 0 2231 1 2297
17 156 36 259 111 318 231 42 86 60 167 74 342 6 72 18 157 26 190 31 115 117
239 229 329 128 103 272 152 512 176 176 17 275 54 361 133 122 112 173 268
174 529 0 224 -56 385 -171 492 -119 109 -198 130 -500 131 -185 0 -236 -3
-290 -18 -97 -26 -165 -63 -226 -122 -81 -80 -118 -165 -149 -350 -54 -318
-121 -474 -255 -598 -103 -95 -221 -149 -405 -183 -96 -18 -185 -19 -2020 -19
-1812 0 -1925 1 -2009 18 -159 32 -262 77 -356 154 -102 83 -170 182 -212 308
-22 66 -23 84 -23 330 0 289 6 327 69 460 77 163 213 269 421 327 l80 23 1470
5 1470 5 78 23 c199 56 299 167 343 382 26 123 26 392 1 475 -60 196 -192 317
-412 377 -80 22 -82 22 -1515 28 -1413 7 -1436 7 -1512 28 -288 78 -478 306
-495 593 -10 173 34 286 162 415 129 131 298 203 520 225 74 7 734 9 2010 7
1887 -4 1901 -4 1990 -25 352 -81 541 -295 591 -665 33 -242 58 -316 141 -408
68 -76 153 -113 358 -156 358 -75 525 -51 672 96 183 184 228 437 139 780 -31
116 -58 170 -113 225 -47 48 -156 105 -235 124 -26 6 -111 20 -189 31 -255 37
-405 103 -531 232 -50 51 -79 93 -113 161 -56 116 -72 177 -90 352 -17 168
-41 252 -96 334 -64 96 -161 160 -301 198 -59 16 -213 17 -2238 19 -1196 1
-2204 -2 -2239 -7z"/>
<path d="M65217 11293 c-9 -16 -98 -316 -94 -319 2 -2 68 -8 148 -14 342 -25
503 -79 571 -190 56 -92 72 -233 44 -391 -17 -96 -1386 -4692 -1433 -4814
-105 -267 -227 -423 -396 -504 -148 -72 -348 -118 -612 -141 -71 -7 -131 -13
-131 -13 -1 -1 -23 -71 -48 -155 -26 -84 -49 -159 -52 -167 -5 -13 178 -15
1500 -15 l1505 0 36 118 c20 64 43 137 51 161 8 25 14 48 14 53 0 4 -25 8 -55
8 -101 0 -342 30 -437 54 -178 45 -283 117 -341 235 -31 64 -32 70 -32 191 0
97 5 143 22 205 41 150 1354 4560 1385 4650 108 319 242 517 406 599 40 20
114 48 165 61 98 26 297 55 376 55 26 0 75 3 107 6 l59 6 44 147 c24 80 46
154 49 164 4 16 -68 17 -1421 17 -784 0 -1428 -3 -1430 -7z"/>
<path d="M74910 10072 c-245 -19 -447 -37 -449 -38 -2 -2 -82 -214 -177 -471
l-172 -468 -502 -5 -502 -5 -69 -225 c-38 -124 -69 -231 -69 -237 0 -10 104
-13 486 -13 386 0 485 -3 481 -13 -2 -6 -278 -658 -612 -1447 -345 -816 -628
-1498 -655 -1580 -66 -201 -93 -337 -94 -485 -2 -198 34 -298 148 -410 78 -78
189 -140 306 -172 96 -26 303 -23 435 7 293 65 535 210 816 490 173 173 279
301 421 510 128 188 327 525 316 535 -6 7 -286 85 -302 85 -8 0 -45 -39 -82
-87 -324 -418 -596 -672 -812 -755 -66 -26 -86 -29 -153 -26 -86 3 -111 18
-135 75 -19 43 -17 134 4 213 10 36 283 739 607 1562 l590 1498 620 0 620 0
71 233 c39 127 69 235 67 240 -2 4 -260 7 -574 7 -313 0 -569 2 -569 5 0 3
113 230 250 505 138 275 250 502 250 505 0 9 -110 3 -560 -33z"/>
<path d="M94747 10071 c-362 -29 -450 -39 -456 -51 -5 -8 -84 -221 -177 -472
l-168 -458 -497 0 c-323 0 -500 -4 -504 -10 -3 -6 -35 -103 -69 -218 -35 -114
-66 -217 -70 -229 l-7 -23 489 -2 489 -3 -608 -1435 c-592 -1397 -687 -1637
-730 -1831 -28 -132 -36 -334 -15 -422 17 -72 53 -152 94 -205 61 -80 218
-173 352 -209 79 -21 269 -23 380 -4 469 81 915 442 1335 1081 83 126 206 332
250 420 l24 47 -148 42 c-81 22 -154 41 -162 41 -8 -1 -53 -51 -100 -113 -190
-246 -422 -491 -574 -605 -38 -29 -112 -74 -162 -99 -82 -41 -102 -47 -173
-51 -95 -5 -131 7 -160 53 -25 40 -27 153 -5 238 8 31 278 726 601 1544 323
819 589 1494 591 1500 4 10 142 13 625 15 l621 3 68 225 c38 124 69 231 69
238 0 9 -121 12 -574 12 l-575 0 255 503 c139 277 254 507 254 510 0 12 -98 6
-563 -32z"/>
<path d="M68805 9379 c-404 -53 -806 -392 -1162 -983 -75 -125 -245 -448 -238
-454 3 -4 115 -39 272 -85 l51 -15 48 81 c189 328 404 585 548 657 102 51 206
37 242 -32 26 -49 14 -192 -29 -358 -20 -74 -279 -911 -577 -1860 -297 -949
-543 -1733 -546 -1743 -5 -16 16 -17 391 -15 l397 3 82 220 c551 1465 1282
2744 1950 3410 183 182 282 259 422 330 114 57 209 79 322 73 242 -12 320
-175 246 -507 -63 -281 -124 -437 -554 -1406 -224 -506 -426 -967 -448 -1025
-192 -497 -188 -818 12 -1015 116 -114 258 -166 451 -166 424 0 799 262 1173
822 144 216 364 625 340 634 -73 27 -314 93 -320 87 -4 -4 -43 -64 -87 -135
-305 -488 -555 -702 -725 -622 -110 52 -93 197 66 555 33 74 217 495 408 935
191 440 382 879 425 975 170 387 230 623 230 905 0 137 -4 171 -23 240 -33
114 -77 190 -157 271 -150 152 -365 226 -660 227 -159 1 -249 -12 -385 -55
-261 -82 -517 -253 -765 -509 -386 -399 -835 -1095 -1354 -2101 l-113 -218
-69 0 c-38 0 -69 2 -69 5 0 3 92 208 204 457 603 1341 678 1547 680 1873 1
153 -12 216 -62 308 -34 63 -126 148 -196 181 -106 50 -283 73 -421 55z"/>
<path d="M91280 9378 c-356 -19 -725 -153 -1070 -389 -255 -174 -549 -453
-776 -735 -599 -745 -959 -1788 -895 -2594 38 -471 190 -777 491 -989 341
-239 896 -303 1358 -155 111 35 342 153 452 232 314 222 682 726 896 1224 l33
77 -32 10 c-18 5 -84 24 -147 41 -63 17 -121 33 -127 35 -7 2 -42 -40 -77 -93
-267 -401 -584 -660 -913 -749 -90 -25 -114 -27 -283 -27 -158 1 -197 4 -265
22 -375 101 -545 380 -545 893 0 623 205 1251 614 1879 203 313 411 535 640
687 205 136 418 212 640 229 l83 7 17 -44 c36 -90 48 -190 56 -479 9 -302 12
-326 64 -429 50 -98 149 -171 276 -202 78 -19 260 -17 340 4 280 74 450 322
450 657 0 155 -36 289 -111 418 -51 86 -218 248 -314 304 -231 134 -494 186
-855 166z"/>
<path d="M78280 9370 c-443 -54 -876 -256 -1286 -599 -580 -486 -1011 -1120
-1261 -1856 -127 -373 -186 -708 -186 -1060 -1 -336 46 -574 154 -789 53 -104
87 -153 168 -239 215 -229 518 -356 925 -388 422 -34 800 78 1156 339 202 149
478 473 645 757 90 152 253 490 242 501 -5 5 -294 84 -308 84 -8 0 -28 -24
-46 -53 -122 -202 -386 -485 -559 -600 -249 -165 -496 -231 -775 -206 -253 22
-421 95 -552 240 -203 223 -256 601 -162 1149 9 52 18 102 20 110 4 13 44 18
243 28 472 24 820 79 1187 189 709 211 1337 652 1569 1101 90 175 127 324 127
512 1 433 -230 676 -726 766 -106 19 -461 27 -575 14z m62 -525 c65 -23 140
-92 169 -157 21 -47 24 -68 24 -178 0 -103 -4 -138 -23 -200 -50 -158 -134
-292 -276 -439 -302 -313 -672 -514 -1169 -636 -141 -35 -456 -88 -487 -83
-16 3 -9 25 49 168 122 301 275 574 454 813 319 424 643 669 964 727 71 13
240 4 295 -15z"/>
<path d="M87390 9369 c-566 -69 -1080 -357 -1605 -900 -416 -429 -732 -952
-936 -1547 -130 -378 -189 -716 -189 -1077 0 -624 191 -1010 612 -1239 300
-162 757 -217 1135 -135 338 73 689 285 934 564 126 144 276 349 361 492 111
187 260 495 246 508 -6 6 -288 85 -304 85 -6 0 -37 -39 -70 -87 -87 -129 -202
-269 -305 -372 -303 -301 -628 -431 -1003 -401 -631 52 -869 504 -721 1368 14
79 25 144 25 146 0 2 78 6 173 10 855 34 1519 213 2077 560 370 230 627 487
760 761 178 363 152 762 -64 993 -176 188 -427 270 -846 277 -113 2 -239 0
-280 -6z m70 -528 c76 -28 124 -71 157 -139 39 -80 45 -239 14 -362 -94 -371
-512 -762 -1041 -975 -244 -98 -560 -176 -854 -211 -69 -8 -69 -23 1 156 252
643 729 1248 1150 1459 75 37 192 78 265 90 85 16 244 6 308 -18z"/>
<path d="M13125 7183 c-82 -30 -134 -66 -250 -173 -488 -453 -909 -739 -1595
-1085 -404 -203 -1168 -542 -1424 -631 -144 -50 -381 -106 -721 -169 -687
-129 -938 -210 -1215 -393 -104 -69 -287 -249 -357 -352 -180 -266 -294 -646
-310 -1030 -26 -657 303 -1053 972 -1171 172 -30 463 -37 655 -15 806 92 1719
497 2885 1281 579 388 927 660 1254 980 368 360 612 680 816 1068 134 255 178
415 179 637 0 120 -4 160 -23 233 -63 241 -186 436 -415 654 -135 129 -217
174 -328 180 -53 3 -87 -1 -123 -14z"/>
</g>
</svg>
