<?xml version="1.0" standalone="no"?>
<!DOCTYPE svg PUBLIC "-//W3C//DTD SVG 20010904//EN"
 "http://www.w3.org/TR/2001/REC-SVG-20010904/DTD/svg10.dtd">
<svg version="1.0" xmlns="http://www.w3.org/2000/svg"
 width="6780.000000pt" height="1600.000000pt" viewBox="0 0 6780.000000 1600.000000"
 preserveAspectRatio="xMidYMid meet">
<metadata>
Created by potrace 1.16, written by Peter Selinger 2001-2019
</metadata>
<g transform="translate(0.000000,1600.000000) scale(0.100000,-0.100000)"
fill="#ffffff" stroke="none">
<path d="M7520 15990 c-1466 -85 -2786 -523 -3990 -1323 -640 -425 -1244 -974
-1743 -1582 -1434 -1747 -2048 -4046 -1682 -6300 349 -2158 1593 -4085 3425
-5310 1633 -1092 3588 -1531 5560 -1249 650 93 1327 284 1955 551 1834 781
3329 2258 4138 4088 545 1234 768 2602 641 3940 -175 1852 -970 3548 -2279
4861 -1268 1272 -2891 2063 -4675 2279 -363 44 -1005 65 -1350 45z"/>
<path d="M21150 8070 l0 -2640 550 0 550 0 0 970 0 970 663 0 c666 0 878 7
1036 35 374 65 684 224 924 474 372 388 524 974 403 1551 -136 647 -606 1110
-1256 1239 -204 40 -240 41 -1572 41 l-1298 0 0 -2640z m2505 1642 c220 -62
373 -179 460 -352 53 -106 69 -178 69 -320 1 -140 -19 -223 -77 -335 -39 -74
-161 -198 -239 -244 -71 -41 -201 -86 -288 -100 -40 -7 -307 -11 -697 -11
l-633 0 0 695 0 696 663 -3 c650 -4 663 -4 742 -26z"/>
<path d="M35860 9760 c0 -522 -3 -950 -7 -950 -5 0 -21 19 -38 41 -51 71 -214
218 -315 285 -148 98 -316 168 -500 209 -100 22 -407 31 -524 16 -774 -103
-1310 -706 -1421 -1599 -64 -511 9 -1030 200 -1428 226 -468 618 -775 1120
-876 159 -33 473 -32 622 0 290 63 505 183 731 407 l132 132 0 -283 0 -284
495 0 495 0 0 2640 0 2640 -495 0 -495 0 0 -950z m-660 -1286 c244 -46 502
-196 625 -364 l35 -48 0 -662 0 -663 -42 -55 c-125 -162 -371 -303 -618 -354
-125 -26 -326 -21 -444 11 -412 113 -671 476 -702 986 -32 528 220 971 636
1117 138 49 353 62 510 32z"/>
<path d="M50960 8070 l0 -2640 555 0 555 0 0 1140 0 1140 1225 0 1225 0 0
-1140 0 -1140 560 0 560 0 0 2640 0 2640 -560 0 -560 0 0 -1020 0 -1020 -1225
0 -1225 0 0 1020 0 1020 -555 0 -555 0 0 -2640z"/>
<path d="M46440 9795 l0 -515 -315 0 -315 0 0 -430 0 -430 315 0 315 0 0
-1047 c0 -1136 1 -1148 55 -1323 107 -343 364 -546 766 -606 154 -22 448 -15
594 16 182 38 352 110 438 186 l28 24 -101 363 c-55 199 -102 368 -105 375 -3
9 -17 3 -46 -18 -60 -43 -158 -71 -269 -77 -80 -4 -104 -2 -151 16 -66 25
-138 91 -169 156 -50 104 -50 89 -50 1043 l0 892 380 0 380 0 0 430 0 430
-380 0 -380 0 0 515 0 515 -495 0 -495 0 0 -515z"/>
<path d="M65860 9795 l0 -515 -310 0 -310 0 0 -430 0 -430 310 0 309 0 4
-1092 c3 -1072 4 -1095 24 -1179 73 -294 216 -486 448 -602 180 -89 368 -122
650 -114 207 7 324 25 472 76 83 28 203 92 257 135 l28 24 -102 368 c-56 203
-104 372 -107 377 -2 4 -20 -5 -39 -19 -91 -70 -304 -106 -412 -70 -104 35
-194 147 -221 274 -8 37 -11 325 -11 937 l0 885 380 0 380 0 0 430 0 430 -380
0 -380 0 0 515 0 515 -495 0 -495 0 0 -515z"/>
<path d="M27931 9350 c-319 -64 -650 -251 -884 -499 l-67 -71 0 250 0 250
-495 0 -495 0 0 -1925 0 -1925 495 0 495 0 0 1291 0 1291 68 70 c137 143 338
250 592 315 94 25 123 27 275 28 94 0 191 -3 218 -7 l47 -8 0 480 0 480 -77
-1 c-43 0 -120 -9 -172 -19z"/>
<path d="M30226 9354 c-282 -38 -551 -131 -776 -268 -310 -189 -572 -489 -719
-823 -269 -613 -229 -1365 103 -1916 359 -596 958 -917 1710 -917 727 0 1347
327 1690 891 309 510 381 1170 191 1754 -46 141 -156 364 -237 482 -302 439
-751 710 -1316 793 -163 24 -487 26 -646 4z m564 -889 c36 -9 116 -41 178 -72
95 -46 127 -69 201 -139 146 -139 238 -299 293 -512 51 -201 51 -481 -2 -686
-82 -322 -286 -570 -560 -682 -216 -88 -523 -85 -737 8 -345 149 -557 499
-580 957 -11 218 31 437 117 618 58 122 92 173 173 259 113 122 277 217 440
254 105 25 374 22 477 -5z"/>
<path d="M43785 9353 c-287 -38 -589 -148 -819 -297 -119 -78 -190 -135 -299
-244 -311 -307 -499 -712 -548 -1181 -15 -143 -6 -451 16 -581 147 -864 749
-1456 1625 -1598 79 -13 166 -17 350 -17 211 1 263 4 375 24 437 78 787 272
1043 580 29 35 51 68 49 75 -2 6 -145 145 -318 308 l-314 297 -23 -27 c-13
-15 -46 -52 -73 -83 -101 -118 -280 -225 -449 -271 -114 -31 -371 -33 -495 -4
-384 89 -653 369 -746 776 -26 110 -36 354 -20 472 51 381 239 660 546 808
164 80 236 95 460 95 167 0 200 -3 273 -23 198 -54 363 -162 482 -317 l42 -54
319 300 c175 165 319 304 319 308 0 22 -140 174 -245 266 -231 202 -564 343
-923 389 -155 20 -474 20 -627 -1z"/>
<path d="M63179 9355 c-356 -56 -698 -220 -939 -451 -54 -52 -100 -94 -104
-94 -3 0 -6 106 -6 235 l0 235 -490 0 -490 0 0 -1925 0 -1925 490 0 490 0 0
1316 0 1315 98 98 c149 150 292 237 488 298 83 25 101 27 279 27 155 1 202 -2
255 -17 228 -64 361 -210 410 -447 19 -91 20 -143 20 -1342 l0 -1248 500 0
501 0 -4 1483 -3 1482 -26 115 c-110 489 -416 769 -921 844 -129 20 -426 20
-548 1z"/>
<path d="M37840 7883 c0 -1467 1 -1494 46 -1671 46 -183 119 -322 233 -444
155 -166 330 -257 595 -310 95 -19 144 -23 331 -23 229 0 288 6 467 51 278 69
536 208 762 409 l106 95 0 -280 0 -280 490 0 490 0 0 1925 0 1925 -490 0 -490
0 0 -1269 0 -1269 -45 -54 c-135 -159 -340 -286 -555 -346 -86 -24 -111 -27
-270 -27 -265 1 -386 40 -511 164 -80 80 -123 165 -150 294 -18 87 -19 155
-19 1300 l0 1207 -495 0 -495 0 0 -1397z"/>
<path d="M56643 7818 l3 -1463 26 -106 c96 -387 309 -627 656 -743 180 -59
265 -71 527 -70 211 0 240 2 355 27 69 14 168 40 220 57 225 73 480 224 645
382 l95 90 0 -281 0 -281 495 0 495 0 0 1925 0 1925 -495 0 -495 0 0 -1277 0
-1278 -92 -90 c-224 -221 -475 -325 -777 -325 -224 0 -394 56 -501 164 -99
100 -151 224 -170 406 -6 65 -10 522 -10 1251 l0 1149 -490 0 -491 0 4 -1462z"/>
</g>
</svg>
