<?xml version="1.0" standalone="no"?>
<!DOCTYPE svg PUBLIC "-//W3C//DTD SVG 20010904//EN"
 "http://www.w3.org/TR/2001/REC-SVG-20010904/DTD/svg10.dtd">
<svg version="1.0" xmlns="http://www.w3.org/2000/svg"
 width="5743.000000pt" height="1600.000000pt" viewBox="0 0 5743.000000 1600.000000"
 preserveAspectRatio="xMidYMid meet">
<metadata>
Created by potrace 1.16, written by Peter Selinger 2001-2019
</metadata>
<g transform="translate(0.000000,1600.000000) scale(0.100000,-0.100000)"
fill="#ffffff" stroke="none">
<path d="M6775 15859 c-703 -39 -1388 -182 -2045 -426 -1282 -476 -2392 -1296
-3212 -2373 -511 -672 -903 -1468 -1127 -2290 -112 -415 -179 -794 -223 -1265
-18 -189 -18 -971 0 -1160 40 -431 99 -782 197 -1160 349 -1357 1133 -2586
2240 -3510 1278 -1067 2904 -1664 4530 -1665 560 0 1286 96 1781 236 18 5 33
-14 113 -145 436 -715 896 -1216 1413 -1543 221 -139 505 -270 753 -347 643
-197 1425 -211 2093 -36 788 207 1405 714 1781 1464 177 352 307 790 355 1196
20 171 30 388 22 458 l-7 57 -513 0 -512 0 -18 -97 c-77 -411 -305 -731 -633
-888 -166 -80 -342 -111 -580 -102 -341 12 -625 124 -928 365 -91 73 -312 294
-401 402 -146 177 -359 472 -352 489 2 4 57 52 123 106 446 364 835 767 1175
1220 710 947 1157 2074 1290 3255 35 317 43 471 43 815 0 540 -42 972 -143
1460 -488 2354 -2176 4258 -4513 5089 -850 302 -1823 445 -2702 395z m874
-1394 c973 -108 1676 -465 2223 -1130 412 -501 718 -1219 896 -2100 272 -1346
266 -3370 -13 -4660 -89 -408 -227 -850 -351 -1124 l-34 -74 -71 104 c-188
274 -370 498 -574 708 -589 605 -1261 921 -2140 1006 -218 21 -648 21 -868 0
-760 -73 -1430 -321 -1922 -711 l-84 -66 211 -422 c115 -231 212 -423 213
-424 2 -2 55 14 119 37 204 71 303 86 586 86 261 0 317 -7 519 -61 239 -64
486 -194 701 -367 320 -259 614 -631 917 -1162 100 -175 307 -565 302 -569
-10 -8 -267 -67 -374 -85 -412 -71 -949 -80 -1395 -25 -1200 148 -2064 785
-2570 1893 -316 691 -499 1525 -575 2611 -37 534 -39 1375 -5 1915 162 2552
971 3991 2515 4471 276 87 567 137 960 168 120 9 677 -3 814 -19z"/>
<path d="M32065 12783 c-239 -19 -324 -28 -470 -48 -896 -128 -1729 -465
-2438 -988 -199 -146 -348 -276 -558 -486 -210 -210 -340 -359 -486 -558 -806
-1093 -1127 -2503 -902 -3958 63 -410 199 -879 362 -1255 227 -525 545 -1012
934 -1435 458 -498 1044 -920 1673 -1205 745 -337 1533 -496 2360 -477 843 20
1614 202 2325 546 1436 697 2416 1972 2740 3563 145 716 148 1540 9 2238 -246
1229 -895 2266 -1879 3005 -822 618 -1820 977 -2925 1055 -131 9 -645 11 -745
3z m725 -1278 c310 -56 536 -151 755 -314 706 -529 1031 -1695 1001 -3596 -12
-826 -64 -1403 -175 -1954 -257 -1269 -807 -1905 -1731 -2002 -162 -17 -447
-7 -584 21 -268 53 -497 158 -711 325 -99 77 -271 254 -349 358 -527 706 -789
1896 -763 3467 4 201 11 433 17 515 76 1124 311 1926 727 2488 92 124 290 322
398 398 228 161 471 260 745 303 132 21 536 16 670 -9z"/>
<path d="M50905 12784 c-554 -33 -873 -70 -1270 -149 -1375 -275 -2267 -914
-2445 -1753 -27 -124 -37 -365 -21 -484 43 -322 188 -581 417 -744 231 -165
603 -248 969 -215 555 50 860 271 1137 826 31 61 92 187 136 280 147 312 254
487 388 633 217 238 516 373 909 413 148 15 446 7 570 -16 499 -89 785 -384
931 -963 65 -258 94 -539 94 -928 l0 -240 -51 -75 c-289 -421 -731 -762 -1364
-1052 -323 -148 -629 -262 -1435 -532 -597 -200 -802 -273 -1032 -366 -906
-367 -1450 -798 -1734 -1374 -156 -319 -229 -635 -241 -1046 -36 -1252 595
-2148 1749 -2484 534 -155 1228 -187 1843 -84 833 139 1543 538 2018 1133 92
116 206 286 267 399 41 76 42 77 81 77 32 0 39 -4 43 -22 2 -13 12 -66 21
-118 35 -194 116 -394 232 -569 82 -124 270 -309 406 -399 384 -256 885 -376
1487 -359 501 15 899 109 1302 309 272 135 511 309 716 523 108 111 265 313
258 330 -2 6 -77 189 -167 407 l-163 398 -30 -21 c-91 -60 -253 -119 -386
-140 -101 -15 -345 -6 -430 16 -123 32 -208 80 -296 169 -117 117 -176 246
-222 481 -13 70 -16 374 -22 2470 -5 1755 -10 2415 -19 2485 -67 536 -146 835
-310 1175 -436 903 -1296 1398 -2711 1559 -334 39 -525 48 -1045 51 -286 1
-547 1 -580 -1z m1800 -6729 c-38 -402 -132 -757 -280 -1060 -269 -548 -686
-867 -1235 -946 -121 -17 -394 -15 -510 4 -540 91 -874 414 -982 949 -30 151
-33 499 -5 648 90 481 375 847 912 1170 181 109 402 221 800 405 692 319 996
496 1245 723 l65 60 3 -892 c2 -750 0 -918 -13 -1061z"/>
<path d="M44538 12715 c-773 -106 -1442 -525 -1935 -1213 -180 -252 -380 -658
-465 -946 l-22 -76 -43 0 c-24 0 -43 3 -43 8 1 18 -191 2000 -196 2020 l-4 22
-1970 0 -1970 0 0 -624 0 -623 373 -6 c204 -3 404 -11 442 -17 374 -56 572
-223 636 -532 19 -97 19 -138 16 -3125 -4 -3258 -1 -3067 -52 -3263 -69 -265
-250 -417 -569 -475 -150 -27 -286 -35 -607 -35 l-319 0 0 -630 0 -630 3090 0
3090 0 0 629 0 629 -462 5 c-477 4 -565 11 -733 53 -346 89 -525 289 -589 659
-35 198 -37 381 -34 2400 4 2139 2 2039 53 2262 61 265 194 530 355 705 128
140 327 261 510 309 71 19 112 23 245 23 284 1 424 -47 819 -283 211 -126 278
-161 398 -207 254 -99 569 -127 852 -78 598 103 975 569 1046 1293 33 336 -22
687 -151 958 -180 378 -543 654 -999 757 -198 45 -552 59 -762 31z"/>
<path d="M14930 11906 l0 -623 418 -6 c312 -4 440 -9 507 -21 172 -30 280 -79
373 -172 107 -107 155 -238 172 -473 5 -72 10 -1198 10 -2636 0 -1602 4 -2561
10 -2650 69 -942 335 -1645 813 -2141 543 -565 1327 -835 2352 -810 138 3 315
13 395 21 838 90 1541 373 2160 870 151 121 434 396 556 540 84 99 91 105 127
105 l37 0 0 -670 c0 -368 2 -670 5 -670 4 0 513 81 1480 235 187 30 795 126
1350 215 556 88 1020 162 1033 165 l22 5 0 650 0 650 -158 0 c-637 0 -924 199
-1020 704 -15 85 -17 348 -19 3714 l-3 3622 -2170 0 -2170 0 0 -625 0 -625
333 0 c182 0 397 -5 477 -10 401 -26 590 -156 673 -463 l22 -82 2 -2715 3
-2715 -48 -77 c-236 -387 -544 -657 -947 -833 -417 -182 -933 -238 -1371 -150
-427 86 -743 313 -922 662 -120 235 -175 459 -192 798 -5 104 -10 1593 -10
3508 l0 3327 -2150 0 -2150 0 0 -624z"/>
</g>
</svg>
