<?xml version="1.0" standalone="no"?>
<!DOCTYPE svg PUBLIC "-//W3C//DTD SVG 20010904//EN"
 "http://www.w3.org/TR/2001/REC-SVG-20010904/DTD/svg10.dtd">
<svg version="1.0" xmlns="http://www.w3.org/2000/svg"
 width="1600.000000pt" height="1600.000000pt" viewBox="0 0 1600.000000 1600.000000"
 preserveAspectRatio="xMidYMid meet">
<metadata>
Created by potrace 1.16, written by Peter Selinger 2001-2019
</metadata>
<g transform="translate(0.000000,1600.000000) scale(0.100000,-0.100000)"
fill="#ffffff" stroke="none">
<path d="M4100 13984 c-243 -52 -448 -220 -541 -444 -61 -145 -59 -93 -59
-1540 0 -1447 -2 -1395 59 -1540 72 -173 228 -329 401 -401 149 -62 9 -59
2380 -59 l2160 0 0 -2000 0 -2000 -2160 0 c-1930 0 -2169 -2 -2238 -16 -296
-60 -526 -290 -586 -586 -14 -68 -16 -233 -16 -1398 0 -1447 -2 -1395 59
-1540 72 -173 228 -329 401 -401 148 -62 43 -59 2040 -59 1620 0 1829 2 1898
16 296 60 526 290 586 586 14 69 16 263 16 1738 l0 1660 2160 0 c1930 0 2169
2 2238 16 296 60 526 290 586 586 14 68 16 233 16 1398 0 1165 -2 1330 -16
1398 -60 296 -290 526 -586 586 -69 14 -308 16 -2238 16 l-2160 0 0 1660 c0
1475 -2 1669 -16 1738 -60 296 -290 526 -586 586 -69 14 -276 16 -1905 15
-1528 0 -1839 -3 -1893 -15z"/>
</g>
</svg>
