<?xml version="1.0" standalone="no"?>
<!DOCTYPE svg PUBLIC "-//W3C//DTD SVG 20010904//EN"
 "http://www.w3.org/TR/2001/REC-SVG-20010904/DTD/svg10.dtd">
<svg version="1.0" xmlns="http://www.w3.org/2000/svg"
 width="6827.000000pt" height="1600.000000pt" viewBox="0 0 6827.000000 1600.000000"
 preserveAspectRatio="xMidYMid meet">
<metadata>
Created by potrace 1.16, written by Peter Selinger 2001-2019
</metadata>
<g transform="translate(0.000000,1600.000000) scale(0.100000,-0.100000)"
fill="#ffffff" stroke="none">
<path d="M0 9640 l0 -6360 800 0 800 0 2 5643 3 5642 4992 3 4993 2 0 715 0
715 -5795 0 -5795 0 0 -6360z"/>
<path d="M34770 14286 c-439 -92 -763 -410 -852 -836 -28 -134 -21 -355 15
-485 105 -377 394 -661 780 -767 72 -20 105 -23 267 -22 157 0 197 3 262 22
236 65 432 198 580 392 67 87 141 243 175 365 26 93 28 113 27 285 0 158 -3
196 -22 263 -104 377 -396 668 -769 769 -100 26 -363 34 -463 14z"/>
<path d="M30410 8755 l0 -5465 800 0 800 0 0 5465 0 5465 -800 0 -800 0 0
-5465z"/>
<path d="M3030 8280 l0 -5000 800 0 800 0 0 4285 0 4285 3480 0 3480 0 0 715
0 715 -4280 0 -4280 0 0 -5000z"/>
<path d="M55810 11590 l0 -1010 -760 0 -760 0 0 -715 0 -715 758 -2 757 -3 3
-2932 2 -2933 2185 0 2185 0 0 720 0 720 -1385 0 -1385 0 2 2213 3 2212 1383
3 1382 2 0 715 0 715 -1385 0 -1385 0 0 1010 0 1010 -800 0 -800 0 0 -1010z"/>
<path d="M41065 10719 c-981 -37 -1897 -431 -2570 -1104 -597 -597 -953 -1345
-1061 -2235 -23 -181 -26 -662 -6 -850 52 -489 174 -911 389 -1340 191 -382
407 -677 724 -985 598 -583 1359 -934 2254 -1041 188 -23 687 -26 870 -6 969
107 1790 507 2419 1181 210 225 431 534 549 768 l25 48 -591 320 c-324 176
-638 346 -698 378 l-107 57 -50 -92 c-392 -726 -1074 -1159 -1868 -1185 -525
-17 -983 118 -1394 413 -98 70 -299 260 -380 359 -260 321 -426 701 -495 1140
-25 156 -31 510 -11 678 36 313 108 562 238 822 330 662 929 1081 1683 1175
138 18 440 15 580 -4 496 -69 928 -290 1271 -649 147 -153 297 -364 388 -544
l35 -71 638 345 c351 189 666 360 700 379 l62 34 -51 93 c-73 134 -242 384
-348 517 -424 527 -968 918 -1612 1159 -491 184 -1007 262 -1583 240z"/>
<path d="M15900 10709 c-1094 -65 -2066 -551 -2724 -1363 -454 -559 -729
-1247 -812 -2026 -20 -185 -22 -585 -5 -770 91 -969 460 -1773 1094 -2386 588
-569 1359 -916 2237 -1009 440 -46 959 -22 1395 66 894 179 1625 613 2162
1284 112 140 227 310 219 323 -3 6 -66 53 -139 104 -72 52 -342 243 -598 426
-257 183 -471 332 -476 332 -4 0 -24 -25 -42 -57 -57 -95 -181 -252 -279 -355
-180 -187 -359 -316 -607 -438 -335 -165 -645 -237 -1066 -247 -314 -8 -544
19 -797 91 -591 170 -1055 542 -1314 1051 -112 220 -190 480 -213 710 -3 33
-8 75 -11 93 l-5 32 2870 0 2869 0 7 115 c12 186 -1 801 -19 950 -79 640 -269
1179 -576 1635 -666 989 -1831 1518 -3170 1439z m526 -1364 c730 -109 1290
-550 1535 -1209 31 -84 83 -274 94 -343 l7 -43 -2026 0 c-1114 0 -2026 3
-2026 8 0 23 44 182 75 272 258 745 944 1247 1815 1330 129 12 393 4 526 -15z"/>
<path d="M25030 10710 c-718 -56 -1417 -366 -1890 -840 -58 -58 -132 -140
-165 -183 l-60 -77 -3 485 -2 485 -803 -2 -802 -3 0 -5170 0 -5170 800 0 800
0 3 2009 2 2009 51 -69 c80 -106 331 -350 459 -446 425 -316 904 -508 1460
-584 155 -22 562 -25 725 -6 567 66 1061 244 1515 547 1227 819 1854 2383
1584 3950 -115 666 -386 1273 -800 1792 -102 128 -412 438 -539 539 -513 407
-1127 660 -1761 723 -151 16 -444 21 -574 11z m161 -1460 c1293 -130 2124
-1329 1913 -2758 -61 -409 -234 -816 -481 -1129 -338 -428 -840 -700 -1408
-763 -130 -14 -393 -12 -525 4 -675 84 -1230 443 -1573 1017 -151 254 -264
579 -312 899 -23 152 -31 520 -15 677 69 678 368 1248 850 1625 299 232 690
387 1080 427 123 12 352 13 471 1z"/>
<path d="M48910 10709 c-692 -40 -1350 -294 -1905 -735 -141 -112 -436 -407
-549 -549 -436 -546 -716 -1217 -817 -1955 -26 -196 -37 -680 -20 -881 114
-1312 796 -2424 1852 -3022 723 -410 1603 -533 2391 -336 401 100 793 290
1117 542 130 101 325 293 412 406 l64 83 3 -486 2 -486 800 0 800 0 0 3645 0
3645 -800 0 -800 0 0 -485 c0 -267 -3 -485 -7 -485 -5 1 -28 29 -53 63 -25 34
-106 122 -180 197 -484 485 -1170 789 -1898 839 -167 12 -210 12 -412 0z m720
-1460 c553 -50 1060 -310 1401 -717 391 -467 592 -1117 549 -1775 -25 -380
-102 -681 -255 -992 -305 -622 -834 -1022 -1513 -1146 -147 -27 -502 -38 -650
-20 -651 79 -1165 389 -1515 914 -427 638 -524 1553 -248 2324 246 687 778
1182 1456 1353 245 62 517 83 775 59z"/>
<path d="M64565 10714 c-416 -25 -751 -86 -1090 -199 -572 -189 -1031 -471
-1445 -885 -589 -588 -942 -1323 -1062 -2210 -19 -143 -22 -210 -23 -505 0
-357 6 -440 51 -710 158 -951 637 -1761 1369 -2315 551 -418 1205 -663 1975
-742 160 -16 664 -16 835 0 906 88 1631 381 2230 902 227 198 495 507 645 746
l20 30 -348 247 c-191 135 -464 329 -607 431 -143 102 -263 186 -267 186 -4 0
-35 -42 -69 -92 -333 -502 -829 -832 -1433 -953 -220 -44 -290 -50 -571 -50
-283 0 -349 6 -570 52 -821 170 -1455 771 -1634 1549 -28 119 -51 268 -51 327
l0 47 2864 0 2863 0 6 68 c26 283 15 751 -23 1048 -84 651 -298 1217 -637
1682 -560 768 -1421 1234 -2458 1332 -120 11 -474 20 -570 14z m451 -1369
c225 -34 417 -92 610 -185 513 -248 859 -686 1000 -1265 13 -55 24 -110 24
-122 l0 -23 -2025 0 -2024 0 6 33 c24 131 115 376 190 517 324 602 938 987
1693 1060 128 12 392 4 526 -15z"/>
<path d="M6060 6930 l0 -3650 800 0 800 0 0 2930 0 2930 1965 0 1965 0 0 720
0 720 -2765 0 -2765 0 0 -3650z"/>
<path d="M34177 10573 c-4 -3 -7 -1644 -7 -3645 l0 -3638 805 0 805 0 0 3645
0 3645 -798 0 c-439 0 -802 -3 -805 -7z"/>
</g>
</svg>
