<?xml version="1.0" standalone="no"?>
<!DOCTYPE svg PUBLIC "-//W3C//DTD SVG 20010904//EN"
 "http://www.w3.org/TR/2001/REC-SVG-20010904/DTD/svg10.dtd">
<svg version="1.0" xmlns="http://www.w3.org/2000/svg"
 width="7050.000000pt" height="1600.000000pt" viewBox="0 0 7050.000000 1600.000000"
 preserveAspectRatio="xMidYMid meet">
<metadata>
Created by potrace 1.16, written by Peter Selinger 2001-2019
</metadata>
<g transform="translate(0.000000,1600.000000) scale(0.100000,-0.100000)"
fill="#ffffff" stroke="none">
<path d="M7307 15560 c-334 -38 -649 -134 -923 -280 -180 -96 -4511 -2594
-4599 -2653 -392 -261 -712 -639 -905 -1066 -126 -281 -199 -571 -220 -889 -8
-108 -10 -969 -8 -2782 4 -2880 0 -2671 63 -2955 143 -641 534 -1210 1078
-1568 91 -60 4414 -2554 4582 -2643 726 -386 1616 -394 2349 -20 99 51 686
387 2096 1201 69 40 215 124 325 187 110 63 484 279 830 478 347 200 779 448
960 553 464 267 597 360 798 561 333 333 566 746 677 1198 71 288 65 22 65
3118 0 2649 -1 2790 -18 2893 -73 432 -237 820 -487 1152 -181 240 -434 471
-685 626 -182 113 -4464 2576 -4573 2631 -222 112 -454 187 -722 234 -121 22
-183 27 -375 29 -126 2 -265 0 -308 -5z m408 -1271 c118 -14 251 -49 353 -93
64 -27 2201 -1249 2529 -1447 172 -102 215 -152 221 -254 7 -108 -28 -170
-137 -244 -77 -52 -2475 -1434 -2581 -1487 -333 -167 -739 -177 -1080 -25 -47
20 -177 91 -290 156 -113 65 -349 201 -525 303 -869 500 -816 474 -951 473
-112 0 -152 -16 -442 -177 -473 -262 -522 -307 -522 -479 0 -151 60 -218 350
-387 357 -209 1633 -941 1715 -984 259 -137 563 -231 866 -269 164 -20 465
-20 628 0 312 40 627 140 891 283 47 25 256 144 465 265 1087 627 2020 1164
2770 1596 240 138 286 155 408 148 76 -4 98 -10 160 -40 152 -76 338 -244 441
-397 98 -145 164 -306 203 -490 17 -80 18 -226 18 -2740 0 -2514 -1 -2660 -18
-2740 -39 -184 -105 -343 -204 -493 -63 -94 -229 -261 -323 -324 -75 -50
-2482 -1439 -2575 -1486 -90 -45 -153 -59 -213 -46 -64 13 -129 60 -160 116
-41 74 -43 178 -40 1723 4 1443 4 1456 25 1548 62 269 168 466 348 648 110
111 168 152 410 292 105 60 415 238 690 397 275 158 537 312 582 341 122 81
195 173 239 304 17 50 19 90 19 435 0 437 -3 461 -78 542 -64 69 -126 97 -217
98 -63 0 -87 -5 -152 -33 -85 -37 -1845 -1047 -1998 -1146 -142 -93 -280 -209
-421 -352 -401 -410 -643 -926 -709 -1509 -6 -58 -10 -816 -10 -2106 0 -1411
-3 -2033 -11 -2074 -25 -135 -102 -228 -251 -299 -201 -96 -353 -130 -578
-130 -215 1 -374 38 -563 133 -50 25 -540 304 -1087 620 -547 316 -1202 693
-1455 839 -253 146 -532 306 -620 357 -88 51 -412 237 -720 415 -308 177 -591
343 -630 368 -38 25 -118 94 -176 152 -156 155 -246 299 -314 503 -68 203 -66
156 -63 1812 3 1404 4 1493 21 1535 31 78 96 131 184 150 45 10 59 9 121 -13
39 -13 144 -66 233 -118 504 -287 2322 -1336 2365 -1365 269 -179 459 -463
536 -802 21 -95 22 -117 27 -1007 6 -907 6 -910 28 -968 46 -121 126 -224 228
-292 116 -76 511 -296 585 -325 89 -34 142 -37 217 -15 60 18 144 89 173 146
39 76 41 134 37 1339 -4 1279 0 1200 -65 1470 -149 622 -545 1180 -1087 1532
-55 36 -383 228 -730 428 -606 349 -1219 701 -1885 1085 -173 100 -427 247
-565 326 -265 152 -316 192 -367 285 -36 67 -58 154 -58 232 0 103 29 269 65
379 104 313 298 545 605 725 106 62 143 84 1040 600 349 201 1243 716 1985
1144 743 427 1390 795 1439 816 204 89 434 123 651 97z"/>
<path d="M68255 12952 c-35 -11 -67 -33 -107 -72 -95 -95 -88 2 -88 -1289 0
-644 5 -1169 10 -1226 20 -210 89 -554 150 -754 23 -74 24 -81 8 -81 -7 0 -30
50 -52 113 -151 441 -273 658 -490 872 -297 294 -666 533 -1119 724 -575 241
-1141 354 -1707 337 -739 -21 -1361 -167 -1869 -441 -425 -228 -787 -572
-1035 -984 -261 -431 -424 -960 -492 -1596 -21 -201 -30 -791 -15 -1006 46
-654 174 -1161 408 -1622 463 -907 1314 -1439 2518 -1571 215 -24 553 -38 720
-31 574 24 1129 160 1678 411 484 221 936 557 1111 826 99 153 221 423 301
666 18 55 32 82 42 82 18 0 17 -5 -25 -150 -42 -141 -86 -345 -113 -515 -19
-123 -22 -191 -26 -565 -5 -416 -4 -426 17 -482 28 -76 92 -140 166 -168 55
-20 67 -21 698 -18 l641 3 54 30 c65 36 115 92 135 153 14 41 16 458 16 4090
0 2977 -3 4055 -11 4082 -19 64 -78 131 -144 165 l-59 30 -635 2 c-569 2 -641
0 -686 -15z m-2575 -2712 c399 -30 740 -124 1091 -301 391 -198 710 -479 942
-829 351 -531 441 -1202 241 -1808 -175 -533 -575 -978 -1134 -1261 -424 -215
-843 -311 -1357 -311 -661 0 -1167 124 -1553 381 -123 82 -323 280 -408 406
-266 393 -394 997 -353 1663 28 443 100 745 247 1040 314 624 940 959 1909
1019 191 12 226 12 375 1z"/>
<path d="M38670 11604 c-617 -54 -1097 -235 -1578 -593 -174 -130 -436 -392
-569 -571 -224 -301 -362 -564 -468 -891 -42 -130 -107 -383 -135 -522 -7 -36
-16 -57 -23 -54 -14 5 -15 -2 17 202 60 378 61 401 61 1290 l0 820 -30 54
c-16 29 -47 68 -68 87 -77 65 -63 64 -762 64 l-632 0 -61 -31 c-72 -35 -114
-83 -142 -157 -20 -52 -20 -88 -20 -3346 0 -2918 2 -3298 15 -3344 22 -73 99
-154 171 -181 53 -20 74 -21 674 -21 602 0 621 1 675 21 72 27 137 92 164 164
21 55 21 66 21 1343 0 1497 4 1595 81 1989 216 1112 921 1824 1934 1954 129
17 415 6 530 -20 257 -57 450 -159 626 -329 296 -284 455 -659 536 -1262 15
-111 17 -317 22 -1890 l6 -1765 30 -53 c32 -59 66 -91 129 -125 l41 -22 660 0
660 0 53 30 c63 34 97 71 129 142 l24 52 -4 1858 c-4 1979 -3 1924 -53 2323
-207 1658 -954 2605 -2179 2765 -117 15 -445 27 -535 19z"/>
<path d="M47265 11569 c-790 -61 -1638 -382 -2205 -836 -124 -99 -303 -276
-370 -365 -112 -149 -218 -359 -319 -633 -69 -186 -70 -190 -81 -179 -5 5 5
57 25 128 45 155 88 355 117 536 21 135 22 177 23 605 l0 460 -31 55 c-34 61
-105 121 -164 139 -26 8 -228 11 -667 11 -722 0 -691 3 -779 -84 -92 -93 -84
117 -83 -2150 1 -1101 5 -2903 8 -4006 l6 -2005 27 -50 c31 -60 77 -104 138
-136 l45 -24 645 0 645 0 46 23 c55 27 113 83 142 137 l22 40 0 1145 c0 1052
-1 1154 -18 1260 -28 178 -73 393 -117 551 -23 86 -35 148 -30 153 11 11 12 7
81 -179 165 -449 312 -673 604 -924 551 -474 1342 -801 2170 -897 180 -21 624
-24 840 -5 584 51 1042 169 1457 377 290 145 500 295 719 513 536 537 831
1278 909 2280 13 172 13 709 0 877 -25 323 -60 555 -125 821 -333 1373 -1289
2168 -2810 2337 -299 34 -631 43 -870 25z m110 -1415 c427 -38 761 -125 1054
-274 164 -83 276 -165 406 -295 215 -215 353 -470 440 -818 68 -273 89 -504
82 -906 -5 -302 -16 -421 -58 -631 -209 -1049 -948 -1569 -2234 -1571 -240 0
-341 8 -535 42 -792 141 -1471 610 -1823 1259 -341 630 -323 1443 46 2048 314
515 871 906 1527 1072 370 94 650 113 1095 74z"/>
<path d="M55960 11574 c-468 -30 -749 -71 -1105 -159 -695 -173 -1287 -478
-1746 -902 -624 -575 -972 -1335 -1038 -2263 -52 -729 90 -1471 386 -2020 338
-624 834 -1091 1518 -1427 892 -438 2098 -589 3225 -402 1430 237 2467 970
2938 2079 315 742 368 1726 136 2548 -284 1008 -1019 1786 -2079 2201 -454
178 -918 282 -1470 331 -121 11 -663 21 -765 14z m659 -1409 c889 -114 1591
-600 1899 -1314 256 -594 237 -1334 -47 -1906 -337 -680 -1027 -1110 -1933
-1205 -128 -13 -486 -13 -624 1 -701 69 -1284 345 -1650 782 -334 398 -503
930 -481 1512 19 477 158 879 428 1237 87 115 283 308 410 403 378 283 845
457 1354 504 138 13 495 6 644 -14z"/>
<path d="M21210 11483 c-101 -8 -281 -36 -380 -58 -331 -76 -565 -198 -765
-399 -237 -238 -367 -537 -432 -996 -17 -117 -18 -284 -18 -2765 l0 -2640 22
-47 c29 -64 93 -123 160 -148 54 -20 69 -21 692 -18 l636 3 42 23 c58 30 111
86 137 141 l21 46 6 2360 c6 2429 5 2400 44 2586 32 150 87 262 165 332 94 84
269 139 490 152 58 4 593 10 1190 14 988 7 1089 9 1131 25 63 23 118 73 154
137 l30 54 0 500 c0 500 0 500 -23 542 -33 63 -74 106 -129 133 l-48 25 -1540
1 c-847 0 -1560 -1 -1585 -3z"/>
<path d="M26024 11474 c-55 -20 -118 -75 -152 -132 l-27 -47 -3 -1760 c-2
-1190 0 -1823 8 -1955 67 -1189 368 -2047 910 -2590 432 -433 974 -654 1692
-689 801 -39 1455 198 1979 719 237 235 435 513 599 840 92 183 189 499 271
880 12 58 26 109 30 114 20 22 20 -10 1 -126 -68 -406 -76 -550 -77 -1368 0
-716 0 -726 21 -771 32 -68 82 -119 149 -151 l60 -28 630 0 630 0 60 28 c67
32 117 83 149 151 l21 46 0 3310 c0 3223 0 3311 -19 3359 -23 60 -74 118 -135
154 l-46 27 -660 0 -660 0 -45 -27 c-61 -36 -104 -83 -132 -143 l-23 -50 -6
-1435 c-6 -1525 -4 -1488 -54 -1797 -141 -875 -520 -1492 -1115 -1817 -105
-56 -280 -123 -412 -155 -178 -44 -294 -55 -488 -48 -486 19 -844 156 -1115
431 -258 261 -405 604 -482 1126 -15 104 -17 291 -22 1905 l-6 1790 -23 50
c-27 60 -82 118 -137 148 -40 22 -44 22 -685 24 -546 1 -651 -1 -686 -13z"/>
</g>
</svg>
