<?xml version="1.0" standalone="no"?>
<!DOCTYPE svg PUBLIC "-//W3C//DTD SVG 20010904//EN"
 "http://www.w3.org/TR/2001/REC-SVG-20010904/DTD/svg10.dtd">
<svg version="1.0" xmlns="http://www.w3.org/2000/svg"
 width="4829.000000pt" height="1600.000000pt" viewBox="0 0 4829.000000 1600.000000"
 preserveAspectRatio="xMidYMid meet">
<metadata>
Created by potrace 1.16, written by Peter Selinger 2001-2019
</metadata>
<g transform="translate(0.000000,1600.000000) scale(0.100000,-0.100000)"
fill="#ffffff" stroke="none">
<path d="M15630 12410 c-20 -20 -20 -20 -20 -3484 0 -2227 3 -3474 10 -3490
l10 -26 514 0 c586 0 536 -8 536 88 0 27 7 63 15 78 9 18 15 57 15 105 0 49 6
87 15 105 9 18 15 56 15 97 0 38 5 78 12 90 7 12 14 55 17 96 4 41 11 76 16
78 6 1 24 -19 40 -46 69 -112 275 -342 345 -383 19 -12 54 -39 78 -60 23 -21
54 -44 70 -51 15 -6 30 -16 34 -21 7 -11 88 -58 134 -80 17 -8 35 -19 38 -25
4 -6 15 -11 25 -11 10 0 24 -7 31 -15 7 -8 22 -15 34 -15 12 0 31 -7 42 -15
10 -8 28 -15 40 -15 11 0 29 -7 40 -15 10 -8 31 -15 47 -15 15 0 44 -9 64 -20
21 -11 54 -20 73 -20 19 0 44 -7 54 -15 12 -9 43 -15 80 -15 34 0 86 -7 116
-15 76 -20 339 -21 406 0 27 8 79 15 115 15 47 0 70 4 79 15 8 9 30 15 56 15
25 0 60 9 81 20 21 11 49 20 63 20 14 0 34 7 44 15 11 8 32 15 47 15 15 0 29
7 33 15 3 8 14 15 25 15 11 0 40 9 63 21 124 61 167 84 205 109 22 15 49 31
60 34 10 3 31 18 48 33 16 15 45 36 65 46 19 11 46 31 60 46 14 14 50 46 80
69 87 69 151 132 209 207 30 38 66 81 81 95 14 14 36 42 49 63 13 21 37 53 52
70 16 17 29 39 29 49 0 9 6 21 14 25 8 4 24 27 36 50 12 23 28 47 36 54 8 6
14 22 14 34 0 13 7 25 15 29 8 3 15 16 15 30 0 13 7 26 15 30 8 3 15 17 15 31
0 14 7 28 15 31 8 4 15 17 15 29 0 13 7 31 16 39 8 9 18 32 21 51 3 19 12 40
19 46 8 6 14 24 14 39 0 15 7 33 15 40 8 7 15 27 15 44 0 18 7 41 15 52 8 10
15 35 15 54 0 20 7 45 15 58 9 12 17 45 19 74 2 29 11 67 20 83 9 17 16 53 16
80 0 28 7 73 16 100 12 41 15 116 15 435 -1 251 -5 399 -12 425 -6 22 -14 75
-18 117 -4 42 -12 82 -18 90 -6 7 -14 39 -17 70 -4 32 -13 70 -21 85 -8 16
-15 42 -15 59 0 16 -7 39 -15 50 -8 10 -15 36 -15 57 0 24 -5 40 -15 43 -8 4
-15 18 -15 33 0 15 -7 36 -15 47 -8 10 -15 27 -15 37 0 9 -9 34 -20 54 -11 21
-20 43 -20 50 0 7 -4 13 -9 13 -5 0 -12 10 -16 23 -6 21 -63 138 -88 182 -46
78 -159 244 -181 264 -14 14 -26 29 -26 34 0 29 -250 287 -331 342 -24 16 -56
41 -70 55 -14 14 -41 34 -60 44 -19 10 -42 25 -51 33 -17 15 -82 53 -133 78
-29 15 -44 23 -82 45 -10 6 -25 13 -33 16 -8 3 -33 14 -56 25 -23 10 -48 19
-56 19 -9 0 -21 7 -28 15 -7 8 -27 15 -45 15 -18 0 -38 7 -45 15 -7 8 -29 15
-49 15 -21 0 -46 7 -57 15 -10 8 -41 15 -67 15 -26 0 -64 7 -85 16 -55 24
-602 24 -647 0 -16 -9 -53 -16 -81 -16 -28 0 -58 -6 -70 -15 -10 -8 -35 -15
-55 -15 -20 0 -42 -7 -49 -15 -7 -8 -25 -15 -39 -15 -15 0 -36 -7 -47 -15 -10
-8 -27 -15 -37 -15 -10 0 -35 -9 -55 -19 -20 -11 -59 -30 -87 -44 -96 -46
-154 -79 -166 -93 -6 -8 -17 -14 -23 -14 -6 0 -22 -10 -36 -21 -14 -11 -47
-35 -75 -53 -65 -43 -330 -309 -362 -363 -14 -24 -29 -40 -34 -37 -5 3 -9 586
-9 1417 0 872 -4 1418 -10 1427 -8 13 -89 15 -609 18 -591 2 -601 2 -621 -18z
m2695 -3214 c11 -7 39 -16 61 -19 23 -4 54 -14 70 -22 16 -8 39 -15 50 -15 12
0 27 -7 34 -15 7 -8 23 -15 37 -15 13 0 26 -7 29 -15 4 -8 17 -15 30 -15 12 0
27 -6 31 -13 4 -8 24 -22 43 -33 47 -26 187 -147 228 -198 19 -22 37 -43 41
-46 14 -10 81 -97 81 -105 0 -5 6 -16 14 -24 24 -26 116 -209 116 -230 0 -10
7 -24 15 -31 8 -7 15 -27 15 -45 0 -18 7 -38 15 -45 9 -7 15 -29 15 -52 0 -21
7 -55 15 -75 8 -19 15 -56 15 -82 1 -25 7 -75 15 -111 19 -84 18 -278 0 -355
-8 -33 -15 -85 -15 -115 0 -30 -7 -66 -15 -80 -8 -14 -14 -44 -15 -66 0 -24
-6 -47 -15 -54 -8 -7 -15 -27 -15 -44 0 -18 -7 -41 -15 -52 -8 -10 -15 -29
-15 -40 0 -12 -7 -27 -15 -34 -8 -7 -15 -20 -15 -30 0 -9 -9 -27 -20 -40 -11
-13 -20 -31 -20 -40 0 -10 -7 -20 -15 -24 -8 -3 -15 -14 -15 -23 0 -10 -13
-33 -29 -50 -15 -17 -39 -49 -52 -70 -33 -55 -135 -159 -196 -199 -28 -19 -59
-41 -68 -50 -26 -26 -212 -124 -236 -124 -9 0 -22 -7 -29 -15 -7 -8 -29 -15
-49 -15 -21 0 -46 -7 -57 -15 -12 -9 -43 -14 -82 -15 -34 0 -79 -7 -99 -15
-22 -9 -68 -15 -123 -15 -55 0 -101 6 -123 15 -20 8 -65 15 -99 15 -39 1 -70
6 -82 15 -11 8 -34 15 -52 15 -17 0 -37 7 -44 15 -7 8 -21 15 -32 15 -10 0
-36 9 -56 20 -20 10 -44 22 -52 25 -8 3 -28 14 -45 25 -16 11 -37 23 -45 27
-8 4 -19 12 -25 19 -5 7 -26 21 -45 31 -41 21 -240 219 -240 238 0 7 -16 30
-35 51 -19 22 -35 47 -35 56 0 9 -5 20 -11 23 -5 4 -14 17 -20 28 -5 12 -13
29 -18 37 -4 8 -15 31 -23 50 -8 19 -25 56 -37 81 -11 25 -21 55 -21 66 0 11
-7 26 -15 33 -9 8 -15 30 -15 60 0 30 -6 52 -15 60 -11 9 -15 32 -15 79 0 36
-7 84 -15 106 -20 57 -21 347 0 405 8 23 15 73 15 110 0 48 4 71 15 80 9 7 15
29 15 54 0 23 7 51 15 62 8 10 15 28 15 39 0 11 9 37 20 58 11 20 20 44 20 53
0 8 7 22 15 30 8 9 15 24 15 35 0 11 7 22 15 25 8 4 15 17 15 30 0 14 7 27 15
30 8 4 15 12 15 19 0 18 120 177 184 243 28 29 74 68 101 86 28 19 59 43 69
55 11 12 27 21 37 21 10 0 21 5 24 11 4 5 17 14 28 20 12 5 29 13 37 17 48 27
84 42 99 42 9 0 26 6 37 14 11 8 40 17 64 21 24 4 53 13 64 21 29 20 492 21
521 0z"/>
<path d="M24027 12423 c-4 -3 -7 -1583 -7 -3510 l0 -3503 608 2 607 3 0 3505
0 3505 -601 3 c-330 1 -604 -1 -607 -5z"/>
<path d="M21976 12345 c-11 -8 -32 -15 -46 -15 -28 0 -150 -59 -176 -85 -9 -8
-21 -15 -28 -15 -35 0 -225 -244 -226 -290 0 -8 -7 -24 -15 -34 -8 -11 -15
-39 -15 -62 0 -23 -7 -55 -15 -70 -9 -18 -15 -56 -15 -99 0 -43 6 -81 15 -99
8 -15 15 -44 15 -62 0 -19 9 -51 20 -71 11 -21 20 -45 20 -54 0 -9 7 -22 15
-29 8 -7 15 -19 15 -26 0 -17 198 -224 215 -224 6 0 22 -9 35 -20 13 -11 31
-20 40 -20 10 0 23 -7 30 -15 7 -8 23 -15 37 -15 13 0 35 -7 48 -16 36 -24
368 -24 394 0 10 9 28 16 42 16 13 0 38 9 54 20 17 11 38 20 48 20 9 0 17 3
17 8 0 4 29 26 65 50 62 42 135 114 135 134 0 6 14 27 30 48 17 21 30 45 30
53 0 8 7 20 15 27 8 7 15 24 15 39 0 15 8 38 18 51 14 21 18 52 20 176 3 138
2 155 -17 192 -12 23 -21 47 -21 54 0 6 -16 44 -35 84 -26 54 -58 94 -127 164
-50 51 -106 98 -124 106 -18 8 -35 18 -39 24 -3 5 -14 10 -24 10 -10 0 -24 7
-31 15 -7 8 -27 15 -44 15 -18 0 -41 7 -52 15 -15 11 -53 14 -169 14 -116 0
-154 -3 -169 -14z"/>
<path d="M26940 12345 c-14 -8 -39 -14 -56 -15 -17 0 -37 -7 -44 -15 -7 -8
-20 -15 -30 -15 -10 0 -23 -7 -30 -15 -7 -8 -18 -15 -26 -15 -7 0 -21 -8 -31
-18 -10 -10 -37 -30 -60 -45 -43 -27 -163 -175 -163 -200 0 -8 -9 -22 -20 -32
-11 -10 -20 -30 -20 -45 0 -15 -6 -33 -14 -39 -36 -30 -36 -414 0 -428 8 -3
14 -14 14 -24 0 -20 37 -97 57 -117 7 -7 13 -19 13 -26 0 -20 136 -154 179
-177 22 -11 45 -27 52 -35 6 -8 19 -14 29 -14 10 0 23 -7 30 -15 7 -8 26 -15
43 -15 17 0 38 -7 48 -16 15 -13 47 -16 199 -16 152 0 184 3 199 16 10 9 29
16 43 16 14 0 31 7 38 15 7 8 21 15 31 15 9 0 25 8 34 17 10 9 34 25 54 36 44
23 171 151 171 172 0 8 9 23 20 32 11 10 20 25 20 34 0 9 7 22 15 29 8 7 15
24 15 38 0 14 8 34 17 45 16 16 18 42 17 206 0 159 -3 191 -17 212 -9 13 -17
33 -17 45 0 12 -7 27 -15 34 -8 7 -15 18 -15 25 0 26 -125 178 -184 223 -67
52 -119 82 -140 82 -7 0 -19 7 -26 15 -7 8 -27 15 -44 15 -18 0 -41 7 -52 15
-27 20 -298 21 -334 0z"/>
<path d="M45820 12345 c-7 -8 -27 -15 -44 -15 -18 0 -41 -7 -52 -15 -10 -8
-29 -15 -41 -15 -12 0 -26 -6 -30 -14 -4 -7 -26 -23 -48 -34 -46 -23 -205
-184 -205 -207 0 -8 -9 -23 -20 -32 -11 -10 -20 -27 -20 -39 0 -12 -7 -27 -15
-34 -8 -7 -15 -27 -15 -44 0 -18 -7 -41 -15 -52 -11 -15 -14 -53 -14 -169 0
-116 3 -154 14 -169 8 -11 15 -29 15 -40 0 -27 60 -146 89 -177 13 -13 29 -36
37 -51 8 -15 35 -43 62 -62 26 -20 54 -42 62 -50 26 -24 148 -86 171 -86 12 0
30 -7 40 -16 15 -14 47 -16 199 -16 152 0 184 2 199 16 10 9 29 16 43 16 14 0
31 7 38 15 7 8 18 15 24 15 55 0 260 186 288 262 4 10 15 26 23 34 8 9 15 24
15 33 0 10 7 24 15 31 8 7 15 29 15 49 0 20 7 45 15 55 21 27 21 250 0 286 -8
14 -14 39 -15 55 0 17 -6 39 -14 50 -7 11 -17 31 -21 44 -4 14 -20 42 -36 64
-16 22 -29 44 -29 49 0 17 -139 148 -179 169 -22 11 -45 27 -52 35 -6 8 -22
14 -34 14 -12 0 -28 7 -35 15 -7 8 -27 15 -44 15 -18 0 -41 7 -52 15 -28 21
-316 22 -334 0z"/>
<path d="M6371 11333 c-21 -18 -21 -22 -24 -553 l-2 -535 -331 -3 c-264 -2
-334 -5 -343 -16 -8 -9 -10 -156 -9 -517 l3 -504 335 -2 335 -2 5 -1108 c4
-861 8 -1113 18 -1130 7 -13 12 -57 12 -105 0 -64 5 -92 20 -121 12 -22 20
-56 20 -85 0 -27 6 -57 15 -68 8 -10 15 -35 15 -55 0 -20 7 -42 15 -49 8 -7
15 -27 15 -45 0 -18 7 -38 15 -45 8 -7 15 -25 15 -40 0 -15 7 -33 15 -40 8 -7
15 -18 15 -25 0 -7 9 -24 20 -38 11 -14 20 -33 20 -42 0 -9 7 -23 15 -31 8 -9
15 -24 15 -35 0 -10 4 -19 9 -19 5 0 19 -21 31 -46 13 -25 29 -48 37 -51 8 -3
19 -15 24 -27 18 -41 35 -61 154 -182 66 -66 134 -128 152 -137 18 -10 45 -29
60 -43 15 -14 37 -30 48 -35 11 -5 36 -19 55 -30 19 -12 58 -33 85 -46 28 -14
62 -31 77 -39 14 -8 33 -14 41 -14 8 0 20 -7 27 -15 7 -8 25 -15 39 -15 15 0
36 -7 47 -15 10 -8 33 -15 50 -15 16 0 39 -7 50 -15 10 -8 36 -15 56 -15 21 0
60 -9 88 -20 31 -12 75 -20 113 -20 34 0 80 -7 102 -15 58 -21 578 -21 632 -1
21 8 81 17 133 19 63 3 105 10 125 20 17 9 44 17 61 17 16 0 35 5 42 12 17 17
17 1019 0 1036 -16 16 -107 14 -138 -3 -37 -21 -546 -21 -574 0 -11 8 -40 15
-65 15 -25 0 -55 7 -65 15 -11 8 -33 15 -48 15 -16 0 -31 7 -34 15 -4 8 -16
15 -29 15 -12 0 -28 7 -35 15 -7 8 -19 15 -26 15 -8 0 -22 9 -31 20 -10 11
-21 20 -26 20 -19 0 -102 74 -138 122 -21 29 -45 60 -54 69 -8 9 -15 25 -15
36 0 12 -7 23 -15 27 -8 3 -15 16 -15 29 0 14 -7 30 -15 37 -8 7 -15 26 -15
42 0 16 -6 39 -12 51 -7 12 -16 58 -21 102 -12 109 -20 2035 -9 2077 l8 33
640 5 639 5 3 513 c1 281 1 513 0 514 -2 2 -293 5 -648 8 l-645 5 -2 535 c-2
534 -2 535 -24 553 -20 16 -63 17 -579 17 -516 0 -559 -1 -579 -17z"/>
<path d="M29252 11334 l-22 -15 0 -540 0 -539 -335 0 c-322 0 -336 -1 -355
-20 -19 -19 -20 -33 -20 -510 0 -474 1 -490 19 -500 13 -6 143 -10 355 -10
l336 0 0 -1147 c1 -976 3 -1152 15 -1173 8 -15 15 -54 15 -95 0 -48 7 -83 20
-110 11 -22 19 -59 20 -81 0 -24 6 -47 15 -54 8 -7 15 -29 15 -50 0 -21 7 -43
15 -50 8 -7 15 -24 15 -39 0 -15 6 -35 14 -46 7 -11 16 -32 20 -47 3 -16 11
-28 16 -28 6 0 10 -11 10 -23 0 -13 9 -32 20 -42 11 -10 20 -26 20 -36 0 -10
4 -20 9 -23 5 -3 19 -25 31 -48 12 -24 31 -51 41 -61 10 -10 19 -24 19 -32 0
-32 342 -375 374 -375 7 0 26 -12 41 -26 16 -15 43 -33 61 -40 18 -8 35 -18
39 -24 3 -5 13 -10 22 -10 9 0 24 -7 33 -15 10 -9 27 -17 39 -20 12 -2 28 -11
37 -19 8 -9 26 -16 38 -16 13 0 29 -7 36 -15 7 -8 27 -15 45 -15 18 0 38 -7
45 -15 7 -8 27 -15 44 -15 17 0 40 -7 50 -15 11 -8 38 -15 60 -15 23 0 55 -7
71 -16 18 -10 63 -18 110 -21 44 -2 97 -11 118 -19 54 -20 580 -20 634 0 21 8
81 17 133 19 63 3 105 10 125 20 17 9 42 17 57 17 17 0 31 8 38 19 15 30 14
1013 -2 1029 -17 17 -97 15 -132 -3 -42 -22 -558 -22 -576 0 -8 9 -30 15 -59
15 -26 0 -56 7 -67 15 -10 8 -28 15 -39 15 -11 0 -29 6 -40 14 -11 7 -31 17
-43 21 -85 26 -282 198 -298 259 -3 13 -12 27 -20 30 -8 3 -14 16 -14 29 0 14
-7 30 -15 37 -8 7 -15 24 -15 39 0 15 -7 37 -16 49 -8 12 -18 48 -21 80 -2 31
-11 74 -19 95 -12 31 -14 200 -14 1041 0 553 3 1011 6 1020 6 14 71 16 641 16
418 0 641 4 654 10 18 10 19 27 19 504 0 447 -2 495 -17 507 -13 11 -134 15
-657 19 l-641 5 -3 540 c-2 494 -3 541 -19 553 -13 9 -144 12 -573 12 -487 0
-558 -2 -578 -16z"/>
<path d="M3110 10331 c-87 -4 -154 -11 -167 -18 -12 -7 -50 -13 -85 -13 -41 0
-71 -5 -84 -15 -10 -8 -40 -15 -65 -15 -29 0 -51 -6 -59 -15 -7 -9 -29 -15
-51 -15 -20 0 -44 -6 -51 -14 -8 -7 -33 -17 -56 -21 -23 -4 -42 -11 -42 -16 0
-5 -12 -11 -27 -15 -16 -3 -74 -29 -131 -57 -135 -68 -155 -79 -196 -111 -19
-14 -40 -26 -46 -26 -16 0 -340 -329 -340 -346 0 -7 -16 -34 -35 -60 -19 -25
-35 -51 -35 -59 0 -7 -7 -18 -15 -25 -8 -7 -15 -20 -15 -30 0 -10 -7 -23 -15
-30 -8 -7 -15 -22 -15 -34 0 -12 -7 -31 -15 -42 -8 -10 -15 -28 -15 -39 0 -11
-9 -37 -20 -58 -11 -20 -20 -52 -20 -71 0 -18 -7 -50 -15 -69 -21 -52 -21
-510 0 -547 8 -14 14 -41 15 -60 0 -19 9 -48 20 -65 11 -16 20 -39 20 -49 0
-11 16 -52 36 -90 51 -101 56 -110 92 -152 18 -20 32 -42 32 -49 0 -11 115
-130 155 -160 11 -8 43 -32 70 -53 74 -57 144 -101 230 -146 28 -15 57 -31 65
-36 8 -5 38 -18 65 -30 28 -12 63 -28 78 -36 16 -8 37 -14 47 -14 9 0 23 -7
30 -15 7 -8 25 -15 41 -15 15 0 34 -7 43 -15 8 -8 23 -15 33 -15 10 0 35 -9
56 -20 20 -11 50 -20 66 -20 16 0 34 -7 41 -15 7 -8 29 -15 50 -15 21 0 43 -7
50 -15 7 -8 29 -15 49 -15 21 0 46 -7 57 -15 10 -8 31 -15 47 -15 15 0 44 -9
64 -20 21 -11 51 -20 68 -20 16 0 39 -7 49 -15 11 -8 34 -15 50 -15 17 0 40
-7 50 -15 11 -8 31 -15 45 -15 14 0 35 -7 45 -15 11 -8 34 -15 52 -15 17 0 37
-7 44 -15 7 -8 25 -15 40 -15 15 0 37 -9 50 -20 13 -11 30 -20 38 -20 18 0
160 -69 168 -81 3 -5 12 -9 19 -9 23 0 165 -145 165 -168 0 -11 7 -22 15 -26
12 -4 15 -29 15 -139 0 -107 -3 -137 -15 -147 -8 -7 -15 -22 -15 -33 0 -26
-173 -197 -199 -197 -10 0 -24 -7 -31 -15 -7 -8 -22 -15 -34 -15 -11 0 -34 -9
-51 -20 -16 -11 -46 -20 -65 -20 -19 0 -44 -7 -54 -15 -13 -10 -44 -15 -92
-15 -39 0 -109 -7 -155 -16 -84 -16 -139 -15 -259 5 -30 5 -92 10 -138 10 -49
1 -97 7 -119 16 -19 8 -56 15 -82 15 -25 1 -64 9 -86 20 -22 11 -56 19 -76 20
-20 0 -42 7 -49 15 -7 8 -29 15 -50 15 -21 0 -43 7 -50 15 -7 8 -25 15 -40 15
-15 0 -33 7 -40 15 -7 8 -23 15 -35 15 -12 0 -28 7 -35 15 -7 8 -20 15 -29 15
-16 0 -133 57 -201 99 -19 11 -42 23 -50 27 -20 7 -25 11 -109 69 -40 28 -81
55 -93 61 -11 7 -34 25 -51 41 -47 43 -120 99 -138 105 -9 4 -22 1 -28 -5 -8
-8 -11 -170 -11 -568 l0 -556 48 -43 c26 -23 61 -48 78 -56 17 -7 36 -20 44
-28 7 -9 21 -16 31 -16 11 0 19 -4 19 -9 0 -5 12 -14 28 -20 15 -5 50 -22 77
-36 85 -46 106 -55 120 -55 8 0 20 -7 28 -15 8 -8 26 -16 41 -19 14 -2 36 -12
48 -20 12 -9 34 -16 49 -16 15 0 32 -7 39 -15 7 -8 27 -15 44 -15 18 0 41 -7
52 -15 10 -8 35 -15 55 -15 20 0 42 -7 49 -15 8 -9 29 -15 55 -15 24 0 62 -9
86 -20 28 -12 67 -20 104 -20 37 0 68 -6 79 -15 14 -10 45 -15 102 -15 45 0
118 -7 161 -15 105 -20 471 -20 563 0 36 8 101 14 146 15 55 0 86 5 100 15 11
8 42 15 74 15 33 0 71 9 95 20 22 11 59 19 81 20 24 0 47 6 54 15 7 8 27 15
45 15 18 0 38 7 45 15 7 8 27 15 45 15 18 0 38 7 45 15 7 8 23 15 35 15 12 0
28 7 35 15 7 8 19 15 27 15 19 0 96 42 106 58 4 6 19 12 32 12 14 0 25 5 25
11 0 5 16 17 35 25 20 8 44 22 53 32 26 24 80 62 89 62 10 0 243 235 243 244
0 10 43 70 58 79 6 4 12 13 12 19 0 5 14 30 30 55 17 24 30 48 30 53 0 9 26
65 56 122 8 14 14 37 14 50 0 12 7 32 15 42 8 11 15 36 15 55 0 20 7 45 15 55
9 13 15 43 15 80 0 34 7 93 15 131 19 89 19 203 0 280 -8 33 -14 90 -15 126 0
47 -5 70 -15 79 -8 7 -15 29 -15 50 0 21 -7 43 -15 50 -8 7 -15 23 -15 37 0
21 -10 45 -51 123 -5 8 -18 34 -30 58 -13 23 -26 42 -31 42 -4 0 -14 15 -21
33 -17 39 -223 249 -270 275 -18 10 -51 31 -73 47 -46 35 -70 51 -104 67 -14
7 -27 15 -30 18 -13 13 -157 80 -173 80 -10 0 -20 7 -23 15 -4 8 -18 15 -34
15 -15 0 -33 7 -40 15 -7 8 -25 15 -41 15 -15 0 -34 6 -41 13 -7 8 -31 17 -52
21 -21 4 -45 14 -53 22 -8 8 -29 14 -47 14 -19 0 -39 7 -46 15 -7 9 -29 15
-55 15 -26 0 -48 6 -55 15 -7 8 -29 15 -49 15 -21 0 -46 7 -57 15 -10 8 -35
15 -54 15 -19 0 -52 9 -73 20 -20 11 -52 20 -69 20 -18 0 -42 7 -52 15 -11 8
-36 15 -56 15 -20 0 -45 7 -56 15 -10 8 -35 15 -55 15 -20 0 -42 7 -49 15 -7
8 -27 15 -46 15 -18 0 -39 6 -46 13 -7 8 -30 17 -50 21 -20 3 -41 13 -48 21
-7 8 -22 15 -34 15 -11 0 -30 7 -40 15 -11 8 -27 15 -37 15 -9 0 -19 7 -23 15
-3 8 -13 15 -21 15 -31 0 -165 110 -165 135 0 6 -9 18 -20 28 -11 9 -20 28
-20 41 0 13 -6 26 -12 28 -21 7 -24 172 -4 203 9 13 16 32 16 41 0 9 9 27 20
41 11 14 20 31 20 38 0 17 86 95 104 95 8 0 16 4 18 8 5 13 78 52 97 52 10 0
24 7 31 15 7 9 29 15 52 15 21 0 51 8 65 18 25 15 58 17 343 16 272 -1 320 -3
347 -18 19 -9 56 -16 91 -16 36 0 66 -6 78 -15 10 -8 40 -15 65 -15 25 0 54
-7 65 -15 10 -8 33 -15 49 -15 17 0 39 -6 50 -14 11 -7 39 -17 62 -21 23 -3
47 -13 54 -21 6 -8 23 -14 38 -14 14 0 35 -7 45 -15 11 -8 30 -15 42 -15 12 0
27 -7 34 -15 7 -8 20 -15 30 -15 10 0 23 -7 30 -15 7 -8 22 -15 35 -15 12 0
30 -9 40 -20 10 -11 26 -20 35 -20 9 0 21 -5 27 -11 14 -14 52 -36 76 -45 9
-3 17 -10 17 -14 0 -14 72 -51 94 -48 l21 3 3 513 c2 445 0 517 -13 542 -9 17
-22 30 -30 30 -7 0 -20 6 -27 13 -7 6 -33 22 -58 35 -25 12 -52 27 -60 32 -34
20 -97 47 -122 54 -16 3 -28 11 -28 16 0 6 -13 10 -29 10 -16 0 -34 7 -41 15
-7 8 -25 15 -41 15 -16 0 -46 9 -66 20 -21 11 -47 20 -58 20 -11 1 -31 7 -45
15 -14 8 -44 14 -66 15 -24 0 -47 6 -54 15 -8 10 -31 15 -64 15 -28 1 -62 7
-76 15 -15 8 -53 14 -91 15 -37 0 -84 6 -105 14 -46 16 -469 26 -694 17z"/>
<path d="M11445 10331 c-60 -3 -120 -12 -132 -18 -12 -7 -46 -13 -76 -13 -36
0 -59 -5 -67 -15 -7 -9 -29 -15 -55 -15 -26 0 -48 -6 -55 -15 -7 -8 -23 -15
-36 -15 -13 0 -41 -9 -61 -20 -21 -11 -45 -20 -54 -20 -9 0 -22 -7 -29 -15 -7
-8 -23 -15 -35 -15 -13 0 -25 -7 -29 -15 -3 -8 -17 -15 -31 -15 -14 0 -28 -7
-31 -15 -4 -8 -17 -15 -30 -15 -14 0 -27 -7 -30 -15 -3 -8 -16 -17 -27 -21
-12 -3 -38 -18 -57 -33 -19 -14 -52 -35 -72 -45 -21 -11 -38 -23 -38 -27 0 -4
-24 -22 -52 -39 -61 -37 -422 -397 -433 -430 -4 -13 -20 -35 -35 -50 -16 -15
-38 -46 -49 -67 -11 -22 -27 -45 -35 -52 -9 -8 -16 -18 -16 -23 0 -6 -13 -30
-30 -55 -16 -24 -30 -51 -30 -59 0 -8 -7 -17 -15 -20 -8 -4 -15 -16 -15 -28 0
-12 -9 -29 -20 -39 -11 -9 -20 -25 -20 -36 0 -10 -7 -24 -15 -31 -8 -7 -15
-23 -15 -35 0 -12 -7 -28 -15 -35 -8 -7 -15 -22 -15 -34 0 -12 -7 -31 -15 -42
-8 -10 -15 -29 -15 -40 0 -12 -7 -27 -15 -34 -8 -7 -15 -25 -15 -41 0 -16 -9
-46 -20 -66 -11 -21 -20 -49 -20 -63 0 -14 -7 -34 -15 -44 -8 -11 -15 -41 -15
-66 0 -25 -7 -55 -15 -66 -8 -11 -14 -41 -15 -72 0 -29 -5 -63 -12 -75 -7 -12
-15 -80 -19 -152 -4 -71 -12 -143 -18 -158 -17 -43 -14 -348 4 -432 8 -39 15
-109 15 -156 0 -54 6 -100 15 -122 8 -20 15 -58 15 -85 0 -27 6 -57 15 -68 8
-10 15 -40 15 -66 0 -28 6 -53 15 -62 8 -8 15 -28 15 -45 0 -17 9 -48 20 -68
11 -21 20 -48 20 -61 0 -13 7 -30 15 -38 8 -9 15 -28 15 -43 0 -16 7 -34 15
-41 8 -7 15 -23 15 -35 0 -12 7 -28 15 -35 8 -7 15 -19 15 -26 0 -19 103 -217
118 -227 6 -4 12 -15 12 -24 0 -8 14 -32 30 -53 17 -21 30 -42 30 -48 0 -6 16
-29 35 -52 19 -23 35 -46 35 -50 0 -5 21 -31 46 -59 25 -27 67 -78 93 -113 56
-73 152 -167 231 -225 30 -22 62 -48 70 -58 8 -9 41 -35 75 -57 33 -22 64 -46
68 -54 4 -8 14 -14 22 -14 8 0 34 -13 58 -30 25 -16 49 -30 55 -30 5 0 15 -7
22 -15 7 -8 19 -15 27 -15 8 0 26 -9 40 -20 14 -11 34 -20 43 -20 10 0 23 -7
30 -15 7 -8 22 -15 34 -15 11 0 30 -7 40 -15 11 -8 30 -15 42 -15 12 0 27 -7
34 -15 7 -8 25 -15 41 -15 16 0 46 -9 66 -20 21 -11 56 -20 78 -20 22 0 49 -7
59 -15 12 -9 42 -15 76 -15 31 0 79 -7 106 -15 68 -21 342 -21 410 0 27 8 76
15 110 15 37 0 68 6 80 15 10 8 38 15 62 15 23 0 59 9 79 20 21 11 49 20 63
20 15 0 35 7 46 15 10 8 32 15 47 15 15 0 30 7 33 15 4 8 15 15 25 15 26 0
132 52 207 102 24 15 49 28 55 28 7 0 27 14 46 30 18 17 45 37 61 45 15 8 43
29 62 47 19 18 56 51 83 72 52 41 154 146 155 158 0 4 22 29 49 56 27 27 57
64 66 82 20 39 64 82 76 74 5 -3 9 -39 9 -80 0 -49 7 -94 20 -131 11 -32 20
-83 20 -115 0 -32 7 -75 15 -95 9 -21 15 -67 15 -112 0 -46 5 -82 12 -89 6 -6
14 -31 17 -54 l6 -43 510 0 510 0 0 2410 0 2410 -493 3 c-328 1 -499 -1 -512
-8 -15 -8 -20 -21 -20 -49 0 -22 -6 -44 -15 -51 -11 -9 -15 -33 -15 -92 0 -47
-6 -93 -15 -115 -8 -19 -15 -62 -15 -95 0 -32 -7 -75 -16 -96 -9 -20 -18 -75
-21 -122 -2 -47 -7 -91 -9 -99 -6 -19 -55 28 -99 94 -37 57 -311 330 -366 366
-20 13 -64 43 -98 67 -35 23 -65 42 -68 42 -3 0 -25 14 -50 30 -24 17 -50 30
-57 30 -8 0 -19 7 -26 15 -7 8 -19 15 -26 15 -8 0 -31 9 -51 20 -21 11 -45 20
-53 20 -8 0 -24 7 -34 15 -11 8 -32 15 -47 15 -14 0 -32 7 -39 15 -7 9 -29 15
-55 15 -26 0 -48 6 -55 15 -8 10 -31 15 -67 15 -29 0 -68 6 -86 13 -38 16
-363 27 -532 18z m779 -1136 c15 -8 40 -15 55 -15 14 0 43 -9 64 -20 20 -11
45 -20 56 -20 10 0 24 -7 31 -15 7 -8 23 -15 35 -15 12 0 28 -7 35 -15 7 -8
21 -15 31 -15 11 0 19 -4 19 -10 0 -5 15 -16 33 -23 17 -8 43 -25 57 -39 14
-13 45 -38 70 -55 49 -33 125 -111 156 -158 10 -17 31 -42 47 -57 15 -15 27
-32 27 -37 0 -6 14 -30 30 -54 17 -25 30 -49 30 -54 0 -6 9 -20 20 -33 11 -13
20 -33 20 -45 0 -13 7 -28 15 -35 8 -7 15 -22 15 -34 0 -12 7 -31 15 -42 8
-10 15 -33 15 -49 0 -17 7 -40 15 -51 8 -12 17 -45 20 -74 3 -29 12 -62 19
-74 9 -14 16 -80 21 -201 5 -99 7 -187 7 -195 -1 -8 -5 -74 -9 -146 -5 -81
-13 -137 -21 -147 -7 -8 -15 -39 -19 -68 -3 -30 -12 -63 -19 -74 -8 -11 -14
-34 -14 -51 0 -17 -7 -37 -15 -44 -8 -7 -15 -23 -15 -36 0 -12 -7 -29 -15 -38
-8 -8 -15 -26 -15 -41 0 -14 -7 -28 -15 -31 -8 -3 -17 -15 -21 -27 -21 -66
-157 -250 -246 -332 -82 -75 -200 -157 -268 -185 -14 -6 -37 -17 -52 -25 -14
-8 -35 -15 -46 -15 -11 0 -22 -7 -26 -15 -3 -10 -19 -15 -43 -15 -21 0 -47 -7
-57 -15 -13 -10 -43 -15 -85 -15 -39 0 -78 -6 -95 -15 -38 -20 -211 -20 -246
0 -15 9 -53 14 -96 15 -51 0 -75 4 -84 15 -7 8 -29 15 -50 15 -21 0 -43 7 -50
15 -7 8 -21 15 -31 15 -16 0 -75 25 -119 50 -8 5 -33 19 -55 31 -22 12 -56 34
-76 50 -20 16 -41 29 -46 29 -14 0 -186 179 -235 245 -45 60 -54 75 -103 172
-14 29 -30 55 -36 58 -5 4 -9 17 -9 30 0 13 -7 30 -15 39 -8 8 -15 24 -15 35
0 12 -9 38 -20 58 -11 21 -20 51 -20 68 -1 16 -7 41 -15 55 -8 14 -14 46 -15
71 0 26 -7 66 -15 89 -11 32 -15 90 -15 242 0 154 3 207 15 235 8 19 15 59 15
87 0 30 6 60 15 72 8 10 15 37 15 59 0 23 9 53 20 70 11 17 20 43 20 58 0 15
7 30 15 33 8 4 15 18 15 34 0 15 7 33 15 40 8 7 15 20 15 30 0 10 7 23 15 30
8 7 15 19 15 26 0 8 9 22 20 31 11 10 20 24 20 33 0 8 16 32 35 53 19 21 42
53 51 70 17 33 143 167 157 167 4 0 38 23 74 50 36 28 72 50 78 50 7 0 15 7
19 15 3 8 14 15 24 15 11 0 25 7 32 15 7 8 23 15 35 15 12 0 28 7 35 15 7 8
21 15 31 15 11 0 36 9 56 20 21 11 51 20 68 20 16 1 41 7 55 15 37 21 483 21
524 0z"/>
<path d="M41170 10331 c-58 -3 -115 -12 -127 -18 -12 -7 -46 -13 -75 -13 -31
-1 -61 -7 -72 -15 -11 -8 -34 -15 -52 -15 -18 0 -39 -7 -48 -15 -8 -8 -28 -15
-43 -15 -16 0 -38 -7 -49 -15 -10 -8 -26 -15 -35 -15 -9 0 -28 -9 -42 -20 -14
-11 -31 -20 -38 -20 -16 0 -158 -70 -165 -81 -3 -5 -13 -9 -22 -9 -10 0 -25
-9 -35 -20 -9 -11 -23 -20 -30 -20 -7 0 -26 -12 -43 -27 -16 -16 -42 -34 -57
-40 -15 -7 -46 -30 -69 -51 -24 -21 -70 -59 -103 -84 -66 -50 -195 -180 -240
-243 -16 -22 -51 -64 -77 -93 -27 -30 -48 -59 -48 -66 0 -7 -12 -26 -26 -41
-15 -16 -33 -44 -40 -62 -8 -18 -18 -33 -22 -33 -5 0 -18 -19 -31 -42 -26 -51
-39 -74 -63 -110 -10 -15 -18 -36 -18 -47 0 -10 -7 -21 -15 -25 -8 -3 -15 -16
-15 -29 0 -14 -7 -30 -15 -37 -8 -7 -15 -19 -15 -26 0 -8 -9 -31 -20 -51 -11
-21 -20 -45 -20 -53 0 -8 -7 -24 -15 -34 -8 -11 -15 -32 -15 -47 0 -14 -7 -32
-15 -39 -8 -7 -15 -29 -15 -50 0 -21 -7 -43 -15 -50 -9 -7 -15 -29 -15 -54 0
-23 -6 -50 -14 -61 -7 -11 -16 -45 -19 -75 -3 -30 -12 -68 -21 -85 -10 -20
-16 -56 -16 -106 0 -45 -6 -91 -15 -112 -22 -52 -21 -652 0 -712 8 -22 15 -69
15 -105 1 -36 8 -83 17 -105 8 -22 18 -62 20 -90 3 -27 11 -59 19 -70 8 -11
14 -38 14 -60 0 -23 7 -50 15 -61 8 -10 15 -33 15 -50 0 -17 7 -37 15 -44 8
-7 15 -23 15 -36 0 -13 9 -41 20 -61 11 -21 20 -44 20 -51 0 -7 7 -20 15 -28
8 -9 15 -26 15 -40 0 -13 4 -24 9 -24 5 0 13 -10 16 -22 8 -28 39 -92 75 -155
5 -10 17 -31 25 -48 8 -16 23 -42 32 -56 10 -15 36 -54 58 -88 22 -34 55 -78
72 -99 18 -20 33 -43 33 -49 0 -19 332 -349 389 -387 27 -18 62 -45 77 -60 16
-14 38 -29 48 -32 11 -4 34 -19 50 -35 17 -16 39 -29 48 -29 9 0 20 -5 23 -10
4 -6 21 -17 38 -25 18 -8 50 -26 72 -40 22 -13 47 -24 56 -25 9 0 22 -7 29
-15 7 -8 25 -15 40 -15 16 0 30 -7 34 -15 3 -9 18 -15 34 -15 16 0 35 -7 42
-15 7 -8 25 -15 41 -15 16 0 46 -9 66 -20 21 -11 56 -20 79 -20 25 0 47 -6 54
-15 9 -10 32 -15 75 -15 34 0 84 -7 111 -15 67 -20 338 -20 414 0 30 8 82 15
115 15 34 0 69 6 80 14 11 7 44 16 73 19 29 3 62 13 74 22 13 8 37 15 54 15
17 0 37 7 44 15 7 8 22 15 34 15 12 0 31 7 42 15 10 8 29 15 40 15 12 0 27 7
34 15 7 8 20 15 30 15 9 0 27 9 40 20 13 11 31 20 40 20 10 0 20 7 24 15 3 8
13 15 22 15 9 0 33 14 54 30 21 17 42 30 47 30 6 0 23 12 39 26 16 14 49 39
74 55 56 37 294 272 322 319 12 19 33 49 48 65 15 17 30 43 34 58 10 41 30 28
36 -24 3 -24 11 -54 18 -66 7 -12 12 -53 12 -91 0 -38 7 -89 15 -112 8 -23 15
-67 15 -96 0 -29 6 -73 14 -96 8 -24 16 -78 19 -121 3 -43 11 -85 18 -93 10
-12 87 -14 528 -12 l516 3 3 2392 c2 2382 2 2393 -18 2413 -19 19 -33 20 -510
20 -482 0 -490 0 -508 -21 -23 -24 -32 -62 -32 -134 0 -29 -7 -66 -15 -81 -9
-17 -15 -56 -15 -95 0 -37 -7 -83 -15 -102 -9 -21 -15 -67 -15 -107 0 -39 -5
-81 -12 -93 -7 -12 -14 -40 -17 -61 -8 -54 -24 -55 -51 -4 -12 24 -34 54 -48
68 -15 14 -40 45 -55 69 -37 56 -168 188 -232 233 -28 19 -66 49 -85 66 -19
18 -38 32 -43 32 -5 0 -26 13 -46 28 -20 15 -47 33 -61 40 -23 11 -32 16 -77
42 -10 6 -30 15 -45 21 -16 6 -28 15 -28 20 0 5 -11 9 -23 9 -13 0 -34 9 -47
20 -13 11 -32 20 -44 20 -12 0 -30 7 -40 15 -11 8 -32 15 -47 15 -14 0 -32 7
-39 15 -7 8 -29 15 -49 15 -21 0 -46 7 -57 15 -11 8 -41 14 -72 15 -29 0 -65
6 -80 14 -32 16 -374 27 -542 17z m785 -1135 c11 -7 39 -16 61 -19 23 -4 54
-14 70 -22 16 -8 39 -15 50 -15 12 0 27 -7 34 -15 7 -8 23 -15 37 -15 13 0 26
-7 29 -15 4 -8 12 -15 18 -15 7 0 35 -16 62 -35 27 -19 54 -35 60 -35 16 0
274 -266 274 -282 0 -8 8 -22 18 -31 10 -9 28 -37 41 -62 12 -24 26 -47 32
-50 5 -4 9 -14 9 -24 0 -10 6 -24 14 -30 8 -7 17 -27 20 -45 4 -19 13 -39 21
-46 8 -7 15 -25 15 -39 0 -15 7 -36 15 -47 8 -10 15 -35 15 -54 0 -19 7 -44
15 -54 9 -12 15 -43 15 -80 1 -34 7 -72 15 -86 21 -37 21 -472 0 -523 -8 -20
-15 -60 -15 -89 -1 -31 -7 -61 -15 -72 -8 -11 -15 -36 -15 -56 0 -20 -7 -45
-15 -56 -8 -10 -15 -28 -15 -39 0 -11 -7 -30 -15 -41 -8 -12 -16 -34 -19 -49
-3 -15 -12 -35 -21 -45 -8 -9 -15 -24 -15 -32 0 -9 -7 -21 -15 -28 -8 -7 -15
-19 -15 -27 0 -8 -13 -32 -30 -53 -16 -21 -30 -43 -30 -48 0 -19 -274 -290
-314 -311 -22 -11 -42 -24 -45 -28 -10 -13 -89 -53 -104 -53 -8 0 -20 -7 -27
-15 -7 -8 -22 -15 -34 -15 -11 0 -30 -7 -40 -15 -11 -8 -34 -15 -51 -15 -17 0
-40 -7 -51 -15 -12 -9 -43 -15 -84 -15 -37 0 -76 -7 -90 -15 -34 -19 -192 -19
-245 0 -22 8 -67 14 -101 15 -37 0 -68 6 -80 15 -10 8 -33 15 -50 15 -16 0
-39 7 -50 15 -10 8 -31 15 -45 15 -15 0 -32 7 -39 15 -7 8 -20 15 -30 15 -9 0
-27 9 -40 20 -13 11 -31 20 -42 20 -10 0 -18 4 -18 9 0 5 -19 19 -41 30 -82
43 -316 281 -345 351 -7 16 -18 30 -24 30 -5 0 -10 9 -10 19 0 11 -4 22 -9 26
-11 6 -61 108 -61 123 0 5 -7 15 -15 22 -8 7 -15 22 -15 34 0 11 -7 30 -15 40
-8 11 -15 34 -15 50 0 17 -7 40 -15 50 -8 11 -15 40 -15 66 0 26 -7 56 -17 69
-15 22 -17 60 -16 330 0 266 2 310 16 338 9 18 17 49 17 71 0 21 7 47 15 58 8
10 15 33 15 50 0 17 7 37 15 44 8 7 15 25 15 41 0 15 7 34 15 43 8 8 15 17 15
21 0 12 51 115 61 120 5 4 9 13 9 22 0 9 9 26 19 37 11 12 27 35 35 51 20 39
246 267 283 285 15 8 37 22 48 31 17 15 50 34 115 68 63 32 85 41 105 41 12 0
28 7 35 15 7 8 27 15 44 15 17 0 49 9 71 19 36 17 66 19 280 20 187 1 245 -2
260 -13z"/>
<path d="M21547 10233 c-4 -3 -7 -1090 -7 -2415 l0 -2408 608 2 607 3 3 2399
c1 1765 -1 2402 -9 2412 -9 12 -118 14 -604 14 -325 0 -595 -3 -598 -7z"/>
<path d="M26512 10232 c-9 -7 -12 -496 -12 -2403 0 -1317 0 -2400 0 -2407 0
-10 125 -12 608 -10 l607 3 3 2404 c2 1917 0 2406 -10 2413 -17 10 -1179 10
-1196 0z"/>
<path d="M32167 10233 c-13 -12 -7 -88 8 -107 8 -11 15 -28 15 -38 0 -10 9
-35 20 -55 11 -21 20 -45 20 -54 0 -9 7 -22 15 -29 8 -7 15 -23 15 -37 0 -13
7 -31 15 -39 8 -9 15 -28 15 -43 0 -16 7 -34 15 -41 8 -7 15 -22 15 -34 0 -12
7 -31 15 -42 8 -10 15 -29 15 -40 0 -12 9 -33 20 -47 11 -14 20 -36 20 -49 0
-12 7 -32 15 -42 8 -11 15 -30 15 -42 0 -12 7 -27 15 -34 8 -7 15 -25 15 -40
0 -15 7 -33 15 -40 8 -7 15 -25 15 -40 0 -15 7 -33 15 -40 8 -7 17 -27 21 -46
3 -18 12 -38 20 -45 8 -6 14 -23 14 -38 0 -14 7 -35 15 -45 8 -11 15 -30 15
-42 0 -12 7 -27 15 -34 8 -7 15 -25 15 -39 0 -15 7 -36 15 -47 8 -10 15 -27
15 -37 0 -11 9 -30 20 -44 11 -14 20 -38 20 -53 0 -15 7 -33 15 -40 8 -7 15
-22 15 -34 0 -11 7 -30 15 -40 8 -11 15 -30 15 -42 0 -13 7 -29 15 -38 8 -8
15 -24 15 -35 0 -12 9 -38 20 -58 11 -21 20 -44 20 -51 0 -7 7 -20 15 -28 8
-9 15 -28 15 -43 0 -16 7 -34 15 -41 8 -7 15 -25 15 -40 0 -15 7 -33 15 -40 8
-7 15 -22 15 -34 0 -12 7 -31 15 -42 8 -10 15 -27 15 -37 0 -9 9 -34 20 -54
11 -21 20 -45 20 -54 0 -9 7 -22 15 -29 8 -7 15 -25 15 -40 0 -15 7 -33 15
-40 8 -7 15 -25 15 -40 0 -15 7 -33 15 -40 8 -7 15 -24 15 -37 0 -14 6 -37 14
-51 34 -67 56 -121 56 -139 0 -11 7 -26 15 -33 8 -7 15 -22 15 -34 0 -11 7
-30 15 -40 8 -11 15 -33 15 -48 0 -16 7 -31 15 -34 8 -4 15 -18 15 -33 0 -14
9 -39 20 -56 11 -16 20 -40 20 -51 0 -12 7 -27 15 -34 8 -7 15 -25 15 -40 0
-15 7 -33 15 -40 8 -7 15 -25 15 -40 0 -15 7 -33 15 -40 8 -7 15 -22 15 -34 0
-12 7 -31 15 -42 8 -10 15 -28 15 -39 0 -11 9 -33 20 -50 11 -16 20 -40 20
-51 0 -12 7 -27 15 -34 8 -7 15 -24 15 -39 0 -14 7 -35 15 -45 8 -11 15 -30
15 -42 0 -12 7 -27 15 -34 8 -7 15 -22 15 -34 0 -12 9 -38 20 -59 11 -20 20
-46 20 -57 0 -11 4 -20 10 -20 5 0 13 -18 16 -39 4 -22 13 -42 20 -45 8 -3 14
-18 14 -34 0 -15 7 -37 15 -48 8 -10 15 -29 15 -41 0 -12 7 -28 15 -37 8 -8
15 -23 15 -33 0 -10 9 -35 20 -56 11 -20 20 -45 20 -56 0 -10 7 -21 15 -25 9
-3 15 -18 15 -39 0 -19 7 -40 15 -47 8 -7 15 -25 15 -40 0 -15 7 -33 15 -40 8
-7 15 -22 15 -34 0 -11 9 -34 20 -51 11 -16 20 -39 20 -50 0 -11 7 -29 15 -39
8 -11 15 -30 15 -42 0 -12 7 -27 15 -34 8 -7 15 -24 15 -39 0 -14 7 -35 15
-45 20 -27 20 -129 0 -146 -8 -7 -15 -22 -15 -34 0 -11 -7 -30 -15 -40 -8 -11
-15 -30 -15 -42 0 -12 -7 -27 -15 -34 -8 -7 -15 -20 -15 -29 0 -9 -9 -29 -20
-46 -11 -16 -20 -42 -20 -56 0 -15 -7 -29 -15 -33 -9 -3 -15 -18 -15 -36 0
-18 -6 -33 -15 -36 -8 -4 -15 -18 -15 -34 0 -15 -7 -33 -15 -40 -8 -7 -15 -25
-15 -40 0 -15 -9 -35 -20 -45 -11 -10 -20 -28 -20 -39 0 -12 -7 -30 -15 -40
-8 -11 -15 -30 -15 -42 0 -12 -7 -27 -15 -34 -8 -7 -15 -23 -15 -35 0 -12 -7
-28 -15 -35 -8 -7 -15 -22 -15 -34 0 -12 -7 -31 -15 -42 -8 -10 -15 -28 -15
-40 0 -12 -9 -31 -20 -44 -11 -13 -20 -32 -20 -44 0 -12 -7 -30 -15 -40 -8
-11 -15 -30 -15 -43 0 -13 -7 -26 -15 -29 -8 -4 -15 -18 -15 -34 0 -15 -7 -33
-15 -40 -8 -7 -15 -19 -15 -28 0 -8 -10 -36 -21 -61 -12 -25 -29 -62 -37 -81
-8 -19 -21 -48 -28 -63 -8 -16 -14 -40 -14 -53 0 -14 -7 -27 -15 -30 -8 -4
-15 -16 -15 -28 0 -12 -6 -30 -14 -41 -7 -11 -17 -34 -20 -52 -4 -17 -14 -37
-22 -44 -8 -6 -14 -22 -14 -34 0 -12 -7 -28 -15 -35 -8 -7 -15 -22 -15 -34 0
-12 -7 -31 -15 -42 -8 -10 -15 -29 -15 -40 0 -12 -7 -27 -15 -34 -21 -17 -19
-47 4 -60 31 -16 1182 -14 1204 3 22 16 57 85 57 113 0 12 6 27 14 33 8 6 19
31 25 56 6 24 15 47 21 50 5 3 10 16 10 28 0 12 7 31 15 41 8 11 15 30 15 42
0 12 7 27 15 34 8 7 15 21 15 31 0 11 9 36 20 56 11 21 20 45 20 54 0 9 7 22
15 29 8 7 15 24 15 39 0 14 7 35 15 45 8 11 15 32 15 47 0 15 7 29 15 33 8 3
15 16 15 29 0 13 7 32 15 43 8 10 15 30 15 42 0 13 9 35 20 49 11 14 20 35 20
47 0 11 7 30 15 40 8 11 15 30 15 42 0 12 7 27 15 34 8 7 15 22 15 34 0 12 7
31 15 42 8 10 15 27 15 37 0 9 9 34 20 54 11 21 20 45 20 54 0 9 7 22 15 29 8
7 15 24 15 39 0 14 7 35 15 45 8 11 15 30 15 42 0 12 7 27 15 34 8 7 15 22 15
34 0 12 6 30 14 41 7 11 17 34 20 52 4 17 14 37 22 44 8 6 14 21 14 33 0 11 7
30 15 40 8 11 15 32 15 47 0 14 7 32 15 39 8 7 15 22 15 34 0 12 7 31 15 42 8
10 15 31 15 45 0 15 7 32 15 39 8 7 15 18 15 24 0 7 9 29 20 51 11 22 20 48
20 58 0 10 7 25 15 33 8 9 15 26 15 38 0 13 7 29 15 36 8 7 15 25 15 40 0 15
7 33 15 40 8 7 15 20 15 29 0 9 9 33 20 54 11 20 20 45 20 54 0 10 7 27 15 37
8 11 15 32 15 47 0 15 7 29 15 33 9 3 15 18 15 34 0 16 7 35 15 42 8 7 15 28
15 47 0 21 6 36 15 39 8 4 15 14 15 23 0 9 9 33 20 54 11 20 20 48 20 61 0 13
7 26 15 30 9 3 15 18 15 34 0 16 7 35 15 42 8 7 15 25 15 40 0 15 7 33 15 40
8 7 15 22 15 34 0 11 9 35 20 51 11 17 20 39 20 50 0 11 7 29 15 39 8 11 15
30 15 42 0 12 7 27 15 34 8 7 15 25 15 40 0 15 7 33 15 40 8 7 15 25 15 40 0
15 7 33 15 40 8 7 15 22 15 34 0 11 9 35 20 51 11 17 20 40 20 51 0 12 7 27
15 34 8 7 15 25 15 40 0 15 7 33 15 40 8 7 15 25 15 40 0 15 7 33 15 40 8 7
15 20 15 29 0 9 9 33 20 54 11 20 20 45 20 56 0 10 7 24 15 31 8 7 15 25 15
40 0 15 7 33 15 40 8 7 15 25 15 40 0 15 7 33 15 40 8 7 15 22 15 34 0 12 7
31 15 42 8 10 15 27 15 37 0 10 10 37 22 60 43 83 48 95 48 114 0 10 7 27 15
37 8 11 15 30 15 42 0 13 7 29 15 38 8 8 15 24 15 35 0 11 9 35 20 53 11 18
20 41 20 51 0 10 7 25 15 33 8 9 15 25 15 38 0 12 7 31 15 42 8 10 15 31 15
45 0 15 7 29 15 33 8 3 15 16 15 29 0 13 7 32 15 43 8 10 15 30 15 42 0 13 9
35 20 49 11 14 20 35 20 47 0 11 7 30 15 40 8 11 15 30 15 42 0 12 7 27 15 34
8 7 15 25 15 40 0 15 7 33 15 40 8 7 15 25 15 40 0 15 7 33 15 40 8 7 17 27
21 46 3 18 12 38 20 45 8 6 14 23 14 38 0 14 7 35 15 45 8 11 15 30 15 42 0
12 7 27 15 34 8 7 15 22 15 34 0 12 7 31 15 42 8 10 15 30 15 42 0 13 9 35 20
49 11 14 20 35 20 47 0 11 7 30 15 40 8 11 15 30 15 42 0 12 7 27 15 34 8 7
15 22 15 34 0 12 7 31 15 42 8 10 15 31 15 45 0 15 6 32 14 38 8 7 17 27 20
45 4 19 13 39 21 46 8 7 15 25 15 40 0 15 7 33 15 40 8 7 15 22 15 34 0 12 7
31 15 42 8 10 15 29 15 41 0 12 4 25 10 28 5 3 14 24 21 47 6 23 17 47 25 55
8 8 14 24 14 36 0 13 6 32 14 43 16 23 24 84 12 102 -5 9 -141 12 -604 12
-328 0 -607 -3 -619 -6 -13 -4 -23 -11 -23 -18 0 -6 -9 -28 -20 -49 -11 -20
-20 -48 -20 -61 0 -13 -7 -29 -15 -36 -8 -7 -15 -27 -15 -46 0 -18 -7 -39 -15
-48 -8 -8 -15 -27 -15 -43 0 -15 -9 -41 -20 -58 -11 -16 -20 -42 -20 -56 0
-15 -7 -32 -15 -39 -8 -7 -15 -29 -15 -50 0 -24 -5 -40 -15 -44 -9 -3 -15 -18
-15 -39 0 -19 -7 -40 -15 -47 -8 -7 -15 -29 -15 -50 0 -21 -6 -43 -14 -49 -8
-7 -17 -30 -21 -51 -4 -21 -13 -44 -21 -51 -8 -6 -14 -26 -14 -43 0 -17 -7
-40 -15 -50 -8 -11 -15 -32 -15 -46 0 -14 -7 -35 -15 -46 -8 -10 -15 -31 -15
-45 0 -14 -7 -34 -15 -45 -8 -10 -15 -28 -15 -39 0 -11 -9 -37 -20 -58 -11
-20 -20 -47 -20 -59 0 -13 -7 -32 -15 -42 -8 -11 -15 -32 -15 -46 0 -14 -7
-35 -15 -46 -8 -10 -15 -31 -15 -45 0 -14 -7 -34 -15 -45 -8 -10 -15 -31 -15
-45 0 -14 -7 -34 -15 -45 -8 -10 -15 -30 -15 -44 0 -14 -9 -38 -20 -55 -11
-16 -20 -44 -20 -61 0 -17 -7 -37 -15 -44 -8 -7 -15 -27 -15 -45 0 -18 -7 -38
-15 -45 -8 -7 -15 -27 -15 -45 0 -18 -7 -38 -15 -45 -8 -7 -15 -27 -15 -45 0
-18 -7 -38 -15 -45 -8 -7 -17 -28 -20 -49 -4 -20 -13 -48 -21 -63 -8 -14 -14
-37 -14 -51 0 -13 -7 -30 -15 -37 -8 -7 -15 -27 -15 -44 0 -18 -7 -41 -15 -52
-8 -10 -15 -34 -15 -52 0 -18 -6 -35 -14 -38 -7 -3 -17 -24 -20 -46 -4 -22
-13 -50 -21 -61 -8 -12 -15 -33 -15 -48 0 -15 -7 -32 -15 -39 -8 -7 -15 -27
-15 -45 0 -18 -7 -38 -15 -45 -8 -7 -15 -29 -15 -50 0 -21 -7 -43 -15 -50 -8
-7 -15 -22 -15 -34 0 -12 -9 -38 -20 -59 -11 -20 -20 -47 -20 -59 0 -13 -7
-32 -15 -42 -8 -11 -15 -31 -15 -45 0 -14 -7 -35 -15 -45 -8 -11 -15 -32 -15
-46 0 -14 -7 -35 -15 -46 -8 -10 -15 -30 -15 -44 0 -25 -16 -59 -22 -50 -16
23 -48 105 -48 123 0 12 -7 31 -15 41 -8 11 -15 32 -15 47 0 14 -7 32 -15 39
-8 7 -15 27 -15 44 0 18 -7 41 -15 52 -8 10 -15 29 -15 42 0 12 -9 39 -20 59
-11 21 -20 47 -20 58 -1 11 -7 31 -15 45 -8 14 -14 35 -15 46 0 12 -7 27 -15
34 -8 7 -15 29 -15 50 0 21 -7 43 -15 50 -8 7 -15 27 -15 45 0 18 -7 38 -15
45 -8 7 -15 27 -15 45 0 18 -7 38 -15 45 -8 7 -17 28 -20 49 -4 20 -13 48 -21
63 -8 14 -14 37 -14 50 0 12 -7 32 -15 42 -8 11 -15 32 -15 47 0 14 -7 32 -15
39 -8 7 -15 27 -15 44 0 17 -6 41 -14 52 -8 11 -17 37 -21 57 -4 20 -13 41
-21 48 -8 6 -14 26 -14 44 0 18 -7 38 -15 45 -8 7 -15 29 -15 50 0 21 -7 43
-15 50 -8 7 -15 24 -15 39 0 15 -6 35 -14 46 -7 11 -16 37 -19 58 -3 20 -13
44 -21 53 -9 8 -16 30 -16 48 0 19 -7 39 -15 46 -8 7 -15 27 -15 45 0 18 -7
38 -15 45 -8 7 -15 27 -15 44 0 18 -7 41 -15 52 -8 10 -15 31 -15 45 0 14 -7
34 -15 45 -8 10 -15 28 -15 39 0 11 -9 37 -20 58 -11 20 -20 50 -20 66 0 16
-7 34 -15 41 -8 7 -15 25 -15 39 0 15 -7 36 -15 47 -8 10 -15 31 -15 45 0 14
-7 34 -15 45 -8 10 -15 30 -15 44 0 14 -9 42 -20 63 -11 20 -20 48 -20 61 0
13 -7 29 -15 36 -8 7 -15 27 -15 44 0 17 -7 40 -15 50 -8 11 -15 32 -15 46 0
14 -7 35 -15 46 -8 10 -15 31 -15 45 0 14 -7 34 -15 45 -8 10 -15 30 -15 44 0
14 -9 39 -20 55 -11 17 -20 44 -20 61 0 17 -7 37 -15 44 -8 7 -15 21 -15 31 0
9 -7 25 -16 33 -14 14 -87 16 -653 16 -351 0 -641 -3 -644 -7z"/>
<path d="M45382 10217 l-22 -23 0 -2373 c0 -1616 3 -2378 10 -2392 10 -18 28
-19 621 -19 l609 0 10 26 c6 16 10 877 10 2388 l0 2363 -21 27 -20 26 -588 0
-588 0 -21 -23z"/>
<path d="M38421 6174 c0 -11 3 -14 6 -6 3 7 2 16 -1 19 -3 4 -6 -2 -5 -13z"/>
<path d="M37000 6164 c0 -8 5 -12 10 -9 6 4 8 11 5 16 -9 14 -15 11 -15 -7z"/>
<path d="M37001 5994 c0 -11 3 -14 6 -6 3 7 2 16 -1 19 -3 4 -6 -2 -5 -13z"/>
<path d="M38421 5984 c0 -11 3 -14 6 -6 3 7 2 16 -1 19 -3 4 -6 -2 -5 -13z"/>
</g>
</svg>
