<?xml version="1.0" standalone="no"?>
<!DOCTYPE svg PUBLIC "-//W3C//DTD SVG 20010904//EN"
 "http://www.w3.org/TR/2001/REC-SVG-20010904/DTD/svg10.dtd">
<svg version="1.0" xmlns="http://www.w3.org/2000/svg"
 width="3579.000000pt" height="1600.000000pt" viewBox="0 0 3579.000000 1600.000000"
 preserveAspectRatio="xMidYMid meet">
<metadata>
Created by potrace 1.16, written by Peter Selinger 2001-2019
</metadata>
<g transform="translate(0.000000,1600.000000) scale(0.100000,-0.100000)"
fill="#ffffff" stroke="none">
<path d="M20055 15959 c-44 -11 -92 -23 -108 -26 -15 -3 -30 -9 -33 -14 -3 -5
-12 -9 -20 -9 -17 0 -214 -94 -284 -135 -263 -158 -524 -376 -910 -765 -107
-108 -240 -246 -294 -306 -199 -218 -429 -437 -606 -577 -90 -72 -297 -206
-385 -250 -180 -91 -345 -129 -462 -107 -62 12 -88 21 -193 67 -60 26 -73 31
-135 51 -170 56 -305 77 -500 77 -265 0 -459 -45 -695 -160 -274 -134 -532
-371 -734 -673 -93 -141 -104 -159 -186 -317 -86 -166 -179 -421 -220 -605
-68 -304 -87 -448 -95 -725 -6 -185 -17 -323 -35 -435 -5 -30 -14 -89 -20
-130 -12 -79 -36 -208 -50 -275 -5 -22 -14 -67 -21 -100 -56 -278 -217 -855
-279 -1000 -5 -11 -16 -40 -24 -65 -8 -25 -20 -58 -26 -75 -7 -16 -16 -39 -20
-50 -29 -76 -115 -285 -134 -328 -13 -29 -34 -74 -46 -102 -24 -55 -132 -271
-190 -380 -20 -38 -61 -115 -90 -170 -74 -140 -157 -294 -202 -372 -10 -18
-28 -50 -39 -70 -64 -114 -179 -308 -224 -378 -58 -90 -161 -259 -195 -320
-30 -53 -140 -272 -140 -279 0 -3 -11 -29 -23 -58 -80 -180 -143 -401 -188
-658 -19 -105 -22 -166 -23 -375 -1 -247 4 -310 40 -480 53 -252 155 -500 281
-688 118 -176 300 -348 455 -431 l66 -36 849 2 848 3 49 24 c85 42 140 109
190 236 16 39 32 79 36 90 15 35 58 159 69 195 6 19 22 69 36 110 26 81 41
132 85 310 102 406 140 707 140 1110 0 278 -14 460 -56 710 -24 142 -60 310
-89 410 -7 25 -18 65 -25 90 -7 25 -16 59 -21 75 -42 150 -172 513 -279 780
-4 11 -20 52 -35 90 -15 39 -31 79 -35 90 -38 91 -136 377 -158 460 -56 210
-77 465 -39 452 6 -2 30 -50 54 -108 24 -57 52 -123 63 -146 11 -24 20 -45 20
-47 0 -3 16 -39 35 -80 19 -42 35 -78 35 -80 0 -2 20 -46 44 -97 24 -52 53
-115 65 -141 47 -107 65 -146 98 -218 79 -170 93 -201 93 -205 0 -2 18 -42 40
-89 22 -47 49 -109 61 -138 12 -29 26 -57 31 -62 4 -6 8 -16 8 -23 0 -7 12
-38 26 -70 30 -68 31 -70 78 -188 83 -213 107 -284 156 -445 12 -41 26 -86 30
-100 25 -74 73 -299 94 -440 13 -89 20 -154 46 -470 13 -164 13 -761 -1 -920
-11 -130 -52 -500 -69 -630 -21 -155 -6 -281 44 -384 33 -68 78 -108 151 -135
l56 -21 1672 2 1672 3 70 35 c50 25 94 59 153 118 370 370 592 1258 523 2097
-27 332 -113 737 -201 950 -5 11 -18 46 -30 79 -38 108 -155 351 -207 433 -18
29 -33 55 -33 58 0 9 -142 216 -197 288 -56 72 -104 127 -261 295 -512 548
-869 1076 -1152 1707 -105 233 -234 634 -279 865 -58 298 -72 440 -73 709 0
291 21 470 84 696 47 171 175 462 207 473 11 4 12 -2 7 -19 -35 -120 -50 -199
-78 -389 -16 -111 -16 -612 0 -750 29 -245 50 -391 71 -485 5 -22 15 -67 22
-100 7 -33 21 -94 32 -135 10 -41 23 -91 27 -110 15 -62 41 -150 90 -300 9
-30 48 -137 60 -165 4 -11 20 -51 36 -90 81 -204 191 -430 305 -626 109 -188
183 -297 355 -523 160 -210 607 -658 655 -655 8 0 43 34 79 75 131 152 300
303 470 420 152 106 240 153 700 378 285 139 487 268 673 431 43 37 80 65 84
61 20 -20 -113 -228 -216 -338 -124 -132 -317 -274 -626 -458 -271 -162 -450
-287 -564 -394 -72 -69 -172 -203 -214 -290 -33 -65 -87 -215 -87 -238 0 -6
15 -31 34 -57 133 -183 338 -554 420 -761 21 -52 42 -104 46 -115 12 -26 70
-201 81 -240 69 -261 93 -371 119 -557 18 -122 40 -416 40 -533 0 -228 -36
-558 -89 -820 -32 -153 -105 -421 -131 -480 -36 -81 -80 -234 -80 -279 0 -76
26 -143 75 -191 80 -80 -18 -75 1399 -75 l1261 0 50 29 c150 87 318 340 430
651 15 41 31 84 35 95 44 113 111 421 142 650 17 133 17 707 0 825 -23 156
-43 274 -59 350 -9 41 -18 86 -20 100 -3 14 -11 45 -18 70 -7 25 -18 65 -25
90 -47 169 -150 447 -234 635 -154 344 -283 779 -340 1145 -36 235 -41 301
-40 605 0 338 2 362 75 860 4 33 13 92 18 131 6 39 15 100 21 135 18 106 24
376 11 466 -13 91 -48 209 -81 274 -94 185 -312 394 -548 527 -83 46 -142 62
-225 62 -65 0 -84 -4 -117 -25 -39 -25 -100 -102 -100 -128 0 -7 -3 -17 -7
-21 -21 -20 -39 -135 -48 -300 -2 -49 -7 -91 -9 -93 -11 -11 -160 -46 -271
-63 -571 -92 -1041 128 -1217 570 -37 93 -47 234 -24 340 43 193 121 311 267
403 243 154 607 110 590 -70 0 -7 -24 -19 -52 -27 -149 -45 -249 -148 -249
-258 0 -49 35 -130 72 -170 61 -64 155 -85 215 -48 37 22 84 83 103 132 55
146 123 202 217 176 45 -12 70 -53 83 -134 15 -92 27 -119 63 -150 26 -22 38
-25 74 -21 51 5 102 41 134 94 30 48 32 140 5 193 -26 51 -93 116 -158 156
-32 20 -58 39 -58 44 0 5 19 14 43 20 74 20 178 90 273 184 50 50 98 107 107
128 26 55 22 110 -9 147 -46 55 -198 114 -414 160 -30 7 -73 16 -95 21 -42 10
-283 55 -375 70 -272 47 -592 46 -790 -2 -300 -71 -493 -236 -540 -458 -27
-129 -32 -147 -59 -180 -37 -46 -104 -80 -158 -80 -132 0 -195 98 -172 270 12
92 34 197 51 239 55 137 108 219 194 305 122 121 329 226 524 267 186 38 248
43 525 43 275 0 292 -1 615 -44 79 -11 216 -35 400 -71 25 -4 77 -16 115 -25
39 -9 86 -19 105 -24 19 -4 55 -12 80 -18 25 -5 89 -20 142 -32 l97 -23 54 41
c168 126 214 220 170 347 -46 135 -228 400 -494 720 -9 11 -61 74 -115 140
-137 167 -135 164 -170 204 -17 20 -102 122 -189 226 -467 559 -704 753 -1040
852 -30 8 -109 16 -195 18 -122 4 -158 1 -225 -16z m597 -4850 c29 -5 98 -21
153 -33 251 -59 341 -71 560 -71 178 0 209 3 279 23 43 13 87 27 97 32 76 41
35 -72 -60 -166 -66 -65 -164 -118 -268 -144 -131 -33 -356 -27 -498 13 -107
30 -230 100 -308 176 -86 82 -101 141 -44 166 17 8 33 14 34 15 1 0 26 -5 55
-11z"/>
<path d="M950 2565 c-8 -2 -49 -9 -90 -15 -70 -11 -134 -26 -205 -48 -17 -5
-62 -24 -100 -42 -191 -91 -327 -236 -392 -422 -25 -67 -26 -85 -26 -238 0
-152 2 -170 25 -230 47 -122 138 -238 246 -312 71 -49 198 -103 409 -174 242
-81 312 -114 378 -179 41 -40 53 -60 63 -102 17 -79 0 -151 -51 -209 -46 -52
-80 -72 -157 -90 -189 -45 -437 31 -596 183 -30 29 -59 53 -64 53 -12 0 -370
-372 -370 -386 0 -17 91 -99 162 -144 139 -90 311 -155 508 -192 77 -15 368
-21 410 -9 19 5 62 15 95 21 221 44 417 164 537 330 30 43 88 161 101 210 5
19 15 82 22 140 33 258 -44 453 -239 607 -108 84 -210 129 -551 245 -229 77
-309 130 -335 222 -25 91 19 191 106 242 169 99 441 56 605 -94 31 -29 61 -52
67 -52 5 0 29 21 53 47 24 27 102 110 174 186 71 76 130 145 130 155 0 22
-138 121 -240 171 -122 59 -212 88 -370 115 -77 14 -258 20 -305 11z"/>
<path d="M6870 2565 c-8 -2 -49 -9 -90 -15 -245 -39 -417 -123 -555 -272 -61
-65 -131 -190 -157 -278 -18 -62 -18 -330 1 -390 27 -92 85 -192 148 -257 80
-80 156 -129 285 -183 57 -23 112 -46 123 -51 11 -5 58 -20 105 -35 274 -84
378 -141 427 -233 41 -79 28 -188 -31 -257 -140 -164 -485 -130 -729 71 -37
31 -67 60 -67 65 0 30 -45 -8 -214 -180 -130 -132 -184 -195 -179 -204 14 -23
105 -98 173 -141 140 -89 302 -150 500 -187 77 -15 368 -21 410 -9 19 5 62 15
95 21 308 61 539 253 631 525 25 74 27 93 28 245 1 174 -5 203 -55 303 -36 70
-110 156 -184 214 -68 53 -204 125 -295 156 -515 176 -560 200 -592 320 -23
89 16 174 106 231 163 103 441 60 609 -94 30 -27 59 -50 65 -50 5 0 25 17 43
38 17 20 96 104 173 186 78 81 141 155 141 164 0 20 -136 119 -220 161 -141
70 -229 97 -399 126 -77 13 -250 19 -296 10z"/>
<path d="M34770 2554 c-109 -18 -159 -30 -245 -62 -244 -89 -418 -268 -480
-492 -25 -92 -26 -313 0 -390 50 -154 136 -270 263 -353 103 -68 168 -95 417
-178 280 -92 371 -146 416 -244 55 -118 -19 -275 -151 -319 -205 -69 -461 1
-648 178 l-53 50 -192 -192 c-164 -164 -190 -195 -181 -209 18 -29 134 -120
204 -160 69 -40 205 -100 255 -114 87 -23 166 -42 215 -51 76 -15 367 -21 410
-10 19 6 60 16 90 22 272 60 462 192 578 400 40 73 61 137 78 240 50 302 -51
532 -303 693 -68 43 -146 83 -193 97 -14 5 -70 25 -125 45 -55 21 -113 41
-130 45 -40 10 -122 39 -165 57 -179 77 -232 152 -204 292 8 40 75 116 123
140 128 63 335 50 481 -32 57 -31 130 -87 141 -108 5 -10 16 -19 23 -19 7 0
51 39 96 87 46 49 128 134 182 190 54 56 95 108 93 115 -9 22 -146 118 -225
158 -114 57 -253 102 -394 125 -108 18 -261 18 -376 -1z"/>
<path d="M9537 2478 c-14 -29 -61 -143 -106 -253 -46 -110 -89 -216 -98 -235
-8 -19 -19 -44 -23 -55 -24 -56 -41 -98 -54 -127 -8 -18 -53 -127 -101 -243
-83 -202 -96 -233 -131 -311 -8 -19 -54 -128 -101 -242 -85 -209 -95 -231
-131 -312 -11 -25 -50 -119 -87 -210 -37 -91 -76 -185 -87 -210 -72 -163 -86
-199 -80 -204 3 -3 146 -6 319 -6 l313 0 14 33 c8 17 30 75 49 127 19 52 51
138 71 190 20 52 36 101 36 108 0 7 9 16 19 20 11 4 228 6 484 4 l463 -2 13
-33 c7 -17 50 -124 94 -237 l82 -205 325 0 c367 0 341 -7 299 79 -10 22 -19
43 -19 48 0 4 -12 33 -26 65 -14 32 -30 67 -34 78 -4 11 -15 38 -25 60 -26 63
-34 83 -44 108 -5 12 -21 48 -35 80 -14 32 -26 61 -26 66 0 4 -6 21 -14 37 -8
16 -90 211 -181 434 -92 223 -173 420 -181 438 -8 17 -21 47 -29 66 -8 19 -15
37 -15 40 0 3 -10 28 -21 54 -51 114 -59 132 -59 138 0 3 -6 20 -14 37 -7 18
-23 52 -33 77 -11 25 -64 153 -118 285 -54 132 -103 246 -108 253 -7 9 -78 12
-293 12 l-283 0 -24 -52z m326 -675 c8 -27 32 -93 52 -148 20 -55 56 -154 80
-220 24 -66 62 -172 85 -235 24 -63 43 -126 44 -140 l1 -25 -289 -3 c-159 -1
-294 2 -298 6 -5 5 -4 22 3 38 21 52 27 68 64 169 65 177 102 278 134 362 17
46 38 102 46 126 25 73 45 117 54 117 4 0 15 -21 24 -47z"/>
<path d="M2890 1698 c0 -876 1 -898 50 -1048 105 -325 373 -556 720 -620 36
-7 75 -16 88 -21 30 -12 344 -12 374 0 13 5 52 14 88 21 330 61 608 287 716
582 63 170 64 184 64 1086 l0 822 -295 0 -294 0 -3 -812 c-3 -651 -6 -820 -17
-848 -76 -198 -162 -280 -330 -316 -215 -45 -421 38 -505 204 -64 126 -59 60
-65 952 l-6 815 -292 3 -293 2 0 -822z"/>
<path d="M13090 2505 c0 -8 5 -27 11 -42 21 -51 27 -67 89 -233 34 -91 66
-174 70 -185 5 -11 41 -105 80 -210 142 -376 212 -560 220 -580 5 -11 40 -103
78 -205 178 -472 214 -566 222 -585 4 -11 25 -65 45 -120 20 -55 43 -113 49
-130 7 -16 19 -46 26 -65 6 -19 17 -45 23 -58 l11 -22 294 2 294 3 30 75 c17
41 34 84 38 95 17 45 62 161 70 180 4 11 20 52 35 90 15 39 31 79 35 90 5 11
61 157 125 325 64 168 123 319 129 335 7 17 23 57 36 90 12 33 26 69 30 80 4
11 19 49 33 85 44 114 79 204 87 225 47 113 290 753 290 763 0 9 -71 12 -323
12 l-323 0 -11 -32 c-6 -18 -55 -168 -108 -333 -53 -165 -116 -358 -140 -430
-23 -71 -74 -229 -114 -350 -167 -516 -189 -579 -198 -582 -10 -4 -33 65 -208
602 -59 182 -110 339 -115 350 -6 15 -165 503 -233 715 -20 63 -1 60 -353 60
-277 0 -324 -2 -324 -15z"/>
<path d="M16395 2508 c-3 -7 -4 -557 -3 -1223 l3 -1210 853 -3 852 -2 -2 252
-3 253 -562 3 -562 2 -3 246 c-2 145 1 249 6 255 6 5 207 9 508 9 l498 0 0
235 0 235 -502 2 -503 3 0 225 0 225 530 5 530 5 0 245 0 245 -818 3 c-649 2
-819 0 -822 -10z"/>
<path d="M19145 2508 c-3 -7 -4 -557 -3 -1223 l3 -1210 285 0 285 0 -2 460
c-1 253 -5 610 -8 794 -6 275 -4 332 7 329 12 -4 86 -120 294 -458 165 -268
235 -381 339 -550 114 -185 231 -374 310 -503 l47 -77 337 2 336 3 0 1220 0
1220 -285 0 -285 0 4 -788 c3 -534 1 -787 -6 -787 -11 0 -29 24 -62 84 -11 20
-60 100 -109 178 -49 79 -125 202 -169 273 -224 365 -445 723 -529 858 -41 65
-74 120 -74 123 0 3 -9 19 -21 35 l-20 29 -335 0 c-258 0 -336 -3 -339 -12z"/>
<path d="M22317 2513 c-4 -3 -7 -118 -7 -255 l0 -248 345 0 345 0 2 -967 3
-968 290 0 290 0 5 965 5 965 340 5 340 5 0 250 0 250 -976 3 c-536 1 -979 -1
-982 -5z"/>
<path d="M25180 1688 c0 -574 3 -851 11 -892 58 -311 228 -543 496 -680 65
-33 192 -75 283 -94 92 -19 367 -27 435 -13 28 6 75 16 105 22 137 29 264 84
380 165 161 112 276 268 340 462 48 147 50 174 50 1045 l0 817 -294 0 -295 0
-3 -807 -4 -808 -25 -71 c-59 -162 -162 -256 -318 -289 -122 -25 -230 -14
-338 37 -91 42 -178 153 -212 268 -27 92 -31 220 -31 931 l0 739 -290 0 -290
0 0 -832z"/>
<path d="M28415 2508 c-3 -7 -4 -557 -3 -1223 l3 -1210 288 -3 c226 -2 287 0
287 10 0 7 1 225 3 483 l2 470 101 3 100 3 54 -98 c29 -54 65 -118 78 -143 13
-25 32 -58 42 -75 10 -16 37 -66 60 -110 24 -44 54 -100 68 -125 13 -25 43
-79 65 -120 22 -41 43 -79 47 -85 4 -5 29 -50 55 -100 26 -49 52 -96 58 -102
12 -17 687 -19 687 -3 0 6 -38 71 -85 146 -47 74 -85 137 -85 139 0 2 -33 57
-73 122 -156 250 -209 336 -227 368 -10 18 -49 81 -85 139 -64 102 -74 136
-41 136 20 0 118 46 176 82 61 38 156 132 194 193 70 109 96 197 103 345 18
367 -189 631 -572 729 -139 35 -246 41 -772 41 -410 0 -525 -3 -528 -12z
m1085 -487 c88 -31 130 -60 165 -112 48 -73 48 -206 -1 -289 -30 -52 -96 -97
-177 -121 -64 -20 -96 -22 -282 -23 l-210 -1 -3 270 c-1 148 0 276 3 283 4 12
47 13 238 10 147 -3 245 -9 267 -17z"/>
<path d="M31350 1295 l0 -1225 855 0 855 0 -2 253 -3 252 -565 5 -565 5 -3
244 c-2 189 1 246 10 253 7 4 237 8 511 8 l497 0 -2 233 -3 232 -494 3 c-345
1 -498 6 -508 13 -19 17 -19 421 0 438 10 7 171 12 538 13 l524 3 0 245 0 245
-822 3 -823 2 0 -1225z"/>
</g>
</svg>
