<?xml version="1.0" standalone="no"?>
<!DOCTYPE svg PUBLIC "-//W3C//DTD SVG 20010904//EN"
 "http://www.w3.org/TR/2001/REC-SVG-20010904/DTD/svg10.dtd">
<svg version="1.0" xmlns="http://www.w3.org/2000/svg"
 width="4939.000000pt" height="1600.000000pt" viewBox="0 0 4939.000000 1600.000000"
 preserveAspectRatio="xMidYMid meet">
<metadata>
Created by potrace 1.16, written by Peter Selinger 2001-2019
</metadata>
<g transform="translate(0.000000,1600.000000) scale(0.100000,-0.100000)"
fill="#ffffff" stroke="none">
<path d="M48156 13213 c-3 -10 -37 -130 -76 -268 -39 -137 -73 -256 -75 -262
-3 -10 113 -13 558 -13 l563 0 77 274 c42 150 77 276 77 280 0 3 -252 6 -559
6 -524 0 -560 -1 -565 -17z"/>
<path d="M46537 11967 c-43 -149 -78 -275 -77 -279 0 -5 537 -8 1193 -8 l1192
0 73 258 c40 141 75 267 78 280 l6 22 -1193 0 -1194 0 -78 -273z"/>
<path d="M1836 11798 c-9 -29 -58 -206 -111 -393 -53 -187 -100 -352 -105
-367 l-9 -28 1173 0 1173 0 118 408 c65 224 120 413 122 420 4 9 -234 12
-1171 12 l-1175 0 -15 -52z"/>
<path d="M19413 11028 l-503 -391 0 -463 0 -464 -425 0 -425 0 0 -425 0 -425
423 -2 422 -3 6 -1495 c3 -822 9 -1511 13 -1530 4 -19 17 -82 28 -140 86 -441
333 -773 683 -919 194 -81 372 -112 654 -112 379 -1 680 75 974 247 l77 46 0
389 c0 214 -4 389 -9 389 -4 0 -50 -20 -102 -44 -205 -95 -397 -144 -599 -152
-225 -10 -344 28 -460 145 -104 105 -157 229 -197 463 -16 94 -17 217 -20
1411 l-4 1307 731 0 730 0 0 425 0 425 -730 0 -730 0 0 855 c0 808 -1 855 -17
854 -10 0 -244 -176 -520 -391z"/>
<path d="M45185 11238 c-9 -27 -155 -539 -155 -543 0 -3 795 -5 1768 -5 l1767
0 75 266 c41 147 76 273 78 280 5 20 -3526 21 -3533 2z"/>
<path d="M40837 10253 c-5 -9 -157 -539 -157 -548 0 -3 1711 -4 3802 -3 l3803
3 72 255 c39 140 75 265 78 278 l5 22 -3799 0 c-2090 0 -3802 -3 -3804 -7z"/>
<path d="M237 10073 c-3 -5 -55 -188 -117 -408 -62 -220 -115 -406 -117 -412
-4 -10 244 -13 1222 -13 1015 0 1226 -2 1222 -13 -3 -8 -78 -270 -167 -583
-89 -313 -249 -877 -357 -1254 -107 -377 -205 -737 -218 -800 -150 -733 103
-1332 648 -1538 154 -58 258 -75 452 -76 201 0 303 16 479 75 454 151 937 545
1546 1259 199 234 184 226 144 65 -54 -221 -67 -334 -61 -530 4 -125 10 -188
25 -240 46 -166 104 -268 207 -370 118 -115 267 -190 464 -232 100 -22 143
-25 311 -26 208 -1 288 9 485 59 278 71 552 184 1045 431 211 106 386 191 387
189 3 -2 -721 -2537 -813 -2848 -5 -17 25 -18 535 -18 298 0 541 2 541 4 0 6
959 3345 966 3366 3 8 16 -21 29 -65 84 -285 226 -554 410 -775 243 -291 576
-499 953 -595 177 -44 290 -57 502 -57 341 1 615 52 910 168 306 121 578 301
821 544 313 312 521 654 669 1100 127 381 178 767 159 1197 -15 346 -79 657
-194 943 -212 530 -597 931 -1071 1119 -525 208 -1121 179 -1643 -80 -233
-115 -402 -238 -585 -423 -61 -61 -107 -104 -104 -95 4 10 63 212 133 450 69
239 130 446 135 462 l9 27 -1127 0 -1128 0 -121 -420 -121 -420 585 0 c552 0
584 -1 579 -17 -3 -10 -161 -560 -351 -1223 -190 -663 -348 -1213 -351 -1222
-8 -27 -639 -376 -1044 -577 -529 -263 -782 -338 -958 -286 -114 34 -158 109
-149 252 4 78 67 307 546 1990 298 1047 541 1907 541 1913 0 7 -178 10 -532
10 l-533 0 -405 -1407 -405 -1407 -49 -56 c-110 -124 -471 -493 -618 -631
-517 -484 -820 -660 -1163 -676 -308 -13 -500 110 -571 367 -27 95 -25 340 4
470 11 52 223 821 471 1708 248 887 451 1617 451 1622 0 12 -3506 14 -3513 3z
m11239 -1108 c448 -78 773 -363 933 -819 140 -398 122 -993 -44 -1442 -226
-610 -679 -1019 -1240 -1120 -134 -24 -376 -24 -500 0 -402 77 -697 293 -872
640 -250 496 -220 1218 75 1799 257 508 700 859 1187 941 112 19 352 20 461 1z"/>
<path d="M35060 9856 c-597 -76 -1119 -327 -1531 -736 -369 -367 -618 -846
-703 -1355 -61 -363 -44 -833 45 -1205 110 -467 332 -873 647 -1186 374 -372
871 -614 1437 -698 378 -57 825 -44 1175 34 414 92 817 277 1149 529 62 47
122 92 132 100 18 13 19 33 19 457 0 349 -3 444 -12 444 -7 0 -40 -23 -73 -52
-412 -352 -891 -560 -1441 -624 -109 -13 -193 -15 -394 -11 -277 7 -355 14
-530 53 -156 35 -273 75 -409 140 -149 71 -261 146 -366 246 -188 177 -279
353 -292 558 -8 134 10 195 80 265 59 58 128 87 252 105 44 6 680 10 1728 10
l1658 0 -3 553 c-4 628 -4 625 -95 901 -251 758 -895 1308 -1703 1457 -148 27
-604 36 -770 15z m477 -911 c487 -79 890 -443 1008 -911 25 -98 51 -314 41
-341 -5 -12 -156 -14 -1103 -13 -1211 1 -1166 4 -1351 -62 -101 -35 -176 -72
-249 -121 l-53 -36 0 40 c0 21 7 85 15 142 115 766 547 1228 1222 1306 119 14
372 12 470 -4z"/>
<path d="M24020 9829 c-524 -54 -1057 -244 -1495 -532 -77 -51 -224 -156 -225
-160 -1 -1 -7 -173 -15 -382 -17 -434 -18 -555 -7 -555 4 0 50 37 102 81 217
183 559 381 827 478 357 129 767 188 1132 163 278 -20 467 -63 621 -143 252
-130 377 -365 340 -640 -21 -162 -94 -266 -233 -334 -164 -80 -336 -102 -897
-115 -228 -5 -458 -14 -510 -20 -630 -68 -1059 -236 -1351 -529 -204 -205
-313 -423 -360 -726 -19 -115 -16 -390 4 -500 73 -405 286 -727 632 -957 233
-155 551 -268 865 -308 144 -18 415 -24 545 -11 433 42 828 223 1139 521 89
85 220 241 266 314 21 35 25 37 31 20 4 -10 27 -178 50 -371 l42 -353 404 0
403 0 0 1698 c0 1069 -4 1747 -10 1832 -47 614 -343 1054 -881 1309 -250 118
-518 188 -848 221 -121 12 -449 11 -571 -1z m1325 -3253 c-84 -578 -534 -1026
-1115 -1112 -136 -20 -388 -15 -535 11 -122 22 -295 82 -391 136 -161 90 -292
254 -329 410 -19 83 -19 248 0 324 72 282 321 466 725 536 87 15 193 22 435
29 519 15 753 54 973 162 77 39 174 109 218 160 l29 33 3 -290 c2 -224 -1
-315 -13 -399z"/>
<path d="M29165 9834 c-22 -3 -95 -14 -163 -25 -863 -143 -1541 -739 -1820
-1599 -193 -595 -170 -1344 58 -1930 300 -768 929 -1278 1736 -1406 160 -25
493 -30 654 -9 377 47 722 194 1021 433 94 74 249 231 309 311 25 33 49 60 54
61 15 0 -1 -581 -19 -700 -30 -196 -87 -385 -160 -530 -46 -91 -146 -232 -222
-311 -349 -365 -856 -498 -1560 -408 -575 72 -1118 293 -1583 643 -41 31 -81
56 -87 56 -10 0 -13 -100 -13 -470 l0 -469 58 -43 c101 -75 301 -196 442 -268
344 -174 702 -288 1085 -346 317 -48 812 -45 1129 7 1101 180 1787 930 1941
2124 32 250 35 469 35 2608 l0 2147 -399 0 c-372 0 -400 -1 -405 -17 -2 -10
-28 -191 -56 -403 -28 -212 -54 -392 -57 -400 -4 -12 -7 -12 -16 4 -107 171
-200 288 -333 416 -213 205 -449 347 -730 439 -216 71 -304 84 -599 86 -143 2
-278 1 -300 -1z m715 -909 c128 -22 284 -75 401 -136 675 -353 971 -1277 672
-2094 -153 -419 -475 -744 -863 -875 -242 -81 -571 -97 -834 -40 -573 125
-964 546 -1091 1175 -61 302 -49 676 32 955 176 609 599 964 1224 1030 115 12
344 4 459 -15z"/>
<path d="M15610 9805 c-834 -103 -1376 -562 -1487 -1259 -24 -153 -14 -439 20
-567 97 -369 337 -631 772 -844 183 -89 317 -140 744 -282 420 -140 532 -182
675 -256 246 -126 369 -268 396 -456 32 -230 -90 -433 -335 -551 -306 -149
-709 -166 -1205 -49 -374 88 -735 252 -1044 474 -127 91 -116 127 -116 -389
l0 -445 83 -49 c557 -337 1283 -519 1918 -481 548 32 973 201 1279 508 203
204 309 402 372 695 31 145 32 457 1 596 -105 480 -430 799 -1073 1051 -85 34
-279 102 -430 151 -446 144 -587 196 -735 268 -206 101 -308 193 -356 320 -28
74 -23 227 10 312 78 200 291 338 611 394 116 20 400 23 545 5 395 -49 759
-183 1082 -397 44 -30 86 -54 92 -54 8 0 11 129 11 444 l0 444 -23 15 c-12 8
-64 38 -115 66 -280 156 -621 271 -955 323 -174 27 -568 34 -737 13z"/>
<path d="M41207 8997 c-42 -149 -77 -275 -77 -280 0 -4 1547 -6 3437 -5 l3437
3 72 255 c40 140 75 265 79 278 l5 22 -3437 0 -3438 0 -78 -273z"/>
<path d="M41445 8268 c-2 -7 -31 -112 -65 -233 -34 -121 -67 -241 -75 -268
l-14 -47 3226 2 3225 3 79 270 c43 149 78 273 79 278 0 4 -1451 7 -3225 7
-2572 0 -3226 -3 -3230 -12z"/>
<path d="M41677 7283 c-3 -5 -37 -123 -76 -263 -39 -140 -74 -263 -77 -273 -5
-16 161 -17 3432 -15 l3438 3 73 250 c40 138 75 262 78 278 l7 27 -3436 0
c-1889 0 -3437 -3 -3439 -7z"/>
<path d="M41321 6032 c-41 -147 -76 -273 -79 -280 -3 -10 758 -12 3799 -10
l3803 3 78 270 c43 149 78 273 78 278 0 4 -1711 7 -3802 7 l-3803 0 -74 -268z"/>
<path d="M41040 5044 c-41 -147 -76 -273 -78 -280 -3 -12 272 -14 1764 -12
l1767 3 78 270 c43 149 79 273 79 278 0 4 -795 7 -1768 7 l-1767 0 -75 -266z"/>
<path d="M40760 4058 c-40 -145 -75 -271 -78 -280 -4 -17 57 -18 1190 -18
l1193 0 78 273 c43 149 78 275 77 280 0 4 -537 7 -1193 7 l-1193 0 -74 -262z"/>
<path d="M40477 3057 c-42 -151 -77 -277 -77 -280 0 -4 251 -7 558 -7 l559 0
63 218 c34 119 71 245 81 280 l18 62 -563 0 -562 0 -77 -273z"/>
</g>
</svg>
