<?xml version="1.0" standalone="no"?>
<!DOCTYPE svg PUBLIC "-//W3C//DTD SVG 20010904//EN"
 "http://www.w3.org/TR/2001/REC-SVG-20010904/DTD/svg10.dtd">
<svg version="1.0" xmlns="http://www.w3.org/2000/svg"
 width="4800.000000pt" height="1600.000000pt" viewBox="0 0 4800.000000 1600.000000"
 preserveAspectRatio="xMidYMid meet">
<metadata>
Created by potrace 1.16, written by Peter Selinger 2001-2019
</metadata>
<g transform="translate(0.000000,1600.000000) scale(0.100000,-0.100000)"
fill="#ffffff" stroke="none">
<path d="M28530 12689 c-962 -69 -1637 -377 -2096 -954 -135 -170 -228 -327
-310 -520 -278 -662 -217 -1569 142 -2106 250 -373 572 -590 1189 -799 340
-115 560 -172 1330 -345 624 -140 767 -176 969 -242 432 -141 649 -282 750
-487 50 -100 68 -189 67 -327 -2 -657 -543 -999 -1581 -999 -805 0 -1305 251
-1507 754 -46 116 -81 243 -105 384 l-22 122 -763 0 -763 0 0 -98 c0 -337 90
-723 240 -1027 109 -223 222 -381 403 -563 384 -390 897 -651 1531 -782 575
-118 1305 -130 1891 -29 544 93 1001 286 1360 576 422 341 700 775 809 1264
44 199 59 367 53 604 -10 375 -72 649 -207 917 -253 504 -713 830 -1490 1057
-91 27 -478 124 -860 216 -1089 261 -1233 298 -1485 385 -292 101 -452 209
-548 371 -67 114 -82 180 -82 369 0 145 3 174 23 240 88 281 315 488 662 604
197 66 513 103 770 92 601 -28 1012 -213 1240 -558 97 -148 156 -319 182 -525
l11 -93 770 0 770 0 -7 113 c-21 353 -104 681 -245 972 -194 399 -484 705
-909 958 -391 234 -804 372 -1302 437 -189 25 -663 35 -880 19z"/>
<path d="M33210 11835 l0 -685 753 2 752 3 3 683 2 682 -755 0 -755 0 0 -685z"/>
<path d="M3210 12478 c1 -2 490 -1729 1089 -3838 l1088 -3835 746 -3 c411 -1
747 0 747 4 0 3 207 1010 461 2237 334 1617 498 2434 595 2966 74 404 134 739
134 744 0 41 25 -86 144 -738 98 -535 263 -1357 596 -2969 253 -1226 460
-2233 460 -2238 0 -4 345 -8 768 -8 l767 0 1074 3815 c590 2098 1076 3826
1079 3840 l4 25 -813 -2 -813 -3 -508 -2195 c-392 -1697 -535 -2333 -629
-2803 -67 -334 -123 -606 -125 -605 -1 2 -50 255 -109 563 -77 404 -885 4339
-1025 4993 l-12 52 -846 -2 -845 -3 -418 -2135 c-230 -1174 -473 -2430 -540
-2790 -67 -360 -125 -658 -129 -662 -3 -5 -54 263 -113 595 l-108 602 -507
2195 -507 2195 -853 3 c-468 1 -852 1 -852 0z"/>
<path d="M19510 8635 l0 -3835 725 0 725 0 0 356 0 357 73 -96 c321 -422 577
-601 1001 -702 203 -48 312 -59 596 -59 277 -1 376 9 570 54 609 143 1075 530
1408 1170 201 385 318 789 378 1305 23 190 26 794 6 980 -86 789 -361 1414
-818 1855 -197 189 -391 317 -638 417 -261 105 -507 152 -841 160 -480 12
-814 -73 -1133 -287 -194 -130 -359 -288 -514 -491 l-53 -69 -5 1357 -5 1358
-737 3 -738 2 0 -3835z m2987 641 c222 -48 389 -141 542 -301 255 -268 384
-658 410 -1240 22 -474 -39 -861 -186 -1175 -175 -375 -438 -597 -790 -666
-116 -23 -353 -24 -479 -1 -252 45 -439 140 -599 301 -167 169 -306 435 -380
726 -114 449 -94 1121 46 1550 189 581 623 867 1254 828 61 -4 143 -14 182
-22z"/>
<path d="M15615 10620 c-371 -31 -684 -114 -980 -260 -181 -89 -307 -167 -445
-278 -510 -408 -818 -960 -944 -1692 -49 -282 -60 -428 -60 -810 0 -468 31
-751 119 -1088 176 -669 506 -1108 1107 -1470 120 -73 370 -192 504 -240 451
-163 988 -209 1529 -131 390 56 760 192 1056 388 409 271 791 748 924 1154 34
104 67 262 57 272 -3 3 -343 5 -756 5 l-751 0 -34 -63 c-164 -303 -370 -474
-669 -555 -90 -24 -113 -26 -312 -26 -233 -1 -291 6 -445 55 -342 109 -603
365 -730 719 -57 160 -105 419 -105 566 l0 64 1940 0 1940 0 0 263 c-1 658
-50 1037 -189 1437 -126 364 -331 702 -591 973 -375 392 -884 627 -1519 702
-158 19 -501 27 -646 15z m545 -1248 c368 -99 623 -324 760 -671 39 -100 76
-269 95 -438 l6 -53 -1155 0 -1155 0 6 38 c26 183 90 398 164 548 165 337 402
524 751 590 112 21 430 13 528 -14z"/>
<path d="M38911 10584 c-318 -38 -595 -145 -816 -313 -136 -104 -300 -292
-451 -520 l-69 -104 -3 412 -2 411 -720 0 -720 0 0 -2835 0 -2835 750 0 750 0
0 1738 c0 1781 3 1922 40 2113 39 204 92 310 215 434 65 65 98 90 175 128 271
136 702 151 953 33 224 -104 345 -283 398 -586 34 -196 39 -489 39 -2202 l0
-1658 745 0 744 0 4 1803 c2 1642 4 1810 19 1892 56 299 166 511 338 654 78
65 220 134 335 163 77 19 116 22 275 22 158 0 197 -4 265 -22 214 -58 368
-180 458 -362 51 -104 81 -206 97 -333 6 -53 10 -737 10 -1949 l0 -1868 758 0
759 0 6 518 c11 807 8 3387 -3 3552 -42 607 -199 958 -590 1313 -241 220 -584
364 -970 408 -143 16 -440 6 -595 -20 -210 -36 -445 -110 -606 -191 -255 -129
-530 -394 -704 -678 -21 -34 -39 -61 -40 -60 -2 2 -35 66 -74 143 -82 163
-175 292 -304 423 -166 168 -370 274 -657 342 -208 48 -565 64 -809 34z"/>
<path d="M33210 7640 l0 -2840 755 0 755 0 -2 2838 -3 2837 -752 3 -753 2 0
-2840z"/>
</g>
</svg>
