<?xml version="1.0" standalone="no"?>
<!DOCTYPE svg PUBLIC "-//W3C//DTD SVG 20010904//EN"
 "http://www.w3.org/TR/2001/REC-SVG-20010904/DTD/svg10.dtd">
<svg version="1.0" xmlns="http://www.w3.org/2000/svg"
 width="3986.000000pt" height="1600.000000pt" viewBox="0 0 3986.000000 1600.000000"
 preserveAspectRatio="xMidYMid meet">
<metadata>
Created by potrace 1.16, written by Peter Selinger 2001-2019
</metadata>
<g transform="translate(0.000000,1600.000000) scale(0.100000,-0.100000)"
fill="#ffffff" stroke="none">
<path d="M16985 15960 c-450 -51 -817 -299 -1011 -683 -102 -201 -140 -383
-131 -626 6 -171 28 -280 86 -426 156 -388 494 -665 924 -756 135 -29 398 -32
529 -6 394 78 711 313 888 657 104 203 135 343 134 600 -1 173 -3 192 -32 303
-59 223 -168 414 -332 577 -184 184 -410 300 -667 345 -112 20 -287 26 -388
15z"/>
<path d="M38465 15964 c-470 -47 -851 -298 -1049 -692 -149 -295 -172 -682
-60 -994 126 -349 396 -622 744 -751 160 -59 280 -80 470 -81 178 0 272 13
424 61 399 125 713 456 821 866 95 360 35 730 -169 1036 -187 281 -489 478
-821 535 -93 16 -290 27 -360 20z"/>
<path d="M26380 12979 c-1005 -41 -2011 -524 -2797 -1343 -62 -64 -152 -164
-200 -223 -48 -59 -100 -120 -115 -137 l-27 -31 -1 623 0 622 -1625 0 -1625 0
0 -369 0 -368 98 -7 c553 -37 933 -292 1065 -711 55 -177 52 -1 52 -3115 0
-2753 -1 -2889 -18 -2975 -48 -237 -156 -399 -337 -505 -153 -91 -349 -145
-700 -194 -63 -9 -125 -19 -138 -21 l-22 -5 2 -378 3 -377 2195 0 2195 0 3
377 2 377 -32 5 c-18 2 -86 9 -150 15 -615 57 -910 307 -958 810 -6 68 -10
1056 -10 2762 l0 2657 107 93 c405 355 660 536 968 689 357 177 657 253 1045
267 804 27 1268 -279 1435 -947 64 -254 59 -42 63 -2910 2 -1854 0 -2629 -8
-2689 -15 -116 -62 -255 -110 -330 -140 -216 -371 -316 -909 -395 l-156 -23
-3 -381 -2 -382 2220 0 2220 0 0 380 c0 296 -3 381 -12 384 -7 2 -94 16 -193
31 -418 61 -634 139 -783 280 -102 96 -160 207 -200 380 -14 63 -16 354 -22
2895 -7 3023 -5 2881 -55 3210 -170 1122 -736 1756 -1713 1919 -231 39 -467
51 -752 40z"/>
<path d="M34360 12970 c-789 -60 -1421 -223 -1975 -509 -1092 -563 -1644
-1530 -1584 -2776 26 -533 170 -1014 425 -1420 234 -373 584 -709 981 -942 72
-43 132 -81 132 -84 1 -3 -36 -31 -81 -61 -476 -317 -932 -824 -1179 -1310
-377 -743 -321 -1372 159 -1771 159 -133 397 -268 653 -373 63 -25 118 -49
122 -53 4 -4 -18 -13 -50 -20 -88 -20 -349 -106 -459 -152 -310 -129 -526
-270 -735 -478 -275 -276 -414 -579 -438 -961 -29 -436 112 -793 436 -1101
530 -504 1494 -813 2838 -909 455 -32 1136 -37 1505 -10 1685 122 3105 658
3921 1480 421 425 662 894 745 1457 23 153 24 483 1 629 -111 715 -592 1219
-1435 1500 -241 81 -593 157 -887 194 -367 45 -279 43 -2600 49 l-2200 6 -78
22 c-149 43 -245 114 -295 221 -23 49 -27 73 -30 167 -3 92 1 126 22 210 78
302 317 617 683 896 l91 70 139 -40 c369 -105 777 -173 1216 -202 234 -15 857
-6 1067 15 972 100 1753 385 2340 853 124 98 319 292 422 417 501 611 709
1393 612 2301 -116 1088 -716 1876 -1764 2315 -424 179 -945 297 -1560 356
-192 18 -976 28 -1160 14z m779 -764 c434 -81 776 -287 1056 -636 289 -360
472 -856 526 -1424 17 -184 7 -604 -19 -771 -97 -620 -333 -1109 -707 -1463
-415 -393 -975 -552 -1527 -432 -653 142 -1179 683 -1412 1452 -103 340 -141
675 -125 1078 31 737 309 1400 750 1788 263 232 556 368 899 418 123 17 443
12 559 -10z m1851 -8799 c666 -111 1008 -390 1027 -837 14 -310 -104 -592
-356 -853 -180 -186 -375 -324 -656 -462 -466 -229 -1005 -374 -1655 -445
-285 -31 -821 -41 -1086 -20 -865 68 -1490 295 -1872 682 -251 254 -374 558
-374 923 0 333 157 736 379 973 l59 62 2214 -3 c2056 -2 2223 -4 2320 -20z"/>
<path d="M110 12122 l0 -369 103 -17 c402 -71 737 -229 939 -444 121 -129 120
-126 398 -827 303 -763 2646 -6710 2807 -7122 4 -10 73 -13 298 -13 l293 0 70
157 c38 87 608 1375 1267 2863 659 1488 1200 2708 1204 2712 3 4 502 -1283
1108 -2860 l1101 -2867 301 -3 c278 -2 301 -1 309 15 5 10 659 1656 1452 3658
793 2002 1492 3764 1552 3915 115 291 163 384 253 492 157 192 401 312 673
333 l92 8 0 368 0 369 -1590 0 -1590 0 0 -370 c0 -203 3 -370 8 -370 4 0 97
-16 207 -35 459 -79 660 -156 763 -291 99 -129 108 -333 26 -624 -24 -85
-1698 -4455 -1713 -4472 -5 -6 -1512 4223 -1581 4437 -39 123 -61 233 -67 340
-19 317 137 467 591 564 88 19 439 81 458 81 5 0 8 167 8 370 l0 370 -2030 0
-2030 0 0 -369 0 -369 83 -28 c132 -43 346 -128 432 -172 164 -82 259 -174
331 -319 19 -40 107 -273 194 -518 l158 -445 -881 -1980 c-485 -1089 -884
-1980 -887 -1980 -6 0 -1586 4261 -1661 4477 -48 140 -71 259 -71 372 -1 317
188 445 825 560 93 17 173 33 178 36 5 4 9 159 9 371 l0 364 -2195 0 -2195 0
0 -368z"/>
<path d="M14960 12121 l0 -369 88 -6 c608 -47 965 -289 1089 -741 l28 -100 3
-2918 c2 -3149 4 -3021 -48 -3179 -110 -327 -379 -474 -1032 -564 l-128 -17 0
-379 0 -378 2200 0 2200 0 -2 378 -3 377 -115 7 c-531 32 -860 233 -979 598
-54 163 -51 -49 -51 3953 l0 3707 -1625 0 -1625 0 0 -369z"/>
</g>
</svg>
