<?xml version="1.0" standalone="no"?>
<!DOCTYPE svg PUBLIC "-//W3C//DTD SVG 20010904//EN"
 "http://www.w3.org/TR/2001/REC-SVG-20010904/DTD/svg10.dtd">
<svg version="1.0" xmlns="http://www.w3.org/2000/svg"
 width="3494.000000pt" height="1600.000000pt" viewBox="0 0 3494.000000 1600.000000"
 preserveAspectRatio="xMidYMid meet">
<metadata>
Created by potrace 1.16, written by Peter Selinger 2001-2019
</metadata>
<g transform="translate(0.000000,1600.000000) scale(0.100000,-0.100000)"
fill="#ffffff" stroke="none">
<path d="M21114 15970 c-39 -4 -89 -11 -112 -15 l-42 -7 0 -646 0 -647 -458
458 -458 458 -104 -85 c-125 -100 -251 -227 -349 -351 l-72 -89 458 -458 458
-458 -646 0 -646 0 -6 -42 c-23 -164 -30 -356 -18 -496 6 -81 15 -159 18 -174
l5 -28 644 0 c354 0 644 -3 644 -8 0 -4 -204 -211 -454 -461 l-455 -454 62
-81 c34 -44 109 -128 167 -186 103 -104 275 -250 295 -250 6 0 213 203 460
450 l450 450 5 -642 5 -643 80 -13 c110 -17 437 -18 558 -3 l97 13 0 644 c0
354 3 644 8 644 4 0 210 -202 457 -450 247 -247 454 -450 460 -450 19 1 190
145 287 243 93 93 228 255 228 273 0 5 -202 212 -450 459 -247 247 -450 453
-450 457 0 5 290 8 644 8 l643 0 7 39 c28 179 30 409 4 614 l-11 87 -646 0
-646 0 455 455 455 455 -16 25 c-63 105 -269 319 -419 438 l-85 67 -455 -455
c-250 -250 -458 -455 -463 -455 -4 0 -7 290 -7 644 l0 644 -27 6 c-117 24
-407 32 -559 16z m435 -1675 c51 -9 130 -28 175 -43 l81 -27 19 -55 c82 -244
85 -557 8 -799 l-28 -85 -71 -23 c-144 -45 -230 -57 -398 -57 -171 0 -271 14
-400 57 l-70 23 -26 80 c-78 233 -77 542 2 795 l21 67 67 21 c57 18 161 41
241 54 65 11 293 6 379 -8z"/>
<path d="M8670 10239 c-554 -27 -1216 -137 -1647 -274 l-83 -26 0 -73 c0 -187
44 -454 106 -649 48 -149 140 -341 160 -333 39 15 236 69 384 106 754 187
1522 211 2010 63 471 -142 712 -411 801 -897 17 -88 22 -169 26 -390 l5 -279
-43 7 c-273 40 -670 59 -1126 53 -422 -5 -566 -18 -853 -77 -435 -89 -820
-246 -1125 -458 -120 -84 -180 -134 -289 -240 -324 -318 -512 -678 -593 -1137
-22 -129 -25 -630 -5 -770 51 -337 149 -606 310 -846 347 -515 915 -811 1762
-918 457 -58 1027 -60 1580 -5 325 32 935 134 1450 242 l225 48 0 2334 c0
2204 -1 2343 -18 2475 -81 616 -268 1045 -598 1373 -506 500 -1325 726 -2439
671z m1330 -3749 c124 -12 270 -27 325 -33 l100 -12 0 -1095 0 -1095 -55 -12
c-361 -82 -771 -119 -1245 -110 -451 8 -632 37 -830 131 -128 60 -193 104
-284 191 -191 183 -277 376 -302 686 -28 325 43 631 195 843 55 76 172 190
251 243 226 152 569 256 950 287 142 11 681 -3 895 -24z"/>
<path d="M16365 10244 c-260 -19 -447 -53 -642 -115 -519 -166 -910 -460
-1231 -927 l-50 -73 -6 48 c-45 358 -108 823 -115 855 -5 22 -13 44 -18 49
-12 12 -178 37 -338 50 -217 18 -520 3 -747 -37 l-38 -7 0 -5017 0 -5018 78
-11 c194 -28 307 -35 577 -35 273 0 504 15 635 43 l35 7 3 1573 c2 1491 3
1572 20 1567 54 -17 243 -58 342 -75 517 -88 1121 -86 1650 5 714 122 1299
405 1758 849 604 583 945 1390 1022 2415 14 184 14 688 0 885 -85 1220 -534
2122 -1291 2592 -288 179 -689 310 -1095 358 -128 15 -453 26 -549 19z m205
-1174 c413 -67 722 -256 932 -569 278 -416 418 -994 418 -1732 0 -531 -69
-937 -227 -1324 -305 -749 -851 -1167 -1649 -1260 -152 -18 -558 -20 -769 -5
-241 18 -497 67 -690 133 l-70 24 -3 1489 c-3 1603 -2 1623 50 1864 57 266
173 531 325 737 289 394 736 634 1233 662 135 7 344 -1 450 -19z"/>
<path d="M26686 10240 c-464 -31 -846 -124 -1201 -294 -736 -353 -1250 -944
-1529 -1755 -104 -302 -184 -679 -221 -1036 -22 -211 -30 -680 -16 -895 68
-1003 359 -1738 905 -2286 660 -662 1608 -960 2903 -914 548 20 982 83 1411
206 159 46 438 146 456 164 6 6 5 54 -3 137 -30 313 -106 622 -206 840 l-37
81 -67 -25 c-796 -307 -1855 -397 -2557 -218 -845 216 -1294 789 -1389 1773
-8 81 -15 182 -15 225 l0 77 2335 0 c1284 0 2335 3 2335 8 0 4 7 88 15 187 51
616 21 1106 -95 1580 -234 956 -800 1634 -1637 1961 -210 83 -493 148 -753
174 -148 15 -481 20 -634 10z m409 -1060 c568 -54 1009 -382 1239 -921 105
-247 162 -509 181 -831 l7 -118 -1696 0 c-1538 0 -1696 1 -1696 16 0 8 9 77
21 152 87 572 283 1001 590 1297 114 109 216 180 352 245 285 137 643 193
1002 160z"/>
<path d="M31645 10133 c-64 -5 -204 -22 -282 -35 l-73 -11 0 -3437 0 -3437 53
-7 c438 -55 812 -57 1157 -8 l115 17 5 1910 c6 2108 3 2001 71 2340 55 275
170 565 309 775 123 186 359 394 564 497 150 75 394 141 624 168 150 18 517
20 609 4 35 -6 66 -9 69 -6 3 2 17 87 31 188 24 165 27 214 27 474 1 237 -2
310 -17 401 -11 61 -22 116 -26 122 -20 33 -522 49 -726 23 -502 -63 -842
-236 -1231 -625 -138 -139 -228 -247 -324 -388 l-58 -87 -6 87 c-17 239 -29
371 -47 512 -26 206 -68 463 -77 472 -11 11 -174 36 -307 48 -111 9 -368 11
-460 3z"/>
<path d="M427 10068 c-43 -176 -43 -878 -1 -1020 5 -17 90 -18 1595 -18 874 0
1589 -3 1589 -6 0 -4 -812 -1270 -1805 -2814 l-1805 -2808 33 -94 34 -93 2679
0 2679 0 13 85 c29 199 30 617 2 862 l-13 108 -1708 2 -1708 3 1820 2818 1821
2818 -23 62 c-12 34 -28 74 -36 90 l-14 27 -2573 0 -2574 0 -5 -22z"/>
<path d="M20082 10038 c-30 -141 -36 -226 -37 -468 0 -242 8 -350 37 -482 l10
-48 434 0 434 0 2 -2912 3 -2913 115 -17 c63 -9 210 -22 325 -29 232 -14 505
-3 733 27 l122 17 0 3438 0 3439 -1083 0 -1084 0 -11 -52z"/>
</g>
</svg>
