<svg width="2380" height="447" viewBox="0 0 2380 447" fill="none" xmlns="http://www.w3.org/2000/svg">
<path d="M808.809 218.2C808.809 153.976 762.441 112.792 709.449 112.792C656.457 112.792 609.801 153.976 609.801 218.2C609.801 282.424 656.457 323.608 709.449 323.608C762.441 323.608 808.809 282.424 808.809 218.2ZM709.449 319C670.281 319 647.241 289.912 647.241 218.488C647.241 147.064 670.281 117.4 709.449 117.4C748.617 117.4 771.369 146.776 771.369 218.2C771.369 289.624 748.617 319 709.449 319ZM1065.49 314.392V219.064C1065.49 179.608 1039.86 170.392 1017.39 170.392C990.897 170.392 979.089 183.928 973.905 201.496C969.009 181.624 952.017 170.392 927.249 170.392C900.753 170.392 892.689 183.064 886.929 193.432H885.777V172.696C880.305 173.848 875.121 175 869.649 175H828.177V179.608H853.521V314.392H828.177V319H906.801V314.392H885.777V215.32C886.641 197.752 897.873 175 919.761 175C939.057 175 943.377 192.28 943.377 217.624V314.392H922.353V319H996.657V314.392H975.633V215.32C976.785 195.736 988.881 175 1009.91 175C1025.75 175 1033.23 187.096 1033.23 216.184V314.392H1012.21V319H1090.83V314.392H1065.49ZM1251.04 314.392V224.824C1251.04 184.504 1231.17 170.392 1200.64 170.392C1179.33 170.392 1168.68 180.76 1159.75 197.464H1158.31V172.696C1152.84 173.848 1147.65 175 1142.18 175H1100.71V179.608H1126.05V314.392H1100.71V319H1180.77V314.392H1158.31V212.728C1164.93 193.144 1177.32 175 1194.31 175C1210.44 175 1218.79 191.704 1218.79 221.944V314.392H1196.32V319H1276.39V314.392H1251.04ZM1326.66 142.744C1338.18 142.744 1346.24 134.68 1346.24 123.16C1346.24 111.64 1338.18 103.576 1326.66 103.576C1315.14 103.576 1307.08 111.64 1307.08 123.16C1307.08 134.68 1315.14 142.744 1326.66 142.744ZM1286.05 179.608H1311.4V314.392H1286.05V319H1369V314.392H1343.65V172.696C1338.18 173.848 1333 175 1327.52 175H1286.05V179.608ZM1430.7 323.608C1462.67 323.608 1487.15 302.584 1487.15 275.512C1487.15 250.168 1471.6 243.832 1440.5 227.992C1425.23 220.216 1410.54 213.304 1410.54 195.448C1410.54 186.232 1414.58 175 1433.58 175C1461.81 175 1469.3 191.128 1470.74 207.832H1474.19L1474.48 172.984H1471.6C1471.6 175.576 1470.16 177.016 1466.42 177.016C1458.64 177.016 1452.59 170.392 1434.16 170.392C1401.9 170.392 1386.64 190.264 1386.64 210.424C1386.64 236.632 1412.27 249.016 1427.82 256.504C1452.59 268.312 1464.69 275.8 1464.69 293.368C1464.69 306.904 1457.78 319 1429.84 319C1398.45 319 1388.66 303.448 1389.52 271.768H1386.06L1383.18 319H1386.06C1386.35 316.408 1388.08 315.832 1390.1 315.832C1397.58 315.832 1411.41 323.608 1430.7 323.608ZM1633.92 290.2C1626.15 302.872 1611.46 319 1585.25 319C1556.16 319 1545.51 299.128 1545.51 243.544C1545.51 195.448 1553.57 175 1584.1 175C1593.89 175 1605.12 177.016 1605.12 187.096C1605.12 194.584 1598.79 198.04 1598.79 207.544C1598.79 217.336 1605.12 226.264 1617.79 226.264C1632.48 226.264 1637.67 214.744 1637.67 205.528C1637.67 187.096 1616.07 170.392 1582.37 170.392C1529.38 170.392 1510.08 211.864 1510.08 247.576C1510.08 285.304 1531.39 323.608 1581.22 323.608C1617.79 323.608 1630.75 302.872 1637.95 292.216L1633.92 290.2ZM1696.5 142.744C1708.02 142.744 1716.09 134.68 1716.09 123.16C1716.09 111.64 1708.02 103.576 1696.5 103.576C1684.98 103.576 1676.92 111.64 1676.92 123.16C1676.92 134.68 1684.98 142.744 1696.5 142.744ZM1655.9 179.608H1681.24V314.392H1655.9V319H1738.84V314.392H1713.5V172.696C1708.02 173.848 1702.84 175 1697.37 175H1655.9V179.608ZM1827.4 319C1798.6 319 1787.94 298.264 1787.94 244.984V242.392H1850.73C1850.73 242.392 1859.37 242.392 1867.72 242.392H1882.7C1882.7 197.752 1857.35 170.392 1819.05 170.392C1772.68 170.392 1752.52 210.424 1752.52 246.712C1752.52 285.016 1774.7 323.608 1822.22 323.608C1854.76 323.608 1869.74 308.344 1880.39 292.216L1876.36 290.2C1867.72 304.6 1851.02 319 1827.4 319ZM1819.91 175C1842.09 175 1850.15 187.096 1850.73 237.784H1787.94C1788.81 187.384 1797.74 175 1819.91 175ZM2046.7 314.392V224.824C2046.7 184.504 2026.83 170.392 1996.3 170.392C1974.99 170.392 1964.33 180.76 1955.4 197.464H1953.96V172.696C1948.49 173.848 1943.31 175 1937.84 175H1896.36V179.608H1921.71V314.392H1896.36V319H1976.43V314.392H1953.96V212.728C1960.59 193.144 1972.97 175 1989.96 175C2006.09 175 2014.44 191.704 2014.44 221.944V314.392H1991.98V319H2072.04V314.392H2046.7ZM2209.36 290.2C2201.58 302.872 2186.9 319 2160.69 319C2131.6 319 2120.94 299.128 2120.94 243.544C2120.94 195.448 2129.01 175 2159.54 175C2169.33 175 2180.56 177.016 2180.56 187.096C2180.56 194.584 2174.22 198.04 2174.22 207.544C2174.22 217.336 2180.56 226.264 2193.23 226.264C2207.92 226.264 2213.1 214.744 2213.1 205.528C2213.1 187.096 2191.5 170.392 2157.81 170.392C2104.82 170.392 2085.52 211.864 2085.52 247.576C2085.52 285.304 2106.83 323.608 2156.66 323.608C2193.23 323.608 2206.19 302.872 2213.39 292.216L2209.36 290.2ZM2312.84 319C2284.04 319 2273.38 298.264 2273.38 244.984V242.392H2336.17C2336.17 242.392 2344.81 242.392 2353.16 242.392H2368.13C2368.13 197.752 2342.79 170.392 2304.49 170.392C2258.12 170.392 2237.96 210.424 2237.96 246.712C2237.96 285.016 2260.13 323.608 2307.65 323.608C2340.2 323.608 2355.17 308.344 2365.83 292.216L2361.8 290.2C2353.16 304.6 2336.45 319 2312.84 319ZM2305.35 175C2327.53 175 2335.59 187.096 2336.17 237.784H2273.38C2274.25 187.384 2283.17 175 2305.35 175Z" fill="white"/>
<rect x="2" width="447" height="447" rx="110" fill="white"/>
<path d="M184.838 99.5268L222.838 86.5268M144.85 112.523L182.85 100.523M142.693 132.606L183.693 100.606M97.586 183.72L143.586 115.72M186.732 141.422L142.732 113.422M120.697 148.602L141.697 132.602M142.48 133.139L115.48 226.139M114.5 160V226M184.987 99.5L262.987 97.5M226.147 85.522L265.147 97.522M265.136 97.5186L304.136 108.519M304.4 108.7L331.4 144.7M266.282 98.5869L329.282 141.587M267.734 130.577L302.734 108.577M224.35 87.6424L269.35 131.642M214.7 134.6L262.7 98.5999M264.449 98.7796L290.449 151.78M248.519 195.864L266.519 131.864M185.386 100.682L213.386 134.682M187.582 139.726L221.582 87.7262M142.028 131.501L215.028 135.501M143.488 132.889L160.488 207.889M158.605 207.694L213.605 136.694M186.476 142.153L157.476 232.153M114.425 161.735L157.425 230.735M112.86 160.52L184.86 139.52M186.927 139.505L213.927 135.505M215.943 136.503L267.943 130.503M268.428 132.74L322.428 221.741M269.224 131.553L353.224 173.553M357.53 218.171L330.53 144.171M354.596 175.294L330.596 142.294M355.5 174.982L358.5 256.982M336.582 291.726L357.582 259.726M357.481 218.138L336.481 291.138M322.349 223.641L358.349 258.641M313.721 248.585L356.721 219.585M314.453 248.788L335.453 293.788M336.302 295.398L303.302 320.398M275.833 315.529L334.833 294.529M307.945 296.503L334.945 293.503M307.504 296.938L313.504 248.938M260.116 286.514L306.116 297.514M189.682 343.614L258.682 286.614M248.496 196.939L259.496 286.939M235.763 290.56L311.763 249.56M258.644 286.649L322.644 221.649M323.59 220.714L355.59 174.714M247.158 195.526L322.158 220.526M292.489 151.895L313.489 249.895M322.491 224.095L308.491 296.095M308.499 297.969L310.499 329.969M235.263 290.575L277.263 316.575M275.496 318.065L272.496 341.065M275.565 315.753L313.565 248.753M306.696 297.603L357.696 258.603M270.694 344.604L301.694 320.605M232.842 355.526L310.842 329.526M190.127 345.516L232.127 356.516M153.128 334.517L187.128 343.517M126.399 299.698L151.399 332.698M114.5 227.985L115.5 261.985M98.0709 225.505L112.071 227.505M120.481 150.136L99.4812 224.136M97.5 184.987L98.5 223.987M99.5002 224V268M98.4706 223.831L125.471 298.831M113.813 227.536L160.813 208.536M162.372 208.665L234.372 288.665M253.49 205.1L236.49 288.1M254.589 203.715L290.589 151.715M160.984 207.5L251.984 204.5M157.823 230.532L247.823 196.532M187.338 140.632L248.338 196.632M215.435 136.753L248.435 194.753M215.104 134.511L290.104 150.511M290.885 152.513L328.885 143.513M157.241 231.562L257.241 286.562M151.84 320.526L234.84 292.526M189.842 344.526L276.842 315.526M308.306 298.395L233.306 356.395M151.984 320.5L273.984 316.5M278.082 315.507L302.082 319.507M190.821 343.533L307.821 298.533M115.688 264.609L155.688 232.609M157.5 232.017L154.5 318.017M113.46 227.803L152.46 318.803M100.965 267.501L114.965 266.501M115.368 265.661L187.368 343.661M157.483 230.872L187.483 343.872" stroke="url(#paint0_radial_366_10876)"/>
<path d="M119 265.5C119 267.433 117.433 269 115.5 269C113.567 269 112 267.433 112 265.5C112 263.567 113.567 262 115.5 262C117.433 262 119 263.567 119 265.5Z" fill="url(#paint1_radial_366_10876)"/>
<path d="M104 268.5C104 270.433 102.433 272 100.5 272C98.567 272 97 270.433 97 268.5C97 266.567 98.567 265 100.5 265C102.433 265 104 266.567 104 268.5Z" fill="url(#paint2_radial_366_10876)"/>
<path d="M117 227.5C117 229.433 115.433 231 113.5 231C111.567 231 110 229.433 110 227.5C110 225.567 111.567 224 113.5 224C115.433 224 117 225.567 117 227.5Z" fill="url(#paint3_radial_366_10876)"/>
<path d="M102 224.5C102 226.433 100.433 228 98.5 228C96.567 228 95 226.433 95 224.5C95 222.567 96.567 221 98.5 221C100.433 221 102 222.567 102 224.5Z" fill="url(#paint4_radial_366_10876)"/>
<path d="M101 184.5C101 186.433 99.433 188 97.5 188C95.567 188 94 186.433 94 184.5C94 182.567 95.567 181 97.5 181C99.433 181 101 182.567 101 184.5Z" fill="url(#paint5_radial_366_10876)"/>
<path d="M117 160.5C117 162.433 115.433 164 113.5 164C111.567 164 110 162.433 110 160.5C110 158.567 111.567 157 113.5 157C115.433 157 117 158.567 117 160.5Z" fill="url(#paint6_radial_366_10876)"/>
<path d="M124 148.5C124 150.433 122.433 152 120.5 152C118.567 152 117 150.433 117 148.5C117 146.567 118.567 145 120.5 145C122.433 145 124 146.567 124 148.5Z" fill="url(#paint7_radial_366_10876)"/>
<path d="M147 131.5C147 133.433 145.433 135 143.5 135C141.567 135 140 133.433 140 131.5C140 129.567 141.567 128 143.5 128C145.433 128 147 129.567 147 131.5Z" fill="url(#paint8_radial_366_10876)"/>
<path d="M147 112.5C147 114.433 145.433 116 143.5 116C141.567 116 140 114.433 140 112.5C140 110.567 141.567 109 143.5 109C145.433 109 147 110.567 147 112.5Z" fill="url(#paint9_radial_366_10876)"/>
<path d="M188 99.5C188 101.433 186.433 103 184.5 103C182.567 103 181 101.433 181 99.5C181 97.567 182.567 96 184.5 96C186.433 96 188 97.567 188 99.5Z" fill="url(#paint10_radial_366_10876)"/>
<path d="M227 85.5C227 87.433 225.433 89 223.5 89C221.567 89 220 87.433 220 85.5C220 83.567 221.567 82 223.5 82C225.433 82 227 83.567 227 85.5Z" fill="url(#paint11_radial_366_10876)"/>
<path d="M268 97.5C268 99.433 266.433 101 264.5 101C262.567 101 261 99.433 261 97.5C261 95.567 262.567 94 264.5 94C266.433 94 268 95.567 268 97.5Z" fill="url(#paint12_radial_366_10876)"/>
<path d="M307 108.5C307 110.433 305.433 112 303.5 112C301.567 112 300 110.433 300 108.5C300 106.567 301.567 105 303.5 105C305.433 105 307 106.567 307 108.5Z" fill="url(#paint13_radial_366_10876)"/>
<path d="M271 131.5C271 133.433 269.433 135 267.5 135C265.567 135 264 133.433 264 131.5C264 129.567 265.567 128 267.5 128C269.433 128 271 129.567 271 131.5Z" fill="url(#paint14_radial_366_10876)"/>
<path d="M218 135.5C218 137.433 216.433 139 214.5 139C212.567 139 211 137.433 211 135.5C211 133.567 212.567 132 214.5 132C216.433 132 218 133.567 218 135.5Z" fill="url(#paint15_radial_366_10876)"/>
<path d="M190 140.5C190 142.433 188.433 144 186.5 144C184.567 144 183 142.433 183 140.5C183 138.567 184.567 137 186.5 137C188.433 137 190 138.567 190 140.5Z" fill="url(#paint16_radial_366_10876)"/>
<path d="M164 208.5C164 210.433 162.433 212 160.5 212C158.567 212 157 210.433 157 208.5C157 206.567 158.567 205 160.5 205C162.433 205 164 206.567 164 208.5Z" fill="url(#paint17_radial_366_10876)"/>
<path d="M161 231.5C161 233.433 159.433 235 157.5 235C155.567 235 154 233.433 154 231.5C154 229.567 155.567 228 157.5 228C159.433 228 161 229.567 161 231.5Z" fill="url(#paint18_radial_366_10876)"/>
<path d="M252 196.5C252 198.433 250.433 200 248.5 200C246.567 200 245 198.433 245 196.5C245 194.567 246.567 193 248.5 193C250.433 193 252 194.567 252 196.5Z" fill="url(#paint19_radial_366_10876)"/>
<path d="M257 204.5C257 206.433 255.433 208 253.5 208C251.567 208 250 206.433 250 204.5C250 202.567 251.567 201 253.5 201C255.433 201 257 202.567 257 204.5Z" fill="url(#paint20_radial_366_10876)"/>
<path d="M295 151.5C295 153.433 293.433 155 291.5 155C289.567 155 288 153.433 288 151.5C288 149.567 289.567 148 291.5 148C293.433 148 295 149.567 295 151.5Z" fill="url(#paint21_radial_366_10876)"/>
<path d="M334 142.5C334 144.433 332.433 146 330.5 146C328.567 146 327 144.433 327 142.5C327 140.567 328.567 139 330.5 139C332.433 139 334 140.567 334 142.5Z" fill="url(#paint22_radial_366_10876)"/>
<path d="M327 221.5C327 223.433 325.433 225 323.5 225C321.567 225 320 223.433 320 221.5C320 219.567 321.567 218 323.5 218C325.433 218 327 219.567 327 221.5Z" fill="url(#paint23_radial_366_10876)"/>
<path d="M361 218.5C361 220.433 359.433 222 357.5 222C355.567 222 354 220.433 354 218.5C354 216.567 355.567 215 357.5 215C359.433 215 361 216.567 361 218.5Z" fill="url(#paint24_radial_366_10876)"/>
<path d="M359 174.5C359 176.433 357.433 178 355.5 178C353.567 178 352 176.433 352 174.5C352 172.567 353.567 171 355.5 171C357.433 171 359 172.567 359 174.5Z" fill="url(#paint25_radial_366_10876)"/>
<path d="M361 258.5C361 260.433 359.433 262 357.5 262C355.567 262 354 260.433 354 258.5C354 256.567 355.567 255 357.5 255C359.433 255 361 256.567 361 258.5Z" fill="url(#paint26_radial_366_10876)"/>
<path d="M317 248.5C317 250.433 315.433 252 313.5 252C311.567 252 310 250.433 310 248.5C310 246.567 311.567 245 313.5 245C315.433 245 317 246.567 317 248.5Z" fill="url(#paint27_radial_366_10876)"/>
<path d="M339 293.5C339 295.433 337.433 297 335.5 297C333.567 297 332 295.433 332 293.5C332 291.567 333.567 290 335.5 290C337.433 290 339 291.567 339 293.5Z" fill="url(#paint28_radial_366_10876)"/>
<path d="M311 297.5C311 299.433 309.433 301 307.5 301C305.567 301 304 299.433 304 297.5C304 295.567 305.567 294 307.5 294C309.433 294 311 295.567 311 297.5Z" fill="url(#paint29_radial_366_10876)"/>
<path d="M315 329.5C315 331.433 313.433 333 311.5 333C309.567 333 308 331.433 308 329.5C308 327.567 309.567 326 311.5 326C313.433 326 315 327.567 315 329.5Z" fill="url(#paint30_radial_366_10876)"/>
<path d="M307 320.5C307 322.433 305.433 324 303.5 324C301.567 324 300 322.433 300 320.5C300 318.567 301.567 317 303.5 317C305.433 317 307 318.567 307 320.5Z" fill="url(#paint31_radial_366_10876)"/>
<path d="M280 316.5C280 318.433 278.433 320 276.5 320C274.567 320 273 318.433 273 316.5C273 314.567 274.567 313 276.5 313C278.433 313 280 314.567 280 316.5Z" fill="url(#paint32_radial_366_10876)"/>
<path d="M275 344.5C275 346.433 273.433 348 271.5 348C269.567 348 268 346.433 268 344.5C268 342.567 269.567 341 271.5 341C273.433 341 275 342.567 275 344.5Z" fill="url(#paint33_radial_366_10876)"/>
<path d="M262 287.5C262 289.433 260.433 291 258.5 291C256.567 291 255 289.433 255 287.5C255 285.567 256.567 284 258.5 284C260.433 284 262 285.567 262 287.5Z" fill="url(#paint34_radial_366_10876)"/>
<path d="M239 290.5C239 292.433 237.433 294 235.5 294C233.567 294 232 292.433 232 290.5C232 288.567 233.567 287 235.5 287C237.433 287 239 288.567 239 290.5Z" fill="url(#paint35_radial_366_10876)"/>
<path d="M236 356.5C236 358.433 234.433 360 232.5 360C230.567 360 229 358.433 229 356.5C229 354.567 230.567 353 232.5 353C234.433 353 236 354.567 236 356.5Z" fill="url(#paint36_radial_366_10876)"/>
<path d="M193 344.5C193 346.433 191.433 348 189.5 348C187.567 348 186 346.433 186 344.5C186 342.567 187.567 341 189.5 341C191.433 341 193 342.567 193 344.5Z" fill="url(#paint37_radial_366_10876)"/>
<path d="M156 334.5C156 336.433 154.433 338 152.5 338C150.567 338 149 336.433 149 334.5C149 332.567 150.567 331 152.5 331C154.433 331 156 332.567 156 334.5Z" fill="url(#paint38_radial_366_10876)"/>
<path d="M129 299.5C129 301.433 127.433 303 125.5 303C123.567 303 122 301.433 122 299.5C122 297.567 123.567 296 125.5 296C127.433 296 129 297.567 129 299.5Z" fill="url(#paint39_radial_366_10876)"/>
<path d="M113.451 128.165L151.451 103.165M154.446 102.168L187.446 80.1681M190.023 80.0004L234.023 81.0004M237.025 82.0005L277.025 83.0005M317.634 112.226L350.634 139.226M351.969 141.752L362.969 184.752M316.842 112.459L361.842 182.459M363.968 185.747L374.968 227.747M360.059 270.664L375.059 228.664M341.816 247.422L358.816 271.422M340.353 246.238L360.353 229.238M363.999 186.047L359.999 272.047M357.939 275.346L343.939 313.346M305.225 337.368L358.225 272.368M343.539 313.843L307.539 336.843M269.458 362.16L300.458 342.16M220.021 362L268.021 363M142.346 332.062L218.346 360.062M106.634 303.226L139.634 330.226M93.9772 258.786L102.977 299.786M80.959 217.715L91.959 254.715M81.0587 213.664L96.0587 171.664M111.932 132.363L97.9325 168.363M150.777 104.631L98.7766 168.631M96.9993 173.049L92.9993 255.049M94.2738 227.313L146.274 172.313M113.965 132.736L130.965 194.736M114.938 128.002L178.938 124.002M151 103.031L149 168.031M132.174 195.437L179.174 126.437M96.0962 272.573L130.096 200.573M93.8431 258.462L139.843 330.462M183.878 348.479L177.878 359.479M220.758 361.03L300.758 341.03M305.07 334.633L339.07 248.633M313.945 172.672L338.945 244.672M340.071 245.632L363.071 187.632M348.152 208.47L363.152 184.47M305.432 240.177L347.432 211.177M223.565 188.175L302.565 242.175M171.974 266.001L287.974 262.974M290.702 263.046L338.702 248.046M234.795 189.393L289.795 261.393M312.974 170.227L291.974 260.227M289.938 264.349L257.938 350.349M340.78 248.627L258.78 350.627M133.859 200.487L185.859 287.487M221.94 188.342L185.94 287.342M97.1611 273.013L183.161 287.013M170.942 268.338L151.942 321.338M94.8453 230.465L151.845 320.465M141.367 329.226L152.367 320.226M170.53 269.883L95.5299 229.883M82.6727 214.055L131.673 197.055M98.0439 170.001L144.044 172.001M133.888 198.007L221.888 188.007M150.207 172.022L221.207 187.022M170.218 267.378L232.218 189.378M169.024 268.216L148.024 173.216M148.383 170.213L213.383 119.213M153.749 102.032L234.749 81.0322M236.366 81.0693L315.366 112.069M316.998 114.071L312.998 170.071M294.946 143.002L349.946 140.002M348.001 207.956L351.001 139.956M349.563 210.173L374.563 227.173M348.999 211.05L343.999 311.05M305 245.032L302 338.032M295.997 145.914L303.997 238.914M314.267 171.036L361.267 184.036M296.779 144.373L350.779 211.373M280.979 85.7942L292.979 142.794M214.137 118.496L235.137 82.4963M214.931 119.003L314.931 112.003M180.172 124.015L295.172 144.015M212.747 119.967L151.747 103.967M180.017 123.821L188.017 79.8213M182.616 123.077L278.616 83.0771M180.832 126.445L220.833 186.445M221.511 185.128L294.511 144.128M309.527 170.881L214.527 119.881M223.124 187.008L231.124 188.008M214.97 120.754L231.97 187.754M233.812 187.018L311.812 172.018M186.655 286.062L303.655 243.062M185 287.983L186 344.983M186.422 288.093L300.422 341.093M185.983 344L298.983 342M153.613 320.209L184.613 344.209M154.286 321.042L258.286 352.042M169.687 268.273L258.687 352.273M98.6489 274.239L152.649 320.239M279.614 83.2108L315.614 111.211M142.634 331.226L175.634 358.226M179.048 359.001L221.048 361.001" stroke="url(#paint40_radial_366_10876)" stroke-width="2"/>
<path d="M157 103C157 105.761 154.761 108 152 108C149.239 108 147 105.761 147 103C147 100.239 149.239 98 152 98C154.761 98 157 100.239 157 103Z" fill="url(#paint41_radial_366_10876)"/>
<path d="M193 80C193 82.7614 190.761 85 188 85C185.239 85 183 82.7614 183 80C183 77.2386 185.239 75 188 75C190.761 75 193 77.2386 193 80Z" fill="url(#paint42_radial_366_10876)"/>
<path d="M185 125C185 127.761 182.761 130 180 130C177.239 130 175 127.761 175 125C175 122.239 177.239 120 180 120C182.761 120 185 122.239 185 125Z" fill="url(#paint43_radial_366_10876)"/>
<path d="M356 139C356 141.761 353.761 144 351 144C348.239 144 346 141.761 346 139C346 136.239 348.239 134 351 134C353.761 134 356 136.239 356 139Z" fill="url(#paint44_radial_366_10876)"/>
<path d="M300 144C300 146.761 297.761 149 295 149C292.239 149 290 146.761 290 144C290 141.239 292.239 139 295 139C297.761 139 300 141.239 300 144Z" fill="url(#paint45_radial_366_10876)"/>
<path d="M310 243C310 245.761 307.761 248 305 248C302.239 248 300 245.761 300 243C300 240.239 302.239 238 305 238C307.761 238 310 240.239 310 243Z" fill="url(#paint46_radial_366_10876)"/>
<path d="M354 210C354 212.761 351.761 215 349 215C346.239 215 344 212.761 344 210C344 207.239 346.239 205 349 205C351.761 205 354 207.239 354 210Z" fill="url(#paint47_radial_366_10876)"/>
<path d="M310 338C310 340.761 307.761 343 305 343C302.239 343 300 340.761 300 338C300 335.239 302.239 333 305 333C307.761 333 310 335.239 310 338Z" fill="url(#paint48_radial_366_10876)"/>
<path d="M296 264C296 266.761 293.761 269 291 269C288.239 269 286 266.761 286 264C286 261.239 288.239 259 291 259C293.761 259 296 261.239 296 264Z" fill="url(#paint49_radial_366_10876)"/>
<path d="M190 288C190 290.761 187.761 293 185 293C182.239 293 180 290.761 180 288C180 285.239 182.239 283 185 283C187.761 283 190 285.239 190 288Z" fill="url(#paint50_radial_366_10876)"/>
<path d="M101 274C101 276.761 98.7614 279 96 279C93.2386 279 91 276.761 91 274C91 271.239 93.2386 269 96 269C98.7614 269 101 271.239 101 274Z" fill="url(#paint51_radial_366_10876)"/>
<path d="M117 130C117 132.761 114.761 135 112 135C109.239 135 107 132.761 107 130C107 127.239 109.239 125 112 125C114.761 125 117 127.239 117 130Z" fill="url(#paint52_radial_366_10876)"/>
<path d="M152 172C152 174.761 149.761 177 147 177C144.239 177 142 174.761 142 172C142 169.239 144.239 167 147 167C149.761 167 152 169.239 152 172Z" fill="url(#paint53_radial_366_10876)"/>
<path d="M137 198C137 200.761 134.761 203 132 203C129.239 203 127 200.761 127 198C127 195.239 129.239 193 132 193C134.761 193 137 195.239 137 198Z" fill="url(#paint54_radial_366_10876)"/>
<path d="M239 81C239 83.2091 237.209 85 235 85C232.791 85 231 83.2091 231 81C231 78.7909 232.791 77 235 77C237.209 77 239 78.7909 239 81Z" fill="url(#paint55_radial_366_10876)"/>
<path d="M218 120C218 122.209 216.209 124 214 124C211.791 124 210 122.209 210 120C210 117.791 211.791 116 214 116C216.209 116 218 117.791 218 120Z" fill="url(#paint56_radial_366_10876)"/>
<path d="M320 112C320 114.209 318.209 116 316 116C313.791 116 312 114.209 312 112C312 109.791 313.791 108 316 108C318.209 108 320 109.791 320 112Z" fill="url(#paint57_radial_366_10876)"/>
<path d="M344 248C344 250.209 342.209 252 340 252C337.791 252 336 250.209 336 248C336 245.791 337.791 244 340 244C342.209 244 344 245.791 344 248Z" fill="url(#paint58_radial_366_10876)"/>
<path d="M366 228C366 230.209 364.209 232 362 232C359.791 232 358 230.209 358 228C358 225.791 359.791 224 362 224C364.209 224 366 225.791 366 228Z" fill="url(#paint59_radial_366_10876)"/>
<path d="M226 187C226 189.209 224.209 191 222 191C219.791 191 218 189.209 218 187C218 184.791 219.791 183 222 183C224.209 183 226 184.791 226 187Z" fill="url(#paint60_radial_366_10876)"/>
<path d="M101 171C101 173.209 99.2091 175 97 175C94.7909 175 93 173.209 93 171C93 168.791 94.7909 167 97 167C99.2091 167 101 168.791 101 171Z" fill="url(#paint61_radial_366_10876)"/>
<path d="M316 171C316 173.209 314.209 175 312 175C309.791 175 308 173.209 308 171C308 168.791 309.791 167 312 167C314.209 167 316 168.791 316 171Z" fill="url(#paint62_radial_366_10876)"/>
<path d="M97 229C97 231.209 95.2091 233 93 233C90.7909 233 89 231.209 89 229C89 226.791 90.7909 225 93 225C95.2091 225 97 226.791 97 229Z" fill="url(#paint63_radial_366_10876)"/>
<path d="M85 216C85 218.209 83.2091 220 81 220C78.7909 220 77 218.209 77 216C77 213.791 78.7909 212 81 212C83.2091 212 85 213.791 85 216Z" fill="url(#paint64_radial_366_10876)"/>
<path d="M175 268C175 270.209 173.209 272 171 272C168.791 272 167 270.209 167 268C167 265.791 168.791 264 171 264C173.209 264 175 265.791 175 268Z" fill="url(#paint65_radial_366_10876)"/>
<path d="M364 273C364 275.209 362.209 277 360 277C357.791 277 356 275.209 356 273C356 270.791 357.791 269 360 269C362.209 269 364 270.791 364 273Z" fill="url(#paint66_radial_366_10876)"/>
<path d="M348 313C348 315.209 346.209 317 344 317C341.791 317 340 315.209 340 313C340 310.791 341.791 309 344 309C346.209 309 348 310.791 348 313Z" fill="url(#paint67_radial_366_10876)"/>
<path d="M380 228C380 230.209 378.209 232 376 232C373.791 232 372 230.209 372 228C372 225.791 373.791 224 376 224C378.209 224 380 225.791 380 228Z" fill="url(#paint68_radial_366_10876)"/>
<path d="M272 363C272 365.209 270.209 367 268 367C265.791 367 264 365.209 264 363C264 360.791 265.791 359 268 359C270.209 359 272 360.791 272 363Z" fill="url(#paint69_radial_366_10876)"/>
<path d="M305 342C305 344.209 303.209 346 301 346C298.791 346 297 344.209 297 342C297 339.791 298.791 338 301 338C303.209 338 305 339.791 305 342Z" fill="url(#paint70_radial_366_10876)"/>
<path d="M262 352C262 354.209 260.209 356 258 356C255.791 356 254 354.209 254 352C254 349.791 255.791 348 258 348C260.209 348 262 349.791 262 352Z" fill="url(#paint71_radial_366_10876)"/>
<path d="M224 360C224 362.209 222.209 364 220 364C217.791 364 216 362.209 216 360C216 357.791 217.791 356 220 356C222.209 356 224 357.791 224 360Z" fill="url(#paint72_radial_366_10876)"/>
<path d="M156 321C156 323.209 154.209 325 152 325C149.791 325 148 323.209 148 321C148 318.791 149.791 317 152 317C154.209 317 156 318.791 156 321Z" fill="url(#paint73_radial_366_10876)"/>
<path d="M190 346C190 348.209 188.209 350 186 350C183.791 350 182 348.209 182 346C182 343.791 183.791 342 186 342C188.209 342 190 343.791 190 346Z" fill="url(#paint74_radial_366_10876)"/>
<path d="M145 331C145 333.209 143.209 335 141 335C138.791 335 137 333.209 137 331C137 328.791 138.791 327 141 327C143.209 327 145 328.791 145 331Z" fill="url(#paint75_radial_366_10876)"/>
<path d="M109 303C109 305.209 107.209 307 105 307C102.791 307 101 305.209 101 303C101 300.791 102.791 299 105 299C107.209 299 109 300.791 109 303Z" fill="url(#paint76_radial_366_10876)"/>
<path d="M367 184C367 186.209 365.209 188 363 188C360.791 188 359 186.209 359 184C359 181.791 360.791 180 363 180C365.209 180 367 181.791 367 184Z" fill="url(#paint77_radial_366_10876)"/>
<path d="M96 258C96 260.209 94.2091 262 92 262C89.7909 262 88 260.209 88 258C88 255.791 89.7909 254 92 254C94.2091 254 96 255.791 96 258Z" fill="url(#paint78_radial_366_10876)"/>
<path d="M237 189C237 191.209 235.209 193 233 193C230.791 193 229 191.209 229 189C229 186.791 230.791 185 233 185C235.209 185 237 186.791 237 189Z" fill="url(#paint79_radial_366_10876)"/>
<path d="M285 83C285 85.7614 282.761 88 280 88C277.239 88 275 85.7614 275 83C275 80.2386 277.239 78 280 78C282.761 78 285 80.2386 285 83Z" fill="url(#paint80_radial_366_10876)"/>
<path d="M180 359C180 361.209 178.209 363 176 363C173.791 363 172 361.209 172 359C172 356.791 173.791 355 176 355C178.209 355 180 356.791 180 359Z" fill="url(#paint81_radial_366_10876)"/>
<path fill-rule="evenodd" clip-rule="evenodd" d="M283.004 72.2088C275.777 72.4245 270.448 74.0176 264.436 77.7607C245.633 89.4666 230.499 115.221 222.544 169.38C221.803 174.42 219.353 203.787 216.049 231.837C212.746 259.886 211.795 287.797 210.937 292.581C202.423 340.075 192.435 361.287 178.172 362.169C176.584 362.267 176.244 361.947 172.217 356.56C168.189 351.172 167.792 350.799 165.246 349.995C160.337 348.446 154.896 349.712 151.998 353.078C149.697 355.751 149.488 357.71 151.174 360.81C153.641 365.347 159.357 368.094 168.355 369.067C174.88 369.773 179.148 369.318 184.905 367.302C204.308 360.507 220.365 336.869 228.673 292.594C229.48 288.292 231.372 281.371 231.682 279.819C231.993 278.268 236.659 252.214 240.193 222.36C247.516 160.491 245.261 144.637 250.108 124.556C254.886 104.76 261.268 90.0462 267.555 84.3359C270.41 81.7418 274.183 79.8655 277.068 79.6045C278.352 79.4881 279.442 79.4419 279.491 79.5012C279.538 79.5608 281.308 81.9355 283.423 84.7785C285.539 87.6214 287.887 90.3248 288.643 90.7863C292.021 92.8484 297.019 92.8725 301.126 90.847C306.928 87.9848 307.281 81.737 301.884 77.4518C298.04 74.3998 289.456 72.0158 283.004 72.2088Z" fill="url(#paint82_radial_366_10876)"/>
<defs>
<radialGradient id="paint0_radial_366_10876" cx="0" cy="0" r="1" gradientUnits="userSpaceOnUse" gradientTransform="translate(228 221.019) rotate(90) scale(135.497 130.5)">
<stop stop-color="#F8F2E4"/>
<stop offset="1" stop-color="#DBD1B7"/>
</radialGradient>
<radialGradient id="paint1_radial_366_10876" cx="0" cy="0" r="1" gradientUnits="userSpaceOnUse" gradientTransform="translate(227.5 221) rotate(90) scale(139 133.5)">
<stop stop-color="#F8F2E4"/>
<stop offset="1" stop-color="#DBD1B7"/>
</radialGradient>
<radialGradient id="paint2_radial_366_10876" cx="0" cy="0" r="1" gradientUnits="userSpaceOnUse" gradientTransform="translate(227.5 221) rotate(90) scale(139 133.5)">
<stop stop-color="#F8F2E4"/>
<stop offset="1" stop-color="#DBD1B7"/>
</radialGradient>
<radialGradient id="paint3_radial_366_10876" cx="0" cy="0" r="1" gradientUnits="userSpaceOnUse" gradientTransform="translate(227.5 221) rotate(90) scale(139 133.5)">
<stop stop-color="#F8F2E4"/>
<stop offset="1" stop-color="#DBD1B7"/>
</radialGradient>
<radialGradient id="paint4_radial_366_10876" cx="0" cy="0" r="1" gradientUnits="userSpaceOnUse" gradientTransform="translate(227.5 221) rotate(90) scale(139 133.5)">
<stop stop-color="#F8F2E4"/>
<stop offset="1" stop-color="#DBD1B7"/>
</radialGradient>
<radialGradient id="paint5_radial_366_10876" cx="0" cy="0" r="1" gradientUnits="userSpaceOnUse" gradientTransform="translate(227.5 221) rotate(90) scale(139 133.5)">
<stop stop-color="#F8F2E4"/>
<stop offset="1" stop-color="#DBD1B7"/>
</radialGradient>
<radialGradient id="paint6_radial_366_10876" cx="0" cy="0" r="1" gradientUnits="userSpaceOnUse" gradientTransform="translate(227.5 221) rotate(90) scale(139 133.5)">
<stop stop-color="#F8F2E4"/>
<stop offset="1" stop-color="#DBD1B7"/>
</radialGradient>
<radialGradient id="paint7_radial_366_10876" cx="0" cy="0" r="1" gradientUnits="userSpaceOnUse" gradientTransform="translate(227.5 221) rotate(90) scale(139 133.5)">
<stop stop-color="#F8F2E4"/>
<stop offset="1" stop-color="#DBD1B7"/>
</radialGradient>
<radialGradient id="paint8_radial_366_10876" cx="0" cy="0" r="1" gradientUnits="userSpaceOnUse" gradientTransform="translate(227.5 221) rotate(90) scale(139 133.5)">
<stop stop-color="#F8F2E4"/>
<stop offset="1" stop-color="#DBD1B7"/>
</radialGradient>
<radialGradient id="paint9_radial_366_10876" cx="0" cy="0" r="1" gradientUnits="userSpaceOnUse" gradientTransform="translate(227.5 221) rotate(90) scale(139 133.5)">
<stop stop-color="#F8F2E4"/>
<stop offset="1" stop-color="#DBD1B7"/>
</radialGradient>
<radialGradient id="paint10_radial_366_10876" cx="0" cy="0" r="1" gradientUnits="userSpaceOnUse" gradientTransform="translate(227.5 221) rotate(90) scale(139 133.5)">
<stop stop-color="#F8F2E4"/>
<stop offset="1" stop-color="#DBD1B7"/>
</radialGradient>
<radialGradient id="paint11_radial_366_10876" cx="0" cy="0" r="1" gradientUnits="userSpaceOnUse" gradientTransform="translate(227.5 221) rotate(90) scale(139 133.5)">
<stop stop-color="#F8F2E4"/>
<stop offset="1" stop-color="#DBD1B7"/>
</radialGradient>
<radialGradient id="paint12_radial_366_10876" cx="0" cy="0" r="1" gradientUnits="userSpaceOnUse" gradientTransform="translate(227.5 221) rotate(90) scale(139 133.5)">
<stop stop-color="#F8F2E4"/>
<stop offset="1" stop-color="#DBD1B7"/>
</radialGradient>
<radialGradient id="paint13_radial_366_10876" cx="0" cy="0" r="1" gradientUnits="userSpaceOnUse" gradientTransform="translate(227.5 221) rotate(90) scale(139 133.5)">
<stop stop-color="#F8F2E4"/>
<stop offset="1" stop-color="#DBD1B7"/>
</radialGradient>
<radialGradient id="paint14_radial_366_10876" cx="0" cy="0" r="1" gradientUnits="userSpaceOnUse" gradientTransform="translate(227.5 221) rotate(90) scale(139 133.5)">
<stop stop-color="#F8F2E4"/>
<stop offset="1" stop-color="#DBD1B7"/>
</radialGradient>
<radialGradient id="paint15_radial_366_10876" cx="0" cy="0" r="1" gradientUnits="userSpaceOnUse" gradientTransform="translate(227.5 221) rotate(90) scale(139 133.5)">
<stop stop-color="#F8F2E4"/>
<stop offset="1" stop-color="#DBD1B7"/>
</radialGradient>
<radialGradient id="paint16_radial_366_10876" cx="0" cy="0" r="1" gradientUnits="userSpaceOnUse" gradientTransform="translate(227.5 221) rotate(90) scale(139 133.5)">
<stop stop-color="#F8F2E4"/>
<stop offset="1" stop-color="#DBD1B7"/>
</radialGradient>
<radialGradient id="paint17_radial_366_10876" cx="0" cy="0" r="1" gradientUnits="userSpaceOnUse" gradientTransform="translate(227.5 221) rotate(90) scale(139 133.5)">
<stop stop-color="#F8F2E4"/>
<stop offset="1" stop-color="#DBD1B7"/>
</radialGradient>
<radialGradient id="paint18_radial_366_10876" cx="0" cy="0" r="1" gradientUnits="userSpaceOnUse" gradientTransform="translate(227.5 221) rotate(90) scale(139 133.5)">
<stop stop-color="#F8F2E4"/>
<stop offset="1" stop-color="#DBD1B7"/>
</radialGradient>
<radialGradient id="paint19_radial_366_10876" cx="0" cy="0" r="1" gradientUnits="userSpaceOnUse" gradientTransform="translate(227.5 221) rotate(90) scale(139 133.5)">
<stop stop-color="#F8F2E4"/>
<stop offset="1" stop-color="#DBD1B7"/>
</radialGradient>
<radialGradient id="paint20_radial_366_10876" cx="0" cy="0" r="1" gradientUnits="userSpaceOnUse" gradientTransform="translate(227.5 221) rotate(90) scale(139 133.5)">
<stop stop-color="#F8F2E4"/>
<stop offset="1" stop-color="#DBD1B7"/>
</radialGradient>
<radialGradient id="paint21_radial_366_10876" cx="0" cy="0" r="1" gradientUnits="userSpaceOnUse" gradientTransform="translate(227.5 221) rotate(90) scale(139 133.5)">
<stop stop-color="#F8F2E4"/>
<stop offset="1" stop-color="#DBD1B7"/>
</radialGradient>
<radialGradient id="paint22_radial_366_10876" cx="0" cy="0" r="1" gradientUnits="userSpaceOnUse" gradientTransform="translate(227.5 221) rotate(90) scale(139 133.5)">
<stop stop-color="#F8F2E4"/>
<stop offset="1" stop-color="#DBD1B7"/>
</radialGradient>
<radialGradient id="paint23_radial_366_10876" cx="0" cy="0" r="1" gradientUnits="userSpaceOnUse" gradientTransform="translate(227.5 221) rotate(90) scale(139 133.5)">
<stop stop-color="#F8F2E4"/>
<stop offset="1" stop-color="#DBD1B7"/>
</radialGradient>
<radialGradient id="paint24_radial_366_10876" cx="0" cy="0" r="1" gradientUnits="userSpaceOnUse" gradientTransform="translate(227.5 221) rotate(90) scale(139 133.5)">
<stop stop-color="#F8F2E4"/>
<stop offset="1" stop-color="#DBD1B7"/>
</radialGradient>
<radialGradient id="paint25_radial_366_10876" cx="0" cy="0" r="1" gradientUnits="userSpaceOnUse" gradientTransform="translate(227.5 221) rotate(90) scale(139 133.5)">
<stop stop-color="#F8F2E4"/>
<stop offset="1" stop-color="#DBD1B7"/>
</radialGradient>
<radialGradient id="paint26_radial_366_10876" cx="0" cy="0" r="1" gradientUnits="userSpaceOnUse" gradientTransform="translate(227.5 221) rotate(90) scale(139 133.5)">
<stop stop-color="#F8F2E4"/>
<stop offset="1" stop-color="#DBD1B7"/>
</radialGradient>
<radialGradient id="paint27_radial_366_10876" cx="0" cy="0" r="1" gradientUnits="userSpaceOnUse" gradientTransform="translate(227.5 221) rotate(90) scale(139 133.5)">
<stop stop-color="#F8F2E4"/>
<stop offset="1" stop-color="#DBD1B7"/>
</radialGradient>
<radialGradient id="paint28_radial_366_10876" cx="0" cy="0" r="1" gradientUnits="userSpaceOnUse" gradientTransform="translate(227.5 221) rotate(90) scale(139 133.5)">
<stop stop-color="#F8F2E4"/>
<stop offset="1" stop-color="#DBD1B7"/>
</radialGradient>
<radialGradient id="paint29_radial_366_10876" cx="0" cy="0" r="1" gradientUnits="userSpaceOnUse" gradientTransform="translate(227.5 221) rotate(90) scale(139 133.5)">
<stop stop-color="#F8F2E4"/>
<stop offset="1" stop-color="#DBD1B7"/>
</radialGradient>
<radialGradient id="paint30_radial_366_10876" cx="0" cy="0" r="1" gradientUnits="userSpaceOnUse" gradientTransform="translate(227.5 221) rotate(90) scale(139 133.5)">
<stop stop-color="#F8F2E4"/>
<stop offset="1" stop-color="#DBD1B7"/>
</radialGradient>
<radialGradient id="paint31_radial_366_10876" cx="0" cy="0" r="1" gradientUnits="userSpaceOnUse" gradientTransform="translate(227.5 221) rotate(90) scale(139 133.5)">
<stop stop-color="#F8F2E4"/>
<stop offset="1" stop-color="#DBD1B7"/>
</radialGradient>
<radialGradient id="paint32_radial_366_10876" cx="0" cy="0" r="1" gradientUnits="userSpaceOnUse" gradientTransform="translate(227.5 221) rotate(90) scale(139 133.5)">
<stop stop-color="#F8F2E4"/>
<stop offset="1" stop-color="#DBD1B7"/>
</radialGradient>
<radialGradient id="paint33_radial_366_10876" cx="0" cy="0" r="1" gradientUnits="userSpaceOnUse" gradientTransform="translate(227.5 221) rotate(90) scale(139 133.5)">
<stop stop-color="#F8F2E4"/>
<stop offset="1" stop-color="#DBD1B7"/>
</radialGradient>
<radialGradient id="paint34_radial_366_10876" cx="0" cy="0" r="1" gradientUnits="userSpaceOnUse" gradientTransform="translate(227.5 221) rotate(90) scale(139 133.5)">
<stop stop-color="#F8F2E4"/>
<stop offset="1" stop-color="#DBD1B7"/>
</radialGradient>
<radialGradient id="paint35_radial_366_10876" cx="0" cy="0" r="1" gradientUnits="userSpaceOnUse" gradientTransform="translate(227.5 221) rotate(90) scale(139 133.5)">
<stop stop-color="#F8F2E4"/>
<stop offset="1" stop-color="#DBD1B7"/>
</radialGradient>
<radialGradient id="paint36_radial_366_10876" cx="0" cy="0" r="1" gradientUnits="userSpaceOnUse" gradientTransform="translate(227.5 221) rotate(90) scale(139 133.5)">
<stop stop-color="#F8F2E4"/>
<stop offset="1" stop-color="#DBD1B7"/>
</radialGradient>
<radialGradient id="paint37_radial_366_10876" cx="0" cy="0" r="1" gradientUnits="userSpaceOnUse" gradientTransform="translate(227.5 221) rotate(90) scale(139 133.5)">
<stop stop-color="#F8F2E4"/>
<stop offset="1" stop-color="#DBD1B7"/>
</radialGradient>
<radialGradient id="paint38_radial_366_10876" cx="0" cy="0" r="1" gradientUnits="userSpaceOnUse" gradientTransform="translate(227.5 221) rotate(90) scale(139 133.5)">
<stop stop-color="#F8F2E4"/>
<stop offset="1" stop-color="#DBD1B7"/>
</radialGradient>
<radialGradient id="paint39_radial_366_10876" cx="0" cy="0" r="1" gradientUnits="userSpaceOnUse" gradientTransform="translate(227.5 221) rotate(90) scale(139 133.5)">
<stop stop-color="#F8F2E4"/>
<stop offset="1" stop-color="#DBD1B7"/>
</radialGradient>
<radialGradient id="paint40_radial_366_10876" cx="0" cy="0" r="1" gradientUnits="userSpaceOnUse" gradientTransform="translate(261.5 147.5) rotate(116.618) scale(241.048 250.344)">
<stop stop-color="#E9D5A4"/>
<stop offset="1" stop-color="#D7AB58"/>
</radialGradient>
<radialGradient id="paint41_radial_366_10876" cx="0" cy="0" r="1" gradientUnits="userSpaceOnUse" gradientTransform="translate(280 178) rotate(121.097) scale(220.719 229.034)">
<stop stop-color="#E3D09D"/>
<stop offset="1" stop-color="#D9B060"/>
</radialGradient>
<radialGradient id="paint42_radial_366_10876" cx="0" cy="0" r="1" gradientUnits="userSpaceOnUse" gradientTransform="translate(280 178) rotate(121.097) scale(220.719 229.034)">
<stop stop-color="#E3D09D"/>
<stop offset="1" stop-color="#D9B060"/>
</radialGradient>
<radialGradient id="paint43_radial_366_10876" cx="0" cy="0" r="1" gradientUnits="userSpaceOnUse" gradientTransform="translate(280 178) rotate(121.097) scale(220.719 229.034)">
<stop stop-color="#E3D09D"/>
<stop offset="1" stop-color="#D9B060"/>
</radialGradient>
<radialGradient id="paint44_radial_366_10876" cx="0" cy="0" r="1" gradientUnits="userSpaceOnUse" gradientTransform="translate(280 178) rotate(121.097) scale(220.719 229.034)">
<stop stop-color="#E3D09D"/>
<stop offset="1" stop-color="#D9B060"/>
</radialGradient>
<radialGradient id="paint45_radial_366_10876" cx="0" cy="0" r="1" gradientUnits="userSpaceOnUse" gradientTransform="translate(280 178) rotate(121.097) scale(220.719 229.034)">
<stop stop-color="#E3D09D"/>
<stop offset="1" stop-color="#D9B060"/>
</radialGradient>
<radialGradient id="paint46_radial_366_10876" cx="0" cy="0" r="1" gradientUnits="userSpaceOnUse" gradientTransform="translate(280 178) rotate(121.097) scale(220.719 229.034)">
<stop stop-color="#E3D09D"/>
<stop offset="1" stop-color="#D9B060"/>
</radialGradient>
<radialGradient id="paint47_radial_366_10876" cx="0" cy="0" r="1" gradientUnits="userSpaceOnUse" gradientTransform="translate(280 178) rotate(121.097) scale(220.719 229.034)">
<stop stop-color="#E3D09D"/>
<stop offset="1" stop-color="#D9B060"/>
</radialGradient>
<radialGradient id="paint48_radial_366_10876" cx="0" cy="0" r="1" gradientUnits="userSpaceOnUse" gradientTransform="translate(280 178) rotate(121.097) scale(220.719 229.034)">
<stop stop-color="#E3D09D"/>
<stop offset="1" stop-color="#D9B060"/>
</radialGradient>
<radialGradient id="paint49_radial_366_10876" cx="0" cy="0" r="1" gradientUnits="userSpaceOnUse" gradientTransform="translate(280 178) rotate(121.097) scale(220.719 229.034)">
<stop stop-color="#E3D09D"/>
<stop offset="1" stop-color="#D9B060"/>
</radialGradient>
<radialGradient id="paint50_radial_366_10876" cx="0" cy="0" r="1" gradientUnits="userSpaceOnUse" gradientTransform="translate(280 178) rotate(121.097) scale(220.719 229.034)">
<stop stop-color="#E3D09D"/>
<stop offset="1" stop-color="#D9B060"/>
</radialGradient>
<radialGradient id="paint51_radial_366_10876" cx="0" cy="0" r="1" gradientUnits="userSpaceOnUse" gradientTransform="translate(280 178) rotate(121.097) scale(220.719 229.034)">
<stop stop-color="#E3D09D"/>
<stop offset="1" stop-color="#D9B060"/>
</radialGradient>
<radialGradient id="paint52_radial_366_10876" cx="0" cy="0" r="1" gradientUnits="userSpaceOnUse" gradientTransform="translate(280 178) rotate(121.097) scale(220.719 229.034)">
<stop stop-color="#E3D09D"/>
<stop offset="1" stop-color="#D9B060"/>
</radialGradient>
<radialGradient id="paint53_radial_366_10876" cx="0" cy="0" r="1" gradientUnits="userSpaceOnUse" gradientTransform="translate(280 178) rotate(121.097) scale(220.719 229.034)">
<stop stop-color="#E3D09D"/>
<stop offset="1" stop-color="#D9B060"/>
</radialGradient>
<radialGradient id="paint54_radial_366_10876" cx="0" cy="0" r="1" gradientUnits="userSpaceOnUse" gradientTransform="translate(280 178) rotate(121.097) scale(220.719 229.034)">
<stop stop-color="#E3D09D"/>
<stop offset="1" stop-color="#D9B060"/>
</radialGradient>
<radialGradient id="paint55_radial_366_10876" cx="0" cy="0" r="1" gradientUnits="userSpaceOnUse" gradientTransform="translate(280 178) rotate(121.097) scale(220.719 229.034)">
<stop stop-color="#E3D09D"/>
<stop offset="1" stop-color="#D9B060"/>
</radialGradient>
<radialGradient id="paint56_radial_366_10876" cx="0" cy="0" r="1" gradientUnits="userSpaceOnUse" gradientTransform="translate(280 178) rotate(121.097) scale(220.719 229.034)">
<stop stop-color="#E3D09D"/>
<stop offset="1" stop-color="#D9B060"/>
</radialGradient>
<radialGradient id="paint57_radial_366_10876" cx="0" cy="0" r="1" gradientUnits="userSpaceOnUse" gradientTransform="translate(280 178) rotate(121.097) scale(220.719 229.034)">
<stop stop-color="#E3D09D"/>
<stop offset="1" stop-color="#D9B060"/>
</radialGradient>
<radialGradient id="paint58_radial_366_10876" cx="0" cy="0" r="1" gradientUnits="userSpaceOnUse" gradientTransform="translate(280 178) rotate(121.097) scale(220.719 229.034)">
<stop stop-color="#E3D09D"/>
<stop offset="1" stop-color="#D9B060"/>
</radialGradient>
<radialGradient id="paint59_radial_366_10876" cx="0" cy="0" r="1" gradientUnits="userSpaceOnUse" gradientTransform="translate(280 178) rotate(121.097) scale(220.719 229.034)">
<stop stop-color="#E3D09D"/>
<stop offset="1" stop-color="#D9B060"/>
</radialGradient>
<radialGradient id="paint60_radial_366_10876" cx="0" cy="0" r="1" gradientUnits="userSpaceOnUse" gradientTransform="translate(280 178) rotate(121.097) scale(220.719 229.034)">
<stop stop-color="#E3D09D"/>
<stop offset="1" stop-color="#D9B060"/>
</radialGradient>
<radialGradient id="paint61_radial_366_10876" cx="0" cy="0" r="1" gradientUnits="userSpaceOnUse" gradientTransform="translate(280 178) rotate(121.097) scale(220.719 229.034)">
<stop stop-color="#E3D09D"/>
<stop offset="1" stop-color="#D9B060"/>
</radialGradient>
<radialGradient id="paint62_radial_366_10876" cx="0" cy="0" r="1" gradientUnits="userSpaceOnUse" gradientTransform="translate(280 178) rotate(121.097) scale(220.719 229.034)">
<stop stop-color="#E3D09D"/>
<stop offset="1" stop-color="#D9B060"/>
</radialGradient>
<radialGradient id="paint63_radial_366_10876" cx="0" cy="0" r="1" gradientUnits="userSpaceOnUse" gradientTransform="translate(280 178) rotate(121.097) scale(220.719 229.034)">
<stop stop-color="#E3D09D"/>
<stop offset="1" stop-color="#D9B060"/>
</radialGradient>
<radialGradient id="paint64_radial_366_10876" cx="0" cy="0" r="1" gradientUnits="userSpaceOnUse" gradientTransform="translate(280 178) rotate(121.097) scale(220.719 229.034)">
<stop stop-color="#E3D09D"/>
<stop offset="1" stop-color="#D9B060"/>
</radialGradient>
<radialGradient id="paint65_radial_366_10876" cx="0" cy="0" r="1" gradientUnits="userSpaceOnUse" gradientTransform="translate(280 178) rotate(121.097) scale(220.719 229.034)">
<stop stop-color="#E3D09D"/>
<stop offset="1" stop-color="#D9B060"/>
</radialGradient>
<radialGradient id="paint66_radial_366_10876" cx="0" cy="0" r="1" gradientUnits="userSpaceOnUse" gradientTransform="translate(280 178) rotate(121.097) scale(220.719 229.034)">
<stop stop-color="#E3D09D"/>
<stop offset="1" stop-color="#D9B060"/>
</radialGradient>
<radialGradient id="paint67_radial_366_10876" cx="0" cy="0" r="1" gradientUnits="userSpaceOnUse" gradientTransform="translate(280 178) rotate(121.097) scale(220.719 229.034)">
<stop stop-color="#E3D09D"/>
<stop offset="1" stop-color="#D9B060"/>
</radialGradient>
<radialGradient id="paint68_radial_366_10876" cx="0" cy="0" r="1" gradientUnits="userSpaceOnUse" gradientTransform="translate(280 178) rotate(121.097) scale(220.719 229.034)">
<stop stop-color="#E3D09D"/>
<stop offset="1" stop-color="#D9B060"/>
</radialGradient>
<radialGradient id="paint69_radial_366_10876" cx="0" cy="0" r="1" gradientUnits="userSpaceOnUse" gradientTransform="translate(280 178) rotate(121.097) scale(220.719 229.034)">
<stop stop-color="#E3D09D"/>
<stop offset="1" stop-color="#D9B060"/>
</radialGradient>
<radialGradient id="paint70_radial_366_10876" cx="0" cy="0" r="1" gradientUnits="userSpaceOnUse" gradientTransform="translate(280 178) rotate(121.097) scale(220.719 229.034)">
<stop stop-color="#E3D09D"/>
<stop offset="1" stop-color="#D9B060"/>
</radialGradient>
<radialGradient id="paint71_radial_366_10876" cx="0" cy="0" r="1" gradientUnits="userSpaceOnUse" gradientTransform="translate(280 178) rotate(121.097) scale(220.719 229.034)">
<stop stop-color="#E3D09D"/>
<stop offset="1" stop-color="#D9B060"/>
</radialGradient>
<radialGradient id="paint72_radial_366_10876" cx="0" cy="0" r="1" gradientUnits="userSpaceOnUse" gradientTransform="translate(280 178) rotate(121.097) scale(220.719 229.034)">
<stop stop-color="#E3D09D"/>
<stop offset="1" stop-color="#D9B060"/>
</radialGradient>
<radialGradient id="paint73_radial_366_10876" cx="0" cy="0" r="1" gradientUnits="userSpaceOnUse" gradientTransform="translate(280 178) rotate(121.097) scale(220.719 229.034)">
<stop stop-color="#E3D09D"/>
<stop offset="1" stop-color="#D9B060"/>
</radialGradient>
<radialGradient id="paint74_radial_366_10876" cx="0" cy="0" r="1" gradientUnits="userSpaceOnUse" gradientTransform="translate(280 178) rotate(121.097) scale(220.719 229.034)">
<stop stop-color="#E3D09D"/>
<stop offset="1" stop-color="#D9B060"/>
</radialGradient>
<radialGradient id="paint75_radial_366_10876" cx="0" cy="0" r="1" gradientUnits="userSpaceOnUse" gradientTransform="translate(280 178) rotate(121.097) scale(220.719 229.034)">
<stop stop-color="#E3D09D"/>
<stop offset="1" stop-color="#D9B060"/>
</radialGradient>
<radialGradient id="paint76_radial_366_10876" cx="0" cy="0" r="1" gradientUnits="userSpaceOnUse" gradientTransform="translate(280 178) rotate(121.097) scale(220.719 229.034)">
<stop stop-color="#E3D09D"/>
<stop offset="1" stop-color="#D9B060"/>
</radialGradient>
<radialGradient id="paint77_radial_366_10876" cx="0" cy="0" r="1" gradientUnits="userSpaceOnUse" gradientTransform="translate(280 178) rotate(121.097) scale(220.719 229.034)">
<stop stop-color="#E3D09D"/>
<stop offset="1" stop-color="#D9B060"/>
</radialGradient>
<radialGradient id="paint78_radial_366_10876" cx="0" cy="0" r="1" gradientUnits="userSpaceOnUse" gradientTransform="translate(280 178) rotate(121.097) scale(220.719 229.034)">
<stop stop-color="#E3D09D"/>
<stop offset="1" stop-color="#D9B060"/>
</radialGradient>
<radialGradient id="paint79_radial_366_10876" cx="0" cy="0" r="1" gradientUnits="userSpaceOnUse" gradientTransform="translate(280 178) rotate(121.097) scale(220.719 229.034)">
<stop stop-color="#E3D09D"/>
<stop offset="1" stop-color="#D9B060"/>
</radialGradient>
<radialGradient id="paint80_radial_366_10876" cx="0" cy="0" r="1" gradientUnits="userSpaceOnUse" gradientTransform="translate(280 178) rotate(121.097) scale(220.719 229.034)">
<stop stop-color="#E3D09D"/>
<stop offset="1" stop-color="#D9B060"/>
</radialGradient>
<radialGradient id="paint81_radial_366_10876" cx="0" cy="0" r="1" gradientUnits="userSpaceOnUse" gradientTransform="translate(280 178) rotate(121.097) scale(220.719 229.034)">
<stop stop-color="#E3D09D"/>
<stop offset="1" stop-color="#D9B060"/>
</radialGradient>
<radialGradient id="paint82_radial_366_10876" cx="0" cy="0" r="1" gradientUnits="userSpaceOnUse" gradientTransform="translate(263.5 158.5) rotate(122.214) scale(290.759 118.951)">
<stop stop-color="#F5E9C9"/>
<stop offset="1" stop-color="#B48716"/>
</radialGradient>
</defs>
</svg>
