<svg width="1200" height="630" xmlns="http://www.w3.org/2000/svg">
  <rect width="1200" height="630" fill="#ffffff"/>

  <!-- Brain network logo - centered and larger -->
  <g transform="translate(500, 140) scale(2)">
    <circle cx="50" cy="20" r="6" fill="#333"/>
    <circle cx="25" cy="40" r="6" fill="#333"/>
    <circle cx="75" cy="40" r="6" fill="#333"/>
    <circle cx="15" cy="65" r="6" fill="#333"/>
    <circle cx="50" cy="55" r="6" fill="#333"/>
    <circle cx="85" cy="65" r="6" fill="#333"/>
    <circle cx="35" cy="80" r="6" fill="#333"/>
    <circle cx="65" cy="80" r="6" fill="#333"/>
    <line x1="50" y1="20" x2="25" y2="40" stroke="#333" stroke-width="1.5"/>
    <line x1="50" y1="20" x2="75" y2="40" stroke="#333" stroke-width="1.5"/>
    <line x1="25" y1="40" x2="15" y2="65" stroke="#333" stroke-width="1.5"/>
    <line x1="25" y1="40" x2="50" y2="55" stroke="#333" stroke-width="1.5"/>
    <line x1="75" y1="40" x2="50" y2="55" stroke="#333" stroke-width="1.5"/>
    <line x1="75" y1="40" x2="85" y2="65" stroke="#333" stroke-width="1.5"/>
    <line x1="15" y1="65" x2="35" y2="80" stroke="#333" stroke-width="1.5"/>
    <line x1="50" y1="55" x2="35" y2="80" stroke="#333" stroke-width="1.5"/>
    <line x1="50" y1="55" x2="65" y2="80" stroke="#333" stroke-width="1.5"/>
    <line x1="85" y1="65" x2="65" y2="80" stroke="#333" stroke-width="1.5"/>
  </g>

  <!-- Text -->
  <text x="600" y="420" font-family="Georgia, serif" font-size="72" fill="#1a1a1a" text-anchor="middle">Manifold Conference</text>
  <text x="600" y="480" font-family="Georgia, serif" font-size="28" fill="#666666" text-anchor="middle" font-style="italic">many and various</text>
  <text x="600" y="540" font-family="Helvetica, Arial, sans-serif" font-size="18" fill="#999999" text-anchor="middle" letter-spacing="2">TWIN PEAKS, SAN FRANCISCO</text>
</svg>
